<svg width="162" height="94" viewBox="0 0 162 94" fill="none" xmlns="http://www.w3.org/2000/svg">
<g id="Group">
<path id="Shape" fill-rule="evenodd" clip-rule="evenodd" d="M116.439 35.0224C115.284 36.2175 114.137 37.4246 112.918 38.5516C112.079 39.3267 111.181 40.0745 110.202 40.6496C109.299 41.1793 108.282 41.6064 107.261 41.8201C106.1 42.063 107.664 57.3828 99.2453 62.9202C96.308 64.8523 84.814 64.0063 83.0707 62.5364C82.7623 62.2764 83.6129 59.1236 83.5374 57.8534C83.5082 57.363 83.2941 56.8614 83.0707 56.4113C82.8756 56.0182 82.4953 55.9587 82.0632 56.121C80.9848 56.5261 79.8825 56.8702 78.8169 57.3053C78.4126 57.4704 78.0954 57.8378 77.716 58.0775C76.9683 58.55 76.2162 59.0184 75.4395 59.4399C75.263 59.5357 74.979 59.4335 74.7445 59.4224C74.8642 59.2493 74.9488 58.434 73.7965 59.0381C71.5634 60.2089 69.9047 61.996 68.472 64.0062C67.5632 65.2815 66.7545 66.6284 65.9132 67.951C65.869 68.0204 64.2732 70.3793 63.3765 70.1852C62.8059 70.0617 63.0313 67.1398 62.4648 67.6313C60.2826 69.5245 55.7763 71.1327 55.4427 70.9617C54.8734 70.6698 54.8225 69.9002 55.1049 69.3713C55.6971 68.2622 56.2964 67.1143 57.1172 66.1794C58.4921 64.6136 59.9988 63.1546 61.5295 61.7365C63.7818 59.6499 66.0667 57.5947 68.4141 55.6167C69.3892 54.7951 70.5573 54.2007 71.6496 53.5222C71.7646 53.4508 71.9609 53.5102 72.1194 53.5089C72.0839 53.6126 72.0281 53.7647 71.9519 53.9654C72.8098 54.0609 72.9918 53.6911 72.4978 52.8559C72.1176 52.2129 71.7284 51.5706 71.8521 50.8115C72.0008 49.8998 72.8779 49.215 73.8887 49.1913C74.4086 49.1791 74.9306 49.3187 75.4539 49.3629C75.6884 49.3827 75.99 49.4243 76.1564 49.3071C77.8008 48.1494 79.3652 46.8679 81.0664 45.8038C83.1668 44.49 85.323 43.2393 87.5564 42.1735C89.0222 41.474 90.6648 41.1421 92.234 40.6644C92.5482 40.5688 92.9013 40.5976 93.2117 40.4946C93.4218 40.4248 93.6798 40.2633 93.759 40.0762C94.1308 39.1978 94.8116 38.7219 95.6689 38.4021C95.8993 38.3162 96.1614 38.1036 96.2507 37.8845C96.8762 36.3499 97.4658 34.8004 98.0393 33.2455C98.0651 33.1755 97.8042 32.8878 97.7117 32.9037C96.9047 33.0426 96.2154 32.979 95.8429 32.1052C95.8126 32.0341 95.6377 32.0149 95.5259 31.9898C94.0655 31.6617 93.4851 29.9922 94.4052 28.8184C94.5093 28.6856 94.5464 28.3483 94.4551 28.2387C93.7879 27.4376 93.7405 26.4651 93.9198 25.5688C94.0388 24.9744 94.5753 24.4396 94.9961 23.938C95.2705 23.6109 95.3862 23.424 95.1446 22.9788C94.8484 22.4331 94.4748 21.9175 94.587 21.1517C94.813 19.6101 95.1013 19.3242 96.7839 18.855C97.2448 18.7264 97.4023 18.5666 97.4734 18.1032C97.821 15.8381 98.3515 14.9962 100.657 14.3485C101.438 14.1292 102.179 14.1785 102.942 14.4891C103.182 14.5868 103.603 14.4577 103.846 14.2925C104.8 13.6437 105.76 13.2147 106.96 13.5767C107.245 13.6625 107.668 13.4961 107.956 13.3254C109.072 12.6638 110.216 12.3528 111.476 12.858C111.668 12.935 111.838 13.0645 112.029 13.1453C112.411 13.3066 112.793 13.5597 113.186 13.5826C114.502 13.6593 115.544 14.0629 116.016 15.4283C116.065 15.5693 116.402 15.6261 116.615 15.6917C117.124 15.8484 117.669 15.9235 118.145 16.1468C118.987 16.5418 119.109 16.9753 118.844 17.8831C118.737 18.2505 118.495 18.6755 119.294 18.7173C120.078 18.7583 120.366 19.3046 120.503 20.146C120.554 20.4566 120.819 20.8471 121.094 20.9859C122.198 21.5412 122.339 21.7617 122.128 23.0439C122.1 23.2106 122.117 23.3899 122.143 23.5589C122.229 24.119 122.383 24.6745 122.41 25.2366C122.455 26.1647 122.422 27.0967 122.422 28.1017C122.089 29.402 119.806 31.0409 118.145 32.6572C117.312 33.4679 116.73 34.7215 116.439 35.0224Z" fill="#F9FCF8"/>
<path id="Oval" d="M112.477 36.0452C113.148 36.0452 113.692 35.5616 113.692 34.965C113.692 34.3684 113.148 33.8848 112.477 33.8848C111.806 33.8848 111.262 34.3684 111.262 34.965C111.262 35.5616 111.806 36.0452 112.477 36.0452Z" fill="#357A6A"/>
<path id="Oval Copy 2" d="M103.026 33.075C103.697 33.075 104.241 32.6518 104.241 32.1298C104.241 31.6077 103.697 31.1846 103.026 31.1846C102.355 31.1846 101.811 31.6077 101.811 32.1298C101.811 32.6518 102.355 33.075 103.026 33.075Z" fill="#357A6A"/>
<path id="Shape_2" fill-rule="evenodd" clip-rule="evenodd" d="M121.078 54.6776C121.261 54.4886 121.416 54.1825 121.631 54.1319C122.343 53.9645 123.01 54.2319 123.429 54.7774C123.965 55.4737 124.453 56.2424 124.766 57.0552C124.845 57.2584 124.673 57.6627 124.252 58.268C124.709 58.5576 124.987 58.7412 125.084 58.8188C126.104 59.6332 127.099 60.4795 128.078 61.3433C128.852 62.026 129.59 62.749 130.347 63.4512C130.425 63.5236 130.522 63.5756 130.61 63.637C130.671 63.513 130.79 63.3861 130.784 63.2654C130.757 62.7283 130.655 62.193 130.655 61.6571C130.656 61.1047 130.81 60.5491 130.783 60.0006C130.659 57.5203 130.469 55.0431 130.356 52.5624C130.297 51.2687 130.975 50.4 132.2 49.9204C133.699 49.3332 135.239 48.9726 136.85 48.8727C138.857 48.7483 140.863 48.4434 142.867 48.4686C144.879 48.4938 146.887 48.8322 148.897 49.0269C150.001 49.1338 151.107 49.2268 152.211 49.3273C154.396 49.5261 156.584 49.6948 158.761 49.9537C159.151 50.0002 159.592 50.3486 159.846 50.6823C160.6 51.6761 160.942 52.8135 161.015 54.0875C161.095 55.4815 161.399 56.8619 161.581 58.2514C161.662 58.8743 161.706 59.504 161.732 60.132C161.84 62.731 162.031 65.3319 161.995 67.9293C161.976 69.2759 161.555 70.6187 161.296 71.9594C161.153 72.6961 160.573 72.9803 159.925 73.0841C158.772 73.2689 157.608 73.3803 156.451 73.5445C149.506 74.5307 142.517 73.9804 135.549 74.155C132.572 74.2296 129.889 73.4393 127.324 71.9758C126.024 71.2343 124.941 70.3772 124.593 68.8852C124.429 68.1798 124.266 67.3698 124.944 66.781C125.122 66.6263 125.409 66.5797 125.655 66.5288C125.741 66.5111 125.855 66.6299 125.956 66.6864C125.904 66.7745 125.873 66.8877 125.798 66.9466C125.256 67.3747 125.317 67.7397 125.809 68.2004C127.118 69.4271 128.749 70.083 130.32 70.851C130.465 70.9217 130.612 70.9893 130.764 71.0422C130.861 71.076 131.021 71.1294 131.06 71.0876C131.14 71.0013 131.191 70.8578 131.193 70.7368C131.195 70.603 131.078 70.4583 131.101 70.3354C131.306 69.2594 130.674 68.8624 129.817 68.4134C127.374 67.1342 124.998 65.7268 122.594 64.3723C122.01 64.0433 121.412 63.8629 120.762 64.2098C120.663 64.2626 120.532 64.2722 120.416 64.2723C117.526 64.2756 114.636 64.3124 111.747 64.2626C109.57 64.225 107.396 64.0455 105.219 63.9834C102.401 63.9029 97.9004 63.1801 98.7354 63.2272C98.8839 63.2356 99.0568 63.2724 99.1756 63.2119C99.2822 63.1577 99.33 62.9877 99.4037 62.8688C99.2941 62.8392 99.1606 62.7538 99.0787 62.7889C98.3939 63.0826 98.541 62.7763 98.6087 62.2805C98.7999 60.8796 98.9425 59.4972 98.5512 58.0587C98.2443 56.9304 98.5669 55.7248 98.9839 54.6064C99.4021 53.4844 99.8403 52.3696 100.24 51.2413C100.314 51.0336 100.247 50.7761 100.244 50.5415C100.071 50.6525 99.9026 50.7714 99.7238 50.8722C99.5206 50.9869 99.3083 51.0853 99.0999 51.1908C99.1015 50.9325 99.0257 50.642 99.1174 50.421C99.6991 49.0178 100.335 47.637 100.91 46.231C101.023 45.953 100.955 45.5979 100.958 45.2783C100.962 44.994 100.882 44.6915 100.954 44.4284C101.242 43.3727 101.876 43.0814 102.976 43.4017C104.04 43.7115 104.436 44.2589 105.525 43.4954C105.702 43.3712 105.915 43.2499 106.014 43.0727C106.244 42.6635 106.551 42.2275 107.003 42.4867C107.355 42.6887 107.699 43.1942 107.734 43.5922C107.787 44.1967 108.032 44.2624 108.52 44.2512C110.404 44.208 111.903 45.1396 113.285 46.263C114.364 47.1401 115.41 48.0706 116.381 49.0645C117.644 50.3565 121.257 54.7377 121.078 54.6776Z" fill="#F9FCF8"/>
<path id="Shape_3" fill-rule="evenodd" clip-rule="evenodd" d="M21.0892 89.5363C19.6521 89.3383 18.219 89.1036 16.7774 88.9475C15.0499 88.7605 13.3085 88.6925 11.5859 88.4727C10.3206 88.3113 9.04474 88.1476 7.95736 87.3093C7.04032 86.6023 6.86749 85.577 7.69092 84.7694C8.12531 84.3434 8.58885 83.9454 9.05821 83.5578C9.16951 83.4658 9.35707 83.4663 9.50956 83.4242C9.4897 83.4801 19.1273 66.5039 28.3911 65.1934C37.6548 63.8828 69.1538 66.5527 68.6493 66.5043C68.4296 66.4832 68.2251 66.3046 68.0136 66.1983C68.2426 66.0554 68.4727 65.7873 68.7006 65.7891C71.0715 65.8075 73.4421 65.9091 75.8128 65.9083C78.2831 65.9075 80.7535 65.7799 83.2238 65.7807C85.7938 65.7815 88.3655 65.8272 90.9331 65.9333C92.8171 66.0111 94.6974 66.2006 96.5764 66.3725C98.5135 66.5499 100.446 66.7732 102.382 66.9636C104.27 67.1493 105.84 69.2533 105.061 70.9657C104.707 71.7458 104.119 72.4225 103.62 73.1342C102.469 74.7765 101.291 76.3998 100.156 78.0528C98.8799 79.9103 97.5373 81.7329 96.412 83.6796C95.2759 85.6448 93.6532 87.1539 92.1483 88.7799C91.1537 89.8545 90.0431 90.8226 89.0595 91.9065C88.146 92.9131 86.9568 93.2464 85.7171 93.4036C84.2743 93.5865 82.8126 93.6177 81.3597 93.7233C80.0803 93.8164 78.7987 94.0315 77.5235 93.9962C75.366 93.9366 73.2117 93.735 71.058 93.5683C69.3995 93.4399 67.7424 93.2891 66.0876 93.1198C64.3249 92.9394 62.566 92.7217 60.8046 92.5282C60.2289 92.465 59.6512 92.4146 59.0731 92.3793C58.0979 92.3198 57.1223 92.258 56.1459 92.231C53.9001 92.1691 51.6535 92.1353 49.4077 92.0745C48.2321 92.0427 47.057 91.9877 45.8826 91.9259C44.1548 91.8351 42.4255 91.7585 40.7011 91.6217C38.5891 91.4541 36.4826 91.2188 34.3717 91.0355C32.9701 90.9138 31.5626 90.8577 30.1623 90.7245C28.9992 90.6138 27.8427 90.4334 26.6085 90.284C24.7189 90.0348 22.9039 89.7865 21.0892 89.5363Z" fill="#F9FCF8"/>
<path id="Path" fill-rule="evenodd" clip-rule="evenodd" d="M36.9221 17.3397C36.8722 16.4885 36.7737 15.7116 36.782 14.9358C36.8045 12.8303 37.5129 3.7228 37.5793 1.61821C37.5851 1.43297 60.4883 1.31542 60.6207 1.20239C60.7198 1.11784 60.8687 1.07148 61.0021 1.05046C62.737 0.777028 64.4587 0.650679 66.2141 1.02189C67.3153 1.25477 68.4676 1.24639 69.5971 1.34556C71.3036 1.49539 73.013 1.61942 74.7156 1.80507C75.5259 1.89341 75.97 2.72725 75.9483 3.74734C75.9326 4.4811 76.0192 5.2189 76.0892 5.95213C76.171 6.80926 76.3224 7.66099 76.3763 8.51928C76.5002 10.4941 76.5667 12.4725 76.6915 14.4472C76.738 15.1814 76.9939 15.9151 76.9575 16.6391C76.8915 17.9504 76.6807 19.2547 76.5244 20.5611C76.4338 21.3188 76.2626 22.0737 76.2478 22.8321C76.2086 24.849 76.2525 26.8673 76.2281 28.8845C76.2121 30.2094 76.1947 31.5392 76.0673 32.8561C75.9516 34.052 75.6564 35.2296 75.5035 36.4233C75.4504 36.8378 75.6356 37.2775 75.6276 37.7042C75.6016 39.1037 75.4981 40.5028 75.5045 41.9017C75.5074 42.5428 74.9551 42.6684 74.6747 42.6981C73.3901 42.8341 72.1776 43.3337 70.8328 43.2299C68.6953 43.0649 66.5426 43.0836 64.3959 43.0588C63.6949 43.0507 62.9892 43.22 62.2915 43.1864C59.8859 43.0702 57.4827 42.9029 55.079 42.7488C54.501 42.7118 53.9251 42.616 53.3473 42.6069C49.4824 42.5462 45.6157 42.549 41.753 42.426C40.4091 42.3831 39.0575 42.1794 37.8523 41.3933C36.9088 40.7778 36.4221 39.8997 36.3524 38.8858C36.2088 36.7957 36.1666 34.6939 36.1911 32.5982C36.2152 30.5463 36.3576 28.495 36.481 26.4454C36.5372 25.5126 36.7224 24.5867 36.7603 23.654C36.8102 22.427 36.7543 21.196 36.7789 19.9675C36.796 19.1158 36.8722 18.2654 36.9221 17.3397Z" fill="#F9FCF8"/>
<path id="Combined Shape" fill-rule="evenodd" clip-rule="evenodd" d="M83.2244 65.7801C85.7944 65.7809 88.3661 65.8266 90.9337 65.9327C92.8177 66.0106 94.698 66.2 96.577 66.372C98.5142 66.5493 100.447 66.7726 102.383 66.9631C104.271 67.1487 105.841 69.2528 105.062 70.9652C104.707 71.7453 104.12 72.4219 103.621 73.1336C102.47 74.776 101.292 76.3993 100.156 78.0523C98.8805 79.9098 97.5379 81.7324 96.4126 83.679C95.2765 85.6442 93.6538 87.1534 92.1489 88.7793C91.1543 89.854 90.0437 90.8221 89.0601 91.9059C88.1466 92.9125 86.9574 93.2458 85.7177 93.403C84.275 93.5859 82.8132 93.6171 81.3603 93.7228C80.0809 93.8158 78.7993 94.0309 77.5241 93.9957C75.3666 93.936 73.2123 93.7344 71.0586 93.5677C69.4001 93.4393 67.743 93.2886 66.0882 93.1192C64.3255 92.9388 62.5666 92.7212 60.8052 92.5277C60.2295 92.4644 59.6518 92.414 59.0737 92.3788C58.0985 92.3192 57.1229 92.2574 56.1465 92.2305C53.9007 92.1685 51.6541 92.1347 49.4083 92.074C48.2327 92.0421 47.0576 91.9871 45.8832 91.9254C44.1554 91.8345 42.4261 91.758 40.7017 91.6212C38.5897 91.4536 36.4832 91.2182 34.3723 91.035C32.9707 90.9133 31.5632 90.8571 30.1629 90.7239C28.9998 90.6132 27.8433 90.4329 26.6091 90.2834C24.7195 90.0343 22.9045 89.7859 21.0898 89.5358C19.6527 89.3377 18.2196 89.1031 16.778 88.947C15.0505 88.7599 13.3091 88.6919 11.5865 88.4722L11.3415 88.4407C10.1574 88.2868 8.97518 88.093 7.95796 87.3088C7.04091 86.6018 6.86809 85.5765 7.69151 84.7689C8.12591 84.3428 8.58945 83.9449 9.05881 83.5572C9.1701 83.4653 9.35767 83.4657 9.51015 83.4236C9.46114 83.5615 9.44774 83.7319 9.35685 83.8316C8.99209 84.2318 8.55352 84.5732 8.23411 85.0044C7.62455 85.8272 7.78167 86.5686 8.747 86.9709C9.61771 87.3338 10.5594 87.5899 11.4941 87.7229C13.6739 88.0329 15.8694 88.2317 18.0565 88.4927C19.5949 88.6763 21.1287 88.8992 22.667 89.0837C23.6695 89.2039 24.6748 89.3117 25.682 89.3771C26.2724 89.4155 26.6205 88.88 26.3752 88.337C25.3162 85.9915 22.8239 84.004 19.8225 84.4792C18.2706 84.7249 17.1593 85.7265 16.4339 87.1397C16.3199 87.3617 16.0628 87.5102 15.8719 87.6927C15.8635 87.3888 15.7402 87.023 15.8651 86.7906C16.8116 85.0281 18.2335 83.908 20.2829 83.7048C20.3988 83.6933 20.5812 83.6952 20.6163 83.6291C20.9633 82.9752 21.7135 82.5582 21.6845 81.6778C21.6377 80.2555 22.2574 79.2329 23.5563 78.5785C23.9107 78.3999 24.2122 77.9847 24.3885 77.6081C25.0231 76.2528 25.9781 75.3907 27.5316 75.3391C27.8582 75.3282 28.1863 75.3598 28.5136 75.3718C28.1962 75.5656 27.8931 75.7904 27.5579 75.9456C27.0783 76.1676 26.5376 76.2767 26.0916 76.5471C25.5222 76.8924 25.0543 77.3532 25.2443 78.1552C25.2738 78.28 25.0769 78.517 24.9275 78.615C24.4228 78.946 23.893 79.2389 23.3717 79.5443C22.5175 80.0448 22.4425 80.9387 22.2911 81.7704C22.2372 82.0665 22.3186 82.3268 22.8064 82.0829C23.7498 81.6111 24.7424 82.1029 25.4401 82.9821C25.9813 83.6641 26.4524 84.3543 26.637 85.1823C26.7453 85.6681 26.6668 86.2106 26.5939 86.7163C26.5498 87.0225 26.9407 88.2541 27.2248 88.2606C27.4629 88.266 27.7242 88.1074 27.9427 87.9697C28.8417 87.4034 29.7699 87.1182 30.8456 87.4269C31.2069 87.5306 31.6699 87.6001 31.9711 87.2304C32.6118 86.4438 33.4863 86.3648 34.3935 86.4039C34.8386 86.4231 34.9491 86.1627 35.2201 85.8641C35.9382 85.073 35.3852 84.8165 34.8764 84.4068C34.6013 84.1852 34.3755 83.8794 34.1977 83.5711C34.122 83.44 34.2263 83.2051 34.2488 83.0174C34.369 83.0988 34.5079 83.1622 34.6066 83.2643C35.3485 84.0315 36.1616 84.6469 37.2776 84.7733C37.474 84.7955 37.6399 85.0868 37.8199 85.2538C37.6021 85.2926 37.3723 85.396 37.169 85.3579C36.5839 85.2484 35.5918 85.8835 35.6052 86.4765C35.6104 86.7027 35.884 87.0439 36.1086 87.122C36.8515 87.3804 37.368 87.8504 37.6561 88.5539C37.7458 88.7731 37.6661 89.0616 37.6639 89.3183C37.4877 89.1877 37.2628 89.0913 37.1433 88.9209C36.2845 87.6965 35.1235 87.0896 33.6271 87.1502C33.4467 87.1575 33.2558 87.2175 33.0946 87.3009C32.9112 87.3958 32.7558 87.5444 32.5882 87.6697C32.7529 87.7437 32.9507 87.7818 33.077 87.8978C33.7707 88.535 34.4451 89.1934 35.1304 89.8399C35.3476 90.0448 35.5597 90.3767 35.8057 90.4089C36.978 90.5621 38.16 90.6498 39.3408 90.7277C41.0919 90.8433 42.8451 90.9284 44.5971 91.0322C45.2993 91.0737 45.9999 91.1528 46.7025 91.176C48.5995 91.2384 50.4974 91.2748 52.3946 91.3315C53.7691 91.3725 55.1471 91.3807 56.5166 91.491C58.4057 91.6432 60.288 91.8797 62.1736 92.076C62.7251 92.1334 63.2774 92.1862 63.8304 92.2248C65.3332 92.3297 66.8399 92.3911 68.3387 92.5357C69.7374 92.6706 71.1263 92.9049 72.523 93.065C73.0674 93.1274 73.6212 93.106 74.1707 93.1236C75.7194 93.1731 77.2678 93.2389 78.8169 93.2639C79.3184 93.2719 79.8291 93.208 80.3199 93.1035C80.4788 93.0697 80.6783 92.8154 80.7057 92.6383C80.9638 90.9685 81.8818 89.8436 83.4451 89.2415C83.8812 89.0736 84.0428 88.9421 83.89 88.3662C83.4265 86.6197 81.4965 85.6173 80.0076 85.5087C78.7265 85.4152 77.4738 85.5463 76.423 86.4019C76.1742 86.6045 75.9794 86.8723 75.7513 87.1018C75.6384 87.2153 75.5065 87.31 75.3832 87.4132C75.3185 87.2408 75.1472 86.9939 75.207 86.9083C75.5157 86.466 75.8049 85.9293 76.245 85.6742C77.7857 84.7814 79.4366 84.4136 81.1906 85.0519C81.5645 85.1879 81.8068 85.163 81.7704 84.6606C81.7127 83.863 82.0025 83.1865 82.5026 82.5687C82.5995 82.449 82.5772 82.1184 82.4793 81.9729C81.2612 80.1614 79.5129 79.2924 77.3625 79.2316C76.3881 79.204 75.3507 79.0272 74.5724 79.8963C74.5478 79.9237 74.3089 79.8364 74.3056 79.7926C74.289 79.5671 74.2431 79.1827 74.3412 79.1363C74.9009 78.8714 75.4905 78.5341 76.0848 78.5029C77.9817 78.4032 79.8384 78.6639 81.4188 79.8346C81.9483 80.2268 82.4049 80.7503 82.7959 81.286C83.124 81.7355 83.2981 81.874 83.8808 81.559C85.5003 80.6834 87.2456 80.6399 88.9898 81.1867C89.1707 81.2435 89.2585 81.5974 89.3894 81.8134C89.1753 81.8068 88.9456 81.8486 88.7494 81.7859C86.9331 81.2054 85.208 81.5707 83.6087 82.4325C82.8483 82.8422 82.5223 83.7045 82.3536 84.5822C82.2388 85.1796 82.3492 85.5229 82.9224 85.8819C83.7636 86.4089 84.2927 87.2793 84.5917 88.2313C84.7444 88.7175 85.0357 88.8637 85.4574 88.7815C86.9541 88.4896 88.2769 88.9348 89.4977 89.7375C89.9878 90.0598 90.29 89.9777 90.6466 89.561C91.4546 88.6165 92.2653 87.6707 93.1316 86.7807C94.2387 85.6431 95.1533 84.3861 95.9905 83.0334C97.2761 80.9565 98.7143 78.9735 100.102 76.9603C100.825 75.9103 101.59 74.8889 102.296 73.8273C102.353 73.7401 102.141 73.3297 101.976 73.2626C101.25 72.9682 100.512 72.6611 99.7486 72.5151C98.5792 72.2915 97.3882 72.1638 96.2009 72.0547C94.2726 71.8775 92.3383 71.766 90.4094 71.5939C88.4225 71.4167 86.4405 71.1852 84.4536 71.0073C83.4812 70.9203 82.5031 70.8901 81.5268 70.854C79.9287 70.7948 78.33 70.7494 76.7314 70.7026C74.9337 70.65 73.1348 70.6265 71.3385 70.5438C70.182 70.4905 69.028 70.3651 67.8764 70.24C67.713 70.2223 67.5692 70.0234 67.4163 69.9083C67.5751 69.8241 67.735 69.6647 67.8926 69.6668C70.4379 69.7008 72.9831 69.7475 75.5279 69.81C76.2553 69.8278 76.9806 69.9267 77.7081 69.9503C79.63 70.0127 81.5583 69.9792 83.4734 70.124C85.6187 70.2862 87.7509 70.6147 89.8916 70.8451C90.7138 70.9336 91.5462 70.9244 92.3694 71.0057C95.3808 71.303 98.4343 71.2949 101.363 72.2026C101.69 72.304 102.081 72.4101 102.287 72.6484C102.671 73.0945 102.898 72.8911 103.139 72.5673C103.548 72.0178 103.932 71.4495 104.339 70.8983C105.143 69.8082 103.707 67.7291 102.406 67.6796C100.591 67.6105 98.7851 67.2998 96.9727 67.1193C95.7212 66.9946 94.4667 66.8666 93.2108 66.8257C90.6419 66.742 88.0712 66.7109 85.5012 66.6673C82.2587 66.6123 79.0162 66.5438 75.7735 66.5265C74.2501 66.5184 72.7263 66.6425 71.2022 66.6558C70.3515 66.6632 69.4981 66.5852 68.6499 66.5038C68.4302 66.4827 68.2257 66.304 68.0142 66.1977C68.2432 66.0549 68.4733 65.7868 68.7012 65.7885C71.0721 65.807 73.4427 65.9085 75.8134 65.9077C78.2838 65.9069 80.7541 65.7794 83.2244 65.7801ZM81.4671 92.1519C81.4306 93.3386 81.5494 93.1209 82.4933 93.1155C82.896 93.1132 83.2973 92.9909 83.7009 92.9795C85.8472 92.9187 87.8138 92.3942 89.3639 90.8045C89.4342 90.7324 89.3556 90.3532 89.2532 90.3015C88.7002 90.0225 88.1366 89.7315 87.5424 89.5735C85.4494 89.0169 82.3824 89.5979 81.4671 92.1519ZM60.3385 76.0984C60.9333 76.2599 61.4817 76.5877 62.0724 76.7722C62.3332 76.8536 62.7192 76.8695 62.9263 76.7317C64.0398 75.9911 65.1612 76.1639 66.3275 76.5474C66.6916 76.6671 67.11 76.6102 67.4922 76.6891C67.9213 76.7777 68.4082 76.8321 68.7418 77.0763C69.1825 77.3989 69.4883 77.9014 69.8734 78.3063C70.0342 78.4755 70.2325 78.6776 70.4431 78.7204C72.4955 79.1369 73.2872 80.6479 73.686 82.4644C74.0925 84.3158 74.2122 86.1808 73.7002 88.0429C73.6557 88.205 73.6943 88.3901 73.6943 88.6392C73.5448 89.4737 73.4043 90.2353 73.2418 90.9923C73.1692 91.3309 73.1166 91.7021 72.9344 91.9793C72.803 92.1793 72.4725 92.2486 72.2309 92.3761C72.1911 92.2809 72.0986 92.1717 72.1196 92.0925C72.3859 91.0842 72.7111 90.0895 72.9345 89.0723C73.1423 88.1262 73.2788 87.1607 73.3833 86.1969C73.4483 85.5979 73.4508 84.9796 73.382 84.3815C73.2853 83.5409 73.1089 82.7085 72.9439 81.8772C72.7169 80.7335 71.027 79.2939 70.0124 79.3754C69.6287 79.4062 69.3059 79.4225 69.6981 79.9741C69.9936 80.3896 70.0891 80.9518 70.2446 81.4576C70.2682 81.5347 70.1345 81.6601 70.0736 81.7632C69.9846 81.688 69.876 81.6269 69.8096 81.5353C69.3803 80.9428 69.2644 80.1229 68.4963 79.7758C67.4408 79.2988 66.4125 78.8303 65.1835 79.2035C64.4059 79.4396 64.0689 79.8626 64.1262 80.6464C64.1371 80.795 64.1647 80.9582 64.1176 81.0908C64.0682 81.2302 63.9382 81.341 63.8434 81.4643C63.7389 81.3507 63.5747 81.2514 63.5435 81.1203C63.493 80.9083 63.5299 80.6754 63.5299 80.4513C63.5299 78.4245 61.8573 76.7763 59.8311 76.8449C59.5761 76.8536 59.3288 77.0615 59.0758 77.1724C58.9553 77.2253 58.8298 77.2669 58.7066 77.3136C58.704 77.1436 58.6308 76.9223 58.7108 76.8122C59.107 76.2665 59.6499 75.9114 60.3385 76.0984ZM68.7696 85.4174C68.9141 85.445 69.0737 85.4425 69.2 85.5061C69.5104 85.6623 69.8056 85.8489 70.1442 86.0607C70.6978 86.9044 71.0962 87.6746 70.6026 88.7051C70.1779 89.5919 69.9658 90.5828 69.6927 91.5371C69.652 91.6793 69.7571 91.9012 69.8614 92.0336C69.9303 92.1208 70.1186 92.1138 70.2535 92.149C70.0918 92.1749 69.9305 92.2205 69.7684 92.2232C69.0047 92.236 68.8175 91.9998 69.0652 91.2851C69.3439 90.4806 69.6825 89.6964 69.9517 88.889C70.3498 87.6953 70.1473 87.0757 69.1776 86.2864C69.0431 86.1769 68.8886 86.0612 68.818 85.9129C68.751 85.7719 68.7818 85.5844 68.7696 85.4174ZM55.5445 67.4251C55.4809 67.5308 55.4408 67.6663 55.3501 67.7376C54.133 68.695 54.3288 70.0176 54.487 71.2847C54.7069 73.0464 55.7117 74.4224 56.9082 75.6541C58.4119 77.2019 59.9267 78.7411 61.4895 80.2285C62.8452 81.5189 64.2581 82.7512 65.6817 83.9669C66.0785 84.3058 66.6026 84.4959 67.0696 84.752C67.1705 84.8073 67.3103 84.8259 67.3748 84.9071C67.591 85.1793 67.7812 85.4722 67.9814 85.7572C67.7263 85.6795 67.4738 85.5915 67.2156 85.5259C65.8179 85.1704 64.7439 84.259 63.7196 83.3421C61.756 81.5843 59.8077 79.798 57.9883 77.8942C56.6864 76.5321 55.5499 74.9989 54.4462 73.4654C53.8057 72.5756 53.7262 71.4659 53.8108 70.3714C53.8205 70.2457 53.7871 70.1166 53.7737 69.9891C53.6376 70.0549 53.4449 70.0837 53.3744 70.1921C52.7759 71.1111 52.2573 72.0878 51.5998 72.9607C51.0121 73.7411 50.2814 74.4143 49.608 75.1293C49.3378 75.4161 48.97 75.6434 48.7888 75.9754C48.2817 76.905 47.8627 77.8822 47.3829 78.8275C46.7501 80.074 47.24 81.2225 47.741 82.3192C48.6398 84.2866 49.5944 86.2504 50.9977 87.9089C51.8389 88.9031 52.9167 89.6971 53.8875 90.5819C54.0146 90.6977 54.1375 90.8182 54.2623 90.9366C54.1048 90.968 53.945 91.0345 53.7902 91.0243C53.303 90.9921 52.8175 90.9335 52.3322 90.8778C52.2824 90.8721 52.2079 90.8255 52.196 90.7834C51.7205 89.1048 50.7909 88.6735 49.0691 89.4538C48.5231 89.7014 48.09 90.1994 47.6086 90.5871C47.5122 90.6647 47.4426 90.8175 47.3409 90.8381C47.1319 90.8804 46.9095 90.8567 46.6926 90.8602C46.7801 90.6871 46.8399 90.4914 46.9597 90.3446C47.744 89.3834 48.7173 88.7554 49.9851 88.6302C50.2502 88.604 50.6552 88.6708 50.2553 88.1066C49.2526 86.6924 48.9934 86.5457 47.3838 87.0752C47.0559 87.1831 46.7375 87.3199 46.3774 87.4434C46.2009 87.3935 46.0586 87.3508 45.9244 87.2902C45.8744 87.2676 45.8435 87.2029 45.8039 87.1574C46.5059 86.8749 46.2526 86.1693 46.291 85.7189C46.3646 84.8576 46.852 84.2439 47.1768 83.529C47.2553 83.3562 47.2772 83.116 47.2271 82.9337C47.0004 82.1092 46.6499 81.3093 46.5093 80.4728C46.2668 79.0308 47.049 77.8481 47.6555 76.6251C48.2206 75.4857 49.0805 74.638 50.0032 73.782C50.8475 72.9987 51.4576 71.9626 52.1691 71.0366C52.3717 70.773 52.5682 70.5047 52.7676 70.2386C52.4492 70.1938 52.1301 70.1529 51.8125 70.1028C51.5334 70.0588 51.2561 69.9623 50.9777 69.9611C48.3627 69.9501 45.7461 70.0129 43.1332 69.9381C40.5531 69.8642 37.9752 69.6779 35.3999 69.4909C34.7323 69.4425 34.0742 69.2219 33.4209 69.0465C33.2733 69.0069 33.1637 68.8258 33.0366 68.7099C33.1962 68.6265 33.3643 68.4593 33.5141 68.4743C34.1735 68.5404 34.8252 68.6811 35.4841 68.7552C40.5645 69.3272 45.666 69.2024 50.7637 69.2138C51.4405 69.2153 52.1195 69.2862 52.793 69.3635C53.2915 69.4207 53.5335 69.1839 53.7417 68.7711C53.9616 68.3352 54.2305 67.9149 54.5383 67.5369C54.6659 67.3802 54.944 67.3195 55.1655 67.2771C55.2783 67.2556 55.4174 67.3714 55.5445 67.4251ZM72.4019 84.1549C72.4839 84.3114 72.5989 84.4592 72.6428 84.6258C73.0294 86.0923 72.6425 87.5197 72.4078 88.9547C72.3353 89.3982 72.2879 89.847 72.1912 90.285C72.1451 90.4939 72.0106 90.6832 71.9162 90.8813C71.8113 90.6687 71.5957 90.4416 71.6211 90.2459C71.7237 89.4557 71.9093 88.6766 72.0444 87.89C72.0817 87.6725 72.0501 87.4431 72.0501 87.1444C72.0501 86.2983 72.0259 85.5256 72.0662 84.7564C72.077 84.5506 72.2846 84.3551 72.4019 84.1549ZM46.3027 87.4434L46.1737 87.5529C45.2709 88.3204 44.3852 89.1173 44.3828 90.4915C44.3827 90.5718 44.1738 90.728 44.072 90.7201C43.0341 90.6397 41.9983 90.5331 40.962 90.4319C40.8688 90.4228 40.7769 90.3994 40.6844 90.3826C40.7787 90.3495 40.8706 90.3038 40.9678 90.2854C41.7755 90.1324 42.5859 89.9932 43.3912 89.8287C43.5852 89.789 43.7631 89.6704 43.9484 89.5881C43.7909 89.488 43.6225 89.2891 43.4777 89.3049C42.8847 89.3699 42.2876 89.4597 41.7135 89.6181C41.1398 89.7765 40.6 90.0558 40.0281 90.2237C39.8153 90.2862 39.5539 90.1831 39.3146 90.1555C39.4647 89.9734 39.5783 89.7016 39.7707 89.6234C41.1255 89.0725 42.4549 88.379 44.0127 88.7506C44.1523 88.7839 44.4242 88.5401 44.536 88.3628C44.9439 87.7156 45.4382 87.2803 46.3027 87.4434ZM71.2584 88.3707C71.323 88.4679 71.4526 88.574 71.4407 88.6609C71.3938 89.0057 71.3027 89.3445 71.1906 89.7229C71.1185 89.8946 71.1039 90.0393 71.0428 90.1603C70.99 90.2651 70.8842 90.3431 70.8018 90.4329C70.7271 90.3008 70.5682 90.1501 70.5924 90.0398C70.701 89.5457 70.8531 89.0601 71.0117 88.5789C71.0404 88.4918 71.1735 88.4392 71.2584 88.3707ZM29.1977 88.0821C28.6064 88.2543 28.0238 88.5022 27.4903 88.808C27.2102 88.9686 26.7138 89.146 27.1323 89.6855C27.7327 89.7353 28.3331 89.787 28.9337 89.8345C29.632 89.8898 30.3311 89.9351 31.0288 89.9963C32.0578 90.0866 33.0849 90.2026 34.115 90.2738C34.4143 90.2945 34.6144 90.2491 34.3278 89.8293C33.3588 88.4097 31.0083 87.5547 29.1977 88.0821ZM45.8738 84.5107C45.798 84.6482 45.7503 84.8154 45.6415 84.9177C45.2569 85.2793 44.8375 85.6047 44.4617 85.9746C44.3417 86.0927 44.3323 86.3156 44.2441 86.4749C44.0444 86.8353 43.9288 87.2854 43.309 87.047C42.8076 86.8541 42.2176 87.3983 42.1649 88.0758C42.143 88.3571 42.142 88.5645 41.7436 88.4523C41.3739 87.5856 41.6035 86.807 42.3333 86.5601C42.9548 86.3498 42.8415 86.1026 42.4871 85.7575C42.3982 85.6709 42.2825 85.5963 42.2308 85.4909C42.1616 85.35 42.1427 85.1844 42.1023 85.0294C42.2894 85.0321 42.532 84.9621 42.6517 85.0534C42.8728 85.2219 43.0132 85.4928 43.2048 85.7051C43.2952 85.8053 43.4343 85.9395 43.5369 85.9281C43.634 85.9173 43.7523 85.7496 43.7924 85.6281C44.0467 84.8593 44.7128 84.5845 45.3716 84.3244C45.4952 84.2756 45.7042 84.4431 45.8738 84.5107ZM28.1412 82.6227C28.2533 82.8778 28.3962 83.0969 28.3915 83.3129C28.365 84.5359 28.3151 85.7588 28.2407 86.9798C28.2293 87.1669 28.0691 87.3596 27.9402 87.5193C27.8585 87.6206 27.7072 87.6656 27.5871 87.7359C27.5601 87.6022 27.506 87.4677 27.5101 87.3349L27.5529 85.9381C27.5826 85.0069 27.6175 84.0759 27.6744 83.1464C27.6864 82.9513 27.9544 82.772 28.1412 82.6227ZM29.2028 68.47C29.3525 68.5074 29.4675 68.6835 29.5986 68.7953C29.4432 68.8828 29.2866 69.0481 29.1325 69.0458C27.258 69.0179 25.8074 69.9049 24.5662 71.1868C22.9581 72.8475 21.392 74.5488 19.7705 76.27C19.2052 76.935 18.6681 77.5553 18.1511 78.1918C17.0784 79.5124 16.0195 80.8441 14.9489 82.1664C14.1051 83.2085 13.2142 84.2154 12.4195 85.2934C12.0289 85.8233 11.8142 86.4817 11.508 87.0759C11.4382 87.2113 11.3195 87.3215 11.2233 87.4434C11.1202 87.3035 10.9487 87.1743 10.9251 87.0221C10.7722 86.0362 11.4404 85.3616 11.9657 84.7028C14.019 82.1274 16.1074 79.5782 18.2425 77.0701C19.6833 75.3775 21.1878 73.7349 22.7331 72.137C23.7471 71.0884 24.8081 70.0513 25.9918 69.2118C26.8961 68.5704 28.0132 68.1725 29.2028 68.47ZM31.0637 82.5556C31.1234 82.6801 31.229 82.8022 31.2357 82.9295C31.2977 84.1022 31.3538 85.2755 31.3804 86.4494C31.3845 86.6294 31.2296 86.813 31.1482 86.9949C30.9804 86.8204 30.7994 86.6561 30.6525 86.4655C30.6044 86.403 30.645 86.2723 30.645 86.0981C30.645 85.1278 30.6425 84.2324 30.6472 83.3369C30.6481 83.1695 30.6358 82.9808 30.7069 82.8414C30.77 82.7177 30.9405 82.6487 31.0637 82.5556ZM47.7735 84.0188C47.7441 84.0475 47.7048 84.071 47.6868 84.1056C47.4851 84.4947 47.2867 84.8855 47.0874 85.4254C47.0874 85.525 47.1087 85.6303 47.0835 85.7231C47 86.0307 46.8997 86.3337 46.8058 86.6386C47.0802 86.558 47.3514 86.4632 47.6298 86.4009C47.929 86.3339 48.2337 86.2679 48.5382 86.2552C48.8928 86.2404 48.992 86.2173 48.7445 85.8535C48.3949 85.3397 48.1327 84.7663 47.8364 84.2166C47.8042 84.1568 47.794 84.085 47.7735 84.0188ZM22.2088 82.8271C21.9276 82.9654 21.7513 83.3173 21.5269 83.5712C21.6492 83.6661 21.7626 83.8278 21.8953 83.8457C23.3895 84.047 24.4876 84.9117 25.5628 86.0233C25.7029 86.1323 25.8431 86.2412 25.9833 86.3501C26.0424 86.1516 26.1785 85.9398 26.1471 85.7568C26.0219 85.0252 25.8517 84.3163 25.3544 83.7056C24.582 82.7571 23.2394 82.3202 22.2088 82.8271ZM33.401 82.6694C33.4788 82.751 33.5935 82.8193 33.6287 82.9164C33.9268 83.7388 34.235 84.5592 34.4805 85.3977C34.539 85.5975 34.3736 85.8629 34.3113 86.0981C34.1355 85.9315 33.8748 85.7956 33.8015 85.5921C33.6446 85.1564 33.5847 84.6859 33.4477 84.1922C33.3226 83.818 33.199 83.4849 33.1639 83.1427C33.1487 82.9946 33.3164 82.8277 33.401 82.6694ZM29.5528 56.5756C30.6421 57.1851 31.0827 58.4191 31.5355 59.5432C32.2783 61.387 32.2946 63.3363 32.2895 65.2839C32.2877 65.965 32.3254 66.6484 32.281 67.3266C32.2086 68.4318 32.0966 69.535 31.9743 70.6361C31.9252 71.0772 31.7457 71.508 31.7277 71.9477C31.674 73.2529 31.2967 74.6444 31.8853 75.8391C32.503 77.0929 33.4044 78.2253 34.2912 79.3223C34.9965 80.1945 34.7477 81.6623 33.7173 82.0272C33.2332 82.1985 32.673 82.2093 32.1486 82.2018C30.5498 82.1791 28.9492 82.1489 27.3543 82.0446C26.687 82.0009 25.9774 81.8718 25.3912 81.5754C25.0037 81.3795 24.6995 80.8521 24.5459 80.4081C24.3999 79.986 24.6323 79.6293 25.0658 79.2939C25.8636 78.6765 26.5091 77.8661 27.2517 77.1722C27.7384 76.7175 28.2584 76.288 28.8096 75.9155C29.6504 75.3471 29.7587 74.4472 29.8817 73.5925C30.1339 71.8395 30.3369 70.0766 30.4767 68.3112C30.5382 67.5351 30.428 66.7384 30.3224 65.961C30.2974 65.7768 29.9871 65.5053 29.7911 65.4898C27.6764 65.3231 25.7548 65.7492 24.0626 67.1671C21.9248 68.9585 19.9425 70.8811 18.2767 73.1226C18.2045 73.2196 18.0696 73.2701 17.9639 73.3423C17.9059 73.2168 17.7794 73.0757 17.8038 72.9692C17.8595 72.7264 17.9471 72.4686 18.0953 72.2726C20.1745 69.522 22.5564 67.0782 25.5963 65.3962C26.864 64.6947 28.318 64.6358 29.7631 64.7965C29.896 64.8113 30.1872 64.6025 30.1765 64.532C29.9653 63.1346 30.0898 61.6768 29.4517 60.3537C29.3722 60.1887 29.3787 59.9517 29.2592 59.8412C28.3465 58.9975 27.4299 58.1556 26.472 57.3646C26.2444 57.1765 25.8594 57.1264 25.5415 57.1092C24.0391 57.0277 22.5441 57.0843 21.0961 57.5522C20.7029 57.6792 20.2956 57.8077 19.9478 58.0216C19.0498 58.5739 18.151 59.1335 17.3074 59.7637C15.285 61.2747 14.041 63.2862 13.7692 65.8096C13.5895 67.4784 13.6111 69.1688 13.4349 70.8382C13.3216 71.9115 13.8451 72.4833 14.5812 73.1272C15.0959 73.5774 15.5156 74.3032 15.6626 74.9749C16.0655 76.8154 15.3921 78.3219 13.8955 79.4711C13.7467 79.5854 13.6495 79.8223 13.6126 80.0182C13.3702 81.3074 12.5614 82.1803 11.4782 82.7851C11.1119 82.9896 10.5731 83.0024 10.1368 82.9393C9.27257 82.8143 8.59071 83.0879 8.02212 83.6903C7.07826 84.6903 5.84758 85.1637 4.57228 85.4585C3.53591 85.6981 2.61097 85.2339 1.98544 84.3987C0.781594 82.7915 -0.117338 81.0418 0.0124731 78.9477C0.042576 78.4621 0.201506 77.9845 0.301157 77.4284C0.70544 75.8991 1.82559 75.5182 3.15044 75.4906C4.37898 75.4651 5.61089 75.4423 6.8361 75.5111C7.20781 75.532 7.8512 75.8457 7.86264 76.0532C7.88457 76.4512 7.54722 76.8712 7.3473 77.2763C7.32348 77.3246 7.21102 77.3221 7.16753 77.369C7.02745 77.5201 6.90041 77.6832 6.76834 77.8418C6.96704 77.9033 7.16361 77.9736 7.36538 78.0224C7.45951 78.0452 7.57355 77.9991 7.66166 78.031C8.06144 78.1756 8.50979 78.1624 8.69816 78.7354C8.87624 79.2772 8.58362 79.5037 8.31023 79.818C8.16724 79.9823 8.07948 80.1948 7.96677 80.3855C8.1701 80.3963 8.37727 80.3865 8.57575 80.4234C8.80203 80.4655 9.02057 80.5492 9.24247 80.6149C9.17262 80.8026 9.11503 80.996 9.03024 81.1767C8.87539 81.5067 8.70444 81.8292 8.54021 82.1548C9.16171 82.2688 9.83188 82.5895 10.3953 82.4568C11.8954 82.1035 13.1245 80.6 13.0233 79.0665C12.9414 77.8264 13.1788 76.5468 12.9689 75.3378C12.5948 73.1827 12.651 71.0253 12.7473 68.8809C12.8285 67.0739 12.757 65.1801 13.62 63.5045L13.7373 63.2765C14.5786 61.6417 15.4425 60.0004 17.157 59.0358C17.7885 58.6806 18.4096 58.2888 18.9745 57.8374C19.9631 57.0472 21.1404 56.7491 22.3254 56.5496C23.7449 56.3105 25.1953 56.0992 26.6072 56.6544C26.7996 56.7301 27.009 56.8152 27.1516 56.9558C28.105 57.8958 29.2405 58.7301 29.9238 59.8406C30.4927 60.7654 30.6765 62.0097 30.7559 63.132C30.8546 64.5263 30.9358 65.9022 31.2009 67.2858C31.3695 68.1661 31.1779 69.1303 31.0631 70.0463C30.9193 71.193 30.5625 72.3248 30.5256 73.4703C30.4725 75.1175 29.6076 76.1862 28.4186 77.1337C27.5882 77.7955 26.7849 78.4919 25.9918 79.1979C25.9529 79.2326 26.1066 79.6336 26.2067 79.6506C27.0063 79.786 27.8165 79.8574 28.6188 79.9788C28.805 80.007 28.9735 80.1521 29.1502 80.2434C28.9653 80.3514 28.7655 80.5713 28.598 80.5489C27.6404 80.4211 26.6908 80.2333 25.7373 80.073C25.6209 80.0535 25.4218 80.0352 25.3922 80.0888C25.3223 80.2153 25.2571 80.4555 25.3226 80.5252C25.5496 80.7673 25.8056 81.0719 26.1008 81.1423C26.8148 81.3128 27.5552 81.4279 28.2885 81.4509C29.7403 81.4963 31.1946 81.4617 32.6478 81.4655C33.2584 81.4671 33.7926 81.3263 34.0296 80.69C34.2398 80.1258 33.8304 79.8064 33.4993 79.4586C32.3151 78.2147 31.2489 76.8596 30.9972 75.1247C30.8491 74.1046 31.0087 73.0301 31.1048 71.987C31.2028 70.9233 31.4839 69.8713 31.5219 68.8083C31.5917 66.8594 31.5781 64.9053 31.5314 62.9549C31.4863 61.0679 30.9813 59.258 29.8261 57.7778C29.2871 57.0871 28.313 56.7038 27.4863 56.2778C26.3624 55.6985 25.1636 55.2815 23.8688 55.4623C21.5131 55.7912 19.2332 56.4499 17.3682 57.9539C16.1812 58.9111 15.0963 60.08 14.2358 61.3387C12.6735 63.624 11.3054 66.0428 9.87002 68.4142C8.76211 70.2447 7.67896 72.0901 6.57486 73.9229C6.42789 74.1669 6.24475 74.4001 6.03552 74.5914C5.90742 74.7085 5.69761 74.7363 5.5245 74.8042C5.53608 74.5989 5.47702 74.3512 5.57062 74.1951C6.2183 73.1143 6.9163 72.0636 7.56326 70.9824C9.01944 68.5489 10.5526 66.1543 11.8678 63.6459C12.8635 61.7471 14.1509 60.0744 15.5816 58.5562C17.4525 56.5712 19.9384 55.6129 22.5991 54.9695C25.2538 54.3276 27.4167 55.3802 29.5528 56.5756ZM4.32567 76.0904C4.24836 76.0914 4.14932 76.1805 4.10535 76.2552C4.08279 76.2936 4.14031 76.426 4.19452 76.4555C5.0228 76.9063 5.36102 77.6892 5.69419 78.5145C6.23427 79.8522 6.37175 81.1682 5.68232 82.5854C5.56395 82.7598 5.44558 82.9341 5.32721 83.1085C5.27269 82.8081 5.09197 82.4604 5.1839 82.2148C5.83538 80.4738 5.1964 77.8717 3.7484 76.7837C3.27617 76.4288 2.76213 76.1237 2.07275 76.3103C1.21335 76.5431 0.847093 77.6643 0.74488 78.5128C0.522716 80.3569 1.15271 81.9721 2.10966 83.4737C2.56894 84.1943 3.13381 84.8547 4.17127 84.7608C5.62904 84.629 6.80429 83.8848 7.96065 83.0938C8.0338 83.0438 8.02922 82.7001 7.94655 82.6322C7.49822 82.2644 7.55034 81.9623 7.97729 81.6301C8.33761 81.3498 8.3043 81.1705 7.84336 81.0051C7.07605 80.7297 6.98744 80.2458 7.56252 79.6665C7.71 79.5179 7.95806 79.4486 8.05939 79.2819C8.12913 79.1671 8.08355 78.8807 7.98302 78.7928C7.88425 78.7064 7.6479 78.795 7.47733 78.7699C6.8487 78.6776 6.13282 78.5146 6.02153 77.8391C5.918 77.2107 6.58223 76.9401 7.08805 76.676C7.18486 76.6255 7.24793 76.5104 7.32657 76.425C7.19759 76.3111 7.07182 76.1029 6.93912 76.0984C6.06877 76.0687 5.19687 76.079 4.32567 76.0904ZM29.4269 82.8096C29.534 82.9691 29.7141 83.1203 29.7335 83.2899C29.7791 83.6891 29.7679 84.0988 29.7333 84.5002C29.7253 84.5926 29.5309 84.669 29.4223 84.7528C29.3316 84.6264 29.1813 84.5082 29.1625 84.3719C29.1223 84.0803 29.1502 83.7794 29.1502 83.4075C29.2424 83.1584 29.3347 82.984 29.4269 82.8096ZM32.1397 82.8096C32.339 83.3522 32.4776 83.8924 32.5738 84.4401C32.5891 84.5271 32.431 84.6847 32.3191 84.7374C32.262 84.7642 32.0452 84.632 32.0441 84.569C32.0333 83.9829 32.0537 83.3961 32.1397 82.8096ZM111.477 12.8573C111.669 12.9343 111.84 13.0638 112.031 13.1446C112.412 13.306 112.794 13.559 113.188 13.5819C114.504 13.6586 115.546 14.0622 116.017 15.4277C116.066 15.5686 116.404 15.6255 116.617 15.691C117.126 15.8477 117.67 15.9228 118.146 16.1461C118.989 16.5412 119.11 16.9746 118.846 17.8824C118.739 18.2498 118.497 18.6748 119.295 18.7166C120.08 18.7576 120.368 19.304 120.505 20.1453C120.556 20.4559 120.82 20.8465 121.096 20.9852C122.199 21.5405 122.34 21.7611 122.129 23.0432C122.102 23.2099 122.119 23.3892 122.145 23.5582C122.23 24.1183 122.384 24.6738 122.411 25.2359C122.457 26.164 122.424 27.096 122.424 28.101C121.924 30.0535 120.757 31.5756 119.078 32.3037C117.694 32.9041 117.311 34.121 116.441 35.0217C115.286 36.2168 114.139 37.4239 112.919 38.5509C112.081 39.326 111.183 40.0738 110.203 40.6489C109.3 41.1786 108.283 41.6057 107.262 41.8194C105.696 42.1471 104.609 41.1823 103.677 40.0663C102.783 38.997 101.896 37.9214 101.037 36.8246C100.32 35.91 99.6517 34.9577 98.9519 34.0296C98.8448 33.8876 98.6841 33.786 98.5482 33.6657C98.4848 33.8387 98.3959 34.0069 98.3619 34.1855C97.9991 36.0902 97.5308 37.9389 95.863 39.1923C95.4914 39.4716 95.8779 39.6344 96.0081 39.7069C97.0579 40.2917 98.1538 40.7976 99.1796 41.4201C99.8854 41.8485 100.506 42.4196 101.152 42.9414C101.216 42.9931 101.245 43.1621 101.213 43.2487C100.818 44.3299 100.429 45.4147 99.9961 46.4809C99.5831 47.4968 98.7922 48.1516 97.813 48.6032C96.931 49.0101 96.1868 48.509 96.1132 47.4685C96.0246 46.2137 95.9808 44.9508 95.7984 43.7089C95.6249 42.528 95.1228 41.4992 93.7795 41.249C93.4088 41.18 93.0019 41.1936 92.6295 41.2639C90.0349 41.7536 87.5986 42.6684 85.3353 44.037C83.4635 45.1689 81.5625 46.2549 79.7212 47.4342C78.6635 48.1117 77.694 48.9282 76.6949 49.6953C76.3344 49.9721 76.2827 50.2408 76.5892 50.6804C77.5861 52.1105 78.0334 53.7486 78.1748 55.473C78.2083 55.8811 78.173 56.2955 78.22 56.7012C78.2285 56.7752 78.5502 56.9126 78.6126 56.8663C79.9618 55.8646 81.5713 55.5644 83.1404 55.1581C84.2215 54.8781 85.298 54.5664 86.3938 54.3615C87.0615 54.2366 87.7634 54.2555 88.4472 54.2821C88.6173 54.2887 88.7766 54.575 88.941 54.7328C88.7644 54.8241 88.5942 54.9776 88.4101 54.9967C87.2577 55.1165 86.102 55.2027 84.9484 55.3111C84.8308 55.3221 84.72 55.4061 84.6061 55.4563C84.725 55.5556 84.8376 55.6638 84.9641 55.7521C85.1382 55.8735 85.3229 55.9798 85.503 56.0925C85.2468 56.1791 84.9949 56.2853 84.7322 56.3412C84.6429 56.3603 84.5314 56.233 84.4218 56.2068C84.2012 56.1541 83.9749 56.125 83.751 56.0862C83.8113 56.2739 83.9011 56.4577 83.9267 56.65C84.0625 57.6679 84.3005 58.6918 84.2675 59.7059C84.2437 60.4406 83.8807 61.1737 83.6104 61.8853C83.5215 62.1195 83.2494 62.2842 83.061 62.4807C83.0501 62.1845 82.9332 61.8377 83.0462 61.6006C83.62 60.3971 83.6144 59.1229 83.5389 57.8527C83.5097 57.3623 83.2956 56.8607 83.0722 56.4106C82.8771 56.0175 82.4968 55.958 82.0647 56.1203C80.9863 56.5254 79.884 56.8695 78.8184 57.3046C78.4141 57.4697 78.0969 57.8371 77.7175 58.0768C76.9698 58.5493 76.2177 59.0177 75.441 59.4392C75.2645 59.535 74.9805 59.4328 74.746 59.4217C74.8657 59.2486 74.9551 59.0376 75.1124 58.9113C75.3454 58.7243 75.6096 58.546 75.89 58.4533C77.4919 57.9238 77.7094 57.1233 77.5675 55.896C77.3769 54.2468 77.0186 52.6465 76.114 51.1922C75.6224 50.4019 75.1598 49.8411 74.108 49.8943C73.4121 49.9295 72.8107 50.1685 72.6109 50.7077C72.46 51.1148 72.6905 51.7613 72.9349 52.1987C73.6688 53.512 74.5174 54.7514 74.9057 56.2451C75.2342 57.5087 74.9503 58.4333 73.798 59.0374C71.5649 60.2082 69.9062 61.9953 68.4735 64.0056C67.5647 65.2808 66.7559 66.6277 65.9147 67.9503C65.7349 68.233 65.4982 68.44 66.1298 68.6494C67.0305 68.9481 67.3055 70.8862 66.6081 71.847C66.294 72.2798 66.3888 72.3361 66.782 72.552C68.6653 73.5863 70.3302 74.8732 71.5535 76.6895C72.1785 77.6174 72.9843 78.4258 73.5874 79.3659C74.462 80.7291 74.8174 82.2673 74.7313 83.891C74.7214 84.078 74.583 84.2582 74.5041 84.4415C74.4335 84.2466 74.2895 84.046 74.3041 83.8576C74.4008 82.6099 73.893 81.4763 73.4924 80.374C73.174 79.4978 72.4077 78.7759 71.8043 78.0139C71.0863 77.1074 70.4114 76.1426 69.5676 75.3665C68.6877 74.5573 67.6289 73.9425 66.6481 73.2432C66.4175 73.0788 66.2066 72.8506 65.9494 72.7688C65.5973 72.6568 65.186 72.5511 64.8417 72.6283C63.8479 72.8513 62.8793 73.1519 62.3428 74.1733C62.2562 74.3381 61.7697 74.4981 61.667 74.4149C61.1137 73.9664 60.8268 74.3218 60.5008 74.6906C60.4527 74.745 60.3136 74.7516 60.2264 74.7334C59.6348 74.6092 59.4077 75.0174 59.1977 75.4351C58.9738 75.8803 58.7788 76.5481 58.1998 76.3295C57.8339 76.1913 57.6244 75.5594 57.4176 75.115C57.3223 74.9103 57.4655 74.6 57.383 74.3822C57.3032 74.172 57.052 73.852 56.9109 73.869C56.1785 73.9574 56.1591 73.4206 56.0672 72.9766C56.0079 72.69 56.0369 72.3795 56.0603 72.0825C56.1011 71.5648 56.0019 71.2469 55.4442 70.961C54.8749 70.6691 54.824 69.8995 55.1064 69.3706C55.6986 68.2615 56.2979 67.1136 57.1187 66.1788C58.4936 64.6129 60.0003 63.1539 61.531 61.7358C63.7832 59.6492 66.0682 57.594 68.4156 55.616C69.3907 54.7944 70.5588 54.2 71.6511 53.5215C71.7661 53.4501 71.9624 53.5095 72.1209 53.5082C72.0677 53.6637 72.062 53.8812 71.9534 53.9647C71.2407 54.5126 70.49 55.0114 69.7817 55.5647C68.7227 56.392 67.6495 57.2076 66.6518 58.1054C64.5906 59.9602 62.6188 61.9159 60.5275 63.735C58.7984 65.2389 57.2259 66.8524 56.0681 68.8366C55.851 69.2086 55.6805 69.6475 55.6504 70.0672C55.64 70.2106 56.1489 70.5578 56.3806 70.5254C57.9877 70.3011 59.3415 69.5364 60.5097 68.4206C60.95 68.0001 61.3924 67.5737 61.8825 67.217C62.1312 67.0359 62.5707 66.835 62.7798 66.9374C63.2888 67.1866 63.3653 67.7431 63.3302 68.2854C63.2988 68.7699 63.2487 69.2541 63.242 69.7389C63.2403 69.8573 63.3758 69.9776 63.4482 70.0971C63.5751 70.0091 63.7456 69.9489 63.8223 69.8289C64.928 68.0969 65.9725 66.3237 67.1287 64.6266C68.876 62.0619 70.8571 59.7217 73.7102 58.2805C74.2509 58.0075 74.4853 57.556 74.3257 56.8118C74.0094 55.337 73.2402 54.108 72.4993 52.8552C72.1191 52.2122 71.7299 51.5699 71.8536 50.8108C72.0023 49.8992 72.8794 49.2143 73.8902 49.1906C74.4101 49.1784 74.9321 49.318 75.4554 49.3622C75.6899 49.382 75.9915 49.4236 76.1579 49.3064C77.8023 48.1487 79.3667 46.8672 81.0679 45.8031C83.1683 44.4893 85.3245 43.2386 87.5579 42.1728C89.0237 41.4733 90.6663 41.1414 92.2355 40.6637C92.5497 40.5681 92.9028 40.5969 93.2132 40.4939C93.4233 40.4241 93.6813 40.2626 93.7605 40.0755C94.1323 39.1971 94.813 38.7212 95.6704 38.4015C95.9008 38.3155 96.1629 38.1029 96.2522 37.8839C96.8777 36.3492 97.4673 34.7997 98.0408 33.2448C98.0667 33.1748 97.8057 32.8871 97.7132 32.903C96.9062 33.0419 96.2169 32.9784 95.8444 32.1045C95.8141 32.0334 95.6392 32.0142 95.5274 31.9891C94.067 31.661 93.4866 29.9915 94.4067 28.8177C94.5108 28.6849 94.5479 28.3476 94.4566 28.238C93.7894 27.4369 93.742 26.4644 93.9213 25.5681C94.0403 24.9737 94.5768 24.439 94.9976 23.9373C95.272 23.6103 95.3877 23.4233 95.1461 22.9781C94.8499 22.4324 94.4763 21.9168 94.5885 21.151C94.8145 19.6094 95.1028 19.3235 96.7854 18.8543C97.2463 18.7257 97.4038 18.5659 97.4749 18.1025C97.8225 15.8374 98.353 14.9955 100.659 14.3479C101.44 14.1285 102.181 14.1779 102.944 14.4884C103.184 14.5861 103.604 14.457 103.847 14.2918C104.801 13.643 105.761 13.214 106.961 13.576C107.246 13.6618 107.669 13.4955 107.958 13.3247C109.074 12.6631 110.217 12.3521 111.477 12.8573ZM26.581 82.3611C26.69 82.4873 26.8172 82.6028 26.9005 82.7441C26.9434 82.8169 26.908 82.9357 26.908 83.1085C26.841 83.4496 26.774 83.716 26.7069 83.9823C26.5747 83.7338 26.4162 83.495 26.3202 83.2333C26.2648 83.082 26.2753 82.8838 26.3208 82.7253C26.3596 82.5901 26.4907 82.4815 26.581 82.3611ZM36.5081 74.7258C37.7364 75.0296 38.9959 75.2055 40.2284 75.4946C41.2569 75.7359 41.986 76.4553 42.5933 77.2653C43.2106 78.0888 43.2889 78.1042 44.1973 77.7276C44.7712 77.4896 45.4111 77.3872 46.0321 77.3012C46.2112 77.2764 46.4274 77.5198 46.6266 77.6402C46.4142 77.7689 46.1937 78.0187 45.9908 78.0051C45.1656 77.9496 44.4241 78.2071 43.7815 78.6394C42.65 79.4007 41.3799 80.0576 40.8861 81.4723C40.7636 81.8233 40.7579 82.214 40.6499 82.5717C40.5911 82.7665 40.4301 82.9306 40.3152 83.1085C40.2308 82.9542 40.0861 82.8043 40.0741 82.6445C40.0458 82.2691 39.9333 81.7749 40.1198 81.5334C40.5657 80.9563 40.1742 80.6875 39.8317 80.429C39.1745 79.933 38.4828 79.4724 37.5209 79.5211L37.313 79.5212C36.557 79.5233 35.8749 79.5658 35.4631 80.3022C35.4408 80.3421 35.3614 80.3501 35.3085 80.373C35.2029 80.1179 35.0789 79.8676 35.0088 79.6031C34.9965 79.5565 35.2053 79.4434 35.3192 79.3726C37.0337 78.3077 38.7188 78.7205 40.0933 79.8038C40.5177 80.1383 40.7295 80.4803 41.1273 79.7688C41.3306 79.4052 41.7989 79.1706 42.1811 78.9315C42.5599 78.6944 42.5586 78.5246 42.3487 78.114C41.6486 76.7442 40.386 76.1714 39.0552 75.8163C37.9132 75.5116 36.698 75.3816 35.5131 75.3686C34.5708 75.3582 33.5753 75.4595 32.7659 76.1094C32.7238 76.1432 32.5508 76.0141 32.4387 75.9608C32.6406 75.6751 32.788 75.2181 33.0539 75.1335L33.2768 75.0628C34.318 74.7347 35.3716 74.4447 36.5081 74.7258ZM53.8456 76.5042C55.1747 77.6871 55.9859 79.2551 56.7728 80.8088C56.9804 81.2188 56.9117 81.8863 56.3233 82.1507C55.8602 82.3587 55.4484 82.2082 55.0989 81.7942C54.7088 81.332 54.3086 80.8139 53.5593 81.0035C53.5348 81.0097 53.398 80.7881 53.4249 80.7488C53.8829 80.0791 53.5278 79.5751 53.1357 79.0467C53.0261 78.8988 53.0587 78.6454 53.0261 78.4404C53.2165 78.5042 53.4846 78.5093 53.5845 78.6415C54.1808 79.4299 54.7358 80.2494 55.311 81.054C55.4096 81.1921 55.5207 81.3351 55.6587 81.4267C55.7687 81.4996 56.0052 81.5656 56.0501 81.5148C56.1434 81.4094 56.2223 81.1918 56.1731 81.0782C56.0178 80.7192 55.8008 80.3869 55.5702 80.0069C54.9707 79.1084 54.4204 78.2392 53.8371 77.3926C53.7102 77.2083 53.4828 77.0621 53.2702 76.9771C53.0743 76.8987 52.836 76.926 52.6165 76.9068C52.617 77.1144 52.5565 77.3471 52.6296 77.5248C52.8402 78.0361 52.7704 78.4845 52.4152 78.8834C52.3621 78.943 52.0733 78.9002 52.071 78.8821C51.991 78.2551 51.7902 77.5987 51.9022 77.002C52.0969 75.9649 52.9943 75.7465 53.8456 76.5042ZM63.166 77.4513C63.22 77.7742 63.5593 78.049 63.7732 78.3462C63.7994 78.3826 63.8093 78.4305 63.8291 78.4719C64.0102 78.8521 64.1956 78.9001 64.6226 78.6947C65.1133 78.4585 65.7275 78.2914 66.2532 78.3603C67.0183 78.4605 67.748 78.8142 68.5029 79.0235C68.6834 79.0735 68.9548 79.0413 69.0872 78.9306C69.1712 78.8604 69.1449 78.5202 69.0471 78.3973C68.7877 78.0714 68.4626 77.7976 68.0889 77.4284C67.8742 77.5623 67.2906 77.0913 67.4379 77.8331C67.4666 77.9776 67.395 78.142 67.3696 78.2972C67.2319 78.2281 67.0207 78.1941 66.9683 78.0842C66.5599 77.2286 65.7046 77.1134 64.9513 76.841C64.5722 76.7039 63.1238 77.1984 63.166 77.4513ZM13.5716 73.0936C13.5328 73.3178 13.4939 73.542 13.4551 73.9157C13.753 74.6122 13.9967 75.3386 14.3622 75.9976C14.832 76.8445 14.4593 77.4846 14.011 78.15C13.9194 78.286 13.8804 78.4575 13.8172 78.6126C13.9723 78.515 14.156 78.4446 14.2781 78.3157C15.3896 77.1425 15.4616 74.5706 14.0775 73.4916C13.9083 73.3596 13.7402 73.2263 13.5716 73.0936ZM75.0689 73.542C75.7786 73.6223 76.3953 74.612 76.555 75.5611C76.8071 77.0597 75.0498 78.3151 73.4327 77.391C72.6166 76.7128 72.3113 75.8761 72.5597 74.9171C72.8758 73.6969 73.5385 73.3689 75.0689 73.542ZM13.6872 76.5315C13.6348 76.7308 13.5823 76.9302 13.4551 77.2042L13.6445 77.5779C13.7309 77.5012 13.8778 77.4342 13.8917 77.3461C13.9273 77.121 13.9156 76.8853 13.8937 76.6567C13.8892 76.6088 13.7593 76.5729 13.6872 76.5315ZM74.3599 74.2783C73.5674 74.3222 73.1538 74.6882 73.0964 75.5104C73.0545 76.1101 73.7654 76.9812 74.3489 76.9726C75.8081 76.9509 76.0435 76.401 75.6375 74.8126C75.3267 74.3578 74.8962 74.2486 74.3599 74.2783ZM56.8034 72.8926C56.9043 73.0094 56.9914 73.2092 57.1085 73.2287C57.6113 73.3121 57.9215 73.5629 57.998 74.0728C58.0543 74.4488 58.0832 74.8295 58.155 75.2022C58.1935 75.402 58.2969 75.5893 58.371 75.7822C58.4464 75.5911 58.5383 75.4047 58.5942 75.2081C58.7894 74.5208 58.9818 74.0172 59.9272 73.9208C60.5625 73.8561 61.1655 73.3114 61.9098 73.5895C61.9631 73.6095 62.0425 73.5595 62.1846 73.4673C62.2785 73.3618 62.3724 73.2564 62.4663 73.151C62.3209 73.0821 62.173 72.9496 62.0306 72.9553C61.4787 72.9776 60.9124 72.9778 60.381 73.1074C59.2963 73.3719 58.2653 73.2733 57.2403 72.8691C57.117 72.8204 56.9501 72.8821 56.8034 72.8926ZM26.829 69.9589C26.999 70.0264 27.2024 70.0574 27.3289 70.1727C27.4346 70.2691 27.4867 70.461 27.4998 70.6158C27.5633 71.366 27.6056 72.118 27.6554 72.9441C27.7053 73.5461 27.7599 74.073 27.7955 74.6011C27.7983 74.6421 27.6329 74.7464 27.6055 74.7287C27.462 74.6361 27.2429 74.5285 27.2225 74.399C27.0924 73.5735 27.0175 72.7395 26.9042 71.911C26.8405 71.4452 26.7134 70.9873 26.6658 70.5206C26.6474 70.3408 26.7704 70.1465 26.829 69.9589ZM107.003 42.4863C107.356 42.6882 107.699 43.1938 107.734 43.5918C107.787 44.1963 108.032 44.262 108.521 44.2508C110.405 44.2076 111.903 45.1392 113.285 46.2626C114.364 47.1397 115.41 48.0702 116.382 49.0641C117.645 50.356 118.94 51.6462 120 53.0991C121.168 54.7019 120.524 55.7212 119.129 56.7897C117.686 57.8951 116.155 58.8853 114.71 59.989C114.341 60.2714 114.082 60.7203 114.433 61.3168C115.153 62.54 116.909 63.1827 118.023 62.4592C118.474 62.1664 118.769 61.6337 119.173 61.1728C120.272 59.787 121.766 59.0093 123.194 58.1512C124.13 57.5886 124.406 57.3763 123.743 56.303C123.283 55.557 122.799 54.6449 121.613 54.8453C121.449 54.873 121.257 54.7373 121.078 54.6772C121.261 54.4881 121.417 54.1821 121.632 54.1314C122.343 53.9641 123.01 54.2315 123.43 54.777C123.966 55.4733 124.454 56.242 124.767 57.0548C124.885 57.3596 124.569 58.0283 124.252 58.2676C123.171 59.0843 121.972 59.7451 120.875 60.544C120.302 60.9617 119.839 61.5358 119.353 62.0634C119.302 62.1184 119.393 62.4338 119.48 62.4667C121.618 63.2789 123.771 64.0176 125.697 65.3366C127.222 66.3814 128.904 67.1987 130.532 68.088C130.577 68.1124 130.905 67.817 130.924 67.6502C130.98 67.1748 130.9 66.6838 130.954 66.2079C131.052 65.3319 130.788 64.6609 130.098 64.0853C128.313 62.5962 126.563 61.0644 124.799 59.5486C124.724 59.4838 124.636 59.4199 124.592 59.3355C124.506 59.1676 124.447 58.9856 124.376 58.8095C124.617 58.807 124.939 58.702 125.085 58.8183C126.104 59.6328 127.1 60.4791 128.079 61.3429C128.853 62.0256 129.591 62.7486 130.347 63.4508C130.425 63.5231 130.522 63.5751 130.61 63.6366C130.672 63.5126 130.791 63.3856 130.785 63.265C130.758 62.7279 130.655 62.1926 130.656 61.6566C130.657 61.1043 130.811 60.5487 130.783 60.0002C130.66 57.5199 130.47 55.0427 130.357 52.562C130.297 51.2683 130.976 50.3996 132.2 49.92C133.699 49.3328 135.24 48.9722 136.85 48.8723C138.857 48.7479 140.864 48.443 142.867 48.4682C144.88 48.4934 146.887 48.8318 148.898 49.0265C150.002 49.1334 151.107 49.2264 152.212 49.3269C154.396 49.5257 156.584 49.6944 158.762 49.9533C159.152 49.9997 159.593 50.3482 159.846 50.6819C160.601 51.6756 160.943 52.8131 161.016 54.087C161.096 55.4811 161.399 56.8615 161.581 58.251C161.663 58.8739 161.707 59.5035 161.733 60.1316C161.841 62.7306 162.032 65.3315 161.995 67.9289C161.976 69.2755 161.556 70.6183 161.296 71.959C161.154 72.6957 160.573 72.9799 159.926 73.0837C158.773 73.2684 157.608 73.3799 156.452 73.5441C149.506 74.5302 142.518 73.9799 135.549 74.1545C132.573 74.2291 129.889 73.4388 127.325 71.9754C126.025 71.2338 124.942 70.3768 124.594 68.8848C124.43 68.1794 124.266 67.3693 124.945 66.7805C125.123 66.6259 125.409 66.5793 125.655 66.5284C125.741 66.5107 125.855 66.6295 125.956 66.686C125.905 66.774 125.873 66.8873 125.799 66.9462C125.256 67.3743 125.318 67.7392 125.809 68.2C127.118 69.4267 128.75 70.0826 130.321 70.8506C130.466 70.9213 130.613 70.9888 130.765 71.0418C130.862 71.0756 131.022 71.1289 131.061 71.0871C131.141 71.0009 131.192 70.8573 131.194 70.7364C131.196 70.6026 131.078 70.4579 131.102 70.3349C131.306 69.2589 130.675 68.862 129.817 68.413C127.374 67.1337 124.998 65.7264 122.595 64.3719C122.011 64.0429 121.413 63.8625 120.763 64.2094C120.664 64.2621 120.533 64.2718 120.417 64.2719C117.527 64.2751 114.637 64.312 111.748 64.2622C109.571 64.2246 107.397 64.0451 105.22 63.983C102.401 63.9025 99.5816 63.8599 96.7621 63.8309C94.4207 63.8069 92.0787 63.8418 89.7372 63.8227C84.9996 63.784 80.2619 63.746 75.525 63.6649C74.0454 63.6396 72.567 63.4909 71.091 63.3635C70.8583 63.3434 70.6417 63.1363 70.4176 63.0157C70.6555 62.8872 70.8956 62.6429 71.1308 62.6475C74.9513 62.7227 78.7711 62.8308 82.5912 62.9275C83.0728 62.9397 83.5549 62.9242 84.0367 62.9299C88.1016 62.9784 92.1665 63.0223 96.2312 63.084C97.0667 63.0967 97.901 63.1797 98.736 63.2268C98.8846 63.2351 99.0574 63.2719 99.1762 63.2115C99.2828 63.1572 99.3306 62.9873 99.4044 62.8683C99.2947 62.8388 99.1612 62.7534 99.0793 62.7885C98.3945 63.0822 98.5416 62.7759 98.6093 62.2801C98.8006 60.8791 98.9431 59.4967 98.5518 58.0583C98.2449 56.9299 98.5676 55.7243 98.9845 54.6059C99.4028 53.484 99.841 52.3692 100.241 51.2409C100.315 51.0332 100.247 50.7756 100.245 50.5411C100.072 50.6521 99.9033 50.771 99.7244 50.8718C99.5212 50.9864 99.3089 51.0849 99.1006 51.1904C99.1022 50.932 99.0264 50.6416 99.118 50.4206C99.6997 49.0174 100.336 47.6366 100.91 46.2306C101.024 45.9526 100.955 45.5975 100.959 45.2779C100.962 44.9936 100.883 44.6911 100.955 44.428C101.243 43.3723 101.877 43.0809 102.977 43.4013C104.04 43.7111 104.504 44.3455 104.003 45.4025C103.553 46.3534 103.701 47.137 104.022 48.0427C104.637 49.7841 105.146 51.5629 105.718 53.3199C106.224 54.8712 106.004 56.3772 105.37 57.8151C104.596 59.5718 103.713 61.2784 102.395 62.7136C102.308 62.8079 102.293 62.9678 102.244 63.0972C102.39 63.1408 102.535 63.2203 102.681 63.2222C103.561 63.234 104.442 63.2109 105.322 63.2319C106.821 63.2678 108.32 63.3306 109.819 63.3768C111.542 63.4299 113.265 63.4702 114.988 63.5323C115.392 63.5468 115.793 63.6332 116.197 63.6709C116.276 63.6783 116.362 63.6134 116.445 63.5818C116.374 63.5137 116.312 63.4314 116.23 63.3798C115.56 62.9557 114.831 62.6029 114.226 62.1004C113.475 61.4758 113.452 60.9999 113.827 60.0698C113.868 59.9691 113.737 59.6946 113.63 59.6551C112.764 59.337 111.891 59.0315 111.007 58.7714C110.261 58.5522 109.776 59.0126 109.313 59.5105C109.178 59.6552 108.967 59.7284 108.791 59.8343C108.801 59.5725 108.727 59.2677 108.836 59.056C109.353 58.0428 110.421 57.8911 111.817 58.3763C112.601 58.6487 113.376 58.9544 114.176 59.1705C114.403 59.232 114.744 59.0924 114.96 58.9411C116.084 58.1526 117.196 57.3446 118.29 56.514C118.773 56.1467 119.251 55.7508 119.647 55.294C120.077 54.7965 119.896 54.2399 119.578 53.7302C118.289 51.6691 116.443 50.1326 114.673 48.5247C114.001 47.9144 113.358 47.2705 112.669 46.681C111.447 45.6368 110.023 45.0196 108.425 44.8503C107.675 44.7709 107.46 45.055 107.324 46.0676C107.186 47.1033 107.055 48.1414 106.86 49.1671C106.808 49.4409 106.589 49.804 106.356 49.8958C105.947 50.0569 105.666 49.784 105.483 49.3654C105.131 48.5633 104.68 47.8041 104.347 46.9955C103.872 45.8409 104.437 44.2585 105.525 43.495C105.703 43.3708 105.916 43.2494 106.015 43.0723C106.245 42.6631 106.552 42.2271 107.003 42.4863ZM78.6922 72.0562C79.2597 72.1829 79.5002 72.6325 79.3487 73.1564C79.2712 73.4245 78.926 73.6153 78.6271 73.841C77.8366 73.7936 77.5224 73.4545 77.5807 72.7921C77.6359 72.165 77.9953 71.9005 78.6922 72.0562ZM144.012 49.1895C141.985 49.2523 139.962 49.4067 137.935 49.467C136.215 49.5182 134.535 49.7804 132.935 50.3885C131.661 50.8726 130.94 51.2492 131.088 52.8678C131.26 54.7458 131.425 56.6259 131.526 58.5086C131.569 59.3046 131.396 60.1102 131.403 60.9107C131.414 62.2101 131.494 63.5087 131.541 64.8078C131.593 66.2063 131.634 67.6053 131.695 69.0034C131.725 69.7056 131.827 70.4062 131.83 71.1078C131.833 71.7627 131.375 72.1327 130.858 71.8664C129.085 70.9537 127.141 70.337 125.649 68.9254C125.568 68.8487 125.448 68.8133 125.346 68.7587C125.327 68.8918 125.242 69.0803 125.3 69.1491C125.786 69.729 126.206 70.4335 126.823 70.8197C127.97 71.5389 129.23 72.082 130.457 72.6712C130.932 72.8997 131.435 73.1923 131.939 73.2189C133.981 73.3268 136.029 73.3909 138.075 73.3827C142.636 73.3643 147.198 73.3497 151.757 73.2199C154.168 73.1513 156.574 72.8706 158.978 72.6347C160.282 72.5067 160.817 72.0465 160.971 70.8586C161.147 69.5069 161.271 68.1375 161.266 66.7763C161.26 65.1988 161.098 63.6213 160.986 62.045C160.847 60.0645 160.711 58.0834 160.533 56.1062C160.426 54.9194 160.279 53.7333 160.081 52.5583C159.892 51.4306 159.078 50.6151 158.17 50.523C157.165 50.4213 156.162 50.3139 155.156 50.2255C152.824 50.0203 150.49 49.8348 148.159 49.6184C147.623 49.5686 147.096 49.4264 146.415 49.3268C145.614 49.2769 144.811 49.1647 144.012 49.1895ZM65.2639 69.2307C64.9909 69.3259 64.8183 69.6826 64.5725 69.8879C64.2281 70.1755 63.8877 70.4915 63.4927 70.6903C62.4986 71.1905 61.4235 71.3205 60.313 71.314C59.2648 71.3078 58.2161 71.3967 57.1673 71.4359C57.0481 71.4404 56.927 71.394 56.8069 71.3712C56.8397 71.5059 56.8595 71.6456 56.9076 71.7747C57.14 72.3981 57.7287 72.4525 58.2375 72.4808C60.6578 72.6154 63.036 72.2554 65.3912 71.7392C65.9408 71.6188 66.3684 71.3215 66.2264 70.6254C66.1874 70.4342 66.2205 70.2284 66.2205 69.8798C66.129 69.3256 65.7833 69.0495 65.2639 69.2307ZM62.1307 69.5238C60.9254 69.554 59.7696 69.8216 58.7054 70.4093C58.5947 70.4704 58.5324 70.6191 58.4477 70.7271C58.5698 70.7686 58.6958 70.8545 58.8136 70.8445C59.8653 70.7548 60.9195 70.6754 61.9633 70.5262C62.2053 70.4917 62.4108 70.2017 62.633 69.8798C62.4655 69.7553 62.2951 69.5198 62.1307 69.5238ZM62.626 67.6306C62.4205 67.7411 62.1754 67.8122 62.0179 67.9705C61.7033 68.2867 61.4367 68.6508 61.1503 68.995C61.6197 68.8665 62.089 68.7379 62.633 68.5345C62.633 68.4364 62.6338 68.3382 62.6329 68.2401C62.631 68.0369 62.6283 67.8338 62.626 67.6306ZM75.6375 67.1145C75.9365 67.2294 76.1607 67.3443 76.3849 67.4592C76.1727 67.7429 76.0125 68.1446 75.7301 68.2692C75.5392 68.3534 75.023 68.1197 74.9201 67.9017C74.6557 67.3421 75.2615 67.3169 75.6375 67.1145ZM34.7575 64.4578C36.9381 65.0708 39.166 65.0157 41.3954 65.0297C43.567 65.0433 45.7382 65.1215 47.9843 65.1713C49.7777 65.1713 51.4966 65.159 53.2151 65.1782C53.7928 65.1846 54.3717 65.2554 54.9452 65.3325C55.0765 65.3502 55.188 65.5158 55.3087 65.6133C55.1923 65.7151 55.0909 65.8628 54.9557 65.9067C54.798 65.958 54.6109 65.9187 54.4365 65.9187C51.0987 65.9187 47.7608 65.9361 44.4231 65.9122C42.401 65.8977 40.3754 65.8792 38.3588 65.7478C37.039 65.6618 35.7315 65.3777 34.4222 65.16C34.2957 65.1389 34.1954 64.9599 34.0829 64.8542C34.3101 64.7138 34.5835 64.4089 34.7575 64.4578ZM117.8 63.303C117.733 63.3193 117.693 63.4495 117.641 63.5268C117.729 63.5767 117.817 63.6681 117.906 63.6699C118.533 63.6825 119.161 63.6819 119.788 63.6721C119.92 63.6701 120.051 63.6123 120.182 63.5802C120.057 63.4628 119.933 63.3455 119.733 63.1534C119.028 62.3753 118.435 63.1492 117.8 63.303ZM100.301 62.7049L99.9163 63.0674C100.188 63.1209 100.459 63.1879 100.733 63.221C100.833 63.2331 100.943 63.1645 101.049 63.1327C100.922 62.9652 100.81 62.7838 100.663 62.6379C100.613 62.5889 100.474 62.6302 100.301 62.7049ZM110.992 59.3449C111.017 59.5665 111.085 59.7927 111.061 60.0087C110.98 60.7356 110.909 61.4691 110.742 62.1782C110.681 62.4347 110.802 63.1296 110.055 62.7423C110.167 61.7529 110.292 60.796 110.485 59.853C110.525 59.6572 110.817 59.5129 110.992 59.3449ZM102.182 46.5154C102.081 46.499 101.863 46.7931 101.81 46.9776C101.712 47.3163 101.729 47.6872 101.641 48.0301C101.044 50.359 100.504 52.699 99.5918 54.9433C99.2658 55.7451 99.2172 56.716 99.2601 57.5992C99.3341 59.1246 100.253 60.3628 100.92 61.6789C101.49 62.8045 101.538 62.8064 102.284 61.771C102.327 61.7112 102.398 61.6713 102.439 61.6107L102.589 61.3918C104.13 59.1286 105.572 56.8273 105.159 53.8111C104.437 51.4977 103.729 49.1794 102.965 46.88C102.9 46.6843 102.464 46.5607 102.182 46.5154ZM99.9527 61.609C99.7699 61.6754 99.5871 61.7417 99.4044 61.9575C99.6036 61.9069 99.8032 61.8572 99.9998 61.7977C100.003 61.7967 99.9692 61.6746 99.9527 61.609ZM36.0759 60.252C39.6156 60.2829 43.1564 60.2967 46.6942 60.4038C48.776 60.4669 50.8523 60.6987 52.9325 60.8319C54.1053 60.907 55.2827 60.9123 56.4549 60.994C57.2879 61.0521 58.1176 61.1719 58.9438 61.2974C59.0901 61.3196 59.2116 61.5049 59.3445 61.615C59.1909 61.7042 59.0334 61.8769 58.8841 61.8701C57.1319 61.7903 55.381 61.6824 53.6296 61.5853C53.4311 61.5743 53.2308 61.5941 53.0323 61.5823C48.343 61.304 43.6557 60.9849 38.9519 61.1253C38.2029 61.1477 37.4499 61.0358 36.624 60.9859C36.375 60.9859 36.1766 61.0392 36.0321 60.9736C35.8113 60.8734 35.6276 60.6911 35.4282 60.5437C35.6442 60.442 35.8609 60.2501 36.0759 60.252ZM100.783 48.2804C100.523 48.7894 100.258 49.296 100.012 49.8121C99.9947 49.849 100.122 50.0151 100.18 50.0138C100.268 50.0118 100.403 49.9347 100.432 49.8571C100.602 49.4116 100.746 48.9565 100.899 48.3552C100.86 48.3302 100.822 48.3053 100.783 48.2804ZM106.696 43.3254C106.148 43.7414 105.619 44.1835 105.084 44.7677C104.667 45.4521 104.715 46.1279 105.051 46.8396C105.353 47.4804 105.572 48.1603 105.852 48.8122C105.915 48.9571 106.082 49.0568 106.202 49.1773C106.278 48.9865 106.412 48.7967 106.416 48.6046C106.421 48.3288 106.242 48.0327 106.295 47.7776C106.534 46.6441 106.846 45.5261 107.088 44.3934C107.152 44.0927 107.082 43.7564 107.031 43.4436C107.02 43.3831 106.752 43.2833 106.696 43.3254ZM94.6045 40.0053C94.2643 40.4793 94.5989 40.6702 94.9347 40.9765C95.3968 41.3982 95.8292 41.9148 96.0964 42.4755C96.822 43.998 96.7794 45.6691 96.8632 47.4583C96.9118 48.1883 97.1315 48.2976 97.7354 47.9366C99.1049 47.1177 99.7064 45.7395 100.279 44.3713C100.519 43.7996 100.713 43.0826 99.9565 42.6326C99.4189 42.3127 98.8702 42.0116 98.3256 41.7036C97.3779 41.1676 96.4103 40.6633 95.4918 40.0812C95.164 39.8734 94.9384 39.5402 94.6045 40.0053ZM101.411 44.2556C101.208 44.5934 101.526 45.4136 101.967 45.6857C102.486 46.0068 103.102 45.873 103.515 45.2909C103.819 44.8402 103.773 44.4995 103.247 44.2392C102.467 43.8535 101.66 43.8433 101.411 44.2556ZM66.215 1.02091C67.3162 1.25379 68.4686 1.24542 69.598 1.34458C71.3046 1.49441 73.0139 1.61845 74.7166 1.80409C75.5268 1.89243 75.9709 2.72627 75.9492 3.74636C75.9336 4.48012 76.0201 5.21792 76.0901 5.95115C76.1719 6.80828 76.3234 7.66001 76.3772 8.51831C76.5011 10.4931 76.5676 12.4715 76.6925 14.4462C76.7389 15.1804 76.9949 15.9141 76.9584 16.6382C76.8924 17.9495 76.6817 19.2537 76.5254 20.5601C76.4348 21.3178 76.2635 22.0727 76.2488 22.8312C76.2095 24.848 76.2534 26.8663 76.229 28.8836C76.213 30.2084 76.1957 31.5383 76.0682 32.8552C75.9526 34.051 75.6573 35.2286 75.5044 36.4223C75.4514 36.8368 75.6365 37.2765 75.6286 37.7032C75.6026 39.1028 75.499 40.5018 75.5054 41.9007C75.5083 42.5419 74.9561 42.6674 74.6757 42.6971C73.391 42.8331 72.1785 43.3327 70.8337 43.2289C68.6962 43.064 66.5435 43.0826 64.3968 43.0578C63.6958 43.0497 62.9901 43.2191 62.2924 43.1854C59.8868 43.0692 57.4836 42.9019 55.0799 42.7479C54.5019 42.7108 53.926 42.615 53.3482 42.606C49.4833 42.5452 45.6166 42.5481 41.7539 42.425C40.4101 42.3822 39.0584 42.1784 37.8533 41.3923C36.9097 40.7768 36.423 39.8987 36.3533 38.8848C36.2097 36.7947 36.1675 34.693 36.1921 32.5972C36.2161 30.5453 36.3585 28.494 36.482 26.4444C36.5381 25.5116 36.7234 24.5857 36.7613 23.653C36.8111 22.426 36.7552 21.195 36.7798 19.9665C36.7969 19.1149 36.8732 18.2644 36.923 17.3387C36.8732 16.4875 36.7746 15.7106 36.7829 14.9348C36.8054 12.8294 36.8671 10.7243 36.9335 8.61966C36.9394 8.43442 37.0934 8.25387 37.1787 8.07114C37.3426 8.25419 37.6537 8.44289 37.6469 8.61941C37.5958 9.95206 37.4715 11.2817 37.3932 12.6136C37.3583 13.2074 37.3623 13.8046 37.3741 14.3997C37.4172 16.5711 37.4966 18.7422 37.5107 20.9137C37.5183 22.0883 37.4209 23.2636 37.3715 24.4386C37.2716 26.8134 37.1836 29.1888 37.0685 31.5629C36.9896 33.1915 36.821 34.8174 36.7941 36.4462C36.7791 37.3495 36.8958 38.2733 37.0909 39.1575C37.3688 40.4166 38.3279 41.1007 39.5035 41.3814C40.4061 41.5969 41.3571 41.6186 42.2889 41.699C43.1133 41.7701 43.9408 41.8378 44.7673 41.8421C45.4438 41.8455 46.1214 41.7044 46.7975 41.7126C48.8446 41.7371 50.8913 41.7964 52.9378 41.8553C54.2128 41.8921 55.4923 41.8961 56.7606 42.0137C59.7079 42.2871 62.6524 42.5258 65.6179 42.46C67.7426 42.4129 69.8704 42.4921 71.9944 42.4303C72.8328 42.4059 73.6663 42.1606 74.4977 41.994C74.6398 41.9655 74.868 41.8322 74.8728 41.7379C74.9075 41.0575 74.8844 40.3744 74.8995 39.6927C74.9281 38.4057 74.9385 37.1172 75.017 35.833C75.0723 34.929 75.2415 34.0325 75.3351 33.1301C75.4494 32.0271 75.5944 30.9228 75.6212 29.8165C75.6469 28.7594 75.4978 27.6989 75.499 26.64C75.5002 25.5148 75.5396 24.385 75.6491 23.2657C75.8024 21.6998 76.1168 20.1465 76.2083 18.5788C76.2739 17.4536 76.4614 16.2984 76.0952 15.1758C76.0659 15.0859 76.0888 14.9792 76.0858 14.8804C76.0362 13.2571 76.051 11.6284 75.9175 10.012C75.7946 8.52329 75.4971 7.04966 75.3073 5.56543C75.2272 4.93866 75.2056 4.30217 75.1938 3.66941C75.1752 2.66934 74.9223 2.44408 73.9199 2.38246C71.9624 2.26214 70.0072 2.10152 68.0526 1.93966C66.4196 1.80443 64.791 1.59255 63.1557 1.51701C62.4061 1.48238 61.6468 1.71004 60.8883 1.78159C60.6957 1.79977 60.4896 1.67586 60.2897 1.61723C60.3984 1.47633 60.4892 1.31444 60.6216 1.20141C60.7207 1.11687 60.8697 1.07051 61.0031 1.04948C62.7379 0.776052 64.4596 0.649703 66.215 1.02091ZM52.6807 2.11361C54.7066 2.10716 56.7333 2.28972 58.7594 2.39176C59.6607 2.43715 60.561 2.51314 61.4627 2.53616C63.9078 2.5986 66.3619 2.53536 68.7959 2.72921C70.2591 2.84575 71.765 2.96546 73.0493 4.00462C74.1323 4.88079 74.7659 5.97553 75.0042 7.23162C75.3428 9.01581 75.4548 10.8445 75.6306 12.6575C75.72 13.5796 75.8182 14.513 75.7689 15.4337C75.6853 16.9944 75.4916 18.5495 75.3372 20.1063C75.2449 21.0372 75.0973 21.9646 75.0479 22.8975C74.9233 25.2463 74.837 27.5971 74.7419 29.9474C74.6853 31.3464 74.6533 32.7464 74.5882 34.145C74.5007 36.0224 74.3965 37.899 74.2879 39.7753C74.2688 40.1052 74.2228 40.44 74.1365 40.7582C73.9558 41.4241 73.3365 41.4954 72.8226 41.5363C70.9987 41.6812 69.169 41.7533 67.2668 41.8529C64.693 41.623 62.2025 41.3304 59.6801 41.3813C58.2542 41.4101 56.8248 41.1438 55.395 41.1188C52.7468 41.0724 50.094 41.187 47.449 41.0837C44.5241 40.9695 41.6439 40.5267 38.9852 39.1647C37.8472 38.5817 37.344 37.7189 37.6856 36.5122C38.4165 33.9309 38.0001 31.3027 38.1183 28.6974C38.2204 26.4471 38.3144 24.1964 38.4197 21.9462C38.4573 21.1442 38.5409 20.3439 38.5628 19.5417C38.6253 17.2461 38.6787 14.95 38.7125 12.6538C38.7347 11.1509 38.7616 9.64559 38.6977 8.14515C38.666 7.40186 38.427 6.66835 38.2976 5.92767C38.2599 5.71204 38.2371 5.47827 38.2828 5.26932C38.311 5.14075 38.4819 5.04346 38.5887 4.93212C38.6812 5.03288 38.8365 5.12268 38.8563 5.23611C39.0231 6.1925 39.2564 7.14938 39.2968 8.11335C39.4001 10.5815 39.4732 13.054 39.4478 15.5236C39.4215 18.0737 39.2782 20.6232 39.1602 23.1717C39.0871 24.7508 38.9292 26.3264 38.8748 27.9059C38.7922 30.3004 38.7842 32.6975 38.7025 35.0921C38.6853 35.5957 38.5125 36.101 38.3649 36.5916C38.1236 37.3931 38.2684 37.7994 38.9465 38.2777C40.2737 39.2138 41.8014 39.5821 43.3523 39.9142C45.563 40.3877 47.8015 40.352 50.0427 40.3659C52.746 40.3828 55.4497 40.4342 58.1519 40.5155C60.1296 40.575 62.105 40.7069 64.0815 40.8066C66.0579 40.9062 68.0336 41.0542 70.0112 41.0853C71.0143 41.1011 72.0273 40.9446 73.0204 40.7756C73.2297 40.74 73.4976 40.3213 73.5228 40.0585C73.6256 38.9881 73.6525 37.91 73.6924 36.8343C73.7497 35.2858 73.7894 33.7367 73.8453 32.1883C73.8876 31.0129 73.9045 29.8348 74.0023 28.6638C74.1523 26.8691 74.3682 25.0799 74.5343 23.2863C74.5464 23.1557 74.3989 22.9044 74.2956 22.8869C73.7747 22.7988 73.2433 22.7222 72.7165 22.7276C69.2993 22.7624 65.8822 22.869 62.4655 22.8524C60.0901 22.8408 57.7154 22.6699 55.3404 22.5705C54.1404 22.5202 52.9408 22.4595 51.7404 22.4235C49.7685 22.3642 47.7939 22.3631 45.8247 22.2583C44.239 22.1739 42.6573 21.9933 41.0782 21.8163C39.8543 21.6791 39.5243 21.0875 39.8983 19.9353C39.9934 19.6423 39.8965 19.291 39.9221 18.9692C39.93 18.8695 40.051 18.7788 40.1203 18.684C40.2005 18.7678 40.3298 18.84 40.353 18.9374C40.5022 19.565 40.9572 19.8094 41.5299 19.8756C42.9362 20.038 44.3419 20.2377 45.7536 20.314C47.7227 20.4204 49.6971 20.4614 51.6694 20.4669C53.1931 20.4712 54.7172 20.3297 56.2407 20.338C59.8073 20.3574 63.3742 20.4036 66.9399 20.487C69.0172 20.5356 71.0926 20.6708 73.1678 20.7876C73.3477 20.7977 73.519 20.962 73.6943 21.0546C73.533 21.1613 73.3703 21.3625 73.2105 21.3602C71.2544 21.3325 69.2989 21.2627 67.3428 21.2294C66.023 21.2069 64.7023 21.2341 63.3822 21.2236C57.5738 21.1773 51.7635 21.1951 45.9582 21.0342C44.1595 20.9843 42.2715 21.0661 40.5701 20.1869C40.4866 20.1438 40.2941 20.1811 40.2393 20.2501C40.1853 20.3179 40.1961 20.5189 40.2587 20.5825C40.4415 20.768 40.6469 21.0205 40.8743 21.0577C42.0267 21.2461 43.1856 21.4653 44.3481 21.5062C47.2899 21.6097 50.2355 21.5994 53.1783 21.6824C55.0315 21.7346 56.8824 21.8718 58.7342 21.9728C60.5364 22.0711 62.3382 22.2494 64.1405 22.2546C67.4328 22.2641 70.7253 22.167 74.0178 22.1283C74.4098 22.1236 74.5746 22.0277 74.603 21.5933C74.7247 19.7353 74.8783 17.8792 75.0427 16.0243C75.2361 13.8412 75.0154 11.684 74.76 9.51801C74.5954 8.1227 74.3902 6.79956 73.5644 5.59341C72.7321 4.37771 71.6406 3.68445 70.2096 3.59913C67.7874 3.4547 65.3609 3.37976 62.9357 3.2905C61.2131 3.22711 59.4895 3.194 57.7666 3.1371C54.8932 3.04221 52.0205 2.8803 49.1468 2.86055C47.2956 2.84782 45.4423 3.02585 43.5915 3.14305C42.4106 3.21784 41.234 3.37015 40.0526 3.42413C39.4303 3.45256 39.0019 3.61353 38.8562 4.27338C38.8265 4.40786 38.6683 4.51397 38.5693 4.63317C38.469 4.49045 38.3039 4.35796 38.2794 4.20325C38.1697 3.50918 38.5882 2.99342 39.3902 2.84475C40.0665 2.71935 40.7485 2.59449 41.4332 2.5503C42.7306 2.46657 44.0319 2.44272 45.3314 2.39061C47.7812 2.29236 50.2307 2.12179 52.6807 2.11361ZM108.836 22.9624C108.223 23.6226 107.477 23.9648 106.505 24.2146C105.749 24.1631 104.955 24.4053 104.282 23.7989C103.595 23.1802 103.184 23.3522 102.826 24.2304C102.652 24.6561 102.369 25.0909 102.017 25.3761C101.595 25.7178 101.019 25.8611 100.562 26.1682C99.9254 26.5964 99.2421 26.7006 98.5766 26.4195C98.0783 26.209 98.0972 26.4526 98.058 26.7715C97.9827 27.3841 98.4047 27.732 98.754 28.1294C99.1952 28.6312 99.5845 29.1115 99.2796 29.8987C99.054 30.4812 99.0405 31.1498 98.9595 31.7835C98.8437 32.6899 99.32 33.351 99.8419 34.0356C101.585 36.3227 103.246 38.6829 105.571 40.4397C105.955 40.7306 106.553 40.9936 106.987 40.9145C107.955 40.7383 109.01 40.5281 109.8 39.9926C112.204 38.3621 114.387 36.4417 116.158 34.1161L116.238 34.0119C116.842 33.2289 117.534 32.4158 117.062 31.2409C116.96 30.9854 117.064 30.6156 117.151 30.3211C117.371 29.5686 117.733 28.8433 117.846 28.0787C117.917 27.5998 117.711 27.0347 117.484 26.5812C117.406 26.4258 116.878 26.5235 116.57 26.4489C116.167 26.3516 115.774 26.2101 115.385 26.0641C115.127 25.9672 114.889 25.7378 114.635 25.7267C113.901 25.6947 113.417 25.3875 112.984 24.7803C112.56 24.1861 112.074 23.5479 111.098 23.8927C110.601 24.0683 110.114 23.8393 109.89 23.2687C109.641 22.633 109.28 22.4853 108.836 22.9624ZM39.0381 36.823C39.2081 36.8585 39.429 36.8381 39.54 36.9387C40.2273 37.5621 41.0265 37.7684 41.9434 37.8378C43.6096 37.9639 45.2662 38.2162 46.9272 38.4134C47.0254 38.4251 47.1262 38.4138 47.2258 38.4151C51.0901 38.4647 54.9545 38.5063 58.8186 38.5684C60.442 38.5945 62.0647 38.7051 63.6876 38.703C65.5098 38.7006 67.3319 38.6107 69.1543 38.5662C69.8878 38.5482 70.6222 38.5327 71.3551 38.5548C71.5333 38.5602 71.707 38.7185 71.8827 38.8065C71.6579 38.9251 71.4399 39.1269 71.2069 39.146C70.6133 39.195 70.0128 39.1549 69.4152 39.1636C66.1486 39.2108 62.8821 39.2834 59.6154 39.302C58.167 39.3103 56.7183 39.1812 55.2694 39.173C54.2693 39.1673 53.2684 39.3068 52.2683 39.3011C50.8194 39.2929 49.3708 39.215 47.9225 39.1564C47.8168 39.1521 47.7145 39.0627 47.5359 39.0128C45.096 39.0241 42.7548 38.7722 40.4553 38.2389C39.963 38.1248 39.5319 37.6946 39.111 37.3616C39.0087 37.2806 39.0583 37.0077 39.0381 36.823ZM105.864 35.5206C107.027 35.7119 107.889 35.9143 109.006 36.181C109.535 36.3073 109.646 36.6844 109.25 37.0896C107.989 38.3793 106.188 38.4756 105.146 36.6394C104.854 36.1243 105.311 35.7744 105.864 35.5206ZM69.506 30.7741C70.2011 31.0911 70.474 31.5146 70.2444 32.2246C69.9465 33.1457 69.6892 34.0819 69.3436 34.9845C69.1884 35.3896 68.8612 35.7289 68.5747 36.1354C66.7692 37.6445 64.8012 38.3601 62.4782 37.8283C62.1238 37.7472 61.7275 37.7695 61.3635 37.8265C60.5011 37.9617 59.8033 37.5341 59.0799 37.206C58.9298 37.1379 58.7281 36.8552 58.7665 36.7512C59.1318 35.7604 59.4096 34.7006 59.9715 33.8271C61.0178 32.2005 62.608 31.3456 64.5617 31.2426C65.767 31.179 66.9747 31.158 68.1789 31.0814C68.6254 31.0531 68.9258 30.5095 69.506 30.7741ZM52.7851 23.8013C53.81 23.7952 54.8577 23.8925 55.855 24.124C56.6798 24.3155 56.7365 25.155 56.7931 25.86C56.8427 26.4788 56.8034 27.1046 56.8034 27.8021C56.7536 29.9485 56.7117 32.0203 56.6492 34.0916C56.6302 34.7195 56.5767 35.3485 56.4988 35.9719C56.4029 36.7382 55.5585 37.3297 54.4916 37.3625C53.546 37.3916 52.5834 37.4685 51.6588 37.326C51.2038 37.2559 50.7384 36.8024 50.4159 36.4091C49.5438 35.346 49.9596 34.0603 49.9412 32.8556C49.9398 32.767 50.1336 32.6755 50.2367 32.5853C50.333 32.7073 50.5031 32.8239 50.5122 32.952C50.5455 33.4229 50.5776 33.9048 50.5137 34.3692C50.4069 35.1445 50.7728 35.7465 51.1269 36.3628C51.1814 36.4575 51.2843 36.5243 51.3648 36.6039C51.4338 36.4831 51.5687 36.3581 51.5616 36.2419C51.4888 35.0574 51.3785 33.8752 51.3091 32.6906C51.2686 31.9992 51.2929 31.3043 51.2707 30.6115C51.228 29.2783 51.1742 27.9455 51.1086 26.6133C51.1079 26.5996 50.8775 26.5666 50.769 26.5962C50.6201 26.6369 50.4852 26.7289 50.3443 26.7988C50.3185 26.5965 50.2057 26.3499 50.2823 26.1997C50.5982 25.5799 50.8844 24.9059 51.353 24.416C51.6893 24.0645 52.2968 23.8042 52.7851 23.8013ZM47.6563 29.3617C48.4889 29.4746 48.6896 30.2042 48.8857 30.9032C49.2991 32.3768 49.2042 33.8611 49.0306 35.4254C49.0306 36.8296 48.6715 37.256 47.129 37.3457C45.986 37.4122 44.8293 37.2906 43.6816 37.2102C43.0874 37.1685 42.8387 36.7071 42.7582 36.1838C42.495 34.4712 42.4948 32.7634 42.8961 31.0647C42.9781 30.7178 42.9334 30.3378 43.0349 29.9994C43.2679 29.222 44.0343 29.2126 44.6045 29.1814C45.6165 29.126 46.6473 29.2248 47.6563 29.3617ZM105.747 36.4143C105.807 36.5018 105.851 36.6093 105.931 36.6734C106.522 37.1519 107.157 37.479 108.023 37.1274C108.198 37.0355 108.372 36.9435 108.546 36.8516C108.515 36.794 108.492 36.6935 108.451 36.6854C107.649 36.5273 106.846 36.3731 106.04 36.2407C105.954 36.2266 105.845 36.3531 105.747 36.4143ZM69.0403 31.5001C68.3868 31.5808 67.7444 31.7602 67.0902 31.8226C66.7203 31.8579 66.3365 31.7293 65.9572 31.6942C65.849 31.6842 65.6767 31.7106 65.6376 31.7793C65.5923 31.8591 65.6359 32.0929 65.6846 32.1068C66.2576 32.2701 66.114 32.6635 65.9914 33.0342C65.7855 33.6564 65.3804 34.1867 64.7207 34.2027C63.8634 34.2236 63.0024 34.041 62.1412 33.9666C61.6888 33.9275 61.0881 33.7409 60.8062 33.9541C60.0586 34.5192 59.6592 35.377 59.8219 36.3441C59.8678 36.6162 60.249 37.0181 60.5023 37.0384C61.9299 37.1529 63.3671 37.2378 64.7978 37.2029C66.8729 37.1522 69.2389 34.9695 69.5009 32.9591C69.5227 32.7923 69.4307 32.6106 69.3916 32.4359C69.2812 32.5686 69.1343 32.6849 69.0661 32.8366C68.2478 34.6559 66.9364 35.8857 64.8004 36.3223C64.09 36.4717 63.3838 36.6514 62.6664 36.7497C62.484 36.7747 62.2661 36.5412 62.0645 36.4264C62.2326 36.3383 62.3917 36.2113 62.5706 36.1696C63.0739 36.0522 63.5965 36.0087 64.0916 35.8665C65.4942 35.4636 66.865 35.031 67.7522 33.6995C68.1764 33.063 68.7907 32.5527 69.3224 31.9886C69.426 31.8788 69.546 31.7845 69.6584 31.683C69.4518 31.6174 69.2358 31.476 69.0403 31.5001ZM51.7212 25.7841C51.6714 25.863 51.5707 25.9479 51.5793 26.0197C51.7181 27.1775 51.9191 28.3302 52.002 29.4914C52.0514 30.1848 51.8741 30.8915 51.8811 31.5914C51.8928 32.7647 51.9469 33.939 52.0259 35.1099C52.133 36.6978 52.3868 36.9064 53.9481 36.7656C54.2967 36.7341 54.6925 36.7233 54.9717 36.55C55.3331 36.3256 55.7285 35.9981 55.8741 35.6236C56.0584 35.1495 56.0441 34.5835 56.0451 34.057C56.046 33.5555 55.8987 33.0518 55.9166 32.5527C55.9927 30.4298 56.1525 28.309 56.1867 26.1859C56.2051 25.0472 55.9672 24.8121 55.0205 24.6739C54.3032 24.5693 53.5721 24.5371 52.846 24.5205C52.0037 24.5012 51.7272 24.7988 51.7212 25.7841ZM43.4965 31.6608C43.4554 33.0822 43.3626 34.5039 43.3876 35.9237C43.3918 36.1607 43.8733 36.5699 44.1556 36.5894C45.2773 36.6668 46.4081 36.642 47.5343 36.6104C47.9508 36.5987 48.3063 36.4502 48.2959 35.8829C48.2863 35.3577 48.3829 34.8306 48.4327 34.1548C48.4327 33.5582 48.3926 32.9582 48.4436 32.366C48.4983 31.7308 48.3106 31.5095 47.6356 31.5197C46.4143 31.5381 45.1878 31.4768 43.9712 31.3651C43.637 31.3344 43.5075 31.2802 43.4965 31.6608ZM53.809 33.043C53.9317 33.0312 54.0616 33.1505 54.1947 33.18C54.5609 33.261 55.2061 33.252 55.249 33.4112C55.3973 33.9619 55.4105 34.5781 55.3391 35.1525C55.21 36.1913 54.3439 35.7823 53.6644 35.8738C53.0528 35.8566 52.5818 35.8045 52.6056 35.0592C52.6215 34.5597 52.4157 34.0401 52.4918 33.5583C52.6171 32.7653 53.3199 33.0901 53.809 33.043ZM53.05 34.3957C53.0742 34.995 53.2289 35.3423 54.0381 35.2759C54.3121 35.106 54.7482 34.9916 54.8291 34.7554C55.0513 34.1075 54.7013 33.7821 53.9196 33.7813C53.4884 33.7809 53.0202 33.656 53.05 34.3957ZM109.382 31.9501C109.815 32.1502 109.639 33.4911 109.584 33.9896C109.457 35.1525 107.925 34.8921 107.925 34.572C107.925 33.9921 108.401 34.2141 108.546 34.1548C109.153 33.9078 108.949 31.75 109.382 31.9501ZM47.7227 33.3701C46.9149 33.8291 46.1511 34.2635 45.3694 34.663C45.1817 34.7589 44.9348 34.7389 44.7152 34.7722C44.8223 34.6024 44.8909 34.3766 45.0429 34.2724C45.7161 33.8108 46.3951 33.3512 47.1083 32.9567C47.5597 32.707 47.792 32.8789 47.7227 33.3701ZM45.5279 32.8952C45.6824 32.9089 45.8305 32.9939 45.9814 33.0488C45.916 33.1539 45.8746 33.294 45.7811 33.3583C45.379 33.6348 44.9677 33.9 44.5443 34.1422C44.4617 34.1894 44.3101 34.1157 44.1903 34.0978C44.2162 33.9605 44.1939 33.7649 44.2767 33.6967C44.5452 33.4755 44.8521 33.301 45.1816 33.0711C45.3223 32.9839 45.4298 32.8865 45.5279 32.8952ZM63.3804 32.1047C63.4925 32.2026 63.5922 32.3243 63.7206 32.3907C63.8193 32.4418 63.9734 32.3893 64.0687 32.4432C64.2483 32.5449 64.4033 32.6902 64.5685 32.8173C64.3753 32.8895 64.1866 32.9834 63.9871 33.0246C63.8874 33.0451 63.7691 32.9637 63.6571 32.9379C62.9631 32.7779 62.2633 32.33 61.5823 32.9664C61.4817 33.0604 61.4003 33.1751 61.31 33.2803C61.4267 33.2978 61.543 33.3187 61.6601 33.3321C62.1102 33.3835 62.5596 33.4459 63.011 33.479C63.694 33.5291 64.4199 33.9299 65.0994 33.1832C65.6472 32.8464 65.4816 32.4721 65.0489 32.2665C64.6604 32.0819 64.1901 32.0609 63.7518 31.9959C63.6359 31.9788 63.5046 32.0656 63.3804 32.1047ZM112.085 31.5825C112.213 30.9237 112.614 30.4473 112.98 30.5184C113.346 30.5896 113.539 31.1813 113.411 31.8401C113.283 32.499 112.882 32.9754 112.516 32.9042C112.15 32.8331 111.957 32.2413 112.085 31.5825ZM55.3847 26.0666C55.6294 26.1385 55.8781 26.6754 55.8815 27.0042C55.894 28.2497 55.8088 29.4961 55.7549 30.742C55.7478 30.9069 55.7113 31.0707 55.6874 31.2348C55.5837 31.95 55.2044 32.1782 54.4605 32.1572C52.2159 32.094 52.4894 32.3925 52.4623 30.1106C52.4489 28.9883 52.3699 27.8668 52.3187 26.745C52.2971 26.2713 52.4873 25.9975 52.9936 26.0077C53.1922 26.0117 53.391 26.0084 53.6644 26.0084C54.292 26.0131 54.8746 25.9166 55.3847 26.0666ZM106.248 29.3586L106.284 29.362C106.653 29.4139 106.876 29.9947 106.783 30.6593C106.69 31.324 106.315 31.8207 105.945 31.7688C105.576 31.7169 105.352 31.1361 105.446 30.4714C105.539 29.8068 105.914 29.3101 106.284 29.362L106.248 29.3586ZM53.6098 26.6217C53.401 26.7213 53.0961 26.9269 53.0903 27.0957C53.0466 28.3597 53.0444 29.6266 53.0874 30.8906C53.0949 31.1115 53.3692 31.4994 53.5323 31.5059C54.0196 31.5253 54.5589 31.4865 54.9822 31.277C55.1632 31.1874 55.1074 30.6192 55.1592 30.119C55.1592 29.3746 55.058 28.6129 55.182 27.8897C55.3877 26.6894 55.3783 26.6063 54.198 26.6063C53.9995 26.6063 53.7715 26.5445 53.6098 26.6217ZM45.3759 29.9001C44.9241 29.9252 44.4679 29.9624 44.0283 30.0602C43.8791 30.0934 43.7745 30.3271 43.6495 30.4691C43.8088 30.5766 43.9662 30.7739 44.1277 30.7773C45.3497 30.8035 46.5725 30.7956 47.795 30.785C47.9083 30.7841 48.1109 30.6974 48.1151 30.6392C48.1239 30.5167 48.0606 30.3121 47.9701 30.2731C47.6131 30.1193 47.2341 30.0165 46.7137 29.8948C46.2677 29.8948 45.8206 29.8755 45.3759 29.9001ZM113.996 28.4898C114.783 28.7669 115 29.4414 115.01 29.6106C115.02 29.7798 113.411 28.6974 112.222 29.272C112.066 29.3476 111.569 29.171 111.512 28.9958C111.424 28.724 111.737 28.489 111.932 28.3781C112.628 27.9801 113.21 28.2127 113.996 28.4898ZM107.984 27.674C108.17 27.7734 108.489 28.0873 108.329 28.3688C108.282 28.4533 107.731 28.4772 107.569 28.4058C106.202 27.8021 103.854 28.5402 103.501 28.5356C103.781 28.2911 104.022 27.9415 104.347 27.8234C105.083 27.5563 105.851 27.314 106.624 27.2388C107.064 27.196 107.566 27.4499 107.984 27.674ZM64.5252 9.19673C64.951 9.91457 65.6155 9.856 66.2191 10.0004C66.7939 10.1379 67.0736 10.4633 67.2898 10.9905C67.4212 11.3109 67.7336 11.6186 68.0431 11.7924C68.825 12.2313 69.6796 12.5428 70.4513 12.9967C71.1923 13.4326 71.0245 14.2303 70.9895 14.9218C70.9724 15.2581 70.8044 15.5866 70.7048 15.9934C70.3179 16.8536 70.0003 17.6844 69.524 18.4113C69.0797 19.0895 68.2781 19.2525 67.5099 19.2719C66.1171 19.3072 64.7115 19.3923 63.3325 19.2499C62.0309 19.1156 60.6928 19.1865 59.4344 18.5871C58.4169 18.1025 58.116 17.1765 57.72 16.3153C57.2891 15.3779 57.0021 14.3729 56.6715 13.391C56.3739 12.5072 56.8447 11.6324 57.7871 11.3674C58.4606 11.178 59.1573 11.0727 59.8369 10.9028C60.009 10.8598 60.2337 10.7505 60.3005 10.6087C60.6697 9.82458 61.3764 9.79968 62.0906 9.69709C62.4154 9.65043 62.7527 9.45607 63.0126 9.24171C63.5047 8.83584 64.2269 8.69372 64.5252 9.19673ZM47.3749 7.03451C48.1512 7.03803 48.9272 7.12445 49.778 7.17427C50.2648 7.89857 50.9269 8.18395 51.6964 8.46656C53.015 8.95083 53.7419 10.0753 53.9322 11.4361C54.0169 12.0413 53.7127 12.6908 53.6768 13.3254C53.6273 14.2025 53.6818 15.085 53.6579 15.9643C53.6435 16.4924 53.6067 17.027 53.5051 17.5439C53.3522 18.3219 52.63 18.8118 51.619 18.8278C50.2002 18.8503 48.7807 18.8335 47.3615 18.8335C46.7804 18.8335 46.1836 18.7481 45.6213 18.8512C44.4403 19.0676 43.2733 17.3781 43.1932 16.2982C43.0739 14.6897 42.9251 13.0825 42.7457 11.4796C42.5868 10.0599 43.4142 8.77901 44.8058 8.36307C44.9556 8.31832 45.1368 8.20597 45.2008 8.07488C45.6546 7.14538 46.5009 7.03055 47.3749 7.03451ZM58.6519 11.8232C57.5185 11.9362 57.2969 12.3044 57.5595 13.43C57.738 14.1948 57.9992 14.9403 58.2982 15.7692C58.5937 16.7839 58.9644 17.7892 60.083 18.1251C60.8692 18.3612 61.7104 18.49 62.532 18.5169C64.2825 18.5744 66.0364 18.5508 67.7884 18.5256C68.3918 18.5169 68.9749 18.3587 69.2209 17.6982C69.5747 16.7482 69.9366 15.7999 70.2419 14.8341C70.3382 14.5295 70.4028 14.0514 70.2393 13.8609C69.8573 13.4159 69.3813 12.9637 68.8488 12.7517C67.1236 12.065 65.3236 11.5527 63.4588 11.5332C61.8571 11.5165 60.2488 11.6638 58.6519 11.8232ZM45.7642 8.84014C44.3568 8.9983 43.4999 9.41877 43.5079 11.2598C43.5119 12.1606 43.5798 13.0626 43.6551 13.9611C43.7289 14.8432 43.8526 15.7211 43.9472 16.6016C44.0203 17.2823 44.6745 18.0579 45.274 18.0795C47.1449 18.1472 49.0174 18.2373 50.8884 18.2205C52.6218 18.2049 52.8893 17.8298 52.9264 16.0479C52.9527 14.7832 53.0665 13.5202 53.216 12.1817C53.3679 10.8757 52.8555 9.85834 51.7341 9.24108C51.1608 8.92555 50.4586 8.71788 49.8071 8.69703C48.4613 8.65396 47.1017 8.68985 45.7642 8.84014ZM63.0599 12.6087C63.0671 12.7623 63.1378 12.9547 63.0714 13.0634C62.551 13.915 62.0041 14.7504 61.4663 15.5913C61.4041 15.6885 61.3655 15.8098 61.2832 15.8832C61.1714 15.983 61.028 16.0474 60.8982 16.127C60.8462 15.9404 60.71 15.7259 60.7607 15.5733C60.853 15.2953 61.0561 15.0541 61.2504 14.7602C61.7415 14.0698 62.1866 13.4105 62.6578 12.7704C62.7307 12.6714 62.9229 12.6604 63.0599 12.6087ZM61.2245 13.6133C61.1113 13.8684 61.026 14.1414 60.8775 14.3739C60.7002 14.6514 60.4688 14.8943 60.2606 15.152C60.0046 15.4688 59.8537 15.4068 59.793 14.9471C59.9831 14.5825 60.1279 14.2424 60.3769 14.0179C60.5998 13.8169 60.9375 13.7432 61.2245 13.6133ZM48.5232 11.9905C48.5687 11.9885 48.7077 12.3314 48.6653 12.3729C47.9472 13.0757 47.2102 13.7595 46.465 14.4338C46.4159 14.4782 46.2134 14.4469 46.1769 14.39C46.1187 14.2995 46.0836 14.1079 46.1378 14.0461C46.416 13.7292 46.7291 13.4433 47.0222 13.1391C47.092 13.0667 47.1319 12.9657 47.1855 12.8778C47.0831 12.9148 46.9604 12.9276 46.8815 12.9931C46.4904 13.3179 46.12 13.6684 45.722 13.9841C45.5841 14.0936 45.3875 14.1291 45.2177 14.1984C45.243 14.0055 45.2108 13.7756 45.306 13.6276C45.4878 13.3452 45.7421 13.1095 46.0411 12.8544C46.6835 11.9205 47.6355 12.0298 48.5232 11.9905ZM61.4007 10.4698C61.3013 10.4925 61.2252 10.6169 61.1383 10.694C61.2299 10.7664 61.3196 10.8985 61.4135 10.9015C62.0105 10.9206 62.6114 10.8742 63.2055 10.9201C64.0386 10.9845 64.8669 11.1105 65.8468 11.2101C66.0138 11.2277 66.181 11.2599 66.3479 11.2583C66.486 11.257 66.6236 11.2158 66.7615 11.1923C66.6938 11.0866 66.6432 10.9623 66.5537 10.8803C66.4533 10.7882 66.3255 10.6954 66.1964 10.67C64.6086 10.357 63.0157 10.1014 61.4007 10.4698ZM47.3116 7.6227C47.0588 7.67253 46.7994 7.70171 46.5553 7.77933C46.3885 7.8324 46.2431 7.953 46.0881 8.04341C46.2874 8.10247 46.4885 8.21732 46.6857 8.21083C47.4863 8.18452 48.2864 8.12933 49.0851 8.06486C49.2695 8.04998 49.4476 7.95635 49.6285 7.89896C49.4282 7.80687 49.2326 7.65047 49.0266 7.63534C48.5073 7.59719 47.9833 7.6227 47.3116 7.6227Z" fill="#1A1A1A"/>
</g>
</svg>
