<svg width="372" height="100" viewBox="0 0 372 100" fill="none" xmlns="http://www.w3.org/2000/svg">
<g clip-path="url(#clip0_2572_3364)">
<rect width="372" height="100" rx="22" fill="#3D8D7A"/>
<path fill-rule="evenodd" clip-rule="evenodd" d="M351.281 23.1587C350.981 23.547 350.363 23.5044 349.937 23.2608C349.512 23.0171 349.187 22.6253 348.77 22.3673C347.695 21.7025 346.192 22.0239 345.177 21.2698C344.855 21.0302 344.595 20.6057 344.757 20.2381C344.821 20.0917 344.942 19.9797 345.049 19.8605C345.81 19.0103 345.861 17.7407 345.688 16.613C345.516 15.4853 345.161 14.3649 345.262 13.2285C345.286 12.9457 345.351 12.6445 345.559 12.4511C345.766 12.2577 346.157 12.247 346.298 12.4937C346.81 13.3918 347.322 14.29 347.834 15.1882C348.13 15.7079 348.441 16.2444 348.928 16.5917C349.415 16.939 350.131 17.0414 350.596 16.6651C350.92 16.4034 351.42 16.8084 351.43 17.2243C351.441 17.6402 351.176 18.0038 350.987 18.3745C350.517 19.2984 350.504 20.4423 350.955 21.3762C351.233 21.9535 351.673 22.6517 351.281 23.1587Z" fill="#F9FCF8"/>
<path fill-rule="evenodd" clip-rule="evenodd" d="M318.94 38.9484C318.45 38.9534 318.1 38.4422 318.028 37.9569C317.955 37.4716 318.061 36.9746 318.005 36.4871C317.861 35.2314 316.677 34.2506 316.64 32.9871C316.628 32.5857 316.8 32.1186 317.189 32.0177C317.344 31.9774 317.507 32.0031 317.667 32.013C318.805 32.0832 319.833 31.3365 320.612 30.5023C321.39 29.6681 322.049 28.6955 323.003 28.07C323.241 27.9143 323.517 27.778 323.798 27.8213C324.078 27.8646 324.329 28.1648 324.222 28.428C323.835 29.3864 323.447 30.3447 323.059 31.3031C322.835 31.8577 322.607 32.4342 322.636 33.0317C322.665 33.6292 323.029 34.2549 323.612 34.3867C324.018 34.4784 324.01 35.1219 323.69 35.3878C323.37 35.6536 322.921 35.671 322.513 35.7526C321.496 35.9559 320.591 36.6551 320.137 37.5874C319.857 38.1637 319.581 38.9418 318.94 38.9484Z" fill="#F9FCF8"/>
<path fill-rule="evenodd" clip-rule="evenodd" d="M352.913 78.2988C352.461 78.4905 351.943 78.1512 351.691 77.7303C351.439 77.3094 351.348 76.8092 351.11 76.38C350.498 75.2743 349.029 74.819 348.513 73.665C348.35 73.2984 348.33 72.801 348.651 72.5595C348.779 72.4633 348.94 72.4248 349.091 72.3731C350.17 72.0038 350.836 70.9215 351.237 69.8536C351.639 68.7857 351.878 67.6351 352.521 66.6931C352.681 66.4586 352.884 66.2273 353.16 66.1603C353.436 66.0934 353.782 66.2753 353.784 66.5592C353.791 67.593 353.799 68.6268 353.806 69.6605C353.81 70.2587 353.818 70.8788 354.073 71.42C354.328 71.9612 354.903 72.4009 355.493 72.3003C355.903 72.2303 356.141 72.8282 355.946 73.196C355.752 73.5638 355.343 73.7513 354.997 73.9823C354.135 74.5579 353.564 75.5495 353.5 76.5843C353.461 77.224 353.503 78.0483 352.913 78.2988Z" fill="#F9FCF8"/>
<path fill-rule="evenodd" clip-rule="evenodd" d="M325.794 61.7317C325.49 61.3463 325.682 60.7573 326.022 60.4034C326.362 60.0495 326.82 59.8304 327.172 59.4883C328.078 58.6071 328.132 57.0706 329.11 56.27C329.421 56.0156 329.896 55.8666 330.213 56.1128C330.339 56.2108 330.419 56.3556 330.508 56.488C331.148 57.4326 332.367 57.7908 333.503 57.8977C334.639 58.0046 335.812 57.9331 336.89 58.3066C337.158 58.3996 337.435 58.535 337.572 58.7837C337.709 59.0324 337.624 59.4142 337.351 59.4906C336.355 59.7688 335.359 60.047 334.364 60.3252C333.787 60.4862 333.191 60.6575 332.736 61.0455C332.281 61.4335 332.007 62.1035 332.259 62.6461C332.434 63.0234 331.92 63.4103 331.514 63.3192C331.108 63.2281 330.82 62.8827 330.506 62.6094C329.724 61.9284 328.618 61.6383 327.602 61.8483C326.975 61.978 326.191 62.2352 325.794 61.7317Z" fill="#F9FCF8"/>
<path fill-rule="evenodd" clip-rule="evenodd" d="M348.765 43.6985C348.461 43.313 348.652 42.7241 348.992 42.3702C349.332 42.0163 349.791 41.7972 350.143 41.4551C351.049 40.5739 351.103 39.0374 352.081 38.2368C352.392 37.9824 352.867 37.8334 353.184 38.0796C353.31 38.1776 353.389 38.3224 353.479 38.4548C354.119 39.3994 355.338 39.7576 356.474 39.8645C357.609 39.9714 358.782 39.8999 359.86 40.2734C360.129 40.3664 360.405 40.5018 360.542 40.7505C360.679 40.9992 360.595 41.381 360.321 41.4574C359.326 41.7356 358.33 42.0138 357.334 42.292C356.758 42.453 356.162 42.6243 355.707 43.0123C355.251 43.4003 354.978 44.0703 355.23 44.6129C355.405 44.9902 354.891 45.377 354.485 45.286C354.079 45.1949 353.791 44.8495 353.477 44.5762C352.695 43.8952 351.588 43.6051 350.573 43.8151C349.945 43.9448 349.161 44.202 348.765 43.6985Z" fill="#F9FCF8"/>
<path fill-rule="evenodd" clip-rule="evenodd" d="M318.669 86.9224C318.534 87.3941 317.944 87.583 317.458 87.5141C316.972 87.4452 316.526 87.201 316.043 87.1156C314.798 86.8955 313.52 87.75 312.299 87.4244C311.911 87.321 311.512 87.0227 311.527 86.6214C311.532 86.4616 311.604 86.3127 311.659 86.1625C312.051 85.0913 311.629 83.8928 311.052 82.9088C310.475 81.9248 309.731 81.0149 309.404 79.9219C309.323 79.6499 309.271 79.3464 309.392 79.0898C309.514 78.8332 309.873 78.6787 310.095 78.8559C310.903 79.5011 311.711 80.1464 312.518 80.7916C312.986 81.1649 313.473 81.5484 314.054 81.691C314.635 81.8336 315.339 81.6638 315.631 81.1422C315.835 80.7795 316.45 80.9708 316.613 81.3534C316.777 81.736 316.665 82.1718 316.626 82.5861C316.531 83.6185 316.942 84.6859 317.706 85.387C318.178 85.8203 318.846 86.3063 318.669 86.9224Z" fill="#F9FCF8"/>
<path fill-rule="evenodd" clip-rule="evenodd" d="M305.056 55.4263C304.92 55.898 304.331 56.0869 303.845 56.018C303.359 55.9491 302.913 55.7049 302.43 55.6195C301.185 55.3994 299.907 56.2539 298.686 55.9284C298.298 55.8249 297.899 55.5266 297.913 55.1253C297.919 54.9655 297.99 54.8166 298.045 54.6664C298.438 53.5952 298.016 52.3967 297.439 51.4127C296.861 50.4287 296.118 49.5188 295.791 48.4258C295.709 48.1538 295.657 47.8503 295.779 47.5937C295.901 47.3371 296.26 47.1826 296.482 47.3598C297.29 48.005 298.097 48.6503 298.905 49.2955C299.372 49.6688 299.86 50.0523 300.441 50.1949C301.022 50.3375 301.725 50.1677 302.018 49.6461C302.222 49.2834 302.836 49.4747 303 49.8573C303.163 50.2399 303.052 50.6757 303.013 51.09C302.918 52.1224 303.329 53.1898 304.093 53.8909C304.565 54.3243 305.232 54.8102 305.056 55.4263Z" fill="#F9FCF8"/>
<path fill-rule="evenodd" clip-rule="evenodd" d="M311.056 21.4263C310.92 21.898 310.331 22.0869 309.845 22.018C309.359 21.9491 308.913 21.7049 308.43 21.6195C307.185 21.3994 305.907 22.2539 304.686 21.9284C304.298 21.8249 303.899 21.5266 303.913 21.1253C303.919 20.9655 303.99 20.8166 304.045 20.6664C304.438 19.5952 304.016 18.3967 303.439 17.4127C302.861 16.4287 302.118 15.5188 301.791 14.4258C301.709 14.1538 301.657 13.8503 301.779 13.5937C301.901 13.3371 302.26 13.1826 302.482 13.3598C303.29 14.005 304.097 14.6503 304.905 15.2955C305.372 15.6688 305.86 16.0523 306.441 16.1949C307.022 16.3375 307.725 16.1677 308.018 15.6461C308.222 15.2834 308.836 15.4747 309 15.8573C309.163 16.2399 309.052 16.6757 309.013 17.09C308.918 18.1224 309.329 19.1898 310.093 19.8909C310.565 20.3243 311.232 20.8102 311.056 21.4263Z" fill="#F9FCF8"/>
<path fill-rule="evenodd" clip-rule="evenodd" d="M-23.084 103.738C-21.4367 105.543 -18.6867 106.013 -16.3088 105.45C-13.9308 104.888 -11.8581 103.452 -9.96586 101.906C-3.20933 96.386 1.89437 89.274 7.00742 82.1489C9.61001 78.5222 12.215 74.8921 15.0416 71.4669C24.0897 60.5029 35.8344 51.4134 49.4541 47.3416C53.9801 45.9885 58.8013 45.1989 63.4299 46.1427C68.0586 47.0866 72.4713 50.0078 74.2636 54.3785C75.8633 58.2797 75.2261 62.7075 74.3401 66.8298C73.6688 69.9532 72.8444 73.1079 71.1384 75.809C69.4125 78.5418 66.8645 80.6707 64.1247 82.3856C59.2975 85.4071 53.4717 87.2848 47.8838 86.1864C42.2959 85.0881 37.2123 80.4427 36.8638 74.7586C36.6963 72.0275 37.5891 69.3129 38.9529 66.9408C41.6664 62.2208 46.8821 58.513 52.2783 59.2365C57.6744 59.9601 61.9534 66.4772 59.2382 71.1963C58.0464 73.2677 55.8756 74.5852 53.6669 75.4978C52.3112 76.058 50.7965 76.5029 49.3947 76.0707C47.993 75.6386 46.896 73.991 47.5388 72.6725C48.2758 71.1606 51.056 71.6337 51.2515 73.3043C54.8527 74.1017 58.1558 69.7151 56.9931 66.2148C55.8305 62.7145 51.4723 60.9686 47.9166 61.9488C44.3609 62.9289 41.7007 66.0423 40.3565 69.477C39.6981 71.1592 39.3011 72.9722 39.4524 74.7723C39.825 79.206 43.6244 82.8691 47.9367 83.9647C52.2489 85.0604 56.8843 83.9432 60.8035 81.8371C64.6139 79.7894 67.9702 76.745 69.9118 72.8794C70.93 70.8522 71.5426 68.6474 72.0615 66.439C72.8092 63.2566 73.3678 59.8766 72.3831 56.7594C70.9695 52.2847 66.5206 49.253 61.9018 48.4234C57.2831 47.5937 52.5255 48.6317 48.0838 50.1459C39.2284 53.1645 31.0373 58.1157 24.2485 64.5533C18.563 69.9446 13.9001 76.3055 9.24399 82.6572C3.70091 90.2189 -1.83259 97.7675 -9.07044 103.651C-13.0017 106.847 -19.0175 109.41 -22.7812 106.019C-23.4547 105.412 -23.8926 104.148 -23.084 103.738Z" fill="#F9FCF8"/>
<path fill-rule="evenodd" clip-rule="evenodd" d="M35.804 8.38706L35.8483 8.46611L35.9023 8.56759C35.9348 8.63005 35.9714 8.70253 36.0112 8.78437C36.1491 9.06804 36.2883 9.38906 36.4217 9.74309C36.797 10.7396 37.0594 11.8151 37.149 12.9356C37.2705 14.4561 37.051 15.8911 36.4952 17.1965L36.4476 17.3061C35.996 18.3259 35.338 19.2603 34.484 20.0986L34.3993 20.1806L34.4713 20.1841C35.7012 20.2357 36.9175 20.1256 37.9867 19.7847C38.216 19.7116 38.4659 19.7494 38.6635 19.8867C38.8606 20.0239 38.9831 20.2446 38.9955 20.4844L38.9983 20.5588L39 20.6572V20.695C39 20.8323 38.996 20.9862 38.9862 21.1549C38.9592 21.6207 38.8947 22.1232 38.7822 22.6477C38.4646 24.1296 37.8294 25.5176 36.7913 26.687C36.6536 26.8423 36.4598 26.9353 36.2537 26.9463L36.2061 26.9474C35.9861 26.9433 35.7851 26.8524 35.6423 26.697L35.5378 26.5755L35.4865 26.5173L35.3775 26.3963L35.2582 26.2674C35.2167 26.2232 35.1736 26.1779 35.1288 26.1315C34.7476 25.7363 34.327 25.3445 33.8802 24.984C32.6419 23.9847 31.4474 23.4205 30.4272 23.4817C28.7585 23.5819 27.3766 23.504 26.0946 23.1443C24.4371 22.6793 23.1356 21.7668 22.2744 20.3143L22.2261 20.2315C21.7802 19.4538 21.1216 18.5581 20.3448 17.6257C20.1048 17.3376 19.868 17.0636 19.6423 16.8102L19.5462 16.7029C19.3925 16.5318 19.2665 16.3955 19.2137 16.34C19.0187 16.1346 18.951 15.8398 19.0362 15.5703L19.0487 15.5339C19.1422 15.282 19.3598 15.0954 19.625 15.0431L21.0472 14.762L21.0638 14.738C21.5726 14.0147 22.2992 13.4021 23.2643 13.1553C24.271 12.8979 25.3303 13.1217 26.3972 13.7986L26.4716 13.8465C27.9124 14.7889 29.3406 14.7369 30.6984 14.027C31.6683 13.5198 32.5927 12.6587 33.2932 11.6047C33.9445 10.6248 34.3316 9.57724 34.3592 8.75043C34.3707 8.4049 34.6091 8.10823 34.9443 8.02363C35.2797 7.93883 35.6305 8.08738 35.804 8.38706ZM35.2077 8.78702L35.1985 8.85788C35.0736 9.76483 34.7235 11.0279 34.0902 11.9806C33.3107 13.1536 32.2105 14.0507 31.1049 14.6288C29.5099 15.4627 27.7738 15.6154 26.0644 14.532L25.989 14.4835C25.0907 13.8959 24.409 13.613 23.4737 13.8465C22.5383 14.0799 22.084 14.7612 21.6803 15.3932L21.6618 15.4199C21.5971 15.5064 21.5024 15.5663 21.3957 15.5874L19.6223 15.8682L20.2681 16.6705C20.4625 16.9137 20.6006 17.089 20.6826 17.1965L21.3924 18.1316C23.5079 20.9062 25.7846 23.5554 30.2242 22.6383L30.3747 22.606C31.5509 22.3446 32.5371 23.0468 33.7742 24.0817L34.0385 24.3043C34.3658 24.5813 35.3552 25.4535 35.7602 25.8734L35.8925 26.0122L36.0146 26.1436C36.04 26.1713 36.0643 26.198 36.0873 26.2235L36.2135 26.3658L36.291 26.2742C37.1285 25.2661 37.653 23.7305 37.9245 22.4638C38.0271 21.9852 38.086 21.5269 38.1105 21.1041L38.1135 21.049C38.1198 20.9255 38.1227 20.8175 38.1231 20.7274V20.6605L37.9967 20.6976C36.5324 21.1129 34.8849 21.1541 33.2774 20.9687C32.8891 20.9239 37.1489 17.4737 36.2745 13.0054C36.0753 11.9871 35.9488 10.6255 35.6007 9.70132C35.491 9.40984 35.3772 9.14329 35.2644 8.90494L35.2077 8.78702Z" fill="#F9FCF8"/>
<path fill-rule="evenodd" clip-rule="evenodd" d="M90.9226 26.8844L90.9514 26.9358L90.9865 27.0017C91.0077 27.0423 91.0314 27.0895 91.0573 27.1427C91.1469 27.327 91.2374 27.5357 91.3241 27.7658C91.568 28.4136 91.7386 29.1126 91.7968 29.8409C91.8758 30.8293 91.7332 31.762 91.3719 32.6106L91.3409 32.6818C91.0474 33.3447 90.6197 33.952 90.0646 34.4969L90.0095 34.5502L90.0563 34.5525C90.8558 34.586 91.6464 34.5145 92.3413 34.2929C92.4904 34.2454 92.6529 34.2699 92.7813 34.3592C92.9094 34.4483 92.989 34.5918 92.9971 34.7476L92.9989 34.796L93 34.86V34.8846C93 34.9738 92.9974 35.0739 92.991 35.1835C92.9735 35.4863 92.9315 35.8129 92.8584 36.1538C92.652 37.1171 92.2391 38.0192 91.5644 38.7794C91.4748 38.8803 91.3488 38.9408 91.2149 38.9479L91.184 38.9486C91.0409 38.9459 90.9103 38.8868 90.8175 38.7859L90.7496 38.7069L90.7162 38.669L90.6454 38.5904L90.5678 38.5066C90.5408 38.4779 90.5128 38.4485 90.4837 38.4183C90.236 38.1614 89.9626 37.9067 89.6722 37.6724C88.8672 37.0229 88.0908 36.6562 87.4277 36.6959C86.343 36.7611 85.4448 36.7104 84.6115 36.4766C83.5341 36.1743 82.6882 35.5812 82.1283 34.6371L82.097 34.5833C81.8071 34.0778 81.3791 33.4956 80.8741 32.8895C80.7181 32.7022 80.5642 32.5241 80.4175 32.3594L80.355 32.2897C80.2551 32.1785 80.1732 32.0899 80.1389 32.0538C80.0122 31.9203 79.9681 31.7287 80.0235 31.5535L80.0316 31.5298C80.0924 31.3661 80.2339 31.2448 80.4063 31.2108L81.3307 31.0281L81.3414 31.0125C81.6722 30.5424 82.1445 30.1441 82.7718 29.9837C83.4262 29.8164 84.1147 29.9619 84.8082 30.4019L84.8565 30.4331C85.7931 31.0456 86.7214 31.0118 87.604 30.5503C88.2344 30.2207 88.8353 29.6609 89.2906 28.9759C89.7139 28.3389 89.9655 27.658 89.9835 27.1206C89.991 26.896 90.1459 26.7032 90.3638 26.6482C90.5818 26.5931 90.8099 26.6896 90.9226 26.8844ZM90.5349 27.1444L90.5289 27.1905C90.4477 27.78 90.2201 28.601 89.8085 29.2203C89.3018 29.9827 88.5867 30.5658 87.868 30.9416C86.8313 31.4837 85.7028 31.5829 84.5917 30.8787L84.5427 30.8471C83.9588 30.4652 83.5157 30.2813 82.9078 30.4331C82.2998 30.5848 82.0045 31.0276 81.7421 31.4385L81.73 31.4558C81.688 31.512 81.6264 31.551 81.5571 31.5647L80.4043 31.7472L80.8241 32.2687C80.9505 32.4268 81.0403 32.5408 81.0935 32.6106L81.5549 33.2184C82.93 35.0219 84.4099 36.7439 87.2956 36.1478L87.3934 36.1268C88.158 35.9568 88.799 36.4133 89.6031 37.086L89.7749 37.2307C89.9877 37.4107 90.6308 37.9777 90.894 38.2506L90.98 38.3408L91.0594 38.4262C91.0759 38.4442 91.0917 38.4616 91.1066 38.4781L91.1886 38.5706L91.239 38.5111C91.7834 37.8558 92.1243 36.8577 92.3008 36.0344C92.3675 35.7233 92.4058 35.4254 92.4217 35.1506L92.4236 35.1148C92.4278 35.0344 92.4296 34.9643 92.4299 34.9057V34.8622L92.3477 34.8863C91.3959 35.1562 90.3251 35.1831 89.2802 35.0625C89.0278 35.0334 91.7967 32.7908 91.2283 29.8864C91.0988 29.2245 91.0166 28.3394 90.7904 27.7387C90.719 27.5493 90.645 27.376 90.5718 27.2211L90.5349 27.1444Z" fill="#F9FCF8"/>
<path fill-rule="evenodd" clip-rule="evenodd" d="M15.4382 42.0687L15.4183 42.1043L15.394 42.1499C15.3793 42.1781 15.3629 42.2107 15.345 42.2475C15.2829 42.3752 15.2203 42.5196 15.1603 42.6789C14.9914 43.1274 14.8733 43.6113 14.833 44.1155C14.7783 44.7998 14.877 45.4455 15.1272 46.033L15.1486 46.0823C15.3518 46.5412 15.6479 46.9617 16.0322 47.3389L16.0703 47.3758L16.0379 47.3774C15.4845 47.4006 14.9371 47.3511 14.456 47.1977C14.3528 47.1648 14.2403 47.1817 14.1514 47.2436C14.0627 47.3053 14.0076 47.4046 14.002 47.5125L14.0008 47.546L14 47.5903V47.6073C14 47.6691 14.0018 47.7383 14.0062 47.8142C14.0183 48.0239 14.0474 48.25 14.098 48.486C14.2409 49.1529 14.5268 49.7774 14.9939 50.3037C15.0559 50.3736 15.1431 50.4154 15.2358 50.4204L15.2573 50.4209C15.3563 50.419 15.4467 50.3781 15.5109 50.3082L15.558 50.2535L15.5811 50.2273L15.6301 50.1729L15.6838 50.1149C15.7025 50.095 15.7219 50.0746 15.742 50.0537C15.9136 49.8759 16.1028 49.6996 16.3039 49.5373C16.8612 49.0877 17.3987 48.8338 17.8577 48.8613C18.6087 48.9064 19.2305 48.8713 19.8074 48.7095C20.5533 48.5002 21.139 48.0896 21.5265 47.436L21.5483 47.3987C21.7489 47.0488 22.0453 46.6457 22.3948 46.2261C22.5029 46.0964 22.6094 45.9731 22.711 45.8591L22.7542 45.8108C22.8234 45.7338 22.8801 45.6725 22.9038 45.6475C22.9916 45.5551 23.0221 45.4225 22.9837 45.3012L22.9781 45.2848C22.936 45.1714 22.8381 45.0875 22.7187 45.0639L22.0788 44.9374L22.0713 44.9266C21.8423 44.6012 21.5154 44.3255 21.0811 44.2144C20.628 44.0986 20.1513 44.1993 19.6713 44.5039L19.6378 44.5255C18.9894 44.9495 18.3467 44.9261 17.7357 44.6067C17.2993 44.3784 16.8833 43.9909 16.5681 43.5167C16.275 43.0757 16.1008 42.6043 16.0884 42.2322C16.0832 42.0767 15.9759 41.9432 15.8251 41.9052C15.6741 41.867 15.5163 41.9339 15.4382 42.0687ZM15.7063 42.249L15.7104 42.2809C15.7666 42.689 15.9242 43.2574 16.2091 43.6861C16.56 44.214 17.055 44.6177 17.5526 44.8778C18.2703 45.2531 19.0515 45.3218 19.8208 44.8343L19.8547 44.8124C20.2589 44.548 20.5657 44.4207 20.9866 44.5258C21.4075 44.6308 21.6119 44.9374 21.7936 45.2218L21.8019 45.2338C21.8311 45.2727 21.8737 45.2997 21.9217 45.3092L22.7197 45.4356L22.4291 45.7966C22.3416 45.906 22.2795 45.9849 22.2426 46.0333L21.9232 46.4541C20.9712 47.7027 19.9467 48.8948 17.9489 48.4821L17.8811 48.4676C17.3518 48.3499 16.9081 48.6659 16.3513 49.1316L16.2324 49.2318C16.0851 49.3564 15.6399 49.7489 15.4577 49.9379L15.3981 50.0004L15.3432 50.0595C15.3317 50.0719 15.3208 50.0839 15.3105 50.0954L15.2537 50.1595L15.2188 50.1183C14.8419 49.6646 14.6059 48.9736 14.4837 48.4036C14.4376 48.1882 14.4111 47.982 14.4 47.7917L14.3987 47.7669C14.3958 47.7113 14.3945 47.6628 14.3943 47.6222V47.5921L14.4513 47.6088C15.1102 47.7957 15.8515 47.8142 16.5749 47.7308C16.7497 47.7106 14.8327 46.158 15.2262 44.1473C15.3159 43.689 15.3728 43.0763 15.5294 42.6605C15.5788 42.5293 15.63 42.4093 15.6807 42.3021L15.7063 42.249Z" fill="#F9FCF8"/>
<path fill-rule="evenodd" clip-rule="evenodd" d="M68.7578 9.26562L68.7334 9.3091L68.7037 9.36491C68.6858 9.39926 68.6657 9.43912 68.6438 9.48414C68.568 9.64016 68.4914 9.81672 68.4181 10.0114C68.2117 10.5595 68.0673 11.151 68.0181 11.7673C67.9512 12.6036 68.0719 13.3928 68.3777 14.1108L68.4038 14.1711C68.6522 14.732 69.0141 15.2459 69.4838 15.707L69.5304 15.7521L69.4908 15.754C68.8143 15.7824 68.1454 15.7218 67.5573 15.5343C67.4312 15.4941 67.2937 15.5149 67.1851 15.5904C67.0766 15.6659 67.0093 15.7872 67.0025 15.9191L67.001 15.9601L67 16.0142V16.035C67 16.1105 67.0022 16.1952 67.0076 16.2879C67.0224 16.5441 67.0579 16.8205 67.1198 17.109C67.2945 17.924 67.6438 18.6874 68.2148 19.3306C68.2905 19.416 68.3971 19.4672 68.5105 19.4732L68.5367 19.4738C68.6577 19.4715 68.7682 19.4215 68.8467 19.3361L68.9042 19.2693L68.9324 19.2372L68.9924 19.1707L69.058 19.0998C69.0808 19.0755 69.1045 19.0506 69.1292 19.0251C69.3388 18.8077 69.5701 18.5922 69.8159 18.3939C70.497 17.8443 71.1539 17.534 71.715 17.5677C72.6328 17.6228 73.3929 17.5799 74.098 17.3821C75.0096 17.1263 75.7254 16.6245 76.1991 15.8256L76.2256 15.78C76.4709 15.3524 76.8331 14.8597 77.2603 14.3469C77.3924 14.1884 77.5226 14.0377 77.6468 13.8983L77.6996 13.8393C77.7841 13.7452 77.8534 13.6703 77.8825 13.6397C77.9897 13.5268 78.027 13.3646 77.9801 13.2164L77.9732 13.1964C77.9218 13.0578 77.8021 12.9552 77.6562 12.9264L76.874 12.7718L76.8649 12.7587C76.5851 12.3608 76.1854 12.0239 75.6546 11.8881C75.1009 11.7466 74.5183 11.8697 73.9316 12.242L73.8906 12.2683C73.0982 12.7866 72.3127 12.758 71.5659 12.3676C71.0324 12.0886 70.524 11.615 70.1387 11.0353C69.7805 10.4964 69.5676 9.92022 69.5524 9.46547C69.5461 9.27543 69.415 9.11226 69.2307 9.06573C69.0462 9.01909 68.8532 9.10079 68.7578 9.26562ZM69.0852 9.48583L69.0902 9.52481C69.1589 10.0236 69.3515 10.7183 69.6998 11.2423C70.1285 11.8875 70.7336 12.3809 71.3417 12.6988C72.2189 13.1575 73.1738 13.2414 74.114 12.6456L74.1554 12.6189C74.6495 12.2957 75.0244 12.1401 75.5389 12.2685C76.0533 12.3969 76.3032 12.7716 76.5252 13.1192L76.5354 13.1339C76.571 13.1815 76.6231 13.2144 76.6818 13.226L77.6571 13.3805L77.3019 13.8218C77.195 13.9555 77.1191 14.0519 77.074 14.111L76.6836 14.6254C75.52 16.1514 74.2679 17.6084 71.8261 17.104L71.7433 17.0863C71.0964 16.9425 70.554 17.3287 69.8736 17.8979L69.7282 18.0204C69.5482 18.1727 69.004 18.6524 68.7813 18.8833L68.7085 18.9597L68.6414 19.0319C68.6274 19.0472 68.614 19.0618 68.6014 19.0759L68.532 19.1542L68.4894 19.1038C68.0287 18.5493 67.7403 17.7048 67.5909 17.0081C67.5345 16.7448 67.5021 16.4928 67.4886 16.2602L67.487 16.2299C67.4835 16.162 67.4819 16.1026 67.4817 16.053V16.0163L67.5512 16.0367C68.3566 16.2651 69.2627 16.2877 70.1468 16.1857C70.3604 16.1611 68.0175 14.2635 68.4984 11.806C68.608 11.2459 68.6776 10.497 68.869 9.9887C68.9294 9.82838 68.9919 9.68178 69.0539 9.55069L69.0852 9.48583Z" fill="#F9FCF8"/>
</g>
<rect x="0.5" y="0.5" width="371" height="99" rx="21.5" stroke="#3D3D3D"/>
<defs>
<clipPath id="clip0_2572_3364">
<rect width="372" height="100" rx="22" fill="white"/>
</clipPath>
</defs>
</svg>
