<svg width="412" height="104" viewBox="0 0 412 104" fill="none" xmlns="http://www.w3.org/2000/svg">
<g clip-path="url(#clip0_4041_12682)">
<path d="M21.4011 36.3822C15.7323 29.3754 15.9666 29.2104 15.9305 29.2343C15.9305 29.2343 22.9296 27.5678 23.7895 26.0893C24.2728 25.2582 25.8969 21.954 26.5669 21.1358C27.8103 19.3539 31.2053 16.8046 33.3534 16.0096C37.443 14.4959 41.9099 14.6476 45.2438 16.7474C48.5776 18.8472 49.7145 19.7814 51.9696 20.669C55.0757 21.8917 58.4604 21.6834 62.8087 20.1882C63.139 25.3165 57.7819 33.8155 48.8066 38.5676C39.8313 43.3198 34.1472 39.5057 32.4435 38.4004C30.7398 37.295 28.9241 35.1097 27.5008 34.9727C25.1019 34.6475 21.4011 36.3822 21.4011 36.3822Z" fill="url(#paint0_linear_4041_12682)"/>
<g opacity="0.7" filter="url(#filter0_i_4041_12682)">
<path d="M22.634 31.6593C23.9059 30.6515 25.1754 29.6337 27.7807 28.0831C30.2153 26.6341 32.2654 26.0682 36.0062 26.2223C39.9964 26.3867 42.8027 28.4641 46.1537 28.3548C48.0531 28.2928 50.6577 27.8177 54.8417 25.3631C57.1034 24.0362 60.0934 22.1895 62.3766 20.3347L62.8087 20.1881C62.8087 20.1881 62.8609 20.6324 62.8018 21.2745C61.8063 22.812 60.5068 24.563 58.9134 26.016C56.8663 28.0488 53.3944 30.9313 50.649 31.8395C44.8807 33.7476 43.2086 32.3244 38.4311 30.9734C35.2517 30.0744 28.8613 29.6385 22.634 31.6593Z" fill="url(#paint1_linear_4041_12682)"/>
</g>
</g>
<g clip-path="url(#clip1_4041_12682)">
<path d="M-21.1245 38.6411C-15.2929 26.8148 -14.9295 27.0247 -14.9835 26.9915C-14.9835 26.9915 -8.46714 35.2629 -5.97311 35.4976C-4.57123 35.6296 0.819535 35.7589 2.31893 36.1466C5.45184 36.7044 10.9272 39.6486 13.3041 42.0131C17.8294 46.5149 20.3727 52.5394 19.6298 58.2547C18.8869 63.9699 18.3436 66.0527 18.5493 69.5917C18.8325 74.4664 21.1893 78.833 25.8491 83.6898C19.2343 87.2746 4.64353 85.3754 -7.18934 76.3729C-19.0222 67.3705 -17.4446 57.4826 -17.022 54.5422C-16.5995 51.6017 -14.81 47.85 -15.5024 45.876C-16.5441 42.491 -21.1245 38.6411 -21.1245 38.6411Z" fill="url(#paint2_linear_4041_12682)"/>
<g opacity="0.7" filter="url(#filter1_i_4041_12682)">
<path d="M-14.0884 37.3812C-11.9671 38.4517 -9.8338 39.5131 -6.17146 42.0212C-2.74915 44.365 -0.736951 46.7402 1.35689 51.802C3.59032 57.2013 2.55299 62.2022 4.75748 66.5849C6.00705 69.0691 8.23919 72.236 14.0735 76.2859C17.2273 78.4751 21.5196 81.3125 25.3886 83.2063L25.8489 83.6901C25.8489 83.6901 25.2903 84.032 24.4004 84.3475C21.7447 83.969 18.6183 83.3177 15.7075 82.0933C11.7471 80.6221 5.78157 77.7804 2.88719 74.6921C-3.19423 68.2031 -2.32964 65.1096 -3.46936 57.9368C-4.22783 53.1634 -7.57521 44.4103 -14.0884 37.3812Z" fill="url(#paint3_linear_4041_12682)"/>
</g>
</g>
<g filter="url(#filter2_i_4041_12682)">
<path d="M115.583 102.434C107.832 102.943 100.063 103.497 85.5835 102.517C72.0534 101.601 62.4406 98.2552 48.1319 87.4822C32.8692 75.991 27.476 60.1909 13.9848 51.5135C6.33764 46.595 -5.2105 41.3858 -28.3664 39.6716C-40.8837 38.745 -57.6837 37.8841 -71.7231 38.9761L-73.8231 38.3784C-73.8231 38.3784 -72.8191 36.4887 -70.8384 34.1229C-62.7331 30.7795 -52.8497 25.179 -42.6203 23.793C-29.0259 21.3591 -7.50887 21.6979 5.77284 25.5863C33.6792 33.7564 36.3877 43.9 51.5198 62.1997C61.5899 74.3777 85.5636 93.4605 115.583 102.434Z" fill="url(#paint4_linear_4041_12682)"/>
</g>
<g clip-path="url(#clip2_4041_12682)">
<path d="M345.599 36.3822C351.268 29.3754 351.033 29.2104 351.069 29.2343C351.069 29.2343 344.07 27.5678 343.211 26.0893C342.727 25.2582 341.103 21.954 340.433 21.1358C339.19 19.3539 335.795 16.8046 333.647 16.0096C329.557 14.4959 325.09 14.6476 321.756 16.7474C318.422 18.8472 317.285 19.7814 315.03 20.669C311.924 21.8917 308.54 21.6834 304.191 20.1882C303.861 25.3165 309.218 33.8155 318.193 38.5676C327.169 43.3198 332.853 39.5057 334.557 38.4004C336.26 37.295 338.076 35.1097 339.499 34.9727C341.898 34.6475 345.599 36.3822 345.599 36.3822Z" fill="url(#paint5_linear_4041_12682)"/>
<g opacity="0.7" filter="url(#filter3_i_4041_12682)">
<path d="M344.366 31.6593C343.094 30.6515 341.825 29.6337 339.219 28.0831C336.785 26.6341 334.735 26.0682 330.994 26.2223C327.004 26.3867 324.197 28.4641 320.846 28.3548C318.947 28.2928 316.342 27.8177 312.158 25.3631C309.897 24.0362 306.907 22.1895 304.623 20.3347L304.191 20.1881C304.191 20.1881 304.139 20.6324 304.198 21.2745C305.194 22.812 306.493 24.563 308.087 26.016C310.134 28.0488 313.606 30.9313 316.351 31.8395C322.119 33.7476 323.791 32.3244 328.569 30.9734C331.748 30.0744 338.139 29.6385 344.366 31.6593Z" fill="url(#paint6_linear_4041_12682)"/>
</g>
</g>
<g clip-path="url(#clip3_4041_12682)">
<path d="M388.125 38.6411C382.293 26.8148 381.93 27.0247 381.983 26.9915C381.983 26.9915 375.467 35.2629 372.973 35.4976C371.571 35.6296 366.18 35.7589 364.681 36.1466C361.548 36.7044 356.073 39.6486 353.696 42.0131C349.171 46.5149 346.627 52.5394 347.37 58.2547C348.113 63.9699 348.656 66.0527 348.451 69.5917C348.168 74.4664 345.811 78.833 341.151 83.6898C347.766 87.2746 362.356 85.3754 374.189 76.3729C386.022 67.3705 384.445 57.4826 384.022 54.5422C383.599 51.6017 381.81 47.85 382.502 45.876C383.544 42.491 388.125 38.6411 388.125 38.6411Z" fill="url(#paint7_linear_4041_12682)"/>
<g opacity="0.7" filter="url(#filter4_i_4041_12682)">
<path d="M381.088 37.3812C378.967 38.4517 376.834 39.5131 373.171 42.0212C369.749 44.365 367.737 46.7402 365.643 51.802C363.41 57.2013 364.447 62.2022 362.243 66.5849C360.993 69.0691 358.761 72.236 352.927 76.2859C349.773 78.4751 345.48 81.3125 341.611 83.2063L341.151 83.6901C341.151 83.6901 341.71 84.032 342.6 84.3475C345.255 83.969 348.382 83.3177 351.292 82.0933C355.253 80.6221 361.218 77.7804 364.113 74.6921C370.194 68.2031 369.33 65.1096 370.469 57.9368C371.228 53.1634 374.575 44.4103 381.088 37.3812Z" fill="url(#paint8_linear_4041_12682)"/>
</g>
</g>
<g filter="url(#filter5_i_4041_12682)">
<path d="M251.417 102.434C259.168 102.943 266.937 103.497 281.417 102.517C294.947 101.601 304.559 98.2552 318.868 87.4822C334.131 75.991 339.524 60.1909 353.015 51.5135C360.662 46.595 372.211 41.3858 395.366 39.6716C407.884 38.745 424.684 37.8841 438.723 38.9761L440.823 38.3784C440.823 38.3784 439.819 36.4887 437.838 34.1229C429.733 30.7795 419.85 25.179 409.62 23.793C396.026 21.3591 374.509 21.6979 361.227 25.5863C333.321 33.7564 330.612 43.9 315.48 62.1997C305.41 74.3777 281.436 93.4605 251.417 102.434Z" fill="url(#paint9_linear_4041_12682)"/>
</g>
<defs>
<filter id="filter0_i_4041_12682" x="22.6338" y="20.1875" width="40.1963" height="16.5781" filterUnits="userSpaceOnUse" color-interpolation-filters="sRGB">
<feFlood flood-opacity="0" result="BackgroundImageFix"/>
<feBlend mode="normal" in="SourceGraphic" in2="BackgroundImageFix" result="shape"/>
<feColorMatrix in="SourceAlpha" type="matrix" values="0 0 0 0 0 0 0 0 0 0 0 0 0 0 0 0 0 0 127 0" result="hardAlpha"/>
<feOffset dy="4"/>
<feGaussianBlur stdDeviation="2"/>
<feComposite in2="hardAlpha" operator="arithmetic" k2="-1" k3="1"/>
<feColorMatrix type="matrix" values="0 0 0 0 0.101961 0 0 0 0 0.101961 0 0 0 0 0.101961 0 0 0 0.25 0"/>
<feBlend mode="normal" in2="shape" result="effect1_innerShadow_4041_12682"/>
</filter>
<filter id="filter1_i_4041_12682" x="-14.0889" y="37.3809" width="39.9375" height="50.9668" filterUnits="userSpaceOnUse" color-interpolation-filters="sRGB">
<feFlood flood-opacity="0" result="BackgroundImageFix"/>
<feBlend mode="normal" in="SourceGraphic" in2="BackgroundImageFix" result="shape"/>
<feColorMatrix in="SourceAlpha" type="matrix" values="0 0 0 0 0 0 0 0 0 0 0 0 0 0 0 0 0 0 127 0" result="hardAlpha"/>
<feOffset dy="4"/>
<feGaussianBlur stdDeviation="2"/>
<feComposite in2="hardAlpha" operator="arithmetic" k2="-1" k3="1"/>
<feColorMatrix type="matrix" values="0 0 0 0 0.101961 0 0 0 0 0.101961 0 0 0 0 0.101961 0 0 0 0.25 0"/>
<feBlend mode="normal" in2="shape" result="effect1_innerShadow_4041_12682"/>
</filter>
<filter id="filter2_i_4041_12682" x="-73.8232" y="22.25" width="189.406" height="84.8066" filterUnits="userSpaceOnUse" color-interpolation-filters="sRGB">
<feFlood flood-opacity="0" result="BackgroundImageFix"/>
<feBlend mode="normal" in="SourceGraphic" in2="BackgroundImageFix" result="shape"/>
<feColorMatrix in="SourceAlpha" type="matrix" values="0 0 0 0 0 0 0 0 0 0 0 0 0 0 0 0 0 0 127 0" result="hardAlpha"/>
<feOffset dy="4"/>
<feGaussianBlur stdDeviation="2"/>
<feComposite in2="hardAlpha" operator="arithmetic" k2="-1" k3="1"/>
<feColorMatrix type="matrix" values="0 0 0 0 0.101961 0 0 0 0 0.101961 0 0 0 0 0.101961 0 0 0 0.25 0"/>
<feBlend mode="normal" in2="shape" result="effect1_innerShadow_4041_12682"/>
</filter>
<filter id="filter3_i_4041_12682" x="304.17" y="20.1875" width="40.1963" height="16.5781" filterUnits="userSpaceOnUse" color-interpolation-filters="sRGB">
<feFlood flood-opacity="0" result="BackgroundImageFix"/>
<feBlend mode="normal" in="SourceGraphic" in2="BackgroundImageFix" result="shape"/>
<feColorMatrix in="SourceAlpha" type="matrix" values="0 0 0 0 0 0 0 0 0 0 0 0 0 0 0 0 0 0 127 0" result="hardAlpha"/>
<feOffset dy="4"/>
<feGaussianBlur stdDeviation="2"/>
<feComposite in2="hardAlpha" operator="arithmetic" k2="-1" k3="1"/>
<feColorMatrix type="matrix" values="0 0 0 0 0.101961 0 0 0 0 0.101961 0 0 0 0 0.101961 0 0 0 0.25 0"/>
<feBlend mode="normal" in2="shape" result="effect1_innerShadow_4041_12682"/>
</filter>
<filter id="filter4_i_4041_12682" x="341.151" y="37.3809" width="39.9375" height="50.9668" filterUnits="userSpaceOnUse" color-interpolation-filters="sRGB">
<feFlood flood-opacity="0" result="BackgroundImageFix"/>
<feBlend mode="normal" in="SourceGraphic" in2="BackgroundImageFix" result="shape"/>
<feColorMatrix in="SourceAlpha" type="matrix" values="0 0 0 0 0 0 0 0 0 0 0 0 0 0 0 0 0 0 127 0" result="hardAlpha"/>
<feOffset dy="4"/>
<feGaussianBlur stdDeviation="2"/>
<feComposite in2="hardAlpha" operator="arithmetic" k2="-1" k3="1"/>
<feColorMatrix type="matrix" values="0 0 0 0 0.101961 0 0 0 0 0.101961 0 0 0 0 0.101961 0 0 0 0.25 0"/>
<feBlend mode="normal" in2="shape" result="effect1_innerShadow_4041_12682"/>
</filter>
<filter id="filter5_i_4041_12682" x="251.417" y="22.25" width="189.406" height="84.8066" filterUnits="userSpaceOnUse" color-interpolation-filters="sRGB">
<feFlood flood-opacity="0" result="BackgroundImageFix"/>
<feBlend mode="normal" in="SourceGraphic" in2="BackgroundImageFix" result="shape"/>
<feColorMatrix in="SourceAlpha" type="matrix" values="0 0 0 0 0 0 0 0 0 0 0 0 0 0 0 0 0 0 127 0" result="hardAlpha"/>
<feOffset dy="4"/>
<feGaussianBlur stdDeviation="2"/>
<feComposite in2="hardAlpha" operator="arithmetic" k2="-1" k3="1"/>
<feColorMatrix type="matrix" values="0 0 0 0 0.101961 0 0 0 0 0.101961 0 0 0 0 0.101961 0 0 0 0.25 0"/>
<feBlend mode="normal" in2="shape" result="effect1_innerShadow_4041_12682"/>
</filter>
<linearGradient id="paint0_linear_4041_12682" x1="31.5879" y1="81.3456" x2="9.49197" y2="0.471634" gradientUnits="userSpaceOnUse">
<stop stop-color="#8FAD86"/>
<stop offset="0.871667" stop-color="#3D8D7A"/>
</linearGradient>
<linearGradient id="paint1_linear_4041_12682" x1="-25.7317" y1="34.6508" x2="62.81" y2="20.0231" gradientUnits="userSpaceOnUse">
<stop offset="0.486432" stop-color="#3D3D3D"/>
<stop offset="1" stop-color="#235247"/>
</linearGradient>
<linearGradient id="paint2_linear_4041_12682" x1="-74.6404" y1="79.7541" x2="19.199" y2="0.677759" gradientUnits="userSpaceOnUse">
<stop stop-color="#8FAD86"/>
<stop offset="0.871667" stop-color="#3D8D7A"/>
</linearGradient>
<linearGradient id="paint3_linear_4041_12682" x1="-47.7859" y1="-25.007" x2="25.9372" y2="83.6801" gradientUnits="userSpaceOnUse">
<stop offset="0.486432" stop-color="#3D3D3D"/>
<stop offset="1" stop-color="#235247"/>
</linearGradient>
<linearGradient id="paint4_linear_4041_12682" x1="314.127" y1="223.511" x2="-75.7062" y2="41.3733" gradientUnits="userSpaceOnUse">
<stop offset="0.486432" stop-color="#3D3D3D"/>
<stop offset="1" stop-color="#235247"/>
</linearGradient>
<linearGradient id="paint5_linear_4041_12682" x1="335.412" y1="81.3456" x2="357.508" y2="0.471634" gradientUnits="userSpaceOnUse">
<stop stop-color="#8FAD86"/>
<stop offset="0.871667" stop-color="#3D8D7A"/>
</linearGradient>
<linearGradient id="paint6_linear_4041_12682" x1="392.732" y1="34.6508" x2="304.19" y2="20.0231" gradientUnits="userSpaceOnUse">
<stop offset="0.486432" stop-color="#3D3D3D"/>
<stop offset="1" stop-color="#235247"/>
</linearGradient>
<linearGradient id="paint7_linear_4041_12682" x1="441.64" y1="79.7541" x2="347.801" y2="0.677759" gradientUnits="userSpaceOnUse">
<stop stop-color="#8FAD86"/>
<stop offset="0.871667" stop-color="#3D8D7A"/>
</linearGradient>
<linearGradient id="paint8_linear_4041_12682" x1="414.786" y1="-25.007" x2="341.063" y2="83.6801" gradientUnits="userSpaceOnUse">
<stop offset="0.486432" stop-color="#3D3D3D"/>
<stop offset="1" stop-color="#235247"/>
</linearGradient>
<linearGradient id="paint9_linear_4041_12682" x1="52.8731" y1="223.511" x2="442.706" y2="41.3733" gradientUnits="userSpaceOnUse">
<stop offset="0.486432" stop-color="#3D3D3D"/>
<stop offset="1" stop-color="#235247"/>
</linearGradient>
<clipPath id="clip0_4041_12682">
<rect width="47.9073" height="35.2118" fill="white" transform="matrix(0.833516 -0.552495 -0.552893 -0.833252 29.0049 55.8086)"/>
</clipPath>
<clipPath id="clip1_4041_12682">
<rect width="70.1449" height="51.5204" fill="white" transform="matrix(0.851464 0.524413 0.524893 -0.851168 -42.2783 60.6562)"/>
</clipPath>
<clipPath id="clip2_4041_12682">
<rect width="47.9073" height="35.2118" fill="white" transform="matrix(-0.833516 -0.552495 0.552893 -0.833252 337.995 55.8086)"/>
</clipPath>
<clipPath id="clip3_4041_12682">
<rect width="70.1449" height="51.5204" fill="white" transform="matrix(-0.851464 0.524413 -0.524893 -0.851168 409.278 60.6562)"/>
</clipPath>
</defs>
</svg>
