<svg width="154" height="96" viewBox="0 0 154 96" fill="none" xmlns="http://www.w3.org/2000/svg">
<path d="M15.6329 80.1795C15.9092 80.1546 16.2699 80.1832 16.3483 80.4494C16.3507 80.7704 15.9439 80.9037 15.6254 80.9434C13.9083 81.1569 12.1911 81.3704 10.474 81.5839C11.2722 82.2613 11.3514 83.6053 10.6762 84.4054C10.0009 85.2055 8.71027 85.3698 7.82662 84.8083C7.5319 84.621 7.2808 84.3671 6.97098 84.206C6.66115 84.045 6.25176 83.9972 5.98344 84.2206C5.37692 84.7257 4.46231 84.5893 3.73653 84.2791C3.01712 83.9717 2.30727 83.4472 2.13981 82.683C1.97387 81.9257 2.38749 81.1626 2.87655 80.561C3.36561 79.9595 3.95635 79.4149 4.25019 78.6975C4.68121 77.6451 5.95394 77.1212 7.08136 77.27C8.20877 77.4188 9.19591 78.1051 10.017 78.8919C10.5458 79.3985 11.4034 79.1997 12.1023 78.9812C12.8012 78.7627 13.6789 78.6014 14.1684 79.1459" fill="#F9FCF8"/>
<path fill-rule="evenodd" clip-rule="evenodd" d="M114.77 77.2242C114.77 69.3452 120.593 67.5297 124.289 67.6225C127.984 67.7152 131.509 70.0944 132.88 73.4126C134.252 76.7308 133.397 80.7975 130.802 83.3417C128.206 85.8859 122.726 85.9168 121.146 85.4372C119.566 84.9577 114.77 81.6218 114.77 77.2242Z" fill="#F9FCF8"/>
<path fill-rule="evenodd" clip-rule="evenodd" d="M123.83 71.7776C125.156 71.6715 126.519 72.1553 127.481 73.074C128.972 74.4976 129.357 76.9463 128.375 78.7587C127.392 80.5711 125.131 81.5856 123.124 81.114C121.213 80.6649 119.682 78.9142 119.492 76.9602C119.302 75.0062 120.466 72.9932 122.255 72.1839C122.751 71.9592 123.287 71.8211 123.83 71.7776M126.132 72.6936C125.663 72.3486 125.147 72.0599 124.589 71.9485C123.954 71.8218 123.289 71.9329 122.694 72.2025C121.18 72.8876 120.149 74.6625 120.247 76.4325C120.346 78.2025 121.575 79.8359 123.162 80.2874C124.749 80.7389 126.57 79.9644 127.436 78.4583C128.302 76.9522 128.133 74.835 127.032 73.52C126.768 73.2036 126.458 72.9335 126.132 72.6936V72.6936Z" fill="#1A1A1A"/>
<path fill-rule="evenodd" clip-rule="evenodd" d="M35.0902 77.788C35.0572 77.2747 35.0612 76.7561 35.1519 76.2498C35.2207 75.8658 35.3387 75.4926 35.4563 75.1207C35.7099 74.3187 35.9643 73.5145 36.3119 72.7485C38.0157 68.994 42.0886 66.4509 46.2103 66.5579C50.332 66.665 54.2633 69.4101 55.7932 73.2389C57.323 77.0676 56.3698 81.7599 53.4746 84.6955C50.5794 87.6311 45.9078 88.6502 42.0493 87.1969C38.1908 85.7437 35.3544 81.9026 35.0902 77.788" fill="#F9FCF8"/>
<path fill-rule="evenodd" clip-rule="evenodd" d="M46.1471 31.4006C46.1682 33.0305 45.7516 34.7734 46.5056 36.2186C47.9024 38.8956 51.825 38.3981 54.7103 37.508C52.3389 34.809 49.9675 32.11 47.5961 29.411C52.5088 24.3951 57.4214 19.3791 62.334 14.3631C62.7436 13.9449 63.2165 13.4979 63.8018 13.4865C64.4768 13.4734 65.0046 14.038 65.4369 14.5566C67.0461 16.4867 68.6552 18.4168 70.2644 20.347C71.5902 21.9373 72.8526 24.513 71.2298 25.7987C77.3178 25.3856 83.4059 24.9725 89.494 24.5594C88.354 18.0479 90.4488 10.033 92.5169 3.75428C92.7231 3.12846 92.9724 2.44783 93.5442 2.12041C93.9447 1.89107 94.4296 1.88189 94.8911 1.8787C106.006 1.80205 117.122 1.72539 128.237 1.64874C128.91 1.6441 129.621 1.64881 130.202 1.98772C130.701 2.27854 131.038 2.77725 131.353 3.26154C140.757 17.7182 146.628 35.8748 148.316 53.038C148.527 55.1909 151.286 70.608 148.316 71.0653C134.169 73.243 136.941 60.4212 122 62.2969C109.724 63.838 112.043 71.0653 104.948 72.4735C98.574 73.7385 76.8338 74.0529 69.7865 74.4058C60.1189 74.89 59.4357 60.275 44.7131 60.8688C29.9905 61.4626 30.3275 78.1793 22.3961 76.2657C22.0654 76.1859 18.4744 74.0972 18.3935 73.8471C17.2246 70.2349 16.3483 57.014 16.3483 57.014L13.5797 56.399C13.5797 56.399 13.3763 49.5739 13.5797 49.3559C13.938 48.9718 20.2141 49.6609 22.9303 49.3559C22.1279 43.7835 21.3254 38.2111 20.523 32.6387C20.4537 32.1576 20.3938 31.6288 20.6553 31.219C20.9461 30.7634 21.53 30.6125 22.0591 30.502C29.1372 29.0232 36.3399 28.1409 43.5657 27.8676C45.1946 27.806 46.1259 29.7707 46.1471 31.4006Z" fill="#F9FCF8"/>
<path fill-rule="evenodd" clip-rule="evenodd" d="M31.8641 46.6032L28.6777 46.8301L26.8867 29.5925L29.6768 29.1338L31.8641 46.6032Z" fill="#1A1A1A"/>
<path fill-rule="evenodd" clip-rule="evenodd" d="M107.112 13.7718C107.975 13.6058 124.528 25.0933 124.357 25.2797C124.186 25.4661 106.771 13.8375 107.112 13.7718Z" fill="#A9A9A9"/>
<path fill-rule="evenodd" clip-rule="evenodd" d="M114.212 13.7719C114.881 13.6526 123.365 19.3887 123.129 19.7228C122.894 20.057 113.784 13.848 114.212 13.7719Z" fill="#A9A9A9"/>
<path fill-rule="evenodd" clip-rule="evenodd" d="M105.338 17.3215C105.016 16.753 114.511 23.3224 114.256 23.2725C111.809 22.7943 105.433 17.4884 105.338 17.3215Z" fill="#A9A9A9"/>
<path fill-rule="evenodd" clip-rule="evenodd" d="M104.216 35.8551C104.424 36.0196 104.339 36.3934 104.104 36.5166C103.869 36.6397 103.569 36.5575 103.361 36.3926C102.735 35.896 102.865 34.8435 103.413 34.2621C103.962 33.6806 104.776 33.449 105.547 33.2417C105.868 33.1556 106.188 33.0696 106.508 32.9836C107.161 32.808 107.856 32.6325 108.504 32.8267C109.152 33.0209 109.692 33.7394 109.44 34.3675C109.282 34.7626 108.864 35.0017 108.445 35.0774C108.026 35.153 107.596 35.0956 107.172 35.0666C106.337 35.0097 105.496 35.0644 104.676 35.2287C104.515 35.2609 104.346 35.3024 104.23 35.4193C104.115 35.5361 104.087 35.7534 104.216 35.8551Z" fill="#1A1A1A"/>
<path fill-rule="evenodd" clip-rule="evenodd" d="M108.417 71.6586C108.2 72.5553 107.983 73.452 107.767 74.3487C107.7 74.6228 107.627 74.91 107.435 75.1162C107.149 75.423 106.686 75.4668 106.268 75.4908C93.0901 76.2459 79.9024 76.8233 66.7092 77.223C65.8173 77.25 64.9767 76.7413 64.3913 76.0678C63.8059 75.3943 63.4335 74.5664 63.0693 73.7518C63.6461 73.6125 64.1925 74.0712 64.5438 74.5495C64.895 75.0277 65.2042 75.5922 65.7501 75.8249C66.1092 75.978 66.5149 75.9597 66.9047 75.9388C79.7166 75.2508 92.5284 74.5629 105.34 73.875C105.802 73.8502 106.303 73.8097 106.646 73.4998C106.999 73.1809 107.084 72.6695 107.29 72.2411C107.497 71.8127 108.005 71.4216 108.417 71.6586L108.417 71.6586Z" fill="#1A1A1A"/>
<path fill-rule="evenodd" clip-rule="evenodd" d="M9.84012 79.3192C9.2172 78.6537 8.42966 78.1435 7.56772 77.847C6.98252 77.6456 6.31205 77.549 5.76259 77.8338C5.21313 78.1186 4.90665 78.9044 5.29311 79.3878C5.49649 79.6421 5.0374 79.8832 4.71927 79.9529C3.76866 80.1614 3.05134 81.2152 3.32075 82.1504C3.59016 83.0856 4.89817 83.5731 5.65271 82.9585C5.92592 82.7359 6.10899 82.411 6.40503 82.2199C6.70107 82.0287 7.19995 82.0691 7.29097 82.4095C7.48286 83.1272 8.13728 83.6975 8.87444 83.7895C9.35584 83.8496 9.92549 83.6531 10.0747 83.1915C10.339 82.3736 9.13278 81.5264 9.54348 80.7714C9.75059 80.3906 10.2516 80.3085 10.6833 80.2697C12.3332 80.1213 13.9831 79.9729 15.6329 79.8245C15.9092 79.7996 16.2699 79.8282 16.3481 80.0944C16.3507 80.4154 15.9439 80.5488 15.6254 80.5884C13.9083 80.8019 12.1911 81.0154 10.474 81.2289C11.2722 81.9063 11.3514 83.2504 10.6762 84.0504C10.0009 84.8505 8.71027 85.0148 7.82662 84.4533C7.5319 84.266 7.2808 84.0121 6.97098 83.851C6.66115 83.69 6.25176 83.6422 5.98344 83.8656C5.37692 84.3707 4.46231 84.2344 3.73653 83.9242C3.01712 83.6167 2.30727 83.0922 2.13981 82.328C1.97387 81.5707 2.38749 80.8076 2.87655 80.2061C3.36561 79.6045 3.95635 79.0599 4.25019 78.3425C4.68121 77.2901 5.95394 76.7662 7.08136 76.915C8.20877 77.0638 9.19591 77.7501 10.017 78.5369C10.5458 79.0435 11.4034 78.8447 12.1023 78.6262C12.8012 78.4078 13.6789 78.2464 14.1684 78.7909C13.1606 79.0198 12.1528 79.2486 11.145 79.4775C10.6965 79.5793 10.1544 79.655 9.84012 79.3192Z" fill="#1A1A1A"/>
<path fill-rule="evenodd" clip-rule="evenodd" d="M30.0191 78.3431C29.9705 77.5865 29.9764 76.8223 30.1101 76.0759C30.2115 75.51 30.3853 74.96 30.5587 74.4118C30.9324 73.2298 31.3075 72.0445 31.8197 70.9156C34.3309 65.3818 40.3338 61.6337 46.4087 61.7914C52.4835 61.9492 58.2778 65.9952 60.5326 71.6383C62.7875 77.2813 61.3825 84.1972 57.1153 88.5239C52.8482 92.8506 45.9628 94.3526 40.2759 92.2107C34.589 90.0687 30.4084 84.4075 30.0191 78.3431M33.2065 72.6827C32.9365 73.4007 32.7259 74.1532 32.7267 74.9202C32.7293 77.2721 32.9146 79.6584 33.7129 81.8707C35.3909 86.5205 39.9142 90.0014 44.837 90.4511C49.7598 90.9008 54.8304 88.306 57.3613 84.0597C59.8921 79.8135 59.7664 74.1304 57.0659 69.9899C54.3654 65.8495 49.2272 63.4448 44.3158 64.0052C39.4044 64.5655 34.9465 68.0558 33.2065 72.6827H33.2065Z" fill="#1A1A1A"/>
<path fill-rule="evenodd" clip-rule="evenodd" d="M129.337 63.9913C134.487 66.1559 138.071 71.6054 138.02 77.1913C137.968 82.7772 134.284 88.1596 129.095 90.2289C123.906 92.2981 117.529 90.9283 113.647 86.9108C109.766 82.8932 108.617 76.4726 110.864 71.3582C111.395 70.1489 112.114 68.994 113.136 68.1565C115.451 66.2582 117.848 64.319 120.712 63.4463C123.524 62.5894 126.627 62.8523 129.337 63.9913M117.358 66.695C116.682 67.1272 116.043 67.632 115.543 68.2598C115.014 68.9239 114.656 69.7049 114.304 70.4771C113.776 71.6347 113.245 72.7988 112.915 74.0278C111.783 78.251 113.315 83.0634 116.665 85.873C120.015 88.6826 125.005 89.3561 128.991 87.5573C132.976 85.7585 135.768 81.5861 135.935 77.2169C136.102 72.8476 133.648 68.4847 129.839 66.3367C126.031 64.1886 121.042 64.3403 117.358 66.695Z" fill="#1A1A1A"/>
<path fill-rule="evenodd" clip-rule="evenodd" d="M124.784 6.65909C115.853 6.84924 106.921 7.0394 97.9892 7.22955C97.7664 7.23429 97.5193 7.24899 97.3631 7.40799C97.2622 7.51074 97.2192 7.65556 97.1812 7.79446C95.2005 15.018 96.805 22.6711 98.1507 30.0394C98.9896 34.6331 99.7251 39.2457 100.356 43.8725C100.811 47.2043 101.212 50.5549 101.184 53.9175C101.175 54.9867 101.927 55.9531 102.863 56.4696C103.799 56.9861 104.894 57.1255 105.962 57.1774C108.212 57.2866 110.479 57.0473 112.656 56.4707C113.062 56.3634 113.482 56.2434 113.894 56.3205C114.306 56.3976 114.703 56.7442 114.678 57.1629C114.649 57.6471 114.125 57.9253 113.668 58.0879C110.793 59.1106 107.638 59.3304 104.649 58.716C103.215 58.4213 101.719 57.865 100.897 56.6534C100.43 55.9643 100.23 55.133 100.048 54.3203C98.2172 46.1431 97.3032 37.7924 96.4105 29.4605C95.5992 21.8887 94.8021 14.2576 95.4824 6.67285C95.5035 6.43841 95.529 6.19456 95.6534 5.99475C95.9202 5.56633 96.5095 5.50813 97.014 5.49574C106.462 5.26373 115.909 5.03172 125.357 4.79971C125.893 4.78656 126.469 4.78461 126.911 5.08765C127.237 5.31124 127.44 5.66917 127.633 6.01459C131.058 12.1634 134.483 18.3122 137.908 24.4611C138.593 25.6913 139.301 27.1044 138.874 28.4465C138.558 29.4419 137.657 30.1638 136.678 30.5276C135.699 30.8914 134.637 30.9508 133.594 31.0065C131.722 31.1064 129.851 31.2063 127.979 31.3062C123.354 31.553 118.73 31.7998 114.105 32.0466C113.84 32.0608 113.543 32.0644 113.347 31.8852C113.061 31.6236 113.185 31.1125 113.49 30.8737C113.796 30.6349 114.206 30.5932 114.593 30.5607C121.571 29.9721 128.55 29.3836 135.529 28.7951C136.076 28.749 136.455 28.1747 136.48 27.6263C136.504 27.078 136.267 26.5558 136.033 26.0592C133.009 19.6342 129.736 13.327 126.222 7.1566C125.958 6.6927 125.318 6.64773 124.784 6.65909V6.65909Z" fill="#1A1A1A"/>
<path fill-rule="evenodd" clip-rule="evenodd" d="M40.554 68.3567C43.6753 66.6292 47.7359 66.8312 50.7411 68.7537C53.7462 70.6762 55.6186 74.2031 55.6579 77.7703C55.698 81.4038 53.7283 85.1262 50.4378 86.6676C49.2907 87.205 48.0264 87.4725 46.7606 87.5219C42.1479 87.7019 37.5324 84.6687 36.0543 80.2954C34.5762 75.9222 36.5151 70.5921 40.554 68.3567M47.6779 85.9586C48.8905 85.7565 50.0689 85.3238 51.1003 84.6547C52.1573 83.9691 53.0535 83.0372 53.6974 81.9542C55.3733 79.1351 55.159 75.3487 53.2989 72.6477C51.4387 69.9466 48.0741 68.4056 44.8006 68.6054C43.5803 68.6799 42.3689 68.9801 41.278 69.5321C37.5136 71.4367 35.785 76.4634 37.3778 80.37C38.9706 84.2766 43.5164 86.6524 47.6779 85.9586L47.6779 85.9586Z" fill="#1A1A1A"/>
<path fill-rule="evenodd" clip-rule="evenodd" d="M73.2025 62.0722C72.6591 61.5894 71.7916 61.6142 71.2619 61.1164C71.4112 60.5766 71.9095 60.222 72.2593 59.7847C73.0862 58.751 72.9993 57.1006 72.0685 56.1595C71.5977 55.6834 70.9146 55.3187 70.79 54.6608C71.7633 54.4936 72.7471 54.1798 73.48 53.5178C74.2128 52.8559 74.6377 51.783 74.3158 50.8494C74.2169 50.5627 74.0514 50.2889 74.0476 49.9856C74.0438 49.6824 74.3074 49.3467 74.599 49.4299C76.1604 49.8754 77.9858 48.8369 78.4006 47.2671C78.5788 46.5926 79.5711 46.6592 80.1941 46.973C80.8172 47.2868 81.6107 47.6836 82.1402 47.2293C82.5884 46.8449 82.6705 45.9518 83.2609 45.963C83.5666 45.9688 83.7828 46.2473 83.9961 46.4664C84.7312 47.222 85.9544 47.451 86.9131 47.0125C87.2485 46.8591 87.5589 46.6311 87.923 46.5724C88.2872 46.5138 88.7356 46.7187 88.759 47.0868C88.8297 48.2 90.0459 49.089 91.1281 48.8184C91.5412 48.7152 92.2422 48.7376 92.1023 49.1397C91.6753 50.3671 92.5884 51.8707 93.8744 52.0578C94.2018 52.1054 94.5498 52.0825 94.846 52.2298C95.1422 52.3771 95.3386 52.7975 95.1158 53.042C94.1589 54.0924 94.5629 56.0406 95.8585 56.6239C96.2077 56.7811 96.1254 57.3261 95.8611 57.6032C95.5968 57.8804 95.2157 58.0487 95.0223 58.3792C94.6861 58.9539 95.0864 59.6866 95.575 60.1389C96.0635 60.5913 96.6776 60.9713 96.9067 61.5965C95.9868 61.2452 94.8472 61.6068 94.2981 62.4242C93.749 63.2417 93.8452 64.4333 94.5182 65.1521C94.1628 65.7911 93.2133 65.5367 92.485 65.6009C91.5989 65.6789 90.8234 66.446 90.7356 67.3312C90.6974 67.7162 90.7734 68.1202 90.6364 68.482C90.4993 68.8439 89.9988 69.1055 89.7251 68.8319C88.7073 67.8146 86.7603 68.0192 85.9763 69.2259C85.7901 69.5124 85.6067 69.8791 85.2663 69.9099C84.7305 69.9586 84.5592 69.184 84.1231 68.869C83.5824 68.4785 82.8147 68.9216 82.4344 69.4695C82.0542 70.0175 81.8167 70.7022 81.2571 71.0652C80.1942 70.2848 80.5166 68.0752 79.2103 67.8947C78.6464 67.8167 78.1497 68.2353 77.6157 68.4328C77.0817 68.6302 76.2584 68.3664 76.3582 67.8059C76.5215 66.8887 76.3834 65.6662 75.4826 65.4284C74.5937 65.1937 73.4564 66.1182 72.8429 65.4334C73.5077 64.3951 74.1242 62.8911 73.2025 62.0722ZM73.7948 56.3617C73.3868 57.1006 73.4612 57.9972 73.385 58.8378C73.3087 59.6785 72.9556 60.6276 72.1487 60.8754C73.0609 60.9402 73.9143 61.5445 74.2783 62.3833C74.6423 63.2222 74.5007 64.2582 73.9249 64.9686C74.6722 64.4087 75.8125 64.5718 76.4908 65.2136C77.1691 65.8554 77.4125 66.868 77.2742 67.7915C78.0431 67.2419 79.1271 67.1723 79.9601 67.6189C80.793 68.0656 81.3348 69.007 81.3026 69.9516C81.5321 69.1135 82.1907 68.381 83.0312 68.1604C83.8717 67.9399 84.8576 68.2986 85.2806 69.0577C85.3194 68.4857 85.8593 68.0805 86.39 67.8636C87.5271 67.3989 88.8602 67.4394 89.967 67.9723C89.8318 66.1879 91.6976 64.5503 93.4494 64.9158C92.9012 64.3441 92.9322 63.4133 93.2367 62.6821C93.6206 61.7603 94.5194 60.9573 95.5124 61.063C94.9358 60.852 94.4704 60.3585 94.2936 59.7706C93.9969 58.7843 94.5372 57.6839 95.3776 57.0885C94.3168 56.8657 93.9752 55.5465 93.8438 54.4706C93.7754 53.9098 93.8086 53.1752 94.344 52.995C93.2392 52.6827 92.2416 52.003 91.547 51.0889C91.2256 50.6661 90.9956 49.9986 91.4036 49.6587C90.5566 49.6147 89.7212 49.3607 88.993 48.9258C88.4388 48.5948 87.8937 47.9881 88.1038 47.3778C86.621 48.1104 84.7533 47.9941 83.3728 47.0832C82.9557 47.7395 82.1378 48.0577 81.3602 48.0548C80.5825 48.0519 79.8332 47.7749 79.1212 47.4621C79.2054 47.9767 78.8584 48.4603 78.4821 48.8212C77.5253 49.7386 76.2389 50.3049 74.9161 50.3908C75.5045 52.4142 73.9363 54.776 71.8431 55.0187C72.3488 55.6378 73.0426 56.0909 73.7948 56.3617Z" fill="#1A1A1A"/>
<path fill-rule="evenodd" clip-rule="evenodd" d="M125.234 85.3573C123.908 85.5382 122.541 85.4094 121.273 84.9841C117.251 83.6353 114.622 79.0354 115.501 74.8853C116.38 70.7352 120.648 67.5965 124.872 67.9945C129.095 68.3925 132.702 72.2734 132.791 76.5147C132.879 80.756 129.437 84.7838 125.234 85.3573M128.27 83.5655C131.095 81.8504 132.647 78.2642 131.961 75.0305C131.276 71.7967 128.403 69.148 125.125 68.7266C121.846 68.3051 118.397 70.1414 116.917 73.0967C115.436 76.052 116.029 79.9139 118.33 82.2878C120.84 84.8783 125.186 85.4369 128.27 83.5655Z" fill="#1A1A1A"/>
<path fill-rule="evenodd" clip-rule="evenodd" d="M83.9433 48.1925C87.549 48.1513 91.0931 50.2979 92.7267 53.5125C94.3603 56.7272 94.0049 60.8553 91.846 63.7435C89.6871 66.6317 85.8284 68.1412 82.2828 67.4844C79.1508 66.9042 76.371 64.6822 75.115 61.755C73.8591 58.8278 74.1643 55.2822 75.902 52.6127C77.6396 49.9432 80.7583 48.2289 83.9433 48.1925ZM93.1428 57.3304C93.0523 55.8943 92.6136 54.4814 91.875 53.2465C89.6227 49.4811 84.403 47.8329 80.3968 49.622C76.3906 51.4112 74.1342 56.3983 75.4349 60.5886C76.7357 64.7789 81.4196 67.6116 85.7347 66.8176C90.0498 66.0237 93.4187 61.7093 93.1428 57.3304V57.3304Z" fill="#1A1A1A"/>
<path fill-rule="evenodd" clip-rule="evenodd" d="M45.3828 72.4881C46.7089 72.3819 48.0714 72.8657 49.0335 73.7844C50.5244 75.208 50.9094 77.6567 49.9273 79.4691C48.9452 81.2815 46.6836 82.2961 44.6769 81.8245C42.7657 81.3753 41.2349 79.6247 41.0447 77.6707C40.8545 75.7167 42.0189 73.7037 43.8076 72.8943C44.3041 72.6697 44.8396 72.5316 45.3828 72.4881M47.6845 73.9806C47.2153 73.6614 46.6994 73.3943 46.1413 73.2912C45.5065 73.1739 44.8417 73.2768 44.2462 73.5262C42.7329 74.1602 41.7012 75.8026 41.7998 77.4404C41.8984 79.0782 43.1278 80.5897 44.7145 81.0075C46.3013 81.4253 48.1227 80.7086 48.9887 79.315C49.8546 77.9213 49.6859 75.9621 48.5852 74.7453C48.3204 74.4526 48.0109 74.2027 47.6845 73.9806V73.9806Z" fill="#1A1A1A"/>
<path fill-rule="evenodd" clip-rule="evenodd" d="M46.1484 29.2708C46.1695 30.9006 45.753 32.6436 46.507 34.0888C47.9038 36.7658 51.8263 36.2683 54.7117 35.3782C52.3403 32.6792 49.9689 29.9802 47.5974 27.2812C52.5101 22.2652 57.4227 17.2493 62.3354 12.2333C62.745 11.8151 63.2179 11.3681 63.8032 11.3567C64.4781 11.3436 65.0059 11.9082 65.4382 12.4267C67.0474 14.3569 68.6566 16.287 70.2657 18.2172C71.5915 19.8074 72.8539 22.3832 71.2311 23.6689C77.3192 23.2558 83.4072 22.8427 89.4953 22.4295C88.3553 15.918 90.4501 9.32302 92.5183 3.04432C92.7244 2.4185 92.9737 1.73787 93.5455 1.41045C93.946 1.18111 94.4309 1.17193 94.8924 1.16874C106.008 1.09209 117.123 1.01543 128.238 0.93878C128.912 0.934137 129.622 0.938848 130.204 1.27776C130.703 1.56858 131.039 2.06729 131.354 2.55158C140.758 17.0083 146.629 33.745 148.317 50.9082C148.529 53.0611 148.76 55.4134 150.28 56.953C152.593 59.2969 152.842 63.3813 150.831 65.9887C152.31 67.0622 151.945 69.5407 150.59 70.7677C149.235 71.9947 147.31 72.3082 145.501 72.5692C143.101 72.9156 140.489 73.2247 138.39 72.0089C141.827 71.2034 145.269 70.4168 148.715 69.6494C147.187 59.5829 145.658 49.5165 144.13 39.45C143.626 36.1305 143.119 32.7993 142.179 29.5759C141.167 26.1048 139.665 22.7997 138.169 19.5086C135.811 14.325 133.454 9.14143 131.096 3.95787C130.839 3.39309 130.561 2.80155 130.055 2.44317C129.441 2.00914 128.632 2.01017 127.88 2.02805C117.416 2.27715 106.952 2.52625 96.4882 2.77535C95.8848 2.78971 95.2347 2.82012 94.7607 3.19369C94.3708 3.50097 94.173 3.9861 94.0023 4.45229C89.8817 15.7112 92.2955 28.1835 94.7528 39.9182C95.2042 42.074 92.2758 43.1754 90.0816 43.3677C65.032 45.5638 39.9823 47.7599 14.9326 49.9559C14.6253 51.942 14.5386 53.962 14.6747 55.9671C16.3418 56.1137 18.009 56.2602 19.6761 56.4068C19.1473 56.6149 18.6186 56.8231 18.0898 57.0312C19.0755 62.2118 19.6204 67.4763 19.7167 72.749C19.746 74.3536 21.1368 75.6739 22.6688 76.1523C24.2008 76.6306 25.8505 76.4527 27.445 76.2701C25.7477 76.9807 23.979 77.7047 22.1412 77.6146C20.3034 77.5245 18.379 76.3655 18.0398 74.557C16.9762 68.8858 16.3636 63.1302 16.2099 57.3622C15.244 57.3857 14.2781 57.4092 13.3122 57.4328C12.9857 55.0191 12.8543 52.5792 12.9196 50.1444C12.9336 49.6204 12.9761 49.0481 13.3337 48.6649C13.6921 48.2808 14.261 48.1996 14.7831 48.141C17.4993 47.836 20.2155 47.5311 22.9317 47.2261C22.1292 41.6537 21.3268 36.0813 20.5243 30.5089C20.455 30.0278 20.3952 29.499 20.6567 29.0892C20.9474 28.6336 21.5313 28.4827 22.0604 28.3722C29.1386 26.8934 36.3412 26.0111 43.5671 25.7378C45.1959 25.6762 46.1273 27.6409 46.1484 29.2708ZM23.9559 46.6636C23.9739 46.8216 24.001 46.9967 24.1256 47.0955C24.2468 47.1916 24.418 47.1818 24.5719 47.1671C31.6789 46.4923 38.7859 45.8175 45.8928 45.1426C46.089 45.124 46.3124 45.0897 46.4195 44.9243C46.5035 44.7945 46.4862 44.6264 46.4658 44.4732C45.7395 39.0201 45.0132 33.567 44.2869 28.114C44.267 27.9642 44.2426 27.8045 44.1412 27.6924C44.005 27.5418 43.778 27.5262 43.575 27.5217C36.5527 27.3681 29.5118 28.0835 22.6639 29.6465C22.4775 29.6891 22.2734 29.744 22.1669 29.9028C22.067 30.0516 22.0835 30.2467 22.1038 30.4247C22.7211 35.8377 23.3385 41.2506 23.9559 46.6636ZM90.0786 24.8633C90.0481 24.6105 89.9953 24.3219 89.7757 24.193C89.6357 24.1109 89.4627 24.1176 89.3006 24.1267C82.9733 24.484 76.6459 24.8412 70.3185 25.1984C70.1791 25.2063 70.0286 25.2185 69.9232 25.31C69.7694 25.4436 69.7782 25.6807 69.7997 25.8833C70.3788 31.3463 70.958 36.8093 71.5371 42.2723C71.5553 42.4443 71.5802 42.6307 71.7026 42.7528C71.8601 42.9099 72.1132 42.9003 72.3347 42.88C78.8998 42.2781 85.465 41.6762 92.0302 41.0743C91.3796 35.6707 90.7291 30.267 90.0786 24.8633ZM56.0902 34.0678C56.1824 34.1516 56.2833 34.2396 56.4071 34.2541C56.5821 34.2747 56.7348 34.1444 56.8626 34.023C61.1398 29.958 66.1269 26.6028 70.4041 22.5377C70.5968 22.3547 70.8042 22.1374 70.7952 21.8718C70.7893 21.6938 70.6851 21.5361 70.5842 21.3893C68.8794 18.9086 66.3574 15.7918 64.4446 13.4677C64.2567 13.2394 64.0142 12.9892 63.7209 13.0265C63.5338 13.0502 63.3843 13.1879 63.2485 13.3187C58.5239 17.8704 53.7993 22.422 49.0747 26.9737C48.9695 27.075 48.8566 27.1939 48.8586 27.34C48.8606 27.4864 48.9772 27.6023 49.0855 27.7008C51.4204 29.8231 53.7553 31.9455 56.0902 34.0678ZM69.7619 36.3025C69.7253 36.0682 69.6735 35.8082 69.4798 35.6713C69.308 35.5498 69.0781 35.5647 68.8686 35.5846C62.3283 36.2073 55.788 36.8301 49.2477 37.4528C48.9058 37.4853 48.5051 37.5568 48.3563 37.8663C48.2744 38.0367 48.2948 38.2363 48.317 38.424C48.5377 40.2916 48.7584 42.1593 48.9791 44.0269C49.0102 44.2902 49.0604 44.5864 49.2795 44.7356C49.4548 44.855 49.6852 44.8413 49.8965 44.823C56.6607 44.2363 63.4249 43.6497 70.189 43.063C70.3575 43.0484 70.5454 43.0239 70.6513 42.8921C70.7604 42.7563 70.7392 42.5612 70.7123 42.389C70.3955 40.3602 70.0787 38.3313 69.7619 36.3025ZM68.4029 26.549C68.3874 26.4356 68.3346 26.2899 68.2206 26.2988C68.1723 26.3026 68.1323 26.336 68.0958 26.3679C64.7314 29.3073 61.367 32.2467 58.0026 35.1861C61.5008 34.8928 64.9957 34.5593 68.4863 34.1857C68.7863 34.1536 69.1326 34.0915 69.2761 33.8262C69.3698 33.653 69.3457 33.4425 69.319 33.2474C69.0136 31.0146 68.7083 28.7818 68.4029 26.549ZM149.595 58.0224C149.917 59.882 150.24 61.7417 150.562 63.6013C150.594 63.7858 150.66 64.0079 150.843 64.0481C151.14 64.1135 151.243 63.6665 151.202 63.3649C150.984 61.7557 150.766 60.1466 150.548 58.5374C150.509 58.2494 150.452 57.9298 150.219 57.7559C149.986 57.5819 149.545 57.736 149.595 58.0224Z" fill="#1A1A1A"/>
<path fill-rule="evenodd" clip-rule="evenodd" d="M-10.3975 94.8897C-16.6129 94.9879 -37.987 96.5717 -38.3562 95.7786C-38.8286 94.7639 -15.5203 93.43 -10.4397 93.3496L-8.84825 93.3281C-4.22871 93.2781 -10.3975 94.8897 -10.3975 94.8897ZM37.0753 92.9478C38.5846 92.9478 39.7662 93.4363 38.75 93.7932C37.7339 94.1501 34.4458 94.9011 28.9399 95.0277C23.4339 95.1543 17.0519 95.2853 7.62141 95.471C7.07458 95.4817 6.62255 95.0471 6.61179 94.5003C6.60103 93.9535 7.0356 93.5015 7.58243 93.4907L24.2814 93.1503C29.3512 93.0407 32.5245 92.9478 37.0753 92.9478ZM112.506 92.3677C113.053 92.3591 113.503 92.7954 113.512 93.3423C113.52 93.8891 113.084 94.3395 112.537 94.3481L110.217 94.3766L103.117 94.4256C101.688 94.4402 43.8781 94.8095 43.0943 93.9619C42.3105 93.1143 43.5133 92.961 44.0601 92.9476C44.0601 92.9476 103.098 92.4431 104.641 92.4318L110.546 92.3927C111.232 92.386 111.854 92.378 112.506 92.3677ZM176.687 90.4625C176.687 90.4625 178.465 90.1556 191.446 91.1275C191.992 91.1683 192.401 91.6436 192.36 92.189C192.319 92.7344 185.9 92.4589 177.124 92.4435L174.711 92.4474C168.267 92.476 162.281 92.6503 152.346 93.0593L139.806 93.589C134.455 93.8081 131.263 93.9149 127.381 94.0065C126.834 94.0194 126.38 93.5866 126.367 93.0398C126.354 92.493 126.787 92.0393 127.334 92.0264L130.451 91.945C134.16 91.8378 137.971 91.6885 144.727 91.4L151.891 91.0958C163.093 90.6326 169.323 90.4625 176.687 90.4625Z" fill="#1A1A1A"/>
<path d="M85.188 54.8835C85.2305 54.5703 85.3571 53.5125 86.8304 52.9349C88.3036 52.3574 89.8521 52.5869 90.4246 53.146C89.8062 53.5076 89.4378 53.8861 89.2668 54.3767C89.1426 54.7329 89.1375 54.9619 89.047 55.5684C88.9566 56.1749 88.5208 56.7175 87.9265 57.0468C87.6143 57.2197 86.9682 57.362 86.6314 57.328M85.188 54.8835C85.1456 55.1967 85.2194 55.6326 85.091 55.8145M85.188 54.8835L85.091 55.8145M85.7639 57.1535C85.5018 57.1051 84.8414 57.5956 84.5939 57.7623C85.0011 59.5514 85.3324 61.0715 85.7123 62.4165C86.1511 63.9695 80.6604 65.2946 80.4082 63.9149C78.3227 56.5324 77.5895 55.6745 77.1862 54.5943C77.5544 54.8756 79.0138 54.7442 80.4564 54.3599C81.7935 54.0037 83.1162 53.4302 83.5427 52.7664C83.7388 53.8083 83.8927 54.7007 84.3049 56.3916C84.4127 56.4257 84.8858 56.1307 85.091 55.8145M85.7639 57.1535C85.9112 57.1808 86.4666 57.3241 86.6314 57.328M85.7639 57.1535L86.6314 57.328" stroke="#1A1A1A" stroke-width="0.285514"/>
<g filter="url(#filter0_i_2779_5992)">
<path d="M83.4133 52.8348L83.4134 52.836C83.4135 52.8369 83.4134 52.8389 83.4128 52.8421C83.4116 52.8489 83.408 52.8606 83.3985 52.8777C83.379 52.913 83.3409 52.9597 83.2777 53.0162C83.1518 53.1288 82.9509 53.259 82.6841 53.3976C82.1527 53.6736 81.3875 53.9688 80.5152 54.2152C79.6428 54.4616 78.8363 54.6105 78.239 54.6533C77.9392 54.6748 77.6998 54.669 77.5336 54.6389C77.4502 54.6238 77.3933 54.604 77.3581 54.5841C77.3411 54.5745 77.3319 54.5663 77.3273 54.5612C77.3251 54.5588 77.3241 54.5571 77.3236 54.5563L77.3231 54.5553L77.323 54.5541C77.323 54.5532 77.323 54.5512 77.3236 54.548C77.3248 54.5412 77.3284 54.5295 77.3379 54.5124C77.3574 54.477 77.3955 54.4304 77.4587 54.3739C77.5846 54.2613 77.7856 54.131 78.0523 53.9925C78.5837 53.7165 79.3489 53.4213 80.2213 53.1749C81.0937 52.9284 81.9002 52.7796 82.4974 52.7368C82.7972 52.7153 83.0367 52.7211 83.2029 52.7512C83.2863 52.7663 83.3431 52.7861 83.3783 52.806C83.3953 52.8156 83.4045 52.8237 83.4091 52.8288C83.4113 52.8313 83.4124 52.833 83.4128 52.8338L83.4133 52.8348Z" stroke="#1A1A1A" stroke-width="0.285514"/>
</g>
<path d="M87.7688 54.2837C87.4155 54.6682 87.376 55.2101 86.9901 55.6978M87.7688 54.2837L86.9901 55.6978M87.7688 54.2837C87.9691 54.0658 88.2898 53.8065 89.0049 53.5615C89.3914 53.4291 89.9133 53.2634 90.3645 53.182L90.4256 53.1459C90.4256 53.1459 90.3785 53.0947 90.2966 53.0365C90.0138 52.9981 89.6748 52.9739 89.3413 53.0147C88.8931 53.0502 88.1998 53.1677 87.8136 53.3997C87.0022 53.8871 87.0006 54.2288 86.6749 54.9297C86.4582 55.3962 85.8606 56.1948 84.9893 56.7249C85.2376 56.677 85.4868 56.6304 85.9347 56.4801C86.3532 56.3396 86.6283 56.155 86.9901 55.6978" stroke="#1A1A1A" stroke-width="0.285514"/>
<path d="M78.6912 55.4334L79.1784 55.3564L81.6952 63.4475C81.5396 63.4498 81.3839 63.444 81.2289 63.4302L78.6912 55.4334Z" stroke="#1A1A1A" stroke-width="0.285514"/>
<path d="M80.6244 55.0224L81.0771 54.8945L83.3774 63.0375C83.2996 63.0645 83.2224 63.0921 83.1459 63.1194C83.0745 63.1449 83.0038 63.1702 82.9331 63.1948L80.6244 55.0224Z" stroke="#1A1A1A" stroke-width="0.285514"/>
<path d="M84.4847 62.6412L82.4925 54.4537L82.9268 54.2546L84.817 62.4535C84.7094 62.5214 84.5984 62.584 84.4847 62.6412Z" stroke="#1A1A1A" stroke-width="0.285514"/>
<defs>
<filter id="filter0_i_2779_5992" x="77.1807" y="52.5811" width="6.37598" height="2.33986" filterUnits="userSpaceOnUse" color-interpolation-filters="sRGB">
<feFlood flood-opacity="0" result="BackgroundImageFix"/>
<feBlend mode="normal" in="SourceGraphic" in2="BackgroundImageFix" result="shape"/>
<feColorMatrix in="SourceAlpha" type="matrix" values="0 0 0 0 0 0 0 0 0 0 0 0 0 0 0 0 0 0 127 0" result="hardAlpha"/>
<feMorphology radius="0.0559184" operator="dilate" in="SourceAlpha" result="effect1_innerShadow_2779_5992"/>
<feOffset dy="0.111837"/>
<feGaussianBlur stdDeviation="0.167755"/>
<feComposite in2="hardAlpha" operator="arithmetic" k2="-1" k3="1"/>
<feColorMatrix type="matrix" values="0 0 0 0 0.0823529 0 0 0 0 0.188235 0 0 0 0 0.160784 0 0 0 1 0"/>
<feBlend mode="normal" in2="shape" result="effect1_innerShadow_2779_5992"/>
</filter>
</defs>
</svg>
