<svg width="326" height="227" viewBox="0 0 326 227" fill="none" xmlns="http://www.w3.org/2000/svg">
<rect y="44.5" width="20" height="158" rx="10" fill="#3D8D7A"/>
<path d="M4.58327 219.012C4.58327 217.628 4.83127 216.544 5.32727 215.76C5.83127 214.976 6.66327 214.584 7.82327 214.584C8.98327 214.584 9.81127 214.976 10.3073 215.76C10.8113 216.544 11.0633 217.628 11.0633 219.012C11.0633 220.404 10.8113 221.496 10.3073 222.288C9.81127 223.08 8.98327 223.476 7.82327 223.476C6.66327 223.476 5.83127 223.08 5.32727 222.288C4.83127 221.496 4.58327 220.404 4.58327 219.012ZM9.40727 219.012C9.40727 218.42 9.36727 217.924 9.28727 217.524C9.21527 217.116 9.06327 216.784 8.83127 216.528C8.60727 216.272 8.27127 216.144 7.82327 216.144C7.37527 216.144 7.03527 216.272 6.80327 216.528C6.57927 216.784 6.42727 217.116 6.34727 217.524C6.27527 217.924 6.23927 218.42 6.23927 219.012C6.23927 219.62 6.27527 220.132 6.34727 220.548C6.41927 220.956 6.57127 221.288 6.80327 221.544C7.03527 221.792 7.37527 221.916 7.82327 221.916C8.27127 221.916 8.61127 221.792 8.84327 221.544C9.07527 221.288 9.22727 220.956 9.29927 220.548C9.37127 220.132 9.40727 219.62 9.40727 219.012ZM12.1371 216.3V214.752H15.0291V223.5H13.3011V216.3H12.1371Z" fill="#1A1A1A"/>
<rect x="51" y="118.5" width="20" height="84" rx="10" fill="#3D8D7A"/>
<path d="M54.3118 219.012C54.3118 217.628 54.5598 216.544 55.0558 215.76C55.5598 214.976 56.3918 214.584 57.5518 214.584C58.7118 214.584 59.5398 214.976 60.0358 215.76C60.5398 216.544 60.7918 217.628 60.7918 219.012C60.7918 220.404 60.5398 221.496 60.0358 222.288C59.5398 223.08 58.7118 223.476 57.5518 223.476C56.3918 223.476 55.5598 223.08 55.0558 222.288C54.5598 221.496 54.3118 220.404 54.3118 219.012ZM59.1358 219.012C59.1358 218.42 59.0958 217.924 59.0158 217.524C58.9438 217.116 58.7918 216.784 58.5598 216.528C58.3358 216.272 57.9998 216.144 57.5518 216.144C57.1038 216.144 56.7638 216.272 56.5318 216.528C56.3078 216.784 56.1558 217.116 56.0758 217.524C56.0038 217.924 55.9678 218.42 55.9678 219.012C55.9678 219.62 56.0038 220.132 56.0758 220.548C56.1478 220.956 56.2998 221.288 56.5318 221.544C56.7638 221.792 57.1038 221.916 57.5518 221.916C57.9998 221.916 58.3398 221.792 58.5718 221.544C58.8038 221.288 58.9558 220.956 59.0278 220.548C59.0998 220.132 59.1358 219.62 59.1358 219.012ZM62.5976 221.604C63.3656 220.964 63.9776 220.432 64.4336 220.008C64.8896 219.576 65.2696 219.128 65.5736 218.664C65.8776 218.2 66.0296 217.744 66.0296 217.296C66.0296 216.888 65.9336 216.568 65.7416 216.336C65.5496 216.104 65.2536 215.988 64.8536 215.988C64.4536 215.988 64.1456 216.124 63.9296 216.396C63.7136 216.66 63.6016 217.024 63.5936 217.488H61.9616C61.9936 216.528 62.2776 215.8 62.8136 215.304C63.3576 214.808 64.0456 214.56 64.8776 214.56C65.7896 214.56 66.4896 214.804 66.9776 215.292C67.4656 215.772 67.7096 216.408 67.7096 217.2C67.7096 217.824 67.5416 218.42 67.2056 218.988C66.8696 219.556 66.4856 220.052 66.0536 220.476C65.6216 220.892 65.0576 221.396 64.3616 221.988H67.9016V223.38H61.9736V222.132L62.5976 221.604Z" fill="#1A1A1A"/>
<rect x="102" y="44.5" width="20" height="158" rx="10" fill="#3D8D7A"/>
<path d="M105.165 219.012C105.165 217.628 105.413 216.544 105.909 215.76C106.413 214.976 107.245 214.584 108.405 214.584C109.565 214.584 110.393 214.976 110.889 215.76C111.393 216.544 111.645 217.628 111.645 219.012C111.645 220.404 111.393 221.496 110.889 222.288C110.393 223.08 109.565 223.476 108.405 223.476C107.245 223.476 106.413 223.08 105.909 222.288C105.413 221.496 105.165 220.404 105.165 219.012ZM109.989 219.012C109.989 218.42 109.949 217.924 109.869 217.524C109.797 217.116 109.645 216.784 109.413 216.528C109.189 216.272 108.853 216.144 108.405 216.144C107.957 216.144 107.617 216.272 107.385 216.528C107.161 216.784 107.009 217.116 106.929 217.524C106.857 217.924 106.821 218.42 106.821 219.012C106.821 219.62 106.857 220.132 106.929 220.548C107.001 220.956 107.153 221.288 107.385 221.544C107.617 221.792 107.957 221.916 108.405 221.916C108.853 221.916 109.193 221.792 109.425 221.544C109.657 221.288 109.809 220.956 109.881 220.548C109.953 220.132 109.989 219.62 109.989 219.012ZM112.947 217.056C112.987 216.256 113.267 215.64 113.787 215.208C114.315 214.768 115.007 214.548 115.863 214.548C116.447 214.548 116.947 214.652 117.363 214.86C117.779 215.06 118.091 215.336 118.299 215.688C118.515 216.032 118.623 216.424 118.623 216.864C118.623 217.368 118.491 217.796 118.227 218.148C117.971 218.492 117.663 218.724 117.303 218.844V218.892C117.767 219.036 118.127 219.292 118.383 219.66C118.647 220.028 118.779 220.5 118.779 221.076C118.779 221.556 118.667 221.984 118.443 222.36C118.227 222.736 117.903 223.032 117.471 223.248C117.047 223.456 116.535 223.56 115.935 223.56C115.031 223.56 114.295 223.332 113.727 222.876C113.159 222.42 112.859 221.748 112.827 220.86H114.459C114.475 221.252 114.607 221.568 114.855 221.808C115.111 222.04 115.459 222.156 115.899 222.156C116.307 222.156 116.619 222.044 116.835 221.82C117.059 221.588 117.171 221.292 117.171 220.932C117.171 220.452 117.019 220.108 116.715 219.9C116.411 219.692 115.939 219.588 115.299 219.588H114.951V218.208H115.299C116.435 218.208 117.003 217.828 117.003 217.068C117.003 216.724 116.899 216.456 116.691 216.264C116.491 216.072 116.199 215.976 115.815 215.976C115.439 215.976 115.147 216.08 114.939 216.288C114.739 216.488 114.623 216.744 114.591 217.056H112.947Z" fill="#1A1A1A"/>
<rect x="153" y="0.5" width="20" height="202" rx="10" fill="#3D8D7A"/>
<path d="M155.79 219.012C155.79 217.628 156.038 216.544 156.534 215.76C157.038 214.976 157.87 214.584 159.03 214.584C160.19 214.584 161.018 214.976 161.514 215.76C162.018 216.544 162.27 217.628 162.27 219.012C162.27 220.404 162.018 221.496 161.514 222.288C161.018 223.08 160.19 223.476 159.03 223.476C157.87 223.476 157.038 223.08 156.534 222.288C156.038 221.496 155.79 220.404 155.79 219.012ZM160.614 219.012C160.614 218.42 160.574 217.924 160.494 217.524C160.422 217.116 160.27 216.784 160.038 216.528C159.814 216.272 159.478 216.144 159.03 216.144C158.582 216.144 158.242 216.272 158.01 216.528C157.786 216.784 157.634 217.116 157.554 217.524C157.482 217.924 157.446 218.42 157.446 219.012C157.446 219.62 157.482 220.132 157.554 220.548C157.626 220.956 157.778 221.288 158.01 221.544C158.242 221.792 158.582 221.916 159.03 221.916C159.478 221.916 159.818 221.792 160.05 221.544C160.282 221.288 160.434 220.956 160.506 220.548C160.578 220.132 160.614 219.62 160.614 219.012ZM163.476 221.796V220.476L167.4 214.86H169.356V220.332H170.412V221.796H169.356V223.5H167.676V221.796H163.476ZM167.784 216.66L165.324 220.332H167.784V216.66Z" fill="#1A1A1A"/>
<rect x="204" y="79.5" width="20" height="123" rx="10" fill="#3D8D7A"/>
<path d="M206.896 219.012C206.896 217.628 207.144 216.544 207.64 215.76C208.144 214.976 208.976 214.584 210.136 214.584C211.296 214.584 212.124 214.976 212.62 215.76C213.124 216.544 213.376 217.628 213.376 219.012C213.376 220.404 213.124 221.496 212.62 222.288C212.124 223.08 211.296 223.476 210.136 223.476C208.976 223.476 208.144 223.08 207.64 222.288C207.144 221.496 206.896 220.404 206.896 219.012ZM211.72 219.012C211.72 218.42 211.68 217.924 211.6 217.524C211.528 217.116 211.376 216.784 211.144 216.528C210.92 216.272 210.584 216.144 210.136 216.144C209.688 216.144 209.348 216.272 209.116 216.528C208.892 216.784 208.74 217.116 208.66 217.524C208.588 217.924 208.552 218.42 208.552 219.012C208.552 219.62 208.588 220.132 208.66 220.548C208.732 220.956 208.884 221.288 209.116 221.544C209.348 221.792 209.688 221.916 210.136 221.916C210.584 221.916 210.924 221.792 211.156 221.544C211.388 221.288 211.54 220.956 211.612 220.548C211.684 220.132 211.72 219.62 211.72 219.012ZM220.534 216.204H216.646V218.256C216.814 218.048 217.054 217.88 217.366 217.752C217.678 217.616 218.01 217.548 218.362 217.548C219.002 217.548 219.526 217.688 219.934 217.968C220.342 218.248 220.638 218.608 220.822 219.048C221.006 219.48 221.098 219.944 221.098 220.44C221.098 221.36 220.834 222.1 220.306 222.66C219.786 223.22 219.042 223.5 218.074 223.5C217.162 223.5 216.434 223.272 215.89 222.816C215.346 222.36 215.038 221.764 214.966 221.028H216.598C216.67 221.348 216.83 221.604 217.078 221.796C217.334 221.988 217.658 222.084 218.05 222.084C218.522 222.084 218.878 221.936 219.118 221.64C219.358 221.344 219.478 220.952 219.478 220.464C219.478 219.968 219.354 219.592 219.106 219.336C218.866 219.072 218.51 218.94 218.038 218.94C217.702 218.94 217.422 219.024 217.198 219.192C216.974 219.36 216.814 219.584 216.718 219.864H215.11V214.728H220.534V216.204Z" fill="#1A1A1A"/>
<rect x="255" y="44.5" width="20" height="158" rx="10" fill="#3D8D7A"/>
<path d="M257.919 219.012C257.919 217.628 258.167 216.544 258.663 215.76C259.167 214.976 259.999 214.584 261.159 214.584C262.319 214.584 263.147 214.976 263.643 215.76C264.147 216.544 264.399 217.628 264.399 219.012C264.399 220.404 264.147 221.496 263.643 222.288C263.147 223.08 262.319 223.476 261.159 223.476C259.999 223.476 259.167 223.08 258.663 222.288C258.167 221.496 257.919 220.404 257.919 219.012ZM262.743 219.012C262.743 218.42 262.703 217.924 262.623 217.524C262.551 217.116 262.399 216.784 262.167 216.528C261.943 216.272 261.607 216.144 261.159 216.144C260.711 216.144 260.371 216.272 260.139 216.528C259.915 216.784 259.763 217.116 259.683 217.524C259.611 217.924 259.575 218.42 259.575 219.012C259.575 219.62 259.611 220.132 259.683 220.548C259.755 220.956 259.907 221.288 260.139 221.544C260.371 221.792 260.711 221.916 261.159 221.916C261.607 221.916 261.947 221.792 262.179 221.544C262.411 221.288 262.563 220.956 262.635 220.548C262.707 220.132 262.743 219.62 262.743 219.012ZM270.213 216.936C270.133 216.6 269.993 216.348 269.793 216.18C269.601 216.012 269.321 215.928 268.953 215.928C268.401 215.928 267.993 216.152 267.729 216.6C267.473 217.04 267.341 217.76 267.333 218.76C267.525 218.44 267.805 218.192 268.173 218.016C268.541 217.832 268.941 217.74 269.373 217.74C269.893 217.74 270.353 217.852 270.753 218.076C271.153 218.3 271.465 218.628 271.689 219.06C271.913 219.484 272.025 219.996 272.025 220.596C272.025 221.164 271.909 221.672 271.677 222.12C271.453 222.56 271.121 222.904 270.681 223.152C270.241 223.4 269.717 223.524 269.109 223.524C268.277 223.524 267.621 223.34 267.141 222.972C266.669 222.604 266.337 222.092 266.145 221.436C265.961 220.772 265.869 219.956 265.869 218.988C265.869 217.524 266.121 216.42 266.625 215.676C267.129 214.924 267.925 214.548 269.013 214.548C269.853 214.548 270.505 214.776 270.969 215.232C271.433 215.688 271.701 216.256 271.773 216.936H270.213ZM268.989 219.12C268.565 219.12 268.209 219.244 267.921 219.492C267.633 219.74 267.489 220.1 267.489 220.572C267.489 221.044 267.621 221.416 267.885 221.688C268.157 221.96 268.537 222.096 269.025 222.096C269.457 222.096 269.797 221.964 270.045 221.7C270.301 221.436 270.429 221.08 270.429 220.632C270.429 220.168 270.305 219.8 270.057 219.528C269.817 219.256 269.461 219.12 268.989 219.12Z" fill="#1A1A1A"/>
<rect x="306" y="22.5" width="20" height="180" rx="10" fill="#3D8D7A"/>
<path d="M309.47 219.012C309.47 217.628 309.718 216.544 310.214 215.76C310.718 214.976 311.55 214.584 312.71 214.584C313.87 214.584 314.698 214.976 315.194 215.76C315.698 216.544 315.95 217.628 315.95 219.012C315.95 220.404 315.698 221.496 315.194 222.288C314.698 223.08 313.87 223.476 312.71 223.476C311.55 223.476 310.718 223.08 310.214 222.288C309.718 221.496 309.47 220.404 309.47 219.012ZM314.294 219.012C314.294 218.42 314.254 217.924 314.174 217.524C314.102 217.116 313.95 216.784 313.718 216.528C313.494 216.272 313.158 216.144 312.71 216.144C312.262 216.144 311.922 216.272 311.69 216.528C311.466 216.784 311.314 217.116 311.234 217.524C311.162 217.924 311.126 218.42 311.126 219.012C311.126 219.62 311.162 220.132 311.234 220.548C311.306 220.956 311.458 221.288 311.69 221.544C311.922 221.792 312.262 221.916 312.71 221.916C313.158 221.916 313.498 221.792 313.73 221.544C313.962 221.288 314.114 220.956 314.186 220.548C314.258 220.132 314.294 219.62 314.294 219.012ZM322.796 216.024L319.604 223.5H317.9L321.116 216.216H317.012V214.776H322.796V216.024Z" fill="#1A1A1A"/>
</svg>
