<svg width="309" height="227" viewBox="0 0 309 227" fill="none" xmlns="http://www.w3.org/2000/svg">
<rect x="2" y="44" width="20" height="158" rx="10" fill="#3D8D7A"/>
<path d="M6.25692 214.624V220.504C6.25692 221.32 6.02092 221.956 5.54892 222.412C5.07692 222.86 4.44492 223.084 3.65292 223.084C2.85292 223.084 2.20492 222.852 1.70892 222.388C1.22092 221.924 0.976922 221.276 0.976922 220.444H2.65692C2.66492 220.804 2.74892 221.084 2.90892 221.284C3.07692 221.484 3.31692 221.584 3.62892 221.584C3.93292 221.584 4.16492 221.488 4.32492 221.296C4.48492 221.104 4.56492 220.84 4.56492 220.504V214.624H6.25692ZM7.78467 219.652C7.78467 218.98 7.91667 218.384 8.18067 217.864C8.45267 217.344 8.81667 216.944 9.27267 216.664C9.73667 216.384 10.2527 216.244 10.8207 216.244C11.3167 216.244 11.7487 216.344 12.1167 216.544C12.4927 216.744 12.7927 216.996 13.0167 217.3V216.352H14.7087V223H13.0167V222.028C12.8007 222.34 12.5007 222.6 12.1167 222.808C11.7407 223.008 11.3047 223.108 10.8087 223.108C10.2487 223.108 9.73667 222.964 9.27267 222.676C8.81667 222.388 8.45267 221.984 8.18067 221.464C7.91667 220.936 7.78467 220.332 7.78467 219.652ZM13.0167 219.676C13.0167 219.268 12.9367 218.92 12.7767 218.632C12.6167 218.336 12.4007 218.112 12.1287 217.96C11.8567 217.8 11.5647 217.72 11.2527 217.72C10.9407 217.72 10.6527 217.796 10.3887 217.948C10.1247 218.1 9.90867 218.324 9.74067 218.62C9.58067 218.908 9.50067 219.252 9.50067 219.652C9.50067 220.052 9.58067 220.404 9.74067 220.708C9.90867 221.004 10.1247 221.232 10.3887 221.392C10.6607 221.552 10.9487 221.632 11.2527 221.632C11.5647 221.632 11.8567 221.556 12.1287 221.404C12.4007 221.244 12.6167 221.02 12.7767 220.732C12.9367 220.436 13.0167 220.084 13.0167 219.676ZM20.0335 216.256C20.8255 216.256 21.4655 216.508 21.9535 217.012C22.4415 217.508 22.6855 218.204 22.6855 219.1V223H21.0055V219.328C21.0055 218.8 20.8735 218.396 20.6095 218.116C20.3455 217.828 19.9855 217.684 19.5295 217.684C19.0655 217.684 18.6975 217.828 18.4255 218.116C18.1615 218.396 18.0295 218.8 18.0295 219.328V223H16.3495V216.352H18.0295V217.18C18.2535 216.892 18.5375 216.668 18.8815 216.508C19.2335 216.34 19.6175 216.256 20.0335 216.256Z" fill="#1A1A1A"/>
<rect x="28" y="118" width="20" height="84" rx="10" fill="#3D8D7A"/>
<path d="M33.0488 214.624V215.98H29.5568V218.128H32.2328V219.46H29.5568V223H27.8768V214.624H33.0488ZM40.4201 219.532C40.4201 219.772 40.4041 219.988 40.3721 220.18H35.5121C35.5521 220.66 35.7201 221.036 36.0161 221.308C36.3121 221.58 36.6761 221.716 37.1081 221.716C37.7321 221.716 38.1761 221.448 38.4401 220.912H40.2521C40.0601 221.552 39.6921 222.08 39.1481 222.496C38.6041 222.904 37.9361 223.108 37.1441 223.108C36.5041 223.108 35.9281 222.968 35.4161 222.688C34.9121 222.4 34.5161 221.996 34.2281 221.476C33.9481 220.956 33.8081 220.356 33.8081 219.676C33.8081 218.988 33.9481 218.384 34.2281 217.864C34.5081 217.344 34.9001 216.944 35.4041 216.664C35.9081 216.384 36.4881 216.244 37.1441 216.244C37.7761 216.244 38.3401 216.38 38.8361 216.652C39.3401 216.924 39.7281 217.312 40.0001 217.816C40.2801 218.312 40.4201 218.884 40.4201 219.532ZM38.6801 219.052C38.6721 218.62 38.5161 218.276 38.2121 218.02C37.9081 217.756 37.5361 217.624 37.0961 217.624C36.6801 217.624 36.3281 217.752 36.0401 218.008C35.7601 218.256 35.5881 218.604 35.5241 219.052H38.6801ZM43.3264 217.324C43.5424 217.004 43.8384 216.744 44.2144 216.544C44.5984 216.344 45.0344 216.244 45.5224 216.244C46.0904 216.244 46.6024 216.384 47.0584 216.664C47.5224 216.944 47.8864 217.344 48.1504 217.864C48.4224 218.376 48.5584 218.972 48.5584 219.652C48.5584 220.332 48.4224 220.936 48.1504 221.464C47.8864 221.984 47.5224 222.388 47.0584 222.676C46.6024 222.964 46.0904 223.108 45.5224 223.108C45.0264 223.108 44.5904 223.012 44.2144 222.82C43.8464 222.62 43.5504 222.364 43.3264 222.052V223H41.6464V214.12H43.3264V217.324ZM46.8424 219.652C46.8424 219.252 46.7584 218.908 46.5904 218.62C46.4304 218.324 46.2144 218.1 45.9424 217.948C45.6784 217.796 45.3904 217.72 45.0784 217.72C44.7744 217.72 44.4864 217.8 44.2144 217.96C43.9504 218.112 43.7344 218.336 43.5664 218.632C43.4064 218.928 43.3264 219.276 43.3264 219.676C43.3264 220.076 43.4064 220.424 43.5664 220.72C43.7344 221.016 43.9504 221.244 44.2144 221.404C44.4864 221.556 44.7744 221.632 45.0784 221.632C45.3904 221.632 45.6784 221.552 45.9424 221.392C46.2144 221.232 46.4304 221.004 46.5904 220.708C46.7584 220.412 46.8424 220.06 46.8424 219.652Z" fill="#1A1A1A"/>
<rect x="54" y="44" width="20" height="158" rx="10" fill="#3D8D7A"/>
<path d="M62.0713 214.624V223H60.3913V217.552L58.1473 223H56.8753L54.6193 217.552V223H52.9393V214.624H54.8473L57.5113 220.852L60.1753 214.624H62.0713ZM63.3003 219.652C63.3003 218.98 63.4323 218.384 63.6963 217.864C63.9683 217.344 64.3323 216.944 64.7883 216.664C65.2523 216.384 65.7683 216.244 66.3363 216.244C66.8323 216.244 67.2643 216.344 67.6323 216.544C68.0083 216.744 68.3083 216.996 68.5323 217.3V216.352H70.2243V223H68.5323V222.028C68.3163 222.34 68.0163 222.6 67.6323 222.808C67.2563 223.008 66.8203 223.108 66.3243 223.108C65.7643 223.108 65.2523 222.964 64.7883 222.676C64.3323 222.388 63.9683 221.984 63.6963 221.464C63.4323 220.936 63.3003 220.332 63.3003 219.652ZM68.5323 219.676C68.5323 219.268 68.4523 218.92 68.2923 218.632C68.1323 218.336 67.9163 218.112 67.6443 217.96C67.3723 217.8 67.0803 217.72 66.7683 217.72C66.4563 217.72 66.1683 217.796 65.9043 217.948C65.6403 218.1 65.4243 218.324 65.2563 218.62C65.0963 218.908 65.0163 219.252 65.0163 219.652C65.0163 220.052 65.0963 220.404 65.2563 220.708C65.4243 221.004 65.6403 221.232 65.9043 221.392C66.1763 221.552 66.4643 221.632 66.7683 221.632C67.0803 221.632 67.3723 221.556 67.6443 221.404C67.9163 221.244 68.1323 221.02 68.2923 220.732C68.4523 220.436 68.5323 220.084 68.5323 219.676ZM73.5451 217.384C73.7611 217.032 74.0411 216.756 74.3851 216.556C74.7371 216.356 75.1371 216.256 75.5851 216.256V218.02H75.1411C74.6131 218.02 74.2131 218.144 73.9411 218.392C73.6771 218.64 73.5451 219.072 73.5451 219.688V223H71.8651V216.352H73.5451V217.384Z" fill="#1A1A1A"/>
<rect x="80" width="20" height="202" rx="10" fill="#3D8D7A"/>
<path d="M85.1769 221.404H81.8409L81.2889 223H79.5249L82.5369 214.612H84.4929L87.5049 223H85.7289L85.1769 221.404ZM84.7209 220.06L83.5089 216.556L82.2969 220.06H84.7209ZM90.3107 217.312C90.5267 217.008 90.8227 216.756 91.1987 216.556C91.5827 216.348 92.0187 216.244 92.5067 216.244C93.0747 216.244 93.5867 216.384 94.0427 216.664C94.5067 216.944 94.8707 217.344 95.1347 217.864C95.4067 218.376 95.5427 218.972 95.5427 219.652C95.5427 220.332 95.4067 220.936 95.1347 221.464C94.8707 221.984 94.5067 222.388 94.0427 222.676C93.5867 222.964 93.0747 223.108 92.5067 223.108C92.0187 223.108 91.5867 223.008 91.2107 222.808C90.8427 222.608 90.5427 222.356 90.3107 222.052V226.168H88.6307V216.352H90.3107V217.312ZM93.8267 219.652C93.8267 219.252 93.7427 218.908 93.5747 218.62C93.4147 218.324 93.1987 218.1 92.9267 217.948C92.6627 217.796 92.3747 217.72 92.0627 217.72C91.7587 217.72 91.4707 217.8 91.1987 217.96C90.9347 218.112 90.7187 218.336 90.5507 218.632C90.3907 218.928 90.3107 219.276 90.3107 219.676C90.3107 220.076 90.3907 220.424 90.5507 220.72C90.7187 221.016 90.9347 221.244 91.1987 221.404C91.4707 221.556 91.7587 221.632 92.0627 221.632C92.3747 221.632 92.6627 221.552 92.9267 221.392C93.1987 221.232 93.4147 221.004 93.5747 220.708C93.7427 220.412 93.8267 220.06 93.8267 219.652ZM98.4435 217.384C98.6595 217.032 98.9395 216.756 99.2835 216.556C99.6355 216.356 100.036 216.256 100.484 216.256V218.02H100.04C99.5115 218.02 99.1115 218.144 98.8395 218.392C98.5755 218.64 98.4435 219.072 98.4435 219.688V223H96.7635V216.352H98.4435V217.384Z" fill="#1A1A1A"/>
<rect x="106" y="79" width="20" height="123" rx="10" fill="#3D8D7A"/>
<path d="M115.19 214.624V223H113.51V217.552L111.266 223H109.994L107.738 217.552V223H106.058V214.624H107.966L110.63 220.852L113.294 214.624H115.19ZM123.031 219.532C123.031 219.772 123.015 219.988 122.983 220.18H118.123C118.163 220.66 118.331 221.036 118.627 221.308C118.923 221.58 119.287 221.716 119.719 221.716C120.343 221.716 120.787 221.448 121.051 220.912H122.863C122.671 221.552 122.303 222.08 121.759 222.496C121.215 222.904 120.547 223.108 119.755 223.108C119.115 223.108 118.539 222.968 118.027 222.688C117.523 222.4 117.127 221.996 116.839 221.476C116.559 220.956 116.419 220.356 116.419 219.676C116.419 218.988 116.559 218.384 116.839 217.864C117.119 217.344 117.511 216.944 118.015 216.664C118.519 216.384 119.099 216.244 119.755 216.244C120.387 216.244 120.951 216.38 121.447 216.652C121.951 216.924 122.339 217.312 122.611 217.816C122.891 218.312 123.031 218.884 123.031 219.532ZM121.291 219.052C121.283 218.62 121.127 218.276 120.823 218.02C120.519 217.756 120.147 217.624 119.707 217.624C119.291 217.624 118.939 217.752 118.651 218.008C118.371 218.256 118.199 218.604 118.135 219.052H121.291ZM125.11 215.56C124.814 215.56 124.566 215.468 124.366 215.284C124.174 215.092 124.078 214.856 124.078 214.576C124.078 214.296 124.174 214.064 124.366 213.88C124.566 213.688 124.814 213.592 125.11 213.592C125.406 213.592 125.65 213.688 125.842 213.88C126.042 214.064 126.142 214.296 126.142 214.576C126.142 214.856 126.042 215.092 125.842 215.284C125.65 215.468 125.406 215.56 125.11 215.56ZM125.938 216.352V223H124.258V216.352H125.938Z" fill="#1A1A1A"/>
<rect x="132" y="44" width="20" height="158" rx="10" fill="#3D8D7A"/>
<path d="M136.357 214.624V220.504C136.357 221.32 136.121 221.956 135.649 222.412C135.177 222.86 134.545 223.084 133.753 223.084C132.953 223.084 132.305 222.852 131.809 222.388C131.321 221.924 131.077 221.276 131.077 220.444H132.757C132.765 220.804 132.849 221.084 133.009 221.284C133.177 221.484 133.417 221.584 133.729 221.584C134.033 221.584 134.265 221.488 134.425 221.296C134.585 221.104 134.665 220.84 134.665 220.504V214.624H136.357ZM144.592 216.352V223H142.9V222.16C142.684 222.448 142.4 222.676 142.048 222.844C141.704 223.004 141.328 223.084 140.92 223.084C140.4 223.084 139.94 222.976 139.54 222.76C139.14 222.536 138.824 222.212 138.592 221.788C138.368 221.356 138.256 220.844 138.256 220.252V216.352H139.936V220.012C139.936 220.54 140.068 220.948 140.332 221.236C140.596 221.516 140.956 221.656 141.412 221.656C141.876 221.656 142.24 221.516 142.504 221.236C142.768 220.948 142.9 220.54 142.9 220.012V216.352H144.592ZM149.934 216.256C150.726 216.256 151.366 216.508 151.854 217.012C152.342 217.508 152.586 218.204 152.586 219.1V223H150.906V219.328C150.906 218.8 150.774 218.396 150.51 218.116C150.246 217.828 149.886 217.684 149.43 217.684C148.966 217.684 148.598 217.828 148.326 218.116C148.062 218.396 147.93 218.8 147.93 219.328V223H146.25V216.352H147.93V217.18C148.154 216.892 148.438 216.668 148.782 216.508C149.134 216.34 149.518 216.256 149.934 216.256Z" fill="#1A1A1A"/>
<rect x="158" y="22" width="20" height="180" rx="10" fill="#3D8D7A"/>
<path d="M164.653 214.624V220.504C164.653 221.32 164.417 221.956 163.945 222.412C163.473 222.86 162.841 223.084 162.049 223.084C161.249 223.084 160.601 222.852 160.105 222.388C159.617 221.924 159.373 221.276 159.373 220.444H161.053C161.061 220.804 161.145 221.084 161.305 221.284C161.473 221.484 161.713 221.584 162.025 221.584C162.329 221.584 162.561 221.488 162.721 221.296C162.881 221.104 162.961 220.84 162.961 220.504V214.624H164.653ZM172.889 216.352V223H171.197V222.16C170.981 222.448 170.697 222.676 170.345 222.844C170.001 223.004 169.625 223.084 169.217 223.084C168.697 223.084 168.237 222.976 167.837 222.76C167.437 222.536 167.121 222.212 166.889 221.788C166.665 221.356 166.553 220.844 166.553 220.252V216.352H168.233V220.012C168.233 220.54 168.365 220.948 168.629 221.236C168.893 221.516 169.253 221.656 169.709 221.656C170.173 221.656 170.537 221.516 170.801 221.236C171.065 220.948 171.197 220.54 171.197 220.012V216.352H172.889ZM176.227 214.12V223H174.547V214.12H176.227Z" fill="#1A1A1A"/>
<rect x="184" y="52" width="20" height="150" rx="10" fill="#3D8D7A"/>
<path d="M187.636 221.404H184.3L183.748 223H181.984L184.996 214.612H186.952L189.964 223H188.188L187.636 221.404ZM187.18 220.06L185.968 216.556L184.756 220.06H187.18ZM193.694 216.244C194.19 216.244 194.626 216.344 195.002 216.544C195.378 216.736 195.674 216.988 195.89 217.3V216.352H197.582V223.048C197.582 223.664 197.458 224.212 197.21 224.692C196.962 225.18 196.59 225.564 196.094 225.844C195.598 226.132 194.998 226.276 194.294 226.276C193.35 226.276 192.574 226.056 191.966 225.616C191.366 225.176 191.026 224.576 190.946 223.816H192.614C192.702 224.12 192.89 224.36 193.178 224.536C193.474 224.72 193.83 224.812 194.246 224.812C194.734 224.812 195.13 224.664 195.434 224.368C195.738 224.08 195.89 223.64 195.89 223.048V222.016C195.674 222.328 195.374 222.588 194.99 222.796C194.614 223.004 194.182 223.108 193.694 223.108C193.134 223.108 192.622 222.964 192.158 222.676C191.694 222.388 191.326 221.984 191.054 221.464C190.79 220.936 190.658 220.332 190.658 219.652C190.658 218.98 190.79 218.384 191.054 217.864C191.326 217.344 191.69 216.944 192.146 216.664C192.61 216.384 193.126 216.244 193.694 216.244ZM195.89 219.676C195.89 219.268 195.81 218.92 195.65 218.632C195.49 218.336 195.274 218.112 195.002 217.96C194.73 217.8 194.438 217.72 194.126 217.72C193.814 217.72 193.526 217.796 193.262 217.948C192.998 218.1 192.782 218.324 192.614 218.62C192.454 218.908 192.374 219.252 192.374 219.652C192.374 220.052 192.454 220.404 192.614 220.708C192.782 221.004 192.998 221.232 193.262 221.392C193.534 221.552 193.822 221.632 194.126 221.632C194.438 221.632 194.73 221.556 195.002 221.404C195.274 221.244 195.49 221.02 195.65 220.732C195.81 220.436 195.89 220.084 195.89 219.676ZM205.499 216.352V223H203.807V222.16C203.591 222.448 203.307 222.676 202.955 222.844C202.611 223.004 202.235 223.084 201.827 223.084C201.307 223.084 200.847 222.976 200.447 222.76C200.047 222.536 199.731 222.212 199.499 221.788C199.275 221.356 199.163 220.844 199.163 220.252V216.352H200.843V220.012C200.843 220.54 200.975 220.948 201.239 221.236C201.503 221.516 201.863 221.656 202.319 221.656C202.783 221.656 203.147 221.516 203.411 221.236C203.675 220.948 203.807 220.54 203.807 220.012V216.352H205.499Z" fill="#1A1A1A"/>
<rect x="210" y="87" width="20" height="115" rx="10" fill="#3D8D7A"/>
<path d="M212.294 223.084C211.71 223.084 211.182 222.984 210.71 222.784C210.246 222.584 209.878 222.296 209.606 221.92C209.334 221.544 209.194 221.1 209.186 220.588H210.986C211.01 220.932 211.13 221.204 211.346 221.404C211.57 221.604 211.874 221.704 212.258 221.704C212.65 221.704 212.958 221.612 213.182 221.428C213.406 221.236 213.518 220.988 213.518 220.684C213.518 220.436 213.442 220.232 213.29 220.072C213.138 219.912 212.946 219.788 212.714 219.7C212.49 219.604 212.178 219.5 211.778 219.388C211.234 219.228 210.79 219.072 210.446 218.92C210.11 218.76 209.818 218.524 209.57 218.212C209.33 217.892 209.21 217.468 209.21 216.94C209.21 216.444 209.334 216.012 209.582 215.644C209.83 215.276 210.178 214.996 210.626 214.804C211.074 214.604 211.586 214.504 212.162 214.504C213.026 214.504 213.726 214.716 214.262 215.14C214.806 215.556 215.106 216.14 215.162 216.892H213.314C213.298 216.604 213.174 216.368 212.942 216.184C212.718 215.992 212.418 215.896 212.042 215.896C211.714 215.896 211.45 215.98 211.25 216.148C211.058 216.316 210.962 216.56 210.962 216.88C210.962 217.104 211.034 217.292 211.178 217.444C211.33 217.588 211.514 217.708 211.73 217.804C211.954 217.892 212.266 217.996 212.666 218.116C213.21 218.276 213.654 218.436 213.998 218.596C214.342 218.756 214.638 218.996 214.886 219.316C215.134 219.636 215.258 220.056 215.258 220.576C215.258 221.024 215.142 221.44 214.91 221.824C214.678 222.208 214.338 222.516 213.89 222.748C213.442 222.972 212.91 223.084 212.294 223.084ZM222.895 219.532C222.895 219.772 222.879 219.988 222.847 220.18H217.987C218.027 220.66 218.195 221.036 218.491 221.308C218.787 221.58 219.151 221.716 219.583 221.716C220.207 221.716 220.651 221.448 220.915 220.912H222.727C222.535 221.552 222.167 222.08 221.623 222.496C221.079 222.904 220.411 223.108 219.619 223.108C218.979 223.108 218.403 222.968 217.891 222.688C217.387 222.4 216.991 221.996 216.703 221.476C216.423 220.956 216.283 220.356 216.283 219.676C216.283 218.988 216.423 218.384 216.703 217.864C216.983 217.344 217.375 216.944 217.879 216.664C218.383 216.384 218.963 216.244 219.619 216.244C220.251 216.244 220.815 216.38 221.311 216.652C221.815 216.924 222.203 217.312 222.475 217.816C222.755 218.312 222.895 218.884 222.895 219.532ZM221.155 219.052C221.147 218.62 220.991 218.276 220.687 218.02C220.383 217.756 220.011 217.624 219.571 217.624C219.155 217.624 218.803 217.752 218.515 218.008C218.235 218.256 218.063 218.604 217.999 219.052H221.155ZM225.801 217.312C226.017 217.008 226.313 216.756 226.689 216.556C227.073 216.348 227.509 216.244 227.997 216.244C228.565 216.244 229.077 216.384 229.533 216.664C229.997 216.944 230.361 217.344 230.625 217.864C230.897 218.376 231.033 218.972 231.033 219.652C231.033 220.332 230.897 220.936 230.625 221.464C230.361 221.984 229.997 222.388 229.533 222.676C229.077 222.964 228.565 223.108 227.997 223.108C227.509 223.108 227.077 223.008 226.701 222.808C226.333 222.608 226.033 222.356 225.801 222.052V226.168H224.121V216.352H225.801V217.312ZM229.317 219.652C229.317 219.252 229.233 218.908 229.065 218.62C228.905 218.324 228.689 218.1 228.417 217.948C228.153 217.796 227.865 217.72 227.553 217.72C227.249 217.72 226.961 217.8 226.689 217.96C226.425 218.112 226.209 218.336 226.041 218.632C225.881 218.928 225.801 219.276 225.801 219.676C225.801 220.076 225.881 220.424 226.041 220.72C226.209 221.016 226.425 221.244 226.689 221.404C226.961 221.556 227.249 221.632 227.553 221.632C227.865 221.632 228.153 221.552 228.417 221.392C228.689 221.232 228.905 221.004 229.065 220.708C229.233 220.412 229.317 220.06 229.317 219.652Z" fill="#1A1A1A"/>
<rect x="236" y="32" width="20" height="170" rx="10" fill="#3D8D7A"/>
<path d="M240.175 223.084C239.391 223.084 238.671 222.9 238.015 222.532C237.359 222.164 236.839 221.656 236.455 221.008C236.071 220.352 235.879 219.612 235.879 218.788C235.879 217.972 236.071 217.24 236.455 216.592C236.839 215.936 237.359 215.424 238.015 215.056C238.671 214.688 239.391 214.504 240.175 214.504C240.967 214.504 241.687 214.688 242.335 215.056C242.991 215.424 243.507 215.936 243.883 216.592C244.267 217.24 244.459 217.972 244.459 218.788C244.459 219.612 244.267 220.352 243.883 221.008C243.507 221.656 242.991 222.164 242.335 222.532C241.679 222.9 240.959 223.084 240.175 223.084ZM240.175 221.584C240.679 221.584 241.123 221.472 241.507 221.248C241.891 221.016 242.191 220.688 242.407 220.264C242.623 219.84 242.731 219.348 242.731 218.788C242.731 218.228 242.623 217.74 242.407 217.324C242.191 216.9 241.891 216.576 241.507 216.352C241.123 216.128 240.679 216.016 240.175 216.016C239.671 216.016 239.223 216.128 238.831 216.352C238.447 216.576 238.147 216.9 237.931 217.324C237.715 217.74 237.607 218.228 237.607 218.788C237.607 219.348 237.715 219.84 237.931 220.264C238.147 220.688 238.447 221.016 238.831 221.248C239.223 221.472 239.671 221.584 240.175 221.584ZM249.645 223L247.389 220.168V223H245.709V214.12H247.389V219.172L249.621 216.352H251.805L248.877 219.688L251.829 223H249.645ZM254.673 217.732V220.948C254.673 221.172 254.725 221.336 254.829 221.44C254.941 221.536 255.125 221.584 255.381 221.584H256.161V223H255.105C253.689 223 252.981 222.312 252.981 220.936V217.732H252.189V216.352H252.981V214.708H254.673V216.352H256.161V217.732H254.673Z" fill="#1A1A1A"/>
<rect x="262" y="42" width="20" height="160" rx="10" fill="#3D8D7A"/>
<path d="M268.162 223H266.482L262.678 217.252V223H260.998V214.612H262.678L266.482 220.372V214.612H268.162V223ZM272.774 223.108C272.134 223.108 271.558 222.968 271.046 222.688C270.534 222.4 270.13 221.996 269.834 221.476C269.546 220.956 269.402 220.356 269.402 219.676C269.402 218.996 269.55 218.396 269.846 217.876C270.15 217.356 270.562 216.956 271.082 216.676C271.602 216.388 272.182 216.244 272.822 216.244C273.462 216.244 274.042 216.388 274.562 216.676C275.082 216.956 275.49 217.356 275.786 217.876C276.09 218.396 276.242 218.996 276.242 219.676C276.242 220.356 276.086 220.956 275.774 221.476C275.47 221.996 275.054 222.4 274.526 222.688C274.006 222.968 273.422 223.108 272.774 223.108ZM272.774 221.644C273.078 221.644 273.362 221.572 273.626 221.428C273.898 221.276 274.114 221.052 274.274 220.756C274.434 220.46 274.514 220.1 274.514 219.676C274.514 219.044 274.346 218.56 274.01 218.224C273.682 217.88 273.278 217.708 272.798 217.708C272.318 217.708 271.914 217.88 271.586 218.224C271.266 218.56 271.106 219.044 271.106 219.676C271.106 220.308 271.262 220.796 271.574 221.14C271.894 221.476 272.294 221.644 272.774 221.644ZM280.246 221.452L281.926 216.352H283.714L281.254 223H279.214L276.766 216.352H278.566L280.246 221.452Z" fill="#1A1A1A"/>
<rect x="288" y="2" width="20" height="200" rx="10" fill="#3D8D7A"/>
<path d="M290.483 214.624C291.363 214.624 292.135 214.796 292.799 215.14C293.471 215.484 293.987 215.976 294.347 216.616C294.715 217.248 294.899 217.984 294.899 218.824C294.899 219.664 294.715 220.4 294.347 221.032C293.987 221.656 293.471 222.14 292.799 222.484C292.135 222.828 291.363 223 290.483 223H287.555V214.624H290.483ZM290.423 221.572C291.303 221.572 291.983 221.332 292.463 220.852C292.943 220.372 293.183 219.696 293.183 218.824C293.183 217.952 292.943 217.272 292.463 216.784C291.983 216.288 291.303 216.04 290.423 216.04H289.235V221.572H290.423ZM302.336 219.532C302.336 219.772 302.32 219.988 302.288 220.18H297.428C297.468 220.66 297.636 221.036 297.932 221.308C298.228 221.58 298.592 221.716 299.024 221.716C299.648 221.716 300.092 221.448 300.356 220.912H302.168C301.976 221.552 301.608 222.08 301.064 222.496C300.52 222.904 299.852 223.108 299.06 223.108C298.42 223.108 297.844 222.968 297.332 222.688C296.828 222.4 296.432 221.996 296.144 221.476C295.864 220.956 295.724 220.356 295.724 219.676C295.724 218.988 295.864 218.384 296.144 217.864C296.424 217.344 296.816 216.944 297.32 216.664C297.824 216.384 298.404 216.244 299.06 216.244C299.692 216.244 300.256 216.38 300.752 216.652C301.256 216.924 301.644 217.312 301.916 217.816C302.196 218.312 302.336 218.884 302.336 219.532ZM300.596 219.052C300.588 218.62 300.432 218.276 300.128 218.02C299.824 217.756 299.452 217.624 299.012 217.624C298.596 217.624 298.244 217.752 297.956 218.008C297.676 218.256 297.504 218.604 297.44 219.052H300.596ZM306.106 223.108C305.562 223.108 305.074 223.012 304.642 222.82C304.21 222.62 303.866 222.352 303.61 222.016C303.362 221.68 303.226 221.308 303.202 220.9H304.894C304.926 221.156 305.05 221.368 305.266 221.536C305.49 221.704 305.766 221.788 306.094 221.788C306.414 221.788 306.662 221.724 306.838 221.596C307.022 221.468 307.114 221.304 307.114 221.104C307.114 220.888 307.002 220.728 306.778 220.624C306.562 220.512 306.214 220.392 305.734 220.264C305.238 220.144 304.83 220.02 304.51 219.892C304.198 219.764 303.926 219.568 303.694 219.304C303.47 219.04 303.358 218.684 303.358 218.236C303.358 217.868 303.462 217.532 303.67 217.228C303.886 216.924 304.19 216.684 304.582 216.508C304.982 216.332 305.45 216.244 305.986 216.244C306.778 216.244 307.41 216.444 307.882 216.844C308.354 217.236 308.614 217.768 308.662 218.44H307.054C307.03 218.176 306.918 217.968 306.718 217.816C306.526 217.656 306.266 217.576 305.938 217.576C305.634 217.576 305.398 217.632 305.23 217.744C305.07 217.856 304.99 218.012 304.99 218.212C304.99 218.436 305.102 218.608 305.326 218.728C305.55 218.84 305.898 218.956 306.37 219.076C306.85 219.196 307.246 219.32 307.558 219.448C307.87 219.576 308.138 219.776 308.362 220.048C308.594 220.312 308.714 220.664 308.722 221.104C308.722 221.488 308.614 221.832 308.398 222.136C308.19 222.44 307.886 222.68 307.486 222.856C307.094 223.024 306.634 223.108 306.106 223.108Z" fill="#1A1A1A"/>
</svg>
