<svg width="267" height="226" viewBox="0 0 267 226" fill="none" xmlns="http://www.w3.org/2000/svg">
<rect x="3" y="44" width="20" height="158" rx="10" fill="#3D8D7A"/>
<path d="M1.22064 221.104C1.98864 220.464 2.60064 219.932 3.05664 219.508C3.51264 219.076 3.89264 218.628 4.19664 218.164C4.50064 217.7 4.65264 217.244 4.65264 216.796C4.65264 216.388 4.55664 216.068 4.36464 215.836C4.17264 215.604 3.87664 215.488 3.47664 215.488C3.07664 215.488 2.76864 215.624 2.55264 215.896C2.33664 216.16 2.22464 216.524 2.21664 216.988H0.584641C0.616641 216.028 0.900641 215.3 1.43664 214.804C1.98064 214.308 2.66864 214.06 3.50064 214.06C4.41264 214.06 5.11264 214.304 5.60064 214.792C6.08864 215.272 6.33264 215.908 6.33264 216.7C6.33264 217.324 6.16464 217.92 5.82864 218.488C5.49264 219.056 5.10864 219.552 4.67664 219.976C4.24464 220.392 3.68064 220.896 2.98464 221.488H6.52464V222.88H0.596641V221.632L1.22064 221.104ZM7.58327 218.512C7.58327 217.128 7.83127 216.044 8.32727 215.26C8.83127 214.476 9.66327 214.084 10.8233 214.084C11.9833 214.084 12.8113 214.476 13.3073 215.26C13.8113 216.044 14.0633 217.128 14.0633 218.512C14.0633 219.904 13.8113 220.996 13.3073 221.788C12.8113 222.58 11.9833 222.976 10.8233 222.976C9.66327 222.976 8.83127 222.58 8.32727 221.788C7.83127 220.996 7.58327 219.904 7.58327 218.512ZM12.4073 218.512C12.4073 217.92 12.3673 217.424 12.2873 217.024C12.2153 216.616 12.0633 216.284 11.8313 216.028C11.6073 215.772 11.2713 215.644 10.8233 215.644C10.3753 215.644 10.0353 215.772 9.80327 216.028C9.57927 216.284 9.42727 216.616 9.34727 217.024C9.27527 217.424 9.23927 217.92 9.23927 218.512C9.23927 219.12 9.27527 219.632 9.34727 220.048C9.41927 220.456 9.57127 220.788 9.80327 221.044C10.0353 221.292 10.3753 221.416 10.8233 221.416C11.2713 221.416 11.6113 221.292 11.8433 221.044C12.0753 220.788 12.2273 220.456 12.2993 220.048C12.3713 219.632 12.4073 219.12 12.4073 218.512ZM15.8691 221.104C16.6371 220.464 17.2491 219.932 17.7051 219.508C18.1611 219.076 18.5411 218.628 18.8451 218.164C19.1491 217.7 19.3011 217.244 19.3011 216.796C19.3011 216.388 19.2051 216.068 19.0131 215.836C18.8211 215.604 18.5251 215.488 18.1251 215.488C17.7251 215.488 17.4171 215.624 17.2011 215.896C16.9851 216.16 16.8731 216.524 16.8651 216.988H15.2331C15.2651 216.028 15.5491 215.3 16.0851 214.804C16.6291 214.308 17.3171 214.06 18.1491 214.06C19.0611 214.06 19.7611 214.304 20.2491 214.792C20.7371 215.272 20.9811 215.908 20.9811 216.7C20.9811 217.324 20.8131 217.92 20.4771 218.488C20.1411 219.056 19.7571 219.552 19.3251 219.976C18.8931 220.392 18.3291 220.896 17.6331 221.488H21.1731V222.88H15.2451V221.632L15.8691 221.104ZM22.0277 215.8V214.252H24.9197V223H23.1917V215.8H22.0277Z" fill="#1A1A1A"/>
<rect x="63" y="118" width="20" height="84" rx="10" fill="#3D8D7A"/>
<path d="M59.9492 221.104C60.7172 220.464 61.3292 219.932 61.7852 219.508C62.2412 219.076 62.6212 218.628 62.9252 218.164C63.2292 217.7 63.3812 217.244 63.3812 216.796C63.3812 216.388 63.2852 216.068 63.0932 215.836C62.9012 215.604 62.6052 215.488 62.2052 215.488C61.8052 215.488 61.4972 215.624 61.2812 215.896C61.0652 216.16 60.9532 216.524 60.9452 216.988H59.3132C59.3452 216.028 59.6292 215.3 60.1652 214.804C60.7092 214.308 61.3972 214.06 62.2292 214.06C63.1412 214.06 63.8412 214.304 64.3292 214.792C64.8172 215.272 65.0612 215.908 65.0612 216.7C65.0612 217.324 64.8932 217.92 64.5572 218.488C64.2212 219.056 63.8372 219.552 63.4052 219.976C62.9732 220.392 62.4092 220.896 61.7132 221.488H65.2532V222.88H59.3252V221.632L59.9492 221.104ZM66.3118 218.512C66.3118 217.128 66.5598 216.044 67.0558 215.26C67.5598 214.476 68.3918 214.084 69.5518 214.084C70.7118 214.084 71.5398 214.476 72.0358 215.26C72.5398 216.044 72.7918 217.128 72.7918 218.512C72.7918 219.904 72.5398 220.996 72.0358 221.788C71.5398 222.58 70.7118 222.976 69.5518 222.976C68.3918 222.976 67.5598 222.58 67.0558 221.788C66.5598 220.996 66.3118 219.904 66.3118 218.512ZM71.1358 218.512C71.1358 217.92 71.0958 217.424 71.0158 217.024C70.9438 216.616 70.7918 216.284 70.5598 216.028C70.3358 215.772 69.9998 215.644 69.5518 215.644C69.1038 215.644 68.7638 215.772 68.5318 216.028C68.3078 216.284 68.1558 216.616 68.0758 217.024C68.0038 217.424 67.9678 217.92 67.9678 218.512C67.9678 219.12 68.0038 219.632 68.0758 220.048C68.1478 220.456 68.2998 220.788 68.5318 221.044C68.7638 221.292 69.1038 221.416 69.5518 221.416C69.9998 221.416 70.3398 221.292 70.5718 221.044C70.8038 220.788 70.9558 220.456 71.0278 220.048C71.0998 219.632 71.1358 219.12 71.1358 218.512ZM74.5976 221.104C75.3656 220.464 75.9776 219.932 76.4336 219.508C76.8896 219.076 77.2696 218.628 77.5736 218.164C77.8776 217.7 78.0296 217.244 78.0296 216.796C78.0296 216.388 77.9336 216.068 77.7416 215.836C77.5496 215.604 77.2536 215.488 76.8536 215.488C76.4536 215.488 76.1456 215.624 75.9296 215.896C75.7136 216.16 75.6016 216.524 75.5936 216.988H73.9616C73.9936 216.028 74.2776 215.3 74.8136 214.804C75.3576 214.308 76.0456 214.06 76.8776 214.06C77.7896 214.06 78.4896 214.304 78.9776 214.792C79.4656 215.272 79.7096 215.908 79.7096 216.7C79.7096 217.324 79.5416 217.92 79.2056 218.488C78.8696 219.056 78.4856 219.552 78.0536 219.976C77.6216 220.392 77.0576 220.896 76.3616 221.488H79.9016V222.88H73.9736V221.632L74.5976 221.104ZM81.4882 221.104C82.2562 220.464 82.8682 219.932 83.3242 219.508C83.7802 219.076 84.1602 218.628 84.4642 218.164C84.7682 217.7 84.9202 217.244 84.9202 216.796C84.9202 216.388 84.8242 216.068 84.6322 215.836C84.4402 215.604 84.1442 215.488 83.7442 215.488C83.3442 215.488 83.0362 215.624 82.8202 215.896C82.6042 216.16 82.4922 216.524 82.4842 216.988H80.8522C80.8842 216.028 81.1682 215.3 81.7042 214.804C82.2482 214.308 82.9362 214.06 83.7682 214.06C84.6802 214.06 85.3802 214.304 85.8682 214.792C86.3562 215.272 86.6002 215.908 86.6002 216.7C86.6002 217.324 86.4322 217.92 86.0962 218.488C85.7602 219.056 85.3762 219.552 84.9442 219.976C84.5122 220.392 83.9482 220.896 83.2522 221.488H86.7922V222.88H80.8642V221.632L81.4882 221.104Z" fill="#1A1A1A"/>
<rect x="123" y="44" width="20" height="158" rx="10" fill="#3D8D7A"/>
<path d="M119.803 221.104C120.571 220.464 121.183 219.932 121.639 219.508C122.095 219.076 122.475 218.628 122.779 218.164C123.083 217.7 123.235 217.244 123.235 216.796C123.235 216.388 123.139 216.068 122.947 215.836C122.755 215.604 122.459 215.488 122.059 215.488C121.659 215.488 121.351 215.624 121.135 215.896C120.919 216.16 120.807 216.524 120.799 216.988H119.167C119.199 216.028 119.483 215.3 120.019 214.804C120.563 214.308 121.251 214.06 122.083 214.06C122.995 214.06 123.695 214.304 124.183 214.792C124.671 215.272 124.915 215.908 124.915 216.7C124.915 217.324 124.747 217.92 124.411 218.488C124.075 219.056 123.691 219.552 123.259 219.976C122.827 220.392 122.263 220.896 121.567 221.488H125.107V222.88H119.179V221.632L119.803 221.104ZM126.165 218.512C126.165 217.128 126.413 216.044 126.909 215.26C127.413 214.476 128.245 214.084 129.405 214.084C130.565 214.084 131.393 214.476 131.889 215.26C132.393 216.044 132.645 217.128 132.645 218.512C132.645 219.904 132.393 220.996 131.889 221.788C131.393 222.58 130.565 222.976 129.405 222.976C128.245 222.976 127.413 222.58 126.909 221.788C126.413 220.996 126.165 219.904 126.165 218.512ZM130.989 218.512C130.989 217.92 130.949 217.424 130.869 217.024C130.797 216.616 130.645 216.284 130.413 216.028C130.189 215.772 129.853 215.644 129.405 215.644C128.957 215.644 128.617 215.772 128.385 216.028C128.161 216.284 128.009 216.616 127.929 217.024C127.857 217.424 127.821 217.92 127.821 218.512C127.821 219.12 127.857 219.632 127.929 220.048C128.001 220.456 128.153 220.788 128.385 221.044C128.617 221.292 128.957 221.416 129.405 221.416C129.853 221.416 130.193 221.292 130.425 221.044C130.657 220.788 130.809 220.456 130.881 220.048C130.953 219.632 130.989 219.12 130.989 218.512ZM134.451 221.104C135.219 220.464 135.831 219.932 136.287 219.508C136.743 219.076 137.123 218.628 137.427 218.164C137.731 217.7 137.883 217.244 137.883 216.796C137.883 216.388 137.787 216.068 137.595 215.836C137.403 215.604 137.107 215.488 136.707 215.488C136.307 215.488 135.999 215.624 135.783 215.896C135.567 216.16 135.455 216.524 135.447 216.988H133.815C133.847 216.028 134.131 215.3 134.667 214.804C135.211 214.308 135.899 214.06 136.731 214.06C137.643 214.06 138.343 214.304 138.831 214.792C139.319 215.272 139.563 215.908 139.563 216.7C139.563 217.324 139.395 217.92 139.059 218.488C138.723 219.056 138.339 219.552 137.907 219.976C137.475 220.392 136.911 220.896 136.215 221.488H139.755V222.88H133.827V221.632L134.451 221.104ZM140.838 216.556C140.878 215.756 141.158 215.14 141.678 214.708C142.206 214.268 142.898 214.048 143.754 214.048C144.338 214.048 144.838 214.152 145.254 214.36C145.67 214.56 145.982 214.836 146.19 215.188C146.406 215.532 146.514 215.924 146.514 216.364C146.514 216.868 146.382 217.296 146.118 217.648C145.862 217.992 145.554 218.224 145.194 218.344V218.392C145.658 218.536 146.018 218.792 146.274 219.16C146.538 219.528 146.67 220 146.67 220.576C146.67 221.056 146.558 221.484 146.334 221.86C146.118 222.236 145.794 222.532 145.362 222.748C144.938 222.956 144.426 223.06 143.826 223.06C142.922 223.06 142.186 222.832 141.618 222.376C141.05 221.92 140.75 221.248 140.718 220.36H142.35C142.366 220.752 142.498 221.068 142.746 221.308C143.002 221.54 143.35 221.656 143.79 221.656C144.198 221.656 144.51 221.544 144.726 221.32C144.95 221.088 145.062 220.792 145.062 220.432C145.062 219.952 144.91 219.608 144.606 219.4C144.302 219.192 143.83 219.088 143.19 219.088H142.842V217.708H143.19C144.326 217.708 144.894 217.328 144.894 216.568C144.894 216.224 144.79 215.956 144.582 215.764C144.382 215.572 144.09 215.476 143.706 215.476C143.33 215.476 143.038 215.58 142.83 215.788C142.63 215.988 142.514 216.244 142.482 216.556H140.838Z" fill="#1A1A1A"/>
<rect x="183" width="20" height="202" rx="10" fill="#3D8D7A"/>
<path d="M179.428 221.104C180.196 220.464 180.808 219.932 181.264 219.508C181.72 219.076 182.1 218.628 182.404 218.164C182.708 217.7 182.86 217.244 182.86 216.796C182.86 216.388 182.764 216.068 182.572 215.836C182.38 215.604 182.084 215.488 181.684 215.488C181.284 215.488 180.976 215.624 180.76 215.896C180.544 216.16 180.432 216.524 180.424 216.988H178.792C178.824 216.028 179.108 215.3 179.644 214.804C180.188 214.308 180.876 214.06 181.708 214.06C182.62 214.06 183.32 214.304 183.808 214.792C184.296 215.272 184.54 215.908 184.54 216.7C184.54 217.324 184.372 217.92 184.036 218.488C183.7 219.056 183.316 219.552 182.884 219.976C182.452 220.392 181.888 220.896 181.192 221.488H184.732V222.88H178.804V221.632L179.428 221.104ZM185.79 218.512C185.79 217.128 186.038 216.044 186.534 215.26C187.038 214.476 187.87 214.084 189.03 214.084C190.19 214.084 191.018 214.476 191.514 215.26C192.018 216.044 192.27 217.128 192.27 218.512C192.27 219.904 192.018 220.996 191.514 221.788C191.018 222.58 190.19 222.976 189.03 222.976C187.87 222.976 187.038 222.58 186.534 221.788C186.038 220.996 185.79 219.904 185.79 218.512ZM190.614 218.512C190.614 217.92 190.574 217.424 190.494 217.024C190.422 216.616 190.27 216.284 190.038 216.028C189.814 215.772 189.478 215.644 189.03 215.644C188.582 215.644 188.242 215.772 188.01 216.028C187.786 216.284 187.634 216.616 187.554 217.024C187.482 217.424 187.446 217.92 187.446 218.512C187.446 219.12 187.482 219.632 187.554 220.048C187.626 220.456 187.778 220.788 188.01 221.044C188.242 221.292 188.582 221.416 189.03 221.416C189.478 221.416 189.818 221.292 190.05 221.044C190.282 220.788 190.434 220.456 190.506 220.048C190.578 219.632 190.614 219.12 190.614 218.512ZM194.076 221.104C194.844 220.464 195.456 219.932 195.912 219.508C196.368 219.076 196.748 218.628 197.052 218.164C197.356 217.7 197.508 217.244 197.508 216.796C197.508 216.388 197.412 216.068 197.22 215.836C197.028 215.604 196.732 215.488 196.332 215.488C195.932 215.488 195.624 215.624 195.408 215.896C195.192 216.16 195.08 216.524 195.072 216.988H193.44C193.472 216.028 193.756 215.3 194.292 214.804C194.836 214.308 195.524 214.06 196.356 214.06C197.268 214.06 197.968 214.304 198.456 214.792C198.944 215.272 199.188 215.908 199.188 216.7C199.188 217.324 199.02 217.92 198.684 218.488C198.348 219.056 197.964 219.552 197.532 219.976C197.1 220.392 196.536 220.896 195.84 221.488H199.38V222.88H193.452V221.632L194.076 221.104ZM200.367 221.296V219.976L204.291 214.36H206.247V219.832H207.303V221.296H206.247V223H204.567V221.296H200.367ZM204.675 216.16L202.215 219.832H204.675V216.16Z" fill="#1A1A1A"/>
<rect x="243" y="79" width="20" height="123" rx="10" fill="#3D8D7A"/>
<path d="M239.533 221.104C240.301 220.464 240.913 219.932 241.369 219.508C241.825 219.076 242.205 218.628 242.509 218.164C242.813 217.7 242.965 217.244 242.965 216.796C242.965 216.388 242.869 216.068 242.677 215.836C242.485 215.604 242.189 215.488 241.789 215.488C241.389 215.488 241.081 215.624 240.865 215.896C240.649 216.16 240.537 216.524 240.529 216.988H238.897C238.929 216.028 239.213 215.3 239.749 214.804C240.293 214.308 240.981 214.06 241.813 214.06C242.725 214.06 243.425 214.304 243.913 214.792C244.401 215.272 244.645 215.908 244.645 216.7C244.645 217.324 244.477 217.92 244.141 218.488C243.805 219.056 243.421 219.552 242.989 219.976C242.557 220.392 241.993 220.896 241.297 221.488H244.837V222.88H238.909V221.632L239.533 221.104ZM245.896 218.512C245.896 217.128 246.144 216.044 246.64 215.26C247.144 214.476 247.976 214.084 249.136 214.084C250.296 214.084 251.124 214.476 251.62 215.26C252.124 216.044 252.376 217.128 252.376 218.512C252.376 219.904 252.124 220.996 251.62 221.788C251.124 222.58 250.296 222.976 249.136 222.976C247.976 222.976 247.144 222.58 246.64 221.788C246.144 220.996 245.896 219.904 245.896 218.512ZM250.72 218.512C250.72 217.92 250.68 217.424 250.6 217.024C250.528 216.616 250.376 216.284 250.144 216.028C249.92 215.772 249.584 215.644 249.136 215.644C248.688 215.644 248.348 215.772 248.116 216.028C247.892 216.284 247.74 216.616 247.66 217.024C247.588 217.424 247.552 217.92 247.552 218.512C247.552 219.12 247.588 219.632 247.66 220.048C247.732 220.456 247.884 220.788 248.116 221.044C248.348 221.292 248.688 221.416 249.136 221.416C249.584 221.416 249.924 221.292 250.156 221.044C250.388 220.788 250.54 220.456 250.612 220.048C250.684 219.632 250.72 219.12 250.72 218.512ZM254.182 221.104C254.95 220.464 255.562 219.932 256.018 219.508C256.474 219.076 256.854 218.628 257.158 218.164C257.462 217.7 257.614 217.244 257.614 216.796C257.614 216.388 257.518 216.068 257.326 215.836C257.134 215.604 256.838 215.488 256.438 215.488C256.038 215.488 255.73 215.624 255.514 215.896C255.298 216.16 255.186 216.524 255.178 216.988H253.546C253.578 216.028 253.862 215.3 254.398 214.804C254.942 214.308 255.63 214.06 256.462 214.06C257.374 214.06 258.074 214.304 258.562 214.792C259.05 215.272 259.294 215.908 259.294 216.7C259.294 217.324 259.126 217.92 258.79 218.488C258.454 219.056 258.07 219.552 257.638 219.976C257.206 220.392 256.642 220.896 255.946 221.488H259.486V222.88H253.558V221.632L254.182 221.104ZM266.424 215.704H262.536V217.756C262.704 217.548 262.944 217.38 263.256 217.252C263.568 217.116 263.9 217.048 264.252 217.048C264.892 217.048 265.416 217.188 265.824 217.468C266.232 217.748 266.528 218.108 266.712 218.548C266.896 218.98 266.988 219.444 266.988 219.94C266.988 220.86 266.724 221.6 266.196 222.16C265.676 222.72 264.932 223 263.964 223C263.052 223 262.324 222.772 261.78 222.316C261.236 221.86 260.928 221.264 260.856 220.528H262.488C262.56 220.848 262.72 221.104 262.968 221.296C263.224 221.488 263.548 221.584 263.94 221.584C264.412 221.584 264.768 221.436 265.008 221.14C265.248 220.844 265.368 220.452 265.368 219.964C265.368 219.468 265.244 219.092 264.996 218.836C264.756 218.572 264.4 218.44 263.928 218.44C263.592 218.44 263.312 218.524 263.088 218.692C262.864 218.86 262.704 219.084 262.608 219.364H261V214.228H266.424V215.704Z" fill="#1A1A1A"/>
</svg>
