<svg width="25" height="24" viewBox="0 0 25 24" fill="none" xmlns="http://www.w3.org/2000/svg">
<g id="1">
<g id="Clip path group">
<mask id="mask0_2866_2513" style="mask-type:luminance" maskUnits="userSpaceOnUse" x="1" y="5" width="9" height="14">
<g id="7c4f4d2fea">
<path id="Vector" d="M1.25586 5.2002H9.10805V18.8002H1.25586V5.2002Z" fill="white"/>
</g>
</mask>
<g mask="url(#mask0_2866_2513)">
<g id="Group">
<g id="Clip path group_2">
<mask id="mask1_2866_2513" style="mask-type:luminance" maskUnits="userSpaceOnUse" x="1" y="0" width="23" height="24">
<g id="71c43059f2">
<path id="Vector_2" d="M23.4629 9.90896H12.7513V14.35H18.917C18.3422 17.1714 15.9387 18.7911 12.7513 18.7911C8.98917 18.7911 5.95855 15.7607 5.95855 11.9988C5.95855 8.23702 8.98917 5.20664 12.7513 5.20664C14.3711 5.20664 15.8342 5.78139 16.9837 6.72183L20.3278 3.37802C18.29 1.60158 15.6774 0.504395 12.7513 0.504395C6.37655 0.504395 1.25586 5.62464 1.25586 11.9988C1.25586 18.3731 6.37655 23.4933 12.7513 23.4933C18.499 23.4933 23.7242 19.3135 23.7242 11.9988C23.7242 11.3196 23.6197 10.5881 23.4629 9.90896Z" fill="white"/>
</g>
</mask>
<g mask="url(#mask1_2866_2513)">
<g id="Group_2">
<path id="Vector_3" d="M0.210693 18.791V5.20654L9.0935 11.9987L0.210693 18.791Z" fill="#FBBC05"/>
</g>
</g>
</g>
</g>
</g>
</g>
<g id="Clip path group_3">
<mask id="mask2_2866_2513" style="mask-type:luminance" maskUnits="userSpaceOnUse" x="1" y="0" width="23" height="12">
<g id="1e7bcd73ea">
<path id="Vector_4" d="M1.25586 0.496094H23.7242V12.0001H1.25586V0.496094Z" fill="white"/>
</g>
</mask>
<g mask="url(#mask2_2866_2513)">
<g id="Group_3">
<g id="Clip path group_4">
<mask id="mask3_2866_2513" style="mask-type:luminance" maskUnits="userSpaceOnUse" x="1" y="0" width="23" height="24">
<g id="106a7501b6">
<path id="Vector_5" d="M23.4629 9.90896H12.7513V14.35H18.917C18.3422 17.1714 15.9387 18.7911 12.7513 18.7911C8.98917 18.7911 5.95855 15.7607 5.95855 11.9988C5.95855 8.23702 8.98917 5.20664 12.7513 5.20664C14.3711 5.20664 15.8342 5.78139 16.9837 6.72183L20.3278 3.37802C18.29 1.60158 15.6774 0.504395 12.7513 0.504395C6.37655 0.504395 1.25586 5.62464 1.25586 11.9988C1.25586 18.3731 6.37655 23.4933 12.7513 23.4933C18.499 23.4933 23.7242 19.3135 23.7242 11.9988C23.7242 11.3196 23.6197 10.5881 23.4629 9.90896Z" fill="white"/>
</g>
</mask>
<g mask="url(#mask3_2866_2513)">
<g id="Group_4">
<path id="Vector_6" d="M0.210693 5.20672L9.09351 11.9989L12.7511 8.81185L25.2916 6.77416V-0.540527H0.210693V5.20672Z" fill="#EA4335"/>
</g>
</g>
</g>
</g>
</g>
</g>
<g id="Clip path group_5">
<mask id="mask4_2866_2513" style="mask-type:luminance" maskUnits="userSpaceOnUse" x="1" y="0" width="23" height="24">
<g id="e20f06e835">
<path id="Vector_7" d="M1.25586 0.496094H23.7242V23.4934H1.25586V0.496094Z" fill="white"/>
</g>
</mask>
<g mask="url(#mask4_2866_2513)">
<g id="Group_5">
<g id="Clip path group_6">
<mask id="mask5_2866_2513" style="mask-type:luminance" maskUnits="userSpaceOnUse" x="1" y="0" width="23" height="24">
<g id="8ca6ea0984">
<path id="Vector_8" d="M23.4629 9.90896H12.7513V14.35H18.917C18.3422 17.1714 15.9387 18.7911 12.7513 18.7911C8.98917 18.7911 5.95855 15.7607 5.95855 11.9988C5.95855 8.23702 8.98917 5.20664 12.7513 5.20664C14.3711 5.20664 15.8342 5.78139 16.9837 6.72183L20.3278 3.37802C18.29 1.60158 15.6774 0.504395 12.7513 0.504395C6.37655 0.504395 1.25586 5.62464 1.25586 11.9988C1.25586 18.3731 6.37655 23.4933 12.7513 23.4933C18.499 23.4933 23.7242 19.3135 23.7242 11.9988C23.7242 11.3196 23.6197 10.5881 23.4629 9.90896Z" fill="white"/>
</g>
</mask>
<g mask="url(#mask5_2866_2513)">
<g id="Group_6">
<path id="Vector_9" d="M0.210693 18.7912L15.8863 6.77416L20.0141 7.29666L25.2916 -0.540527V24.5384H0.210693V18.7912Z" fill="#34A853"/>
</g>
</g>
</g>
</g>
</g>
</g>
<g id="Clip path group_7">
<mask id="mask6_2866_2513" style="mask-type:luminance" maskUnits="userSpaceOnUse" x="6" y="5" width="18" height="19">
<g id="084cc3978a">
<path id="Vector_10" d="M6.99585 5.2002H23.724V23.4935H6.99585V5.2002Z" fill="white"/>
</g>
</mask>
<g mask="url(#mask6_2866_2513)">
<g id="Group_7">
<g id="Clip path group_8">
<mask id="mask7_2866_2513" style="mask-type:luminance" maskUnits="userSpaceOnUse" x="1" y="0" width="23" height="24">
<g id="402fdc6fec">
<path id="Vector_11" d="M23.4629 9.90896H12.7513V14.35H18.917C18.3422 17.1714 15.9387 18.7911 12.7513 18.7911C8.98917 18.7911 5.95855 15.7607 5.95855 11.9988C5.95855 8.23702 8.98917 5.20664 12.7513 5.20664C14.3711 5.20664 15.8342 5.78139 16.9837 6.72183L20.3278 3.37802C18.29 1.60158 15.6774 0.504395 12.7513 0.504395C6.37655 0.504395 1.25586 5.62464 1.25586 11.9988C1.25586 18.3731 6.37655 23.4933 12.7513 23.4933C18.499 23.4933 23.7242 19.3135 23.7242 11.9988C23.7242 11.3196 23.6197 10.5881 23.4629 9.90896Z" fill="white"/>
</g>
</mask>
<g mask="url(#mask7_2866_2513)">
<g id="Group_8">
<path id="Vector_12" d="M25.2918 24.5382L9.09372 11.9987L7.00366 10.4314L25.2918 5.20654V24.5382Z" fill="#4285F4"/>
</g>
</g>
</g>
</g>
</g>
</g>
</g>
</svg>
