<svg width="287" height="287" viewBox="0 0 287 287" fill="none" xmlns="http://www.w3.org/2000/svg">
<rect width="287" height="287" rx="143.5" fill="#F9FCF8"/>
<path fill-rule="evenodd" clip-rule="evenodd" d="M58.4175 190.066C75.6411 208.795 154.222 183.214 180.677 190.066C198.701 194.733 261.87 199.439 236.87 134.481C157.568 -71.5717 3.84441 130.72 58.4175 190.066Z" fill="url(#paint0_linear_2623_3577)"/>
<g filter="url(#filter0_d_2623_3577)">
<path fill-rule="evenodd" clip-rule="evenodd" d="M27.5578 229.577C23.5601 231.582 20.2775 233.991 21.5006 236.985C23.632 242.203 30.3285 244.127 37.9435 245.665C48.5968 247.817 63.3849 248.087 82.5186 247.255C114.503 245.864 110.875 242.803 141.228 241.364C161.886 240.384 197.719 245.823 226.464 245.725C244.051 245.665 320.755 224.463 211.867 219.756C102.979 215.049 43.0899 221.789 27.5578 229.577Z" fill="#F9FCF8"/>
<path fill-rule="evenodd" clip-rule="evenodd" d="M27.5578 229.577C23.5601 231.582 20.2775 233.991 21.5006 236.985C23.632 242.202 81.895 219.756 118.631 230.366C128.58 241.296 194.695 229.676 223.44 229.577C241.027 229.517 281.186 225.944 211.867 219.756C142.548 213.567 43.0899 221.789 27.5578 229.577Z" fill="#A9A9A9"/>
<path fill-rule="evenodd" clip-rule="evenodd" d="M84.639 219.026C55.6396 220.993 35.5793 224.485 27.1287 228.722C24.7639 229.908 23.0347 231.035 21.878 232.251C20.385 233.82 19.8799 235.548 20.6147 237.347C21.7215 240.056 23.9512 242.055 27.2669 243.574C29.8511 244.758 32.9206 245.616 37.4559 246.542L37.7538 246.602C47.9359 248.659 62.0638 249.102 82.5599 248.21L84.2558 248.134C96.1416 247.584 102.391 246.908 111.633 245.433L114.155 245.026C123.434 243.537 129.242 242.898 140.846 242.339L141.818 242.294C149.969 241.938 157.487 242.323 178.24 243.97L190.013 244.911C192.695 245.121 194.971 245.293 197.266 245.458L199.709 245.629C210.046 246.339 218.444 246.695 226.067 246.682L226.467 246.681C230.996 246.666 239.188 245.3 247.155 243.229L247.778 243.066C256.453 240.769 263.545 237.999 267.172 235.245C272.149 231.465 270.789 227.561 262.864 224.884C254.285 221.986 237.576 219.91 211.908 218.8C160.854 216.593 117.766 216.779 84.639 219.026ZM211.826 220.712L213.345 220.779C237.982 221.897 254.059 223.93 262.252 226.697L262.623 226.825C265.905 227.977 267.674 229.203 268.07 230.34C268.392 231.263 267.758 232.397 266.015 233.721C262.64 236.285 255.733 238.981 247.281 241.219L246.674 241.378C238.95 243.386 231.01 244.718 226.632 244.767L226.461 244.768C218.387 244.796 209.436 244.402 198.195 243.606L194.538 243.34C192.19 243.164 189.684 242.968 186.596 242.721L179.07 242.116C157.231 240.379 149.753 240.767 141.183 241.173L139.494 241.256C128.639 241.805 122.856 242.457 113.855 243.902L111.016 244.359C101.695 245.84 95.4057 246.493 82.9054 247.045L82.4768 247.064C62.3277 247.94 48.4059 246.754 38.4336 244.787L38.1326 244.727C28.5963 242.801 23.0156 241.378 21.3926 236.661C20.7207 234.709 23.464 232.7 27.9864 230.433C36.1377 226.345 56.0151 222.885 84.7685 220.935C117.82 218.694 160.838 218.507 211.826 220.712Z" fill="#1A1A1A"/>
</g>
<g filter="url(#filter1_d_2623_3577)">
<path d="M99.689 82.8255C100.982 98.5535 107.447 112.581 107.447 217.576C105.635 236.688 182.884 239.663 182.884 217.576C182.884 198.447 184.177 177.193 185.47 152.114C189.35 150.838 199.873 146.836 203.145 148.449C204.983 149.355 211.766 153.311 213.921 153.975C218.232 155.675 227.271 156.206 232.026 155.089C241.078 152.964 248.837 147.438 252.286 139.786C255.735 132.135 256.653 129.138 259.614 124.908C263.692 119.082 269.953 115.469 279.443 113.006C273.983 103.513 254.441 94.7277 232.888 96.8531C211.335 98.9785 205.731 112.439 204.007 116.407C202.282 120.374 201.633 126.391 199.265 128.309C195.385 131.71 188.056 133.835 186.763 132.985C187.625 109.18 188.919 96.8531 190.213 82.4004C182.126 89.5567 162.57 92.1889 143.634 91.9056C123.203 91.5998 103.492 87.8996 99.689 82.8255Z" fill="url(#paint1_linear_2623_3577)"/>
<g filter="url(#filter2_i_2623_3577)">
<ellipse cx="144.95" cy="82.8254" rx="45.2618" ry="9.35178" fill="url(#paint2_linear_2623_3577)"/>
</g>
<g opacity="0.7" filter="url(#filter3_i_2623_3577)">
<path d="M194.522 139.919C197.971 140.211 201.427 140.524 207.885 140.211C213.92 139.919 218.231 138.511 224.697 133.835C231.594 128.847 234.131 121.856 240.215 118.107C243.664 115.981 248.853 113.76 259.182 113.194C264.766 112.888 272.257 112.648 278.502 113.254L279.442 113.006C279.442 113.006 279.011 112.156 278.149 111.085C274.567 109.527 270.193 107.948 265.648 107.243C259.613 106.043 250.045 105.011 244.095 106.63C231.594 110.03 230.301 114.525 223.404 122.546C218.814 127.884 207.972 136.178 194.522 139.919Z" fill="url(#paint3_linear_2623_3577)"/>
</g>
<path d="M128.139 218.723L124.983 98.5441L114.345 97.2773L118.129 215.603C121.372 216.916 124.72 217.96 128.139 218.723Z" fill="url(#paint4_linear_2623_3577)"/>
<path d="M151.752 218.927V99.3096H141.407V219.556C144.855 219.395 148.295 219.089 151.752 218.927Z" fill="url(#paint5_linear_2623_3577)"/>
<path d="M172.814 216.198L178.608 97.4131L168.184 99.0369L163.813 218.298C166.868 217.847 169.879 217.144 172.814 216.198Z" fill="url(#paint6_linear_2623_3577)"/>
</g>
<defs>
<filter id="filter0_d_2623_3577" x="10.2812" y="212.239" width="269.809" height="51.4072" filterUnits="userSpaceOnUse" color-interpolation-filters="sRGB">
<feFlood flood-opacity="0" result="BackgroundImageFix"/>
<feColorMatrix in="SourceAlpha" type="matrix" values="0 0 0 0 0 0 0 0 0 0 0 0 0 0 0 0 0 0 127 0" result="hardAlpha"/>
<feOffset dy="5"/>
<feGaussianBlur stdDeviation="5"/>
<feComposite in2="hardAlpha" operator="out"/>
<feColorMatrix type="matrix" values="0 0 0 0 0 0 0 0 0 0 0 0 0 0 0 0 0 0 0.2 0"/>
<feBlend mode="normal" in2="BackgroundImageFix" result="effect1_dropShadow_2623_3577"/>
<feBlend mode="normal" in="SourceGraphic" in2="effect1_dropShadow_2623_3577" result="shape"/>
</filter>
<filter id="filter1_d_2623_3577" x="82.688" y="60.4727" width="199.755" height="179.573" filterUnits="userSpaceOnUse" color-interpolation-filters="sRGB">
<feFlood flood-opacity="0" result="BackgroundImageFix"/>
<feColorMatrix in="SourceAlpha" type="matrix" values="0 0 0 0 0 0 0 0 0 0 0 0 0 0 0 0 0 0 127 0" result="hardAlpha"/>
<feOffset dx="-7" dy="-3"/>
<feGaussianBlur stdDeviation="5"/>
<feComposite in2="hardAlpha" operator="out"/>
<feColorMatrix type="matrix" values="0 0 0 0 0.101961 0 0 0 0 0.101961 0 0 0 0 0.101961 0 0 0 0.15 0"/>
<feBlend mode="normal" in2="BackgroundImageFix" result="effect1_dropShadow_2623_3577"/>
<feBlend mode="normal" in="SourceGraphic" in2="effect1_dropShadow_2623_3577" result="shape"/>
</filter>
<filter id="filter2_i_2623_3577" x="99.688" y="73.4736" width="90.5234" height="20.2338" filterUnits="userSpaceOnUse" color-interpolation-filters="sRGB">
<feFlood flood-opacity="0" result="BackgroundImageFix"/>
<feBlend mode="normal" in="SourceGraphic" in2="BackgroundImageFix" result="shape"/>
<feColorMatrix in="SourceAlpha" type="matrix" values="0 0 0 0 0 0 0 0 0 0 0 0 0 0 0 0 0 0 127 0" result="hardAlpha"/>
<feMorphology radius="0.765333" operator="dilate" in="SourceAlpha" result="effect1_innerShadow_2623_3577"/>
<feOffset dy="1.53067"/>
<feGaussianBlur stdDeviation="2.296"/>
<feComposite in2="hardAlpha" operator="arithmetic" k2="-1" k3="1"/>
<feColorMatrix type="matrix" values="0 0 0 0 0.0823529 0 0 0 0 0.188235 0 0 0 0 0.160784 0 0 0 1 0"/>
<feBlend mode="normal" in2="shape" result="effect1_innerShadow_2623_3577"/>
</filter>
<filter id="filter3_i_2623_3577" x="194.522" y="105.796" width="84.9199" height="36.0756" filterUnits="userSpaceOnUse" color-interpolation-filters="sRGB">
<feFlood flood-opacity="0" result="BackgroundImageFix"/>
<feBlend mode="normal" in="SourceGraphic" in2="BackgroundImageFix" result="shape"/>
<feColorMatrix in="SourceAlpha" type="matrix" values="0 0 0 0 0 0 0 0 0 0 0 0 0 0 0 0 0 0 127 0" result="hardAlpha"/>
<feOffset dy="1.53067"/>
<feGaussianBlur stdDeviation="0.765333"/>
<feComposite in2="hardAlpha" operator="arithmetic" k2="-1" k3="1"/>
<feColorMatrix type="matrix" values="0 0 0 0 0.101961 0 0 0 0 0.101961 0 0 0 0 0.101961 0 0 0 0.25 0"/>
<feBlend mode="normal" in2="shape" result="effect1_innerShadow_2623_3577"/>
</filter>
<linearGradient id="paint0_linear_2623_3577" x1="120.5" y1="78.0002" x2="26.4999" y2="237.5" gradientUnits="userSpaceOnUse">
<stop stop-color="#93BCB2"/>
<stop offset="1" stop-color="#435651"/>
</linearGradient>
<linearGradient id="paint1_linear_2623_3577" x1="151.847" y1="41.1675" x2="207.753" y2="210.82" gradientUnits="userSpaceOnUse">
<stop stop-color="#8FAD86"/>
<stop offset="0.871667" stop-color="#3D8D7A"/>
</linearGradient>
<linearGradient id="paint2_linear_2623_3577" x1="145.381" y1="122.783" x2="145.381" y2="70.9231" gradientUnits="userSpaceOnUse">
<stop stop-color="#A3D1C6"/>
<stop offset="0.913616" stop-color="#235247"/>
</linearGradient>
<linearGradient id="paint3_linear_2623_3577" x1="83.3077" y1="215.45" x2="262.774" y2="93.2553" gradientUnits="userSpaceOnUse">
<stop stop-color="#7A9D95"/>
<stop stop-color="#A3D1C6"/>
<stop offset="0.69996" stop-color="#235247"/>
</linearGradient>
<linearGradient id="paint4_linear_2623_3577" x1="128.156" y1="371.795" x2="119.353" y2="79.748" gradientUnits="userSpaceOnUse">
<stop stop-color="#A3D1C6"/>
<stop offset="0.3" stop-color="#7A9D95"/>
<stop offset="0.72" stop-color="#235247"/>
</linearGradient>
<linearGradient id="paint5_linear_2623_3577" x1="147.674" y1="370.384" x2="146.216" y2="82.1531" gradientUnits="userSpaceOnUse">
<stop stop-color="#A3D1C6"/>
<stop offset="0.3" stop-color="#7A9D95"/>
<stop offset="0.72" stop-color="#235247"/>
</linearGradient>
<linearGradient id="paint6_linear_2623_3577" x1="162.719" y1="372.066" x2="173.794" y2="79.7773" gradientUnits="userSpaceOnUse">
<stop stop-color="#A3D1C6"/>
<stop offset="0.3" stop-color="#7A9D95"/>
<stop offset="0.72" stop-color="#235247"/>
</linearGradient>
</defs>
</svg>
