<svg width="218" height="218" viewBox="0 0 218 218" fill="none" xmlns="http://www.w3.org/2000/svg">
<rect width="218" height="218" rx="109" fill="#F9FCF8"/>
<path d="M140.068 146.241C149.817 147.429 158.181 153.441 165.064 154.265C172.714 155.18 184.283 150.154 196.081 156.07C199.118 157.592 201.611 159.422 200.682 161.696C199.063 165.659 195.656 167.212 188.192 168.289L187.396 168.399C181.626 169.167 175.425 169.352 159.705 169.456L154.334 169.497C135.171 169.664 124.089 170.561 109.739 171.707L108.276 171.826C81.8504 174 60.7568 173.652 44.9953 171.242L44.5193 171.168C31.7851 169.173 24.1291 165.874 20.3919 162.131C18.1918 159.927 16.9245 157.872 16.859 155.676C16.7936 153.48 20.0385 151.065 21.886 150.154C27.0323 147.615 28.7115 146.694 38.6053 145.394C42.8652 144.834 49.2473 144.878 56.6244 144.629C83.0887 143.736 123.972 144.278 140.068 146.241Z" fill="#F9FCF8"/>
<path fill-rule="evenodd" clip-rule="evenodd" d="M147.801 151.03C132.799 184.986 78.5087 183.893 40.7328 160.717C33.5184 156.291 8.71907 135.429 33.1274 123.247C57.5358 111.064 49.7177 92.3529 69.4161 70.0351C92.1964 44.2256 134.619 30.9882 164.455 65.7137C240.286 153.974 152.853 139.596 147.801 151.03Z" fill="#93BCB2"/>
<path fill-rule="evenodd" clip-rule="evenodd" d="M47.5118 60.9897C46.1593 58.8164 44.804 57.9826 43.4708 58.7039C42.3421 59.3145 42.1544 60.9455 42.7549 63.5548L42.395 63.7488C41.9005 64.0155 41.7158 64.6326 41.9824 65.1271C42.0055 65.1699 42.0316 65.211 42.0605 65.25L42.2534 65.5081C45.0689 69.243 47.3 70.7727 49.0406 69.9315C50.5036 69.2245 50.7508 66.2129 49.9981 60.7633C49.9453 60.3817 49.6052 60.1104 49.2264 60.1379L49.1788 60.1429C49.0929 60.1548 49.0097 60.182 48.9333 60.2231L47.5118 60.9897ZM43.5197 62.9698L46.6587 61.2716L46.6513 61.26C45.5719 59.5859 44.6574 59.0533 43.8857 59.4708L43.8503 59.4912C43.2805 59.839 43.1226 60.9315 43.4855 62.7989L43.5197 62.9698ZM49.1622 61.0903L42.8089 64.5164C42.7383 64.5545 42.7119 64.6426 42.75 64.7133C42.7533 64.7194 42.757 64.7252 42.7611 64.7308L42.9483 64.9812C45.5217 68.3948 47.4573 69.7282 48.6612 69.1464C49.5759 68.7043 49.8159 66.0197 49.1796 61.2172L49.1622 61.0903ZM47.8641 66.5834C48.0136 66.4269 48.1054 66.2148 48.1054 65.9813C48.1054 65.4997 47.715 65.1093 47.2334 65.1093C46.7518 65.1093 46.3614 65.4997 46.3614 65.9813C46.3614 66.4629 46.7518 66.8533 47.2334 66.8533C47.2713 66.8533 47.3086 66.8509 47.3453 66.8462L47.841 67.7562L47.8589 67.785C47.9428 67.9039 48.1044 67.9437 48.2353 67.8724C48.3763 67.7956 48.4283 67.6191 48.3515 67.4781L47.8641 66.5834Z" fill="#1A1A1A"/>
<path fill-rule="evenodd" clip-rule="evenodd" d="M140.068 146.241C149.817 147.429 158.181 153.441 165.064 154.265C172.714 155.18 184.283 150.154 196.081 156.07C199.118 157.592 201.611 159.422 200.682 161.696C199.063 165.659 195.656 167.212 188.192 168.289L187.396 168.399C181.626 169.167 175.425 169.352 159.705 169.456L154.334 169.497C135.171 169.664 124.089 170.561 109.739 171.707L108.276 171.826C81.8504 174 60.7568 173.652 44.9953 171.242L44.5193 171.168C31.7851 169.173 24.1291 165.874 20.3919 162.131C18.1918 159.927 16.9245 157.872 16.859 155.676C16.7936 153.48 20.0385 151.065 21.886 150.154C27.0323 147.615 28.7115 146.694 38.6053 145.394C42.8652 144.834 49.2473 144.878 56.6244 144.629C83.0887 143.736 123.972 144.278 140.068 146.241ZM38.3868 147.233L37.7385 147.32C28.5185 148.57 22.6247 150.844 19.8327 153.112L19.6584 153.258C17.5146 155.105 17.3141 157.182 20.3958 160.252C23.7653 163.61 32.3591 167.397 44.7506 169.328C60.2638 171.745 81.1204 172.447 107.313 170.344L110.059 170.123C125.18 168.934 136.782 168.302 158.254 168.151L164.181 168.106C176.965 167.991 182.398 167.762 187.643 167.033L188.142 166.961C211.304 162.431 194.591 154.302 185.003 154.265C176.791 154.233 166.928 156.543 164.181 155.678C155.524 152.953 151.079 148.781 140.068 147.446L136.866 147.063L134.133 146.934C89.3384 144.853 57.4143 144.746 38.3868 147.233Z" fill="#1A1A1A"/>
<path d="M67.3983 41.9656C67.2392 41.9605 67.08 41.9607 66.9209 41.9662C63.0011 42.1009 59.9241 45.3564 59.9952 49.2657L59.9983 49.3843L60.0464 50.8492C60.1841 55.2491 60.2598 59.6316 60.2735 63.9967L60.2972 77.4275C60.3025 82.2615 60.2995 86.6244 60.2854 90.8968L60.266 95.4276C60.1898 109.853 59.9843 119.977 59.6029 124.383L59.5293 125.207C59.069 130.593 58.9737 138.329 59.2466 148.396C59.2498 148.512 59.2557 148.629 59.2642 148.745C59.5659 152.826 63.0867 155.901 67.1593 155.666L67.2829 155.658L68.6365 155.56C81.2881 154.657 93.9399 154.205 106.592 154.205C118.975 154.205 131.454 154.638 144.028 155.503C144.391 155.528 144.756 155.53 145.12 155.509C149.887 155.24 153.545 151.195 153.353 146.44L153.346 146.296L153.25 144.581C152.407 129.133 151.97 113.686 151.939 98.2387L151.938 96.5223C151.938 85.2634 152.465 69.8222 153.519 50.1919C153.531 49.972 153.533 49.7517 153.527 49.5316C153.394 45.2704 149.867 41.9143 145.62 41.9774L145.491 41.9803L139.063 42.1752C124.458 42.606 113.824 42.8311 107.153 42.8505L106.009 42.8517L104.833 42.8487C98.0234 42.8194 87.4813 42.5859 73.2008 42.1481L67.3983 41.9656Z" fill="#F9FCF8"/>
<path fill-rule="evenodd" clip-rule="evenodd" d="M144.993 41.5651C144.478 41.8472 143.799 42.0457 142.957 42.1602C145.125 42.3528 146.829 42.3079 148.071 42.0256L147.802 41.9923C146.928 41.882 145.992 41.7396 144.993 41.5651Z" fill="#A9A9A9"/>
<path fill-rule="evenodd" clip-rule="evenodd" d="M63.4532 145.513L63.5136 145.515C63.8882 145.541 64.1524 145.834 64.118 146.157C64.0786 146.526 63.6834 146.885 63.2521 146.915C62.9092 146.938 62.671 146.674 62.7091 146.265C62.749 145.835 63.0855 145.514 63.4532 145.513Z" fill="#A9A9A9"/>
<path fill-rule="evenodd" clip-rule="evenodd" d="M70.3145 151.127L70.3749 151.129C70.7495 151.155 71.0138 151.448 70.9793 151.771C70.9399 152.141 70.5448 152.499 70.1134 152.529C69.7705 152.552 69.5323 152.289 69.5704 151.879C69.6103 151.45 69.9468 151.129 70.3145 151.127Z" fill="#A9A9A9"/>
<path fill-rule="evenodd" clip-rule="evenodd" d="M106.668 150.758C91.7824 154.044 119.732 153.463 130.635 152.743C136.569 152.352 141.308 155.316 144.028 155.503C144.392 155.528 144.757 155.53 145.121 155.51C149.888 155.24 153.545 151.195 153.353 146.44L153.346 146.296L153.251 144.581C152.407 129.134 151.97 113.686 151.94 98.239L151.938 96.5226C151.938 85.2637 152.466 69.8225 153.52 50.1922C153.531 49.9723 153.534 49.752 153.527 49.5318C153.395 45.2707 145.229 142.248 106.668 150.758Z" fill="#A9A9A9"/>
<path d="M150.817 146.787L150.87 146.789C151.141 146.811 151.363 147.093 151.331 147.438C151.296 147.82 150.966 148.163 150.638 148.189C150.407 148.208 150.212 147.959 150.246 147.533C150.281 147.096 150.555 146.794 150.817 146.787Z" fill="#F9FCF8"/>
<path fill-rule="evenodd" clip-rule="evenodd" d="M150.724 149.278C149.755 149.354 149.074 148.488 149.158 147.445C149.24 146.431 150.012 145.627 150.939 145.7C151.851 145.772 152.505 146.604 152.418 147.539C152.335 148.438 151.595 149.209 150.724 149.278ZM150.87 146.789L150.818 146.787C150.555 146.794 150.282 147.096 150.246 147.533C150.212 147.959 150.407 148.208 150.638 148.189C150.967 148.163 151.296 147.82 151.331 147.438C151.363 147.093 151.141 146.811 150.87 146.789Z" fill="#F9FCF8"/>
<path d="M141.597 48.2568C145.042 48.2568 147.835 51.0496 147.835 54.4946C147.835 54.6236 147.831 54.7525 147.823 54.8812L147.732 56.4093C147.564 59.3097 147.397 62.7532 147.23 66.74L147.205 67.3783C146.797 78.1029 146.784 103.475 147.166 143.494C147.199 146.939 144.433 149.759 140.988 149.791C140.904 149.792 140.82 149.791 140.736 149.789L72.3007 147.677C69.1319 147.58 66.5405 145.121 66.2768 141.961L66.2188 141.248C65.3175 129.888 65.2638 115.382 66.0578 97.7304L66.1743 95.1991C66.5797 85.9104 66.6116 72.3823 66.2697 54.6146C66.2041 51.2061 68.8852 48.3836 72.279 48.261L72.4464 48.2571L141.597 48.2568Z" fill="#F9FCF8"/>
<path fill-rule="evenodd" clip-rule="evenodd" d="M95.5859 121.818C98.6093 121.946 101.714 121.409 104.407 120.094C107.779 118.446 110.316 115.682 111.721 111.718C113.571 106.497 112.891 100.852 110.232 95.8831C107.865 91.4607 104.143 88.095 100.713 87.2627C100.713 87.2627 110.232 100.653 108.868 107.973C106.783 119.166 95.5859 121.818 95.5859 121.818Z" fill="#A9A9A9"/>
<path fill-rule="evenodd" clip-rule="evenodd" d="M97.7848 106.093C99.2562 106.703 99.7055 107.837 99.1325 109.495L99.0996 109.588C95.3736 119.818 90.9797 119.912 94.7396 109.588C95.1951 108.337 95.0822 107.378 94.4008 106.709C95.605 106.465 96.733 106.259 97.7848 106.093Z" fill="#A9A9A9"/>
<path fill-rule="evenodd" clip-rule="evenodd" d="M74.4486 94.1344C75.4126 91.27 76.8204 89.1168 79.4513 87.4143L79.7855 87.2024C80.3532 86.846 81.053 86.4426 81.6221 86.7182C82.3452 87.0684 83.3923 88.3446 82.7552 88.8457C82.3233 89.1854 80.545 89.5467 79.2045 90.721C77.622 92.1074 76.483 94.3414 76.483 94.8884C76.483 96.673 73.8793 95.8257 74.4486 94.1344Z" fill="#A9A9A9"/>
<path fill-rule="evenodd" clip-rule="evenodd" d="M71.4666 53.3086C68.1571 62.3956 68.1797 64.1986 67.9811 62.6323C67.3388 57.567 66.8544 54.2383 67.6175 52.2164C68.5836 49.6565 71.0055 49.1529 71.6294 49.4501C72.9482 50.0782 71.4666 53.3086 71.4666 53.3086Z" fill="#A9A9A9"/>
<path fill-rule="evenodd" clip-rule="evenodd" d="M125.915 100.008L124.814 99.9745C123.508 99.9412 122.567 99.9491 121.777 100.011C121.142 100.06 120.669 100.147 120.401 100.232L120.348 100.249L120.343 100.274C120.313 100.423 120.292 100.621 120.282 100.861L120.28 100.952C120.262 101.672 120.349 102.633 120.522 103.706C120.663 104.586 120.857 105.5 121.059 106.271L121.109 106.46C121.188 106.748 121.263 106.998 121.329 107.192L121.353 107.262L121.382 107.273C121.788 107.417 122.594 107.434 124.149 107.319L125.205 107.237C125.917 107.185 126.435 107.162 126.947 107.168L131.911 107.272C132.605 107.285 133.232 107.295 133.847 107.304L134.962 107.316C137.747 107.478 140.807 107.357 141.188 106.664C142.349 104.55 142.896 100.196 142.349 100.167C141.364 100.114 140.172 100.052 139.605 100.06L138.297 100.084L137.111 100.093C136.57 100.096 136.005 100.098 135.399 100.099L128.596 100.083C128.154 100.08 127.72 100.069 126.94 100.043L125.915 100.008Z" fill="#A9A9A9"/>
<path fill-rule="evenodd" clip-rule="evenodd" d="M73.754 40.6047L67.4484 40.4069C67.2548 40.4006 67.061 40.4008 66.8673 40.4075C62.0471 40.5733 58.2739 44.6152 58.4397 49.4354L58.4877 50.8978C58.5442 52.7038 58.6302 54.5068 58.716 56.3068L58.716 56.3068C58.8617 59.3634 59.007 62.4115 59.007 65.451L59.0273 76.475C59.0467 91.8487 59.0001 117.168 58.3173 124.501L58.2659 125.077C57.8221 130.273 57.4234 137.583 57.6511 147.009L57.6877 148.438C57.6916 148.579 57.6986 148.719 57.709 148.86C58.0772 153.841 62.4141 157.581 67.3959 157.213L68.7475 157.115L68.9714 157.099C69.0165 157.174 69.0623 157.25 69.1075 157.325C69.3264 157.686 69.5309 158.024 69.5785 158.189C69.6983 158.607 69.711 159.081 69.6417 160.152L69.5716 161.156L69.5525 161.482C69.4503 163.483 69.6815 164.674 70.6578 165.571C71.9136 166.724 73.2438 166.601 75.9696 166.351L76.092 166.34L76.7937 166.272C77.6047 166.193 78.5167 166.257 79.1381 166.3H79.1382C79.3171 166.312 79.4719 166.323 79.5933 166.328L79.8227 166.34C81.3867 166.402 81.6351 165.887 81.772 164.615C81.8474 163.913 81.7492 163.362 81.3371 161.938L81.0288 160.889L80.9264 160.524C80.4451 158.745 80.4891 157.857 81.1161 157.428C81.2683 157.324 81.9038 157.135 82.6367 156.917C83.3907 156.693 84.2477 156.438 84.7876 156.213C92.0556 155.914 99.3237 155.765 106.592 155.765C114.229 155.765 121.902 155.93 129.611 156.26C129.56 156.343 129.551 156.463 129.605 156.631C129.666 156.821 129.898 156.952 130.195 157.12C130.98 157.564 132.219 158.264 131.931 160.985L131.932 161.096C131.976 163.241 133.275 164.499 135.366 164.925C136.764 165.211 138.354 165.125 140.086 164.824C140.944 164.676 141.496 164.139 141.76 163.322C141.906 162.871 141.958 162.465 141.992 161.659C141.992 161.659 141.61 157.465 143.731 157.045C143.794 157.05 143.857 157.054 143.921 157.058C144.166 157.075 144.412 157.083 144.658 157.083C144.691 157.09 144.725 157.099 144.759 157.108C144.86 157.135 144.957 157.12 145.044 157.074C145.099 157.072 145.154 157.069 145.208 157.066C150.884 156.745 155.224 151.884 154.903 146.209L154.808 144.496C153.934 128.504 153.497 112.513 153.497 96.5222C153.497 85.6326 153.993 70.8014 154.983 52.0285L155.076 50.2754C155.091 50.0115 155.093 49.7472 155.085 49.483C154.925 44.3179 150.607 40.261 145.442 40.4215L142.169 40.5221C125.947 41.0139 114.274 41.2702 107.151 41.2909L106.01 41.2922C99.3603 41.287 88.6081 41.0579 73.754 40.6047ZM141.602 156.904C137.998 156.671 134.401 156.474 130.813 156.312C132.531 157.147 133.144 158.704 133.178 160.858L133.179 160.985C133.179 162.378 134.263 163.288 135.721 163.586C135.874 163.617 136.03 163.651 136.19 163.686C137.198 163.904 138.349 164.154 139.626 163.944L139.82 163.912C140.703 163.586 140.703 160.413 140.703 160.413C140.713 160.155 140.722 159.986 140.737 159.781L140.756 159.551C140.867 158.396 141.108 157.533 141.602 156.904ZM71.0775 157.759C70.9927 157.464 70.8718 157.203 70.7156 156.978C73.7754 156.771 76.8352 156.591 79.8951 156.437C79.417 156.969 79.3721 157.689 79.3545 158.549C79.3393 159.289 79.489 160.077 79.8039 161.187L79.8227 161.253L80.1108 162.233C80.4635 163.445 80.5695 163.951 80.5398 164.376L80.5334 164.448C80.491 164.842 79.9851 165.286 79.1303 165.236L78.9773 165.229C78.6109 165.173 75.0003 165.236 75.0003 165.236C73.3331 165.405 72.5304 165.173 71.7126 164.422C71.1635 163.918 71.0162 163.022 71.1244 161.309L71.1919 160.346C71.2766 159.089 71.2696 158.5 71.1112 157.883L71.0775 157.759ZM66.9209 41.966C67.08 41.9606 67.2392 41.9604 67.3983 41.9655L73.2008 42.148C87.4813 42.5858 98.0233 42.8193 104.833 42.8486L106.009 42.8516L107.153 42.8503C113.824 42.831 124.458 42.6059 139.063 42.1751L145.491 41.9802L145.62 41.9773C149.867 41.9141 153.394 45.2703 153.527 49.5315C153.533 49.7516 153.531 49.9719 153.519 50.1918C152.465 69.8221 151.938 85.2633 151.938 96.5222L151.939 98.2386C151.97 113.686 152.407 129.133 153.25 144.581L153.346 146.296L153.353 146.44C153.545 151.195 149.887 155.24 145.12 155.509C144.756 155.53 144.391 155.528 144.028 155.503C131.454 154.638 118.975 154.205 106.592 154.205C93.9399 154.205 81.2881 154.657 68.6365 155.56L67.2829 155.658L67.1593 155.666C63.0867 155.901 59.5659 152.826 59.2642 148.745C59.2556 148.629 59.2498 148.512 59.2466 148.396C58.9736 138.328 59.069 130.593 59.5293 125.207L59.6029 124.383C59.9843 119.977 60.1898 109.853 60.2659 95.4275L60.2854 90.8967C60.2995 86.6243 60.3025 82.2614 60.2972 77.4274L60.2735 63.9966C60.2598 59.6315 60.184 55.249 60.0464 50.8491L59.9983 49.3842L59.9952 49.2656C59.9241 45.3563 63.001 42.1008 66.9209 41.966ZM147.835 54.4946C147.835 51.0496 145.042 48.2568 141.597 48.2568L72.4466 48.2571L72.2792 48.2609C68.8854 48.3836 66.2043 51.2061 66.2699 54.6146C66.6118 72.3822 66.58 85.9104 66.1745 95.1991L66.058 97.7304C65.264 115.382 65.3177 129.887 66.219 141.248L66.277 141.961C66.5407 145.12 69.1321 147.58 72.3009 147.677L140.736 149.789C140.82 149.791 140.904 149.792 140.988 149.791C144.433 149.758 147.199 146.939 147.166 143.494C146.784 103.475 146.797 78.1028 147.205 67.3783L147.23 66.74C147.397 62.7532 147.564 59.3096 147.732 56.4093L147.823 54.8811C147.831 54.7525 147.835 54.6235 147.835 54.4946ZM72.5066 49.8162H141.597C144.181 49.8162 146.276 51.9108 146.276 54.4946C146.276 54.5913 146.273 54.688 146.267 54.7845C146.103 57.415 145.941 60.5552 145.778 64.2058L145.672 66.6748C145.26 76.5272 145.22 100.121 145.551 137.494L145.607 143.509C145.631 146.093 143.557 148.207 140.973 148.232C140.91 148.233 140.847 148.232 140.784 148.23L72.349 146.119L72.2459 146.114C69.9164 145.992 68.026 144.167 67.8311 141.832C66.8708 130.324 66.8065 115.458 67.6413 97.2421L67.7196 95.5565C68.1133 86.7916 68.1692 74.2222 67.8883 57.8387L67.8291 54.5846C67.7794 52.0013 69.8333 49.8668 72.4166 49.8171C72.4466 49.8165 72.4766 49.8162 72.5066 49.8162ZM70.1164 45.0336C70.2149 46.0938 69.4466 46.9446 68.4115 46.8734C67.4648 46.8082 66.6322 46.0523 66.5351 45.142L66.5293 45.0754C66.4691 44.1697 67.163 43.3997 68.094 43.301L68.1643 43.2948C69.1571 43.2265 70.0214 44.0112 70.1164 45.0336ZM68.2853 44.3824L68.225 44.3846C67.8503 44.4106 67.5861 44.7032 67.6205 45.0262C67.66 45.3959 68.0551 45.7546 68.4864 45.7843C68.8293 45.8079 69.0675 45.5441 69.0295 45.1346C68.9896 44.7052 68.653 44.3839 68.2853 44.3824ZM62.7663 53.3024C61.6871 53.3981 60.96 52.3599 61.0497 51.1148C61.1376 49.8944 61.9757 48.9136 63.0135 49.0056L63.0805 49.0129C64.0336 49.1369 64.6921 50.0745 64.6381 51.1255L64.6332 51.199C64.5443 52.2733 63.7387 53.2161 62.7663 53.3024ZM62.9334 50.0942L62.8804 50.0916C62.5494 50.0956 62.1853 50.543 62.1385 51.1932C62.0917 51.8429 62.3709 52.2416 62.6698 52.2151C63.0754 52.1791 63.4976 51.685 63.5453 51.109C63.5904 50.5637 63.2834 50.1255 62.9334 50.0942ZM143.571 45.0336C143.473 46.0938 144.241 46.9446 145.276 46.8734C146.223 46.8082 147.055 46.0523 147.152 45.142L147.158 45.0754C147.218 44.1697 146.524 43.3997 145.593 43.301L145.523 43.2948C144.53 43.2265 143.666 44.0112 143.571 45.0336ZM145.402 44.3824L145.463 44.3846C145.837 44.4106 146.101 44.7032 146.067 45.0262C146.028 45.3959 145.632 45.7546 145.201 45.7843C144.858 45.8079 144.62 45.5441 144.658 45.1346C144.698 44.7052 145.034 44.3839 145.402 44.3824ZM149.384 51.5181C148.804 50.6573 149.157 49.5665 150.124 49.1217C151.057 48.6928 152.169 49.049 152.606 49.9429L152.636 50.0068C153.016 50.8625 152.696 51.8484 151.882 52.2491L151.821 52.2774C150.984 52.6485 149.913 52.3053 149.384 51.5181ZM151.632 50.4353L151.604 50.3819C151.419 50.0642 150.972 49.9334 150.58 50.1135C150.207 50.2854 150.097 50.6235 150.289 50.9087C150.531 51.2674 151.039 51.4302 151.379 51.2795C151.676 51.1479 151.797 50.7727 151.632 50.4353ZM61.9954 144.947C61.2385 145.695 61.2801 146.841 62.1189 147.452C62.8859 148.01 64.0097 147.967 64.6692 147.332L64.7164 147.284C65.3447 146.629 65.3081 145.593 64.6584 144.919L64.6085 144.869C63.8919 144.179 62.7254 144.224 61.9954 144.947ZM63.8167 145.625L63.8615 145.665C64.1318 145.926 64.1461 146.32 63.9121 146.545C63.6443 146.803 63.111 146.824 62.7615 146.569C62.4837 146.367 62.4708 146.012 62.7632 145.723C63.0698 145.419 63.534 145.39 63.8167 145.625ZM68.9805 153.066C68.1417 152.455 68.1001 151.309 68.857 150.561C69.587 149.838 70.7535 149.793 71.4701 150.483L71.52 150.533C72.1697 151.207 72.2063 152.243 71.578 152.898L71.5308 152.946C70.8713 153.581 69.7475 153.624 68.9805 153.066ZM70.7231 151.279L70.6783 151.239C70.3956 151.004 69.9313 151.033 69.6248 151.337C69.3324 151.626 69.3453 151.981 69.6231 152.183C69.9726 152.438 70.5058 152.417 70.7737 152.159C71.0077 151.934 70.9934 151.54 70.7231 151.279ZM145.773 150.923C144.904 151.8 144.88 153.089 145.806 153.752C146.654 154.359 147.924 154.239 148.683 153.492C149.47 152.717 149.493 151.47 148.718 150.712C147.935 149.945 146.62 150.069 145.773 150.923ZM147.92 151.461L147.965 151.502C148.286 151.816 148.276 152.361 147.917 152.714C147.531 153.094 146.852 153.158 146.442 152.864C146.11 152.627 146.119 152.124 146.548 151.692C146.983 151.253 147.589 151.182 147.92 151.461ZM150.724 149.277C149.755 149.354 149.074 148.487 149.158 147.444C149.24 146.431 150.012 145.626 150.939 145.7C151.851 145.772 152.505 146.604 152.418 147.539C152.335 148.437 151.595 149.208 150.724 149.277ZM150.87 146.789L150.817 146.787C150.555 146.793 150.282 147.096 150.246 147.532C150.212 147.959 150.407 148.207 150.638 148.189C150.966 148.163 151.296 147.82 151.331 147.438C151.363 147.093 151.141 146.81 150.87 146.789Z" fill="#1A1A1A"/>
<path fill-rule="evenodd" clip-rule="evenodd" d="M68.8569 150.56C68.1 151.309 68.1416 152.455 68.9803 153.066C69.7474 153.624 70.8711 153.58 71.5307 152.945L71.5779 152.898C72.2062 152.243 72.1695 151.207 71.5198 150.533L71.47 150.483C70.7534 149.793 69.5869 149.838 68.8569 150.56ZM70.6782 151.238L70.7229 151.279C70.9933 151.54 71.0076 151.934 70.7736 152.159C70.5057 152.417 69.9725 152.438 69.623 152.183C69.3451 151.981 69.3322 151.626 69.6246 151.336C69.9312 151.033 70.3955 151.003 70.6782 151.238Z" fill="#1A1A1A"/>
<path d="M147.92 151.461L147.965 151.501C148.286 151.816 148.276 152.361 147.917 152.714C147.531 153.094 146.852 153.158 146.442 152.864C146.11 152.626 146.119 152.124 146.548 151.691C146.984 151.252 147.589 151.181 147.92 151.461Z" fill="#F9FCF8"/>
<path fill-rule="evenodd" clip-rule="evenodd" d="M79.0847 84.5233C78.7248 84.6484 78.4 84.818 77.9986 85.0651L77.6906 85.2583L77.5378 85.3557C75.212 86.857 73.6592 88.7239 72.5545 91.2522L72.4954 91.389L72.4512 91.3758C72.1579 91.2898 71.8922 91.2476 71.608 91.2712C71.0023 91.3216 70.4377 91.6845 70.236 92.361C69.921 93.4177 70.0511 94.626 70.46 95.8631L70.5367 96.0896C70.9357 97.2363 71.3773 98.0145 72.1115 98.2417C73.0876 98.5437 76.4599 97.2069 77.6358 95.9938C78.4746 95.1286 78.1386 94.0703 77.3403 93.4596L77.267 93.4054L77.1898 93.352L77.1023 93.2953L77.1609 93.1906C77.2017 93.1188 77.2444 93.0457 77.2889 92.9719C77.7658 92.1812 78.362 91.4335 78.9661 90.9044C79.1987 90.7006 79.4677 90.5138 79.7743 90.3395C80.2487 90.0699 82.1411 89.327 82.4597 89.0765C83.4829 88.2717 83.3645 87.1062 82.7174 86.096C82.3149 85.4676 81.6822 84.8788 81.0706 84.5827C80.4282 84.2715 79.7559 84.2902 79.0847 84.5233ZM80.4589 85.8458C81.182 86.196 82.2291 87.4722 81.592 87.9733C81.1601 88.313 79.3818 88.6743 78.0412 89.8487C76.4588 91.235 75.3197 93.469 75.3197 94.016L75.5002 94.0838C76.487 94.4636 76.863 94.7746 76.628 95.017C75.5815 96.0965 72.737 96.966 72.5264 96.9009C72.3191 96.8367 71.0919 94.4025 71.581 92.762C71.6463 92.5427 72.2145 92.7094 73.2853 93.262C74.2494 90.3976 75.6571 88.2444 78.2881 86.5419L78.6223 86.33C79.19 85.9737 79.8898 85.5702 80.4589 85.8458Z" fill="#1A1A1A"/>
<path fill-rule="evenodd" clip-rule="evenodd" d="M81.214 116.821C75.4366 110.507 75.1023 99.7366 81.3437 92.8005C85.2213 88.4913 94.3353 85.7157 100.713 87.263C104.143 88.0953 107.865 91.461 110.232 95.8835C112.891 100.852 113.571 106.497 111.721 111.718C110.316 115.682 107.779 118.446 104.407 120.094C101.714 121.41 98.6096 121.946 95.5862 121.819C90.1301 121.589 83.3457 119.151 81.214 116.821ZM108.857 96.6194C106.683 92.558 103.296 89.4944 100.345 88.7785L100.17 88.7373C94.3521 87.4178 85.9604 90.0013 82.5029 93.8436C76.811 100.169 77.1172 110.034 82.3645 115.768C84.1754 117.747 90.5735 120.047 95.6518 120.261C98.4318 120.378 101.282 119.885 103.722 118.693C106.734 117.221 108.986 114.769 110.251 111.197C111.945 106.416 111.32 101.221 108.857 96.6194ZM105.853 111.561C109.304 105.503 104.626 92.4213 98.0918 91.3297C91.9498 90.3035 89.6217 91.7933 86.9728 94.0903L86.4606 94.5395C81.2766 99.123 81.2766 108.969 86.3412 113.537C87.6139 114.685 93.2135 117.631 97.5105 116.73C100.36 116.132 104.325 114.244 105.853 111.561ZM91.4321 93.0385C91.7573 92.9219 92.1005 92.8258 92.4657 92.751C92.4164 92.8645 92.3745 92.985 92.3398 93.1123C92.1462 93.8245 92.1662 94.4338 92.3751 95.9168L92.5178 96.8996C92.53 96.9863 92.5408 97.0657 92.5516 97.147L92.583 97.397C92.8051 99.2746 92.6035 100.254 91.764 100.794C90.9958 101.288 90.2402 101.475 88.5145 101.676L87.8681 101.749C87.0721 101.841 86.6538 101.904 86.151 102.018L85.9233 102.064C85.2265 102.21 84.648 102.392 84.1989 102.621C84.4951 99.9392 85.5933 97.3879 87.4936 95.7078C89.2858 94.1232 90.19 93.4839 91.4321 93.0385ZM97.8349 92.8678C97.5825 92.8257 97.337 92.7879 97.0979 92.7545C97.1479 92.8813 97.1904 93.0161 97.2254 93.1585C97.3714 93.7533 97.3965 94.2814 97.3611 95.4845L97.3439 96.0036C97.3258 96.5032 97.3171 96.8004 97.3146 97.0859L97.3145 97.4282C97.3292 98.9502 97.5676 99.962 98.1529 100.647L98.2181 100.72L98.244 100.731C98.2802 100.746 98.326 100.762 98.3807 100.781L98.4383 100.799C98.5725 100.842 98.7406 100.89 98.9559 100.946L99.3159 101.038L100.853 101.414C101.155 101.489 101.423 101.558 101.68 101.626L102.103 101.74C103.374 102.09 104.348 102.431 105.056 102.811C103.998 98.0741 101.085 93.4109 97.8349 92.8678ZM105.227 106.295C105.314 106.239 105.397 106.183 105.476 106.125C105.514 107.892 105.218 109.526 104.498 110.789C103.465 112.603 100.595 114.33 97.7925 115.061C97.8634 114.883 97.9207 114.688 97.965 114.48C98.1013 113.841 98.1231 113.108 98.0694 112.07L98.0357 111.512L97.9848 110.778C97.8887 109.311 97.9121 108.697 98.0399 108.55C98.6152 107.889 99.4122 107.636 101.441 107.345L101.911 107.278C103.607 107.03 104.402 106.821 105.227 106.295ZM93.3073 114.302C93.3286 114.565 93.4161 114.833 93.5576 115.087C92.8385 114.935 92.0903 114.717 91.3277 114.437C89.622 113.813 87.9682 112.905 87.3857 112.379C85.5359 110.711 84.4713 108.193 84.1916 105.541C84.6708 105.762 85.3044 105.949 86.0912 106.135L86.2122 106.163C86.5298 106.237 86.8546 106.305 87.2379 106.381L88.3331 106.594C90.7848 107.098 92.0506 107.681 92.629 108.461L92.6871 108.543C93.0702 109.101 93.1762 109.734 93.207 111.376L93.2244 112.545C93.238 113.246 93.2596 113.71 93.3073 114.302ZM95.1515 92.8171L95.2219 92.8234C95.8838 92.9024 96.0238 93.5163 95.9455 95.8317L95.9191 96.6343C95.9128 96.8764 95.9101 97.0713 95.9102 97.2848C95.911 98.7366 96.0849 99.8644 96.5518 100.768C96.4646 100.721 96.3651 100.695 96.2595 100.695L96.1534 100.696L96.1269 100.697L96.1149 100.692C95.9359 100.626 95.7401 100.647 95.5819 100.74L95.5658 100.75L95.5109 100.759C94.1507 100.985 92.7987 101.798 92.0739 102.874C91.2963 104.029 91.3348 105.289 92.2218 106.368C91.3779 105.923 90.2578 105.566 88.7798 105.253L88.3028 105.157C88.022 105.103 87.6718 105.036 87.6721 105.036L87.3902 104.98C87.1178 104.926 86.8766 104.875 86.6448 104.823L86.5296 104.796C85.8257 104.633 85.2699 104.465 84.8813 104.29L84.8195 104.261C84.7 104.204 84.6051 104.15 84.5375 104.101L84.5286 104.094L84.5457 104.076C84.5938 104.029 84.6665 103.974 84.7659 103.917C85.1068 103.72 85.6682 103.54 86.4384 103.391L86.6332 103.349C86.9758 103.279 87.3117 103.229 87.836 103.166L88.6869 103.069C90.6222 102.844 91.5183 102.621 92.5235 101.974C93.9894 101.031 94.2691 99.5561 93.9601 97.0958L93.926 96.8362C93.9086 96.7089 93.8896 96.5764 93.8648 96.4069L93.768 95.7422C93.5943 94.5061 93.5695 93.9757 93.6834 93.5216L93.6942 93.4805C93.8333 92.9688 94.1879 92.7571 95.1515 92.8171ZM93.7018 107.554C93.7203 107.577 93.7385 107.601 93.7563 107.625C94.4194 108.519 94.5714 109.309 94.6099 111.326L94.6253 112.391C94.637 113.058 94.6544 113.497 94.6921 114.006L94.7063 114.189C94.7354 114.549 95.3507 115.122 96.0302 114.993C96.5599 114.892 96.7646 114.024 96.6649 112.094L96.6512 111.852L96.5738 110.719C96.4515 108.864 96.4901 108.248 96.9136 107.71C95.8986 108.092 94.7182 108.074 93.7018 107.554ZM98.5509 106.539C99.1802 106.301 99.9814 106.14 101.094 105.977L101.697 105.89C103.107 105.685 103.788 105.516 104.365 105.177L104.472 105.112C105.126 104.695 105.188 104.613 104.898 104.378L104.804 104.305C104.29 103.918 103.298 103.532 101.87 103.132L101.568 103.048C101.242 102.96 100.907 102.874 100.513 102.776L98.8715 102.374C98.5614 102.296 98.3134 102.231 98.1116 102.171C99.3801 103.512 99.59 105.022 98.7181 106.312L98.6689 106.383C98.631 106.436 98.5916 106.488 98.5509 106.539ZM95.761 101.982L95.8496 101.969L95.9125 102.007C97.9526 103.248 98.4067 104.599 97.6523 105.659C96.9019 106.714 95.2537 107.079 94.0711 106.329C92.7001 105.461 92.4723 104.516 93.1086 103.571C93.646 102.773 94.7204 102.142 95.761 101.982Z" fill="#1A1A1A"/>
<path d="M118.344 102.15C118.2 101.254 118.117 100.431 118.114 99.7997C118.638 99.7334 119.315 99.7028 120.124 99.7012C120.977 99.6994 121.894 99.7292 122.833 99.7617C122.891 99.7637 122.949 99.7658 123.007 99.7678C123.87 99.7978 124.759 99.8287 125.552 99.8296C126.438 99.8306 127.343 99.8337 128.256 99.8368C130.502 99.8444 132.803 99.8523 135.022 99.8295C135.137 99.8283 135.292 99.8251 135.481 99.8211C136.195 99.8063 137.386 99.7815 138.621 99.8213C139.399 99.8463 140.111 99.8954 140.658 99.9746C140.675 99.9771 140.692 99.9796 140.709 99.9821C140.717 100.029 140.725 100.08 140.733 100.135C140.828 100.785 140.835 101.662 140.73 102.563C140.628 103.435 140.44 104.158 140.241 104.618C136.433 104.945 130.441 104.814 125.481 104.706C124.903 104.694 124.339 104.681 123.793 104.67C123.038 104.654 122.274 104.705 121.609 104.757C121.433 104.77 121.265 104.784 121.105 104.797C120.618 104.836 120.192 104.871 119.772 104.889C119.426 104.903 119.151 104.902 118.935 104.89C118.925 104.857 118.916 104.823 118.907 104.788C118.713 104.076 118.501 103.124 118.344 102.15ZM141.264 100.101C141.264 100.101 141.256 100.098 141.243 100.093C141.258 100.098 141.265 100.101 141.264 100.101ZM140.591 99.5273C140.585 99.5153 140.582 99.5085 140.582 99.5082C140.582 99.5078 140.585 99.5138 140.591 99.5273ZM140.051 104.967C140.05 104.964 140.064 104.942 140.093 104.91C140.067 104.953 140.052 104.97 140.051 104.967ZM118.447 104.818C118.447 104.818 118.448 104.819 118.45 104.82C118.448 104.819 118.447 104.818 118.447 104.818Z" fill="#A9A9A9" stroke="#357A6A" stroke-width="5.36509"/>
<path fill-rule="evenodd" clip-rule="evenodd" d="M125.539 97.2984C126.438 97.2994 127.35 97.3025 128.268 97.3057C130.156 97.3121 132.067 97.3186 133.939 97.3069L134.978 97.2984C135.068 97.2975 135.2 97.2947 135.367 97.2912C136.929 97.2583 141.539 97.161 142.553 97.9305C144.211 99.1893 143.551 107.114 141.18 107.372C137.244 107.8 130.631 107.654 125.425 107.54C124.837 107.527 124.267 107.515 123.722 107.503C122.964 107.488 122.148 107.554 121.342 107.619C119.536 107.766 117.781 107.908 116.847 107.114C116.366 106.705 114.511 98.9161 115.955 97.8464C117.059 97.0289 120.225 97.1389 123.069 97.2377C123.775 97.2623 124.461 97.2861 125.091 97.2949L125.093 97.294L125.093 97.2949C125.245 97.297 125.394 97.2983 125.539 97.2984ZM123.637 98.8173C123.79 98.8224 123.93 98.8269 124.06 98.8309C124.165 99.4767 124.177 100.611 124.101 102.283L124.046 103.492C123.996 104.621 123.978 105.389 124.011 105.95L123.644 105.942C123.132 105.936 122.614 105.959 121.902 106.011L120.846 106.093C119.291 106.208 118.485 106.191 118.079 106.047L118.05 106.036L118.026 105.967C117.96 105.772 117.885 105.522 117.806 105.234L117.756 105.045C117.554 104.274 117.36 103.36 117.219 102.48C117.046 101.407 116.959 100.446 116.977 99.7265L116.98 99.6347C116.989 99.3951 117.01 99.1967 117.04 99.0485L117.045 99.0235L117.098 99.0058C117.366 98.9211 117.84 98.8345 118.474 98.7849C119.264 98.7232 120.205 98.7154 121.511 98.7486L122.613 98.7823L123.637 98.8173ZM128.608 106.046L125.593 105.983C125.577 105.806 125.565 105.589 125.561 105.338L125.56 105.284C125.555 104.889 125.563 104.511 125.591 103.849L125.678 101.9C125.732 100.56 125.733 99.5883 125.645 98.8578L132.096 98.8727C132.441 98.8724 132.773 98.8717 133.095 98.8705C132.996 100.811 133.153 104.205 133.355 106.1C132.811 106.099 132.246 106.096 131.659 106.09L130.544 106.078C129.93 106.07 129.302 106.059 128.608 106.046ZM134.939 106.095C137.335 106.074 139.259 105.997 140.751 105.849L140.891 105.834L140.909 105.815C140.989 105.725 141.082 105.58 141.177 105.386L141.212 105.311C141.492 104.705 141.714 103.822 141.828 102.845C141.942 101.879 141.941 100.899 141.828 100.125C141.776 99.7677 141.703 99.4747 141.621 99.2698L141.597 99.2146L141.58 99.1782L141.518 99.1588C141.351 99.1094 141.122 99.062 140.841 99.0202C140.289 98.9378 139.577 98.8829 138.745 98.8536C137.97 98.8265 137.184 98.8224 136.302 98.8341L134.994 98.8578L134.623 98.8608C134.611 99.0717 134.602 99.3224 134.598 99.6034L134.597 99.6947C134.591 100.455 134.618 101.412 134.672 102.473L134.683 102.686C134.728 103.518 134.787 104.378 134.85 105.133L134.889 105.574C134.906 105.762 134.923 105.936 134.939 106.095ZM128.071 101.492L128.214 101.696C128.376 101.925 128.529 102.127 128.675 102.306C128.479 102.733 128.376 103.213 128.344 103.831C128.332 104.055 128.505 104.247 128.73 104.259C128.954 104.27 129.146 104.098 129.158 103.873C129.176 103.517 129.22 103.224 129.297 102.963C129.748 103.358 130.143 103.504 130.558 103.512L130.638 103.512C130.863 103.512 131.045 103.329 131.045 103.105C131.045 102.894 130.885 102.72 130.68 102.699L130.638 102.697L130.57 102.697C130.304 102.691 130.036 102.579 129.671 102.211C129.79 102.045 129.933 101.88 130.104 101.704L130.541 101.272C130.701 101.114 130.702 100.856 130.544 100.696C130.385 100.536 130.127 100.535 129.968 100.693L129.602 101.054C129.424 101.231 129.268 101.402 129.132 101.574L128.984 101.373C128.907 101.267 128.827 101.153 128.743 101.031C128.616 100.845 128.362 100.798 128.177 100.925C127.991 101.053 127.944 101.306 128.071 101.492ZM139.194 101.104L139.198 100.855C139.2 100.63 139.019 100.447 138.794 100.445C138.569 100.443 138.385 100.624 138.383 100.849C138.381 101.096 138.375 101.318 138.365 101.516C138.156 101.45 137.931 101.396 137.684 101.348L137.179 101.254C136.958 101.212 136.745 101.357 136.703 101.578C136.661 101.799 136.807 102.012 137.028 102.054L137.631 102.168C137.872 102.218 138.083 102.275 138.274 102.346C138.177 102.855 138.018 103.098 137.801 103.252L137.744 103.29L137.711 103.315C137.552 103.447 137.516 103.68 137.634 103.855C137.76 104.042 138.013 104.091 138.2 103.965L138.266 103.92C138.606 103.682 138.851 103.34 139.005 102.761C139.215 102.933 139.415 103.152 139.629 103.437C139.764 103.617 140.02 103.653 140.2 103.517C140.379 103.382 140.415 103.127 140.28 102.947C139.908 102.453 139.554 102.112 139.152 101.868C139.174 101.638 139.187 101.384 139.194 101.104Z" fill="#1A1A1A"/>
<path fill-rule="evenodd" clip-rule="evenodd" d="M121.423 101.069L121.359 101.309C121.285 101.58 121.21 101.822 121.134 102.04C121.464 102.375 121.725 102.79 121.967 103.36C122.054 103.567 121.958 103.806 121.751 103.894C121.544 103.982 121.305 103.885 121.217 103.678C121.077 103.35 120.936 103.089 120.774 102.871C120.485 103.396 120.165 103.668 119.777 103.817L119.702 103.845C119.491 103.922 119.257 103.813 119.18 103.601C119.108 103.403 119.199 103.185 119.385 103.096L119.423 103.079L119.488 103.056C119.736 102.959 119.949 102.762 120.166 102.292C119.997 102.176 119.806 102.07 119.585 101.964L119.027 101.707C118.823 101.613 118.733 101.371 118.828 101.167C118.922 100.962 119.164 100.873 119.368 100.967L119.835 101.18C120.063 101.287 120.268 101.394 120.454 101.508C120.512 101.318 120.572 101.105 120.634 100.865C120.69 100.647 120.913 100.516 121.13 100.573C121.348 100.629 121.479 100.851 121.423 101.069Z" fill="#93BCB2"/>
</svg>
