<svg width="200" height="200" viewBox="0 0 218 218" fill="none" xmlns="http://www.w3.org/2000/svg">
<rect width="218" height="218" rx="109" fill="#F9FCF8"/>
<path fill-rule="evenodd" clip-rule="evenodd" d="M185.326 175.052C180.961 136.94 205.617 59.8891 167.711 39.2789C108.912 7.30795 23.1832 51.9624 29.063 124.068C33.2204 175.052 190.263 218.152 185.326 175.052Z" fill="#93BCB2"/>
<path d="M128.176 57.0947C128.03 56.6669 127.862 56.2753 127.807 55.8684C127.694 55.0309 127.602 54.1868 127.571 53.3428C127.505 51.5915 127.484 49.5478 127.446 47.7954C127.441 47.5283 127.388 47.2551 127.818 47.24C128.249 47.2248 130.306 45.9125 130.306 46.9088C130.306 48.9768 130.594 52.142 130.775 54.174C130.833 54.8306 131.106 55.3656 131.12 56.128C131.144 57.413 128.875 57.0796 128.176 57.0947Z" fill="#F9FCF8"/>
<path fill-rule="evenodd" clip-rule="evenodd" d="M99.5014 38.4199C99.0502 38.4589 98.5994 38.5265 98.1477 38.5322C95.3468 38.5678 92.5455 38.5866 89.7446 38.6218C89.5768 38.6239 88.8277 38.6261 88.6599 38.6283C87.9251 38.6381 87.1904 38.6491 86.4556 38.6621C86.112 38.6681 86.3498 38.6785 86.0063 38.6919C84.7848 38.7397 83.564 38.8256 82.3428 38.8881C81.6576 38.9231 80.9716 38.9507 80.288 39.0071C78.5017 39.1545 69.741 39.611 67.9547 39.7592C67.5332 39.7942 67.2912 39.899 67.3261 40.418C67.4047 41.5872 67.4346 63.1074 67.4441 64.2795C67.4469 64.6236 67.5424 64.6995 67.8617 64.6724C68.9384 64.581 76.9929 64.2197 78.0708 64.1432C79.1875 64.0639 80.3037 63.9764 81.4212 63.9117C82.9464 63.8234 84.4728 63.7566 85.9981 63.6717C86.2172 63.6595 86.4323 63.5881 86.6512 63.5601C87.5956 63.4394 88.5392 63.3108 89.4859 63.2118C90.406 63.1156 91.3285 63.0363 92.2518 62.9774C94.2476 62.85 96.2435 62.7148 98.2414 62.6311C100.035 62.556 101.831 62.5466 103.626 62.5063C105.304 62.4687 106.983 62.4259 108.661 62.3905C110.651 62.3484 112.64 62.3068 114.63 62.2741C117.302 62.2302 119.973 62.2012 122.645 62.1533C123.973 62.1296 125.3 62.0803 126.628 62.0384C127.761 62.0027 128.893 61.9469 130.026 61.9251C132.542 61.8768 135.058 61.8415 137.573 61.8061C140.556 61.764 143.54 61.7461 146.522 61.6821C148.614 61.6372 153.901 61.5362 155.991 61.4439C156.093 61.4394 156.272 61.2798 156.274 61.1895C156.294 60.1967 156.286 38.8566 156.287 37.8634C156.288 37.4425 156.044 37.2049 155.665 37.1423C155.219 37.0689 154.764 37.0355 154.312 37.0212C152.771 36.9723 148.031 36.9014 146.489 36.9073C140.896 36.929 135.304 36.9723 129.711 37.0199C129.088 37.0253 128.466 37.0304 127.843 37.036C125.619 37.0561 123.394 37.0827 121.171 37.1475C119.796 37.1876 118.425 37.3775 117.051 37.4825C115.386 37.6096 113.72 37.7196 112.055 37.835C111.448 37.8771 110.84 37.9125 110.233 37.9526C108.471 38.0689 106.709 38.2168 104.945 38.2944C103.171 38.3725 101.394 38.3809 99.5014 38.4199Z" fill="#F9FCF8"/>
<path fill-rule="evenodd" clip-rule="evenodd" d="M64.3813 29.48C63.6075 29.405 62.8411 29.2543 62.0717 29.1354C62.0193 29.1273 61.97 29.0995 61.9193 29.0809C61.9676 29.0606 62.0145 29.0347 62.0648 29.0218C62.1013 29.0123 62.1422 29.0207 62.1812 29.0198C63.8402 28.981 65.4997 28.954 67.1582 28.9C69.1522 28.8351 71.1455 28.7497 73.1389 28.668C73.9022 28.6368 74.6647 28.5832 75.4281 28.5543C76.6389 28.5083 77.8502 28.4774 79.0611 28.4346C80.0385 28.4001 81.0156 28.3553 81.993 28.3191C84.1423 28.2397 86.2918 28.1653 88.4411 28.0836C89.2628 28.0524 90.0837 27.9977 90.9056 27.9701C92.2917 27.9236 93.6783 27.894 95.0645 27.8499C96.081 27.8175 97.0969 27.7704 98.1133 27.735C99.3242 27.6929 100.535 27.6597 101.746 27.6163C102.685 27.5827 103.623 27.5312 104.561 27.5024C106.064 27.4564 107.568 27.4259 109.071 27.3826C110.243 27.3489 111.415 27.304 112.587 27.2672C113.896 27.2262 115.204 27.1889 116.513 27.1499C117.821 27.1109 119.129 27.0711 120.438 27.0333C121.824 26.9932 123.211 26.9557 124.597 26.916C125.932 26.8778 127.266 26.8363 128.601 26.7998C130.104 26.7586 131.607 26.7215 133.11 26.6823C134.594 26.6436 136.078 26.6037 137.562 26.5657C139.123 26.5258 140.685 26.488 142.247 26.4485C143.769 26.4101 145.293 26.3844 146.815 26.3273C147.976 26.2838 149.136 26.1956 150.298 26.1391C150.47 26.1308 150.645 26.2135 150.818 26.211C153.218 26.1778 155.617 26.1407 158.016 26.0968C159.812 26.064 161.607 26.0186 163.403 25.9815C165.373 25.9408 167.344 25.8898 169.315 25.8685C170.337 25.8594 171.01 26.3208 171.251 27.2856C171.371 27.7664 171.308 28.2951 171.311 28.8022C171.321 30.1057 171.336 31.4094 171.319 32.7127C171.309 33.5245 171.244 34.3356 171.206 35.1471C171.198 35.3015 171.197 35.4563 171.197 35.6109C171.196 37.3123 171.21 39.0138 171.193 40.715C171.165 43.6987 171.121 46.6823 171.079 49.6659C171.043 52.1431 171.001 54.6202 170.963 57.0974C170.923 59.6135 170.885 62.1297 170.846 64.6458C170.807 67.123 170.773 69.6003 170.727 72.0773C170.699 73.5418 170.641 75.0057 170.615 76.4702C170.598 77.4895 170.623 78.5094 170.61 79.5289C170.577 82.0451 170.54 84.5613 170.493 87.0772C170.466 88.5223 170.407 89.9667 170.382 91.4117C170.364 92.4505 170.393 93.49 170.375 94.5288C170.35 95.9544 170.289 97.3793 170.265 98.8048C170.247 99.902 170.276 101 170.257 102.097C170.235 103.406 170.171 104.714 170.148 106.023C170.129 107.081 170.155 108.14 170.142 109.198C170.11 111.773 170.069 114.347 170.027 116.922C169.991 119.126 169.954 121.331 169.909 123.535C169.877 125.136 169.821 126.736 169.797 128.337C169.779 129.571 169.809 130.805 169.79 132.039C169.77 133.308 169.701 134.577 169.681 135.847C169.662 137.061 169.692 138.276 169.672 139.49C169.654 140.643 169.583 141.795 169.564 142.948C169.545 144.182 169.572 145.416 169.557 146.65C169.527 149.205 169.484 151.76 169.443 154.315C169.406 156.558 169.407 158.804 169.314 161.045C169.225 163.2 169.721 165.199 170.793 167.039C171.885 168.914 173.055 170.743 174.215 172.577C175.362 174.389 176.369 176.276 176.902 178.357C177.283 179.842 177.339 181.384 176.911 182.888C176.765 183.402 175.875 186.949 176.632 187.87C177.605 189.053 178.834 189.584 180.348 189.618C181.824 189.652 183.226 189.293 184.64 188.966C186.36 188.567 188.087 188.28 189.818 188.908C190.68 189.221 191.457 189.663 191.966 190.46C192.044 190.582 192.232 190.786 191.821 190.788C190.824 190.793 189.827 190.855 188.83 190.894C186.837 190.972 184.843 191.052 182.85 191.127C181.697 191.17 180.545 191.207 179.392 191.244C178.103 191.285 176.814 191.325 175.525 191.361C174.022 191.402 172.519 191.443 171.015 191.477C169.142 191.52 167.269 191.56 165.395 191.594C163.094 191.637 160.792 191.678 158.49 191.711C155.428 191.755 152.367 191.785 149.305 191.83C147.218 191.861 145.13 191.908 143.043 191.945C142.685 191.951 142.328 191.943 141.971 191.946C137.662 191.984 133.354 192.024 129.046 192.062C128.669 192.065 128.292 192.06 127.916 192.063C123.51 192.101 119.104 192.141 114.699 192.179C114.303 192.182 113.906 192.176 113.51 192.18C109.143 192.218 104.777 192.258 100.41 192.296C100.033 192.299 99.6566 192.293 99.2798 192.297C94.8742 192.335 90.4687 192.374 86.0631 192.413C85.7058 192.416 85.3484 192.411 84.9911 192.414C80.5856 192.452 76.18 192.491 71.7744 192.53C71.3976 192.533 71.0208 192.527 70.644 192.531C66.2384 192.569 61.8328 192.608 57.4272 192.647C57.0894 192.65 56.7516 192.644 56.4138 192.647C51.9302 192.686 47.4467 192.725 42.9633 192.766C42.8917 192.767 42.8204 192.803 42.749 192.852C42.749 192.881 42.6906 192.881 42.6614 192.881C42.5039 192.842 42.3759 192.771 42.2472 192.769C41.3708 192.759 40.4941 192.766 39.6176 192.761C39.5339 192.761 39.4503 192.72 39.3667 192.698C39.4375 192.681 39.5088 192.666 39.5791 192.647C41.4537 192.141 43.3152 191.576 45.2078 191.15C46.2806 190.909 47.4026 190.871 48.5059 190.784C49.4415 190.711 50.3818 190.686 51.3205 190.666C51.6762 190.659 51.6467 190.579 51.5531 190.27C51.1595 188.968 50.7069 187.667 50.4983 186.332C50.3251 185.222 50.4194 184.062 50.4775 182.928C50.5191 182.116 50.6377 181.296 50.829 180.505C51.0492 179.595 51.3397 178.695 51.6836 177.823C52.591 175.523 54.2049 173.727 55.8731 171.953C56.8701 170.893 57.7747 169.728 58.5913 168.523C59.0851 167.794 59.3507 166.905 59.347 165.978C59.3412 164.517 59.3597 163.056 59.3421 161.595C59.3161 159.43 59.2705 157.264 59.2277 155.099C59.1933 153.362 59.1398 151.625 59.1141 149.888C59.0668 146.69 59.0517 143.491 58.9876 140.294C58.9535 138.593 58.8064 136.894 58.7817 135.193C58.7607 133.748 58.8883 132.301 58.8669 130.855C58.8364 128.801 58.7255 126.748 58.6612 124.694C58.6539 124.46 58.7581 124.223 58.7563 123.988C58.7238 119.504 58.6651 115.021 58.6489 110.537C58.6293 105.115 58.6592 99.6932 58.6396 94.2713C58.6236 89.8461 58.5346 85.421 58.5359 80.9958C58.5374 76.1421 58.6128 71.2884 58.6413 66.4347C58.6575 63.6815 58.6295 60.928 58.649 58.1749C58.6641 56.0481 58.7249 53.9217 58.7595 51.7951C58.77 51.1457 58.7544 50.496 58.7623 49.8466C58.7986 46.8434 58.8453 43.8403 58.8753 40.837C58.8904 39.3306 58.8628 37.8237 58.8824 36.3173C58.9007 34.9112 58.9563 33.5056 58.9944 32.0997C58.999 31.9303 58.997 31.7607 58.9981 31.5912C59.036 31.779 59.0864 31.9653 59.1097 32.1549C59.2694 33.4534 59.4279 34.7521 59.5769 36.0519C59.6306 36.5211 59.6625 36.993 59.6951 37.4643C59.7762 38.6395 59.851 39.8151 59.9301 40.9905C60.0461 42.7148 67.0904 44.2971 67.106 44.1088C67.1683 44.2894 67.2349 44.4686 67.2924 44.6507C67.8142 46.3008 68.1411 47.9864 68.3607 49.706C68.6725 52.1465 68.6979 54.5915 68.6977 57.0428C68.6946 88.911 68.6973 120.779 68.6808 152.648C68.6805 153.162 68.8388 153.367 69.3042 153.502C70.8319 153.943 72.4029 154.103 73.9609 153.938C76.9076 153.626 82.191 152.59 84.511 150.663C86.3643 149.124 87.6836 147.241 88.4678 145C88.7744 144.124 88.8443 143.155 88.9481 142.221C89.0429 141.366 89.1277 140.493 89.0567 139.642C88.9362 138.197 88.7045 136.76 88.4916 135.324C88.3183 134.155 88.0707 132.996 87.916 131.825C87.6904 130.118 87.4706 128.407 87.3384 126.691C87.2276 125.252 87.1222 123.793 87.2327 122.36C87.4584 119.432 87.9156 116.531 88.7237 113.695C89.5875 110.663 90.7914 107.77 92.2889 105.004C93.403 102.946 94.6793 100.984 96.2138 99.2103C97.4032 97.836 98.6393 96.5004 99.8931 95.1842C100.427 94.6236 101.07 94.1686 101.645 93.6447C103.829 91.653 105.428 89.1977 107.079 86.7813C108.367 84.8954 106.977 82.9573 108.392 81.1699C110.255 78.816 112.541 76.9501 115.511 76.1293C116.603 75.8275 117.727 75.6341 118.842 75.4237C121.211 74.9769 123.611 75.0042 126 75.0885C128.483 75.176 130.842 75.8017 132.961 77.1717C134.708 78.3005 135.975 79.8836 137.056 81.6094C138.318 83.6266 139.511 85.6889 140.685 87.7599C142.193 90.4227 143.658 93.1106 145.131 95.7936C145.923 97.2365 146.703 98.686 147.47 100.142C149.061 103.164 155.132 115.065 156.588 117.988C156.642 118.097 156.709 118.2 156.77 118.306C156.826 118.173 156.923 118.043 156.931 117.907C157.019 116.401 157.094 114.895 157.171 113.388C157.25 111.823 157.328 110.258 157.404 108.693C157.484 107.05 157.563 105.407 157.638 103.764C157.719 101.985 157.797 100.205 157.872 98.426C157.953 96.4715 158.029 94.5168 158.106 92.5622C158.146 91.5265 158.186 90.4908 158.223 89.4549C158.263 88.3024 158.301 87.1497 158.34 85.9971C158.379 84.8639 158.421 83.7309 158.456 82.5976C158.498 81.2503 158.535 79.9028 158.573 78.5554C158.613 77.169 158.654 75.7827 158.69 74.3962C158.732 72.7567 158.771 71.1171 158.807 69.4774C158.848 67.6041 158.89 65.7308 158.923 63.8573C158.967 61.3996 158.997 58.9417 159.043 56.4841C159.071 55.0002 159.14 53.5167 159.153 52.0327C159.172 49.8445 159.144 47.6559 159.163 45.4677C159.175 44.0616 159.238 42.656 159.271 41.25C159.274 41.1088 159.224 40.9663 159.199 40.8244C159.079 40.9113 158.941 40.9814 158.842 41.0875C158.082 41.9004 157.121 42.1904 156.04 42.2321C154.377 42.2962 152.807 41.8057 151.212 41.4661C149.684 41.1408 148.148 40.7767 146.582 40.9638C145.651 41.0749 144.728 41.3534 143.835 41.6552C142.395 42.1418 141.024 41.9943 139.659 41.4103C138.336 40.8437 137.024 40.2425 135.676 39.7429C134.462 39.2933 133.174 39.2977 131.996 39.8111C131.422 40.0618 130.845 40.5994 130.556 41.1561C129.882 42.4581 128.864 43.0638 127.465 43.2938C125.62 43.5973 123.994 42.9771 122.354 42.3037C121.022 41.757 119.703 41.1412 118.323 40.756C116.481 40.2419 114.788 40.7997 113.261 41.8985C112.301 42.5893 111.396 43.384 110.363 43.9385C108.977 44.6822 106.957 44.7892 105.863 43.5619C105.672 43.3472 105.477 43.0898 105.407 42.8201C105.132 41.7527 104.44 41.5228 103.481 41.4119C102.098 41.2523 101.083 41.9957 100.081 42.7982C99.1525 43.541 98.2873 44.3674 97.0258 44.5997C96.0245 44.7841 95.0833 44.6529 94.1954 44.2713C92.69 43.6242 91.2129 42.9069 89.7477 42.1716C88.4373 41.5138 87.0369 41.1864 85.6305 41.4549C84.7245 41.6278 83.8714 42.1913 83.0523 42.6771C82.0588 43.2663 81.171 44.0416 80.157 44.5869C78.4124 45.5249 76.8491 45.546 74.6147 45.1799C72.3803 44.8137 66.9898 41.3215 66.7201 40.9638C66.6825 40.914 65.8498 29.6224 64.3813 29.48Z" fill="#F9FCF8"/>
<path fill-rule="evenodd" clip-rule="evenodd" d="M98.2306 148.162C97.7497 144.642 97.6174 141.413 97.8339 138.473C98.0504 135.534 98.7175 131.209 99.8353 125.498C97.6976 131.131 96.4272 135.456 96.0239 138.473C95.6207 141.49 95.8546 145.08 96.7257 149.242L98.2306 148.162Z" fill="#93BCB2"/>
<path fill-rule="evenodd" clip-rule="evenodd" d="M129.669 105.78C131.787 105.578 133.127 106 133.53 107.199C134.211 109.227 129.247 111.938 127.496 111.775C126.882 111.212 132.979 109.69 132.428 107.57C132.288 107.03 131.42 106.781 129.779 106.937C129.46 106.968 129.176 106.734 129.145 106.414C129.115 106.094 129.349 105.811 129.669 105.78Z" fill="#1A1A1A"/>
<path fill-rule="evenodd" clip-rule="evenodd" d="M140.118 159.985C139.963 159.616 140.183 157.32 141.401 155.122C143.417 151.481 152.188 150.274 155.472 146.961C159.638 142.757 157.876 137.823 157.65 137.363C157.596 137.253 157.575 137.126 157.539 137.007C157.635 137.07 157.748 137.117 157.825 137.198C159.184 138.623 160.083 140.312 160.498 142.221C160.943 144.266 161.087 146.336 160.081 148.28C159.86 148.707 159.411 149.05 159 149.335C157.76 150.196 151.682 152.578 149.982 152.919C148.342 153.248 146.92 154.006 145.411 154.602C144.483 154.968 143.979 155.818 143.252 156.409C142.486 157.033 142.265 157.796 142.334 158.717C142.354 158.988 142.326 159.263 142.339 159.535C142.42 161.285 140.596 161.123 140.118 159.985Z" fill="#93BCB2"/>
<path fill-rule="evenodd" clip-rule="evenodd" d="M105.128 111.325C105.963 111.325 106.274 110.675 105.831 109.872C105.398 109.069 104.55 108.419 103.928 108.419C103.306 108.419 102.974 109.069 103.194 109.872C103.423 110.675 104.293 111.325 105.128 111.325Z" fill="#357A6A"/>
<path fill-rule="evenodd" clip-rule="evenodd" d="M170.477 25.5778C171.5 25.5687 172.172 26.0302 172.413 26.995C172.533 27.4757 172.47 28.0044 172.474 28.5116C172.483 29.8151 172.498 31.1188 172.481 32.4221C172.471 33.2339 172.407 34.045 172.368 34.8565C172.361 35.0109 172.359 35.1657 172.359 35.3203C172.359 37.0217 172.372 38.7231 172.356 40.4243C172.327 43.4081 172.283 46.3917 172.241 49.3752C172.206 51.8525 172.164 54.3296 172.125 56.8068C172.086 59.3229 172.047 61.839 172.008 64.3552C171.969 66.8323 171.936 69.3096 171.889 71.7866C171.862 73.2511 171.803 74.715 171.778 76.1795C171.76 77.1988 171.785 78.2188 171.772 79.2382C171.74 81.7544 171.702 84.2706 171.655 86.7866C171.628 88.2316 171.569 89.676 171.544 91.1211C171.526 92.1598 171.555 93.1994 171.537 94.2382C171.512 95.6637 171.451 97.0886 171.427 98.5142C171.409 99.6114 171.439 100.709 171.42 101.807C171.397 103.115 171.334 104.423 171.311 105.732C171.292 106.79 171.318 107.849 171.305 108.908C171.272 111.482 171.231 114.057 171.189 116.631C171.154 118.836 171.116 121.04 171.072 123.245C171.04 124.845 170.984 126.446 170.96 128.047C170.941 129.28 170.971 130.515 170.952 131.748C170.932 133.018 170.864 134.287 170.844 135.557C170.824 136.771 170.855 137.986 170.835 139.2C170.816 140.353 170.745 141.505 170.727 142.658C170.707 143.891 170.735 145.125 170.72 146.359C170.689 148.914 170.646 151.469 170.605 154.024C170.569 156.268 170.57 158.513 170.477 160.754C170.387 162.909 170.884 164.908 171.956 166.748C173.048 168.623 174.217 170.452 175.378 172.286C176.525 174.099 177.531 175.986 178.065 178.066C178.445 179.552 178.501 181.093 178.074 182.597C177.928 183.111 177.037 186.658 177.795 187.58C178.767 188.762 179.997 189.293 181.511 189.328C182.987 189.361 184.388 189.002 185.803 188.675C187.522 188.277 189.249 187.989 190.981 188.618C191.842 188.93 192.619 189.372 193.129 190.169C193.206 190.291 193.395 190.495 192.983 190.497C191.986 190.503 190.99 190.564 189.993 190.603C187.999 190.681 186.006 190.761 184.012 190.836C182.86 190.879 181.707 190.917 180.555 190.953C179.266 190.994 177.977 191.034 176.688 191.07C175.184 191.112 173.681 191.152 172.178 191.187C170.305 191.229 168.431 191.269 166.558 191.304C164.256 191.346 161.954 191.387 159.652 191.42C156.591 191.464 153.529 191.495 150.468 191.54C148.38 191.57 146.293 191.617 144.205 191.654C143.848 191.66 143.49 191.652 143.133 191.655C138.825 191.694 134.517 191.733 130.209 191.771C129.832 191.775 129.455 191.769 129.078 191.772C124.673 191.811 120.267 191.85 115.861 191.888L114.673 191.889C110.306 191.927 105.939 191.967 101.573 192.005C101.196 192.009 100.819 192.003 100.442 192.006C96.0368 192.044 91.6312 192.084 87.2256 192.122C86.8683 192.125 86.5109 192.12 86.1537 192.123C81.7481 192.161 77.3425 192.201 72.9369 192.239C72.5601 192.242 72.1833 192.237 71.8065 192.24C67.4009 192.278 62.9953 192.318 58.5897 192.356C58.2519 192.359 57.9141 192.354 57.5763 192.357C53.0928 192.395 48.6092 192.434 44.1258 192.476C44.0542 192.476 43.9829 192.512 43.9115 192.561C43.9115 192.59 43.8531 192.59 43.8239 192.59C43.6664 192.551 43.5385 192.48 43.4097 192.478C42.5333 192.468 41.6567 192.475 40.7801 192.47C40.6964 192.47 40.6128 192.43 40.5292 192.408C40.6 192.391 40.6713 192.375 40.7416 192.356C42.6162 191.85 44.4777 191.286 46.3703 190.859C47.4431 190.618 48.5651 190.58 49.6684 190.493C50.604 190.42 51.5443 190.396 52.483 190.376C52.8387 190.368 52.8092 190.289 52.7157 189.979C52.322 188.678 51.8694 187.377 51.6609 186.041C51.4876 184.931 51.5819 183.771 51.64 182.638C51.6817 181.825 51.8002 181.005 51.9915 180.215C52.2118 179.304 52.5022 178.404 52.8461 177.532C53.7536 175.233 55.3674 173.436 57.0356 171.662C58.0326 170.602 58.9372 169.438 59.7538 168.232C60.2476 167.503 60.5132 166.614 60.5095 165.688C60.5037 164.227 60.5222 162.766 60.5047 161.305C60.4786 159.139 60.433 156.974 60.3902 154.808C60.3558 153.071 60.3023 151.334 60.2766 149.597C60.2294 146.399 60.2142 143.201 60.1501 140.003C60.116 138.302 59.969 136.603 59.9442 134.903C59.9232 133.457 60.0508 132.01 60.0294 130.565C59.9989 128.511 59.888 126.458 59.8238 124.404C59.8164 124.17 59.9206 123.933 59.9189 123.697C59.8864 119.214 59.8276 114.73 59.8114 110.246C59.7918 104.825 59.8217 99.4025 59.8021 93.9807C59.7861 89.5554 59.6971 85.1303 59.6984 80.7052C59.6999 75.8515 59.7753 70.9978 59.8038 66.144C59.82 63.3909 59.792 60.6374 59.8115 57.8843C59.8266 55.7575 59.8874 53.6311 59.922 51.5044C59.9325 50.8551 59.9169 50.2054 59.9248 49.5559C59.9611 46.5527 60.0078 43.5497 60.0379 40.5464C60.0529 39.04 60.0253 37.533 60.0449 36.0267C60.0632 34.6206 60.1188 33.2149 60.1569 31.8091C60.1615 31.6397 60.1595 31.4701 60.1606 31.3006C60.1985 31.4884 60.2489 31.6746 60.2722 31.8642C60.4319 33.1628 60.5904 34.4615 60.7394 35.7613C60.7931 36.2304 60.825 36.7023 60.8576 37.1736C60.9387 38.3488 61.0135 39.5245 61.0926 40.6999C61.2086 42.4241 61.3339 44.1478 61.4406 45.8727C61.5302 47.3201 61.6101 48.7683 61.674 50.2171C61.7628 52.2297 61.8368 54.243 61.909 56.2562C61.9559 57.5644 62.0139 58.8729 62.0231 60.1816C62.0712 67.0416 62.1069 73.9017 62.1431 80.7618C62.1513 82.3268 62.1578 83.892 62.1412 85.4569C62.1134 88.0706 62.0671 90.6841 62.0272 93.2976C61.9893 95.7749 61.9557 98.2522 61.9078 100.729C61.8844 101.941 61.8278 103.151 61.7959 104.363C61.7824 104.875 61.7966 105.389 61.7932 105.902C61.7549 111.632 61.698 117.362 61.6845 123.093C61.6782 125.804 61.7483 128.515 61.7964 131.226C61.8193 132.515 61.8686 133.804 61.9114 135.093C61.9458 136.128 61.9821 137.164 62.0289 138.2C62.1012 139.804 62.1768 141.408 62.2632 143.012C62.3308 144.266 62.4096 145.519 62.4968 146.772C62.6059 148.341 62.7196 149.909 62.8502 151.477C62.8996 152.07 62.9754 152.664 63.0937 153.247C63.1339 153.445 63.3045 153.668 63.4794 153.777C64.5841 154.465 65.7298 154.095 66.6458 153.411C67.7075 152.618 68.1668 151.453 68.2128 150.158C68.2857 148.103 68.3327 146.047 68.3336 143.992C68.3421 123.882 68.3528 103.773 68.3337 83.6637C68.3213 70.5702 68.2606 57.4767 68.2239 44.3832C68.2233 44.1949 68.2529 44.0065 68.2685 43.8182C68.3309 43.9987 68.3974 44.178 68.4549 44.3601C68.9767 46.0102 69.3036 47.6957 69.5232 49.4153C69.835 51.8559 69.8604 54.3009 69.8602 56.7522L69.8568 104.555C69.855 120.489 69.8516 136.423 69.8433 152.357C69.843 152.872 70.0014 153.076 70.4668 153.211C71.9944 153.653 73.5654 153.813 75.1234 153.648C78.0702 153.336 80.7375 152.3 83.0575 150.373C84.9108 148.833 86.2301 146.95 87.0143 144.709C87.3209 143.833 87.3909 142.865 87.4946 141.93C87.5894 141.076 87.6742 140.203 87.6033 139.352C87.4827 137.906 87.251 136.469 87.0381 135.033C86.8648 133.864 86.6172 132.706 86.4625 131.535C86.2369 129.827 86.0171 128.117 85.885 126.4C85.7741 124.961 85.6687 123.502 85.7792 122.069C86.0049 119.141 86.4621 116.24 87.2702 113.404C88.134 110.373 89.3379 107.48 90.8354 104.713C91.9495 102.655 93.2258 100.693 94.7603 98.9197C95.9497 97.5453 97.1858 96.2098 98.4396 94.8936C98.9737 94.333 99.6168 93.8779 100.191 93.354C102.375 91.3623 103.975 88.907 105.625 86.4907C106.913 84.6047 108.14 82.6667 109.554 80.8792C111.417 78.5253 113.703 76.6595 116.673 75.8387C117.765 75.5369 118.889 75.3435 120.005 75.1331C122.373 74.6863 124.774 74.7135 127.163 74.7978C129.645 74.8854 132.004 75.5111 134.124 76.881C135.87 78.0099 137.138 79.593 138.218 81.3188C139.481 83.336 140.674 85.3983 141.847 87.4693C143.356 90.1321 144.82 92.82 146.293 95.503C147.085 96.9459 147.866 98.3954 148.633 99.8517C149.591 101.671 150.141 102.381 150.914 104.363C151.425 105.672 152.329 108.124 152.947 109.333C154.18 111.747 154.394 113.338 155.295 115.578C155.479 116.037 156.449 116.598 156.672 117.109C157.086 118.06 157.929 119.439 157.99 119.545C158.046 119.412 158.086 117.752 158.093 117.617C158.182 116.111 158.257 114.604 158.333 113.097C158.413 111.532 158.491 109.967 158.567 108.402C158.647 106.759 158.726 105.116 158.8 103.473C158.881 101.694 158.96 99.9148 159.034 98.1354C159.115 96.1809 159.191 94.2262 159.268 92.2715C159.309 91.2358 159.348 90.2001 159.385 89.1643C159.426 88.0117 159.463 86.859 159.502 85.7064C159.541 84.5733 159.583 83.4402 159.619 82.307C159.661 80.9596 159.698 79.6122 159.736 78.2647C159.776 76.8784 159.817 75.492 159.852 74.1056C159.894 72.466 159.933 70.8264 159.969 69.1868C160.011 67.3135 160.052 65.4401 160.086 63.5667C160.129 61.109 160.159 58.6511 160.206 56.1935C160.234 54.7095 160.303 53.2261 160.316 51.7421C160.335 49.5539 160.307 47.3653 160.326 45.1771C160.338 43.771 160.401 42.3654 160.434 40.9594C160.437 40.8181 160.387 40.6757 160.361 40.5338C160.241 40.6206 160.104 40.6908 160.004 40.7969C159.244 41.6097 158.284 41.8998 157.202 41.9415C155.539 42.0056 153.97 41.5151 152.374 41.1754C150.846 40.8501 149.311 40.4861 147.744 40.6731C146.814 40.7843 145.891 41.0628 144.998 41.3646C143.557 41.8512 142.186 41.7036 140.822 41.1196C139.498 40.5531 138.187 39.9518 136.838 39.4523C135.624 39.0026 134.336 39.0071 133.159 39.5205C132.584 39.7712 132.007 40.3088 131.719 40.8654C131.044 42.1674 130.026 42.7731 128.628 43.0031C126.783 43.3066 125.156 42.6864 123.516 42.0131C122.184 41.4663 120.866 40.8506 119.486 40.4654C117.644 39.9513 115.951 40.5091 114.424 41.6079C113.464 42.2986 112.559 43.0934 111.526 43.6479C110.14 44.3916 108.119 44.4986 107.026 43.2713C106.834 43.0566 106.64 42.7991 106.57 42.5295C106.294 41.462 105.603 41.2322 104.643 41.1213C103.261 40.9616 102.246 41.7051 101.243 42.5076C100.315 43.2504 99.4498 44.0767 98.1884 44.309C97.187 44.4934 96.2458 44.3623 95.358 43.9807C93.8525 43.3336 92.3754 42.6163 90.9103 41.8809C89.5998 41.2232 88.1994 40.8958 86.793 41.1642C85.887 41.3372 85.0339 41.9007 84.2148 42.3865C83.2213 42.9757 82.3335 43.751 81.3195 44.2962C79.5749 45.2343 77.7016 45.2736 75.7772 44.8892C73.7809 44.4905 72.1369 43.5164 70.7537 42.0631C70.4463 41.7401 70.1954 41.3628 69.9257 41.0051C69.8881 40.9552 69.8917 40.8743 69.8763 40.8078C69.9314 40.8361 69.9951 40.8545 70.0403 40.894C71.4973 42.1663 73.1631 42.9538 75.0943 43.2323C77.8848 43.6347 80.47 43.1679 82.7951 41.5455C83.4452 41.0919 83.9778 40.4729 84.6128 39.9942C85.6138 39.2398 86.7972 39.2755 87.9546 39.4155C90.1261 39.6782 92.0112 40.8082 94.0428 41.4957C95.8006 42.0906 97.6052 42.5456 99.4646 41.8226C100.119 41.5682 100.666 41.2111 101.071 40.6123C101.781 39.5618 103.32 39.184 104.49 39.31C106.375 39.5134 108.008 40.4507 109.797 40.9075C111.055 41.2285 112.315 41.4454 113.599 41.0062C114.293 40.769 114.777 40.2945 115.15 39.7044C115.753 38.7493 116.67 38.4092 117.723 38.3146C119.215 38.1807 120.558 38.6519 121.874 39.2994C123.137 39.9211 124.417 40.5576 125.826 40.7491C126.966 40.904 128.095 40.6773 129.153 40.2C130.81 39.4517 132.446 38.6535 134.119 37.9395C135.725 37.2536 137.288 37.3886 138.791 38.3322C139.617 38.851 140.473 39.3428 141.366 39.7295C142.435 40.1925 143.576 40.0451 144.663 39.7544C146.13 39.3625 147.554 38.792 149.034 38.4762C150.063 38.2568 151.13 38.3406 151.967 39.2333C152.749 40.0662 153.782 40.2725 154.85 39.9684C156.517 39.4938 158.159 38.93 159.814 38.413C160.63 38.1581 161.447 37.9115 162.317 38.1937C163.489 38.5738 163.62 38.7659 163.477 39.9839C163.396 40.672 163.299 41.3592 163.248 42.0496C163.186 42.8889 163.173 43.7316 163.124 44.572C163.012 46.4718 162.894 48.3713 162.774 50.2706C162.7 51.4463 162.611 52.6211 162.543 53.7971C162.457 55.3032 162.388 56.8104 162.306 58.3167C162.233 59.6677 162.143 61.0179 162.076 62.3692C161.989 64.0896 161.919 65.8109 161.839 67.5316C161.803 68.3143 161.757 69.0965 161.724 69.8793C161.643 71.7753 161.568 73.6716 161.489 75.5678C161.451 76.4867 161.408 77.4054 161.373 78.3244C161.293 80.4737 161.216 82.6232 161.139 84.7726C161.099 85.8668 161.059 86.9609 161.022 88.0552C160.981 89.2857 160.943 90.5163 160.905 91.7468C160.865 93.0163 160.826 94.2858 160.788 95.5553C160.748 96.9222 160.709 98.2891 160.671 99.656C160.631 101.101 160.592 102.546 160.554 103.99C160.514 105.513 160.475 107.036 160.438 108.559C160.397 110.218 160.359 111.877 160.321 113.536C160.281 115.214 160.242 116.893 160.204 118.572C160.164 120.328 160.125 122.085 160.087 123.841L160.011 127.471C159.997 128.076 159.983 128.681 159.967 129.286C159.942 130.263 159.892 131.241 159.852 132.218C159.849 132.271 159.828 132.324 159.816 132.378C159.789 132.325 159.751 132.275 159.738 132.219C159.307 130.39 158.83 128.571 158.467 126.729C158.223 125.487 158.12 124.214 157.99 122.951C157.913 122.205 157.906 121.452 157.864 120.702C157.86 120.63 157.834 120.559 157.818 120.488C157.795 120.549 157.755 120.61 157.752 120.672C157.614 123.021 157.201 125.313 156.375 127.524C156.135 128.166 155.932 128.822 155.709 129.469C155.68 129.554 155.628 129.63 155.587 129.71C155.575 129.605 155.531 129.489 155.559 129.396C155.694 128.946 155.82 128.491 156.001 128.06C156.829 126.079 156.784 123.99 156.672 121.922C156.588 120.374 156.201 118.856 155.565 117.422C155.526 117.336 155.32 116.932 155.318 116.824C155.317 116.807 155.241 116.79 155.2 116.773C155.232 116.917 155.263 117.061 155.295 117.205C155.373 118.692 155.505 120.76 155.514 122.247C155.525 123.984 155.235 125.113 154.764 126.785C154.514 127.67 154.193 128.534 153.902 129.407C153.882 129.467 153.848 129.523 153.82 129.58C153.805 129.508 153.757 129.422 153.78 129.367C154.55 127.584 154.466 125.673 154.579 123.801C154.685 122.049 154.779 120.283 154.684 118.534C154.552 116.092 154.094 113.693 153.072 111.439C153.05 111.389 152.988 111.357 152.966 111.308C152.891 111.141 152.826 110.971 152.757 110.802C152.712 111.013 152.608 111.231 152.633 111.433C152.716 112.111 152.893 112.779 152.947 113.458C153.058 114.845 153.147 116.236 153.182 117.627C153.221 119.191 153.267 120.761 153.169 122.32C153.074 123.843 152.804 125.355 152.606 126.871C152.495 127.72 152.374 128.567 152.254 129.414C152.246 129.469 152.203 129.52 152.176 129.572C152.164 129.519 152.137 129.464 152.141 129.413C152.176 129.019 152.218 128.627 152.256 128.234C152.296 127.821 152.357 127.409 152.369 126.996C152.418 125.318 152.48 123.639 152.481 121.961C152.482 120.36 152.43 118.759 152.367 117.159C152.317 115.866 152.237 114.573 152.134 113.282C151.998 111.573 151.829 109.866 151.67 108.158C151.641 107.842 151.597 107.527 151.552 107.213C151.543 107.151 151.494 107.095 151.463 107.037C151.416 107.098 151.332 107.156 151.327 107.221C151.278 107.828 151.235 108.435 151.206 109.042C151.16 110.019 151.138 110.998 151.085 111.974C150.976 113.971 150.859 115.968 150.734 117.965C150.669 119.005 150.569 120.042 150.505 121.082C150.38 123.118 150.274 125.154 150.15 127.189C150.084 128.268 149.987 129.345 149.92 130.424C149.797 132.42 149.694 134.418 149.563 136.414C149.517 137.105 149.69 139.357 149.665 139.667C149.516 141.499 148.998 143.252 148.373 144.97C148.251 145.304 148.002 145.648 147.716 145.855C146.908 146.437 146.374 146.345 145.949 145.33C145.844 145.081 145.789 144.812 145.71 144.552C145.7 144.518 145.683 144.486 145.668 144.453C145.644 144.51 145.611 144.565 145.595 144.624C145.437 145.222 145.345 145.845 145.109 146.41C144.873 146.975 144.55 147.524 144.167 148.001C143.703 148.579 142.858 148.609 142.32 148.096C142.013 147.805 142.016 148.177 141.992 148.233C141.751 148.795 141.587 149.394 141.307 149.934C140.87 150.776 140.117 151.154 139.179 151.089C138.759 151.06 138.679 151.19 138.687 151.588C138.705 152.629 138.292 153.477 137.361 153.995C137.133 154.122 136.815 154.148 136.546 154.125C136.165 154.091 136.09 154.231 136.12 154.573C136.151 154.92 136.132 155.273 136.126 155.624C136.113 156.454 135.541 157.036 134.722 157.06C134.099 157.078 133.982 157.251 134.229 157.791C134.476 158.333 134.087 158.855 133.356 158.926C132.612 158.998 131.992 158.831 131.402 158.266C128.979 155.946 127.122 153.233 125.738 150.201C124.84 148.235 124.139 146.186 123.863 144.027C123.667 142.499 123.497 140.965 123.4 139.429C123.29 137.683 123.565 135.964 123.921 134.255C124.594 131.017 125.853 127.974 126.975 124.884C127.235 124.171 127.419 123.426 127.589 122.685C127.884 121.4 128.165 120.112 128.4 118.815C128.482 118.363 128.429 117.882 128.398 117.416C128.392 117.339 128.168 117.2 128.065 117.217C127.176 117.361 126.287 117.515 125.406 117.704C123.898 118.028 122.455 118.531 121.06 119.205C120.543 119.455 119.896 119.428 119.312 119.545C118.378 119.731 117.448 119.939 116.513 120.121C116.319 120.159 116.111 120.122 115.91 120.128C115.565 120.137 114.996 120.037 114.918 120.189C114.707 120.594 114.644 121.108 114.632 121.581C114.571 124.136 114.512 126.691 114.518 129.246C114.521 130.578 114.656 131.909 114.74 133.24C114.811 134.377 114.865 135.516 114.981 136.648C115.099 137.795 115.294 138.934 115.437 140.079C115.532 140.843 115.582 141.613 115.677 142.377C115.82 143.522 115.991 144.663 116.139 145.807C116.265 146.771 116.374 147.736 116.492 148.701C116.569 149.331 116.645 149.961 116.729 150.59C116.737 150.647 116.789 150.729 116.838 150.743C117.714 151 117.909 151.77 118.12 152.495C118.451 153.628 118.813 154.762 119.004 155.921C119.15 156.81 119.148 157.751 119.036 158.647C118.923 159.558 118.614 160.449 118.358 161.339C117.971 162.682 117.204 163.814 116.329 164.882C116.272 164.951 116.245 165.045 116.203 165.128C116.288 165.127 116.374 165.125 116.459 165.124C116.615 165.124 116.77 165.124 116.926 165.124H123.997C125.796 165.124 127.595 165.138 129.393 165.121C132.338 165.094 135.283 165.046 138.227 165.008C138.526 165.004 138.825 165.011 139.124 165.007C141.679 164.969 144.234 164.929 146.789 164.891C147.049 164.887 147.309 164.897 147.569 164.889C149.723 164.825 151.877 164.756 154.032 164.697C154.244 164.691 154.458 164.772 154.67 164.77C157.244 164.737 159.819 164.7 162.394 164.655C164.15 164.624 165.906 164.575 167.663 164.542C168.151 164.533 168.411 164.427 168.405 163.815C168.386 162.137 168.466 160.458 168.5 158.779C168.511 158.247 168.525 157.713 168.497 157.182C168.441 156.133 167.658 155.719 166.755 155.673C164.963 155.581 163.166 155.556 161.37 155.545C158.247 155.527 155.123 155.534 152 155.546C151.432 155.548 150.864 155.62 150.295 155.655C150.221 155.66 150.146 155.642 150.071 155.634C150.116 155.565 150.158 155.494 150.207 155.428C150.692 154.775 151.42 154.58 152.156 154.503C153.108 154.404 154.075 154.454 155.027 154.36C156.078 154.255 157.119 154.058 158.166 153.906C158.28 153.89 158.399 153.907 158.516 153.904C161.581 153.826 164.646 153.751 167.71 153.66C167.849 153.656 168.061 153.526 168.106 153.406C168.47 152.431 168.674 151.458 168.578 150.374C168.475 149.219 168.671 148.037 168.735 146.867C168.741 146.75 168.736 146.633 168.736 146.516C168.736 145.504 168.726 144.491 168.737 143.478C168.772 140.26 168.809 137.043 168.854 133.826C168.885 131.621 168.931 129.417 168.969 127.212C169.009 124.93 169.047 122.647 169.086 120.365C169.125 118.134 169.164 115.904 169.203 113.673L169.32 106.943C169.359 104.693 169.398 102.443 169.437 100.193C169.476 97.923 169.514 95.6534 169.554 93.3838C169.592 91.1793 169.632 88.9749 169.67 86.7704C169.71 84.5008 169.748 82.2312 169.787 79.9616C169.826 77.6987 169.865 75.4358 169.904 73.1729C169.943 70.9684 169.983 68.764 170.021 66.5595C170.061 64.2771 170.099 61.9947 170.138 59.7124L170.255 53.0405C170.294 50.7776 170.332 48.5147 170.372 46.2518C170.41 44.0668 170.451 41.8819 170.488 39.6968C170.529 37.356 170.563 35.0151 170.607 32.6744C170.639 31.0085 170.676 29.3427 170.729 27.6774C170.74 27.3275 170.683 27.1886 170.279 27.1992C167.958 27.2601 165.636 27.2827 163.315 27.3286C161.844 27.3577 160.373 27.406 158.902 27.4433C157.302 27.4838 155.701 27.5203 154.1 27.5609C152.636 27.5981 151.172 27.6396 149.707 27.6771C148.126 27.7175 146.545 27.7544 144.964 27.7945C143.48 27.8322 141.997 27.8734 140.513 27.9108C138.912 27.9512 137.311 27.9857 135.711 28.0291C134.48 28.0625 133.25 28.1129 132.019 28.1433C130.185 28.1885 128.351 28.2198 126.516 28.2627C125.052 28.297 123.588 28.3413 122.124 28.3782C120.503 28.4191 118.883 28.4549 117.263 28.496C115.818 28.5327 114.374 28.5751 112.929 28.612C111.328 28.6528 109.728 28.6867 108.127 28.7304C106.916 28.7635 105.705 28.8147 104.494 28.8444C102.64 28.89 100.786 28.9213 98.9324 28.9639C97.4291 28.9985 95.9259 29.0417 94.4227 29.0797C92.8416 29.1196 91.2604 29.1567 89.6793 29.1971C88.215 29.2345 86.7508 29.2763 85.2865 29.3132C83.6664 29.3541 82.0465 29.4053 80.4261 29.4277C76.9362 29.4759 73.4458 29.5469 69.956 29.5292C68.4845 29.5217 67.0123 29.3318 65.5438 29.1894C64.7701 29.1143 64.0036 28.9637 63.2342 28.8448C63.1818 28.8367 63.1325 28.8089 63.0818 28.7903C63.1301 28.7699 63.177 28.7441 63.2273 28.7311C63.2638 28.7217 63.3047 28.7301 63.3437 28.7292C65.0027 28.6903 66.6622 28.6633 68.3207 28.6093C70.3147 28.5444 72.308 28.459 74.3014 28.3774C75.0647 28.3461 75.8272 28.2926 76.5906 28.2636C77.8014 28.2177 79.0127 28.1867 80.2236 28.144C81.2011 28.1095 82.1781 28.0646 83.1555 28.0285C85.3048 27.949 87.4544 27.8747 89.6036 27.793C90.4253 27.7618 91.2462 27.7071 92.0681 27.6795C93.4542 27.6329 94.8408 27.6034 96.227 27.5592C97.2435 27.5269 98.2595 27.4797 99.2758 27.4444C100.487 27.4023 101.698 27.369 102.909 27.3257C103.847 27.2921 104.785 27.2405 105.724 27.2118C107.227 27.1657 108.73 27.1352 110.234 27.092C111.406 27.0582 112.578 27.0133 113.75 26.9766C115.058 26.9356 116.367 26.8982 117.675 26.8593C118.984 26.8203 120.292 26.7804 121.6 26.7426C122.987 26.7026 124.373 26.665 125.759 26.6253C127.094 26.5871 128.429 26.5457 129.763 26.5091C131.266 26.468 132.77 26.4309 134.273 26.3917C135.757 26.353 137.24 26.313 138.724 26.2751C140.286 26.2352 141.848 26.1973 143.409 26.1579C144.932 26.1194 146.455 26.0937 147.977 26.0367C149.139 25.9932 150.299 25.9049 151.46 25.8485C151.632 25.8401 151.808 25.9228 151.981 25.9204C154.38 25.8871 156.78 25.85 159.179 25.8062C160.974 25.7733 162.77 25.728 164.565 25.6909C166.536 25.6502 168.506 25.5992 170.477 25.5778ZM132.657 178.574C131.441 178.605 130.228 178.719 129.014 178.799C127.878 178.875 126.741 178.947 125.605 179.034C124.193 179.143 122.781 179.266 121.369 179.383C119.976 179.499 118.584 179.626 117.19 179.731C115.525 179.858 113.861 180.018 112.194 180.073C109.66 180.156 107.124 180.164 104.588 180.2C104.024 180.208 103.456 180.241 102.895 180.194C101.283 180.059 99.6736 179.888 98.063 179.734C97.1998 179.652 96.3348 179.588 95.4725 179.498C94.0755 179.351 92.6834 179.129 91.283 179.049C89.9175 178.972 88.5438 179.018 87.1741 179.037C86.0993 179.052 85.024 179.091 83.9509 179.154C82.2455 179.254 80.5417 179.38 78.8375 179.501C77.2303 179.614 75.6234 179.733 74.0165 179.851C72.9775 179.927 71.9387 180.007 70.8998 180.084C69.3318 180.201 67.7637 180.318 66.1957 180.435C65.1568 180.513 64.118 180.593 63.079 180.668C61.4526 180.787 59.8265 180.908 58.1995 181.017C56.908 181.104 55.6151 181.169 54.3236 181.255C53.5934 181.304 53.3655 181.553 53.3837 182.3C53.3938 182.713 53.4588 183.125 53.495 183.538C53.6518 185.323 53.7949 187.11 53.9706 188.894C54.021 189.406 54.075 189.98 54.6136 190.24C54.9339 190.394 55.3219 190.475 55.6789 190.474C56.773 190.469 57.8667 190.384 58.9609 190.375C61.1097 190.357 63.2589 190.383 65.4078 190.367C69.2673 190.338 73.1267 190.291 76.9862 190.253C77.3434 190.249 77.7008 190.258 78.0579 190.252C80.0478 190.215 82.0375 190.161 84.0275 190.139C88.3153 190.09 92.6033 190.052 96.8913 190.021C99.0012 190.006 101.111 190.032 103.221 190.016C107.003 189.987 110.785 189.941 114.566 189.902C114.943 189.899 115.32 189.908 115.696 189.901C117.686 189.864 119.676 189.81 121.666 189.788C125.954 189.74 130.242 189.701 134.53 189.671C136.62 189.656 138.711 189.681 140.801 189.665C144.602 189.636 148.403 189.59 152.204 189.552C152.581 189.548 152.958 189.556 153.335 189.55C155.714 189.513 158.093 189.464 160.473 189.438C162.108 189.42 163.745 189.447 165.38 189.432C168.558 189.402 171.736 189.358 174.914 189.316C175.611 189.307 176.14 188.809 176.213 188.071C176.378 186.403 176.527 184.733 176.683 182.948C176.722 182.341 176.784 181.734 176.795 181.127C176.81 180.203 176.345 179.849 175.431 179.961C173.664 180.178 171.896 180.477 170.122 180.524C167.492 180.593 164.857 180.492 162.225 180.427C160.991 180.396 159.757 180.291 158.525 180.198C157.17 180.095 155.816 179.973 154.463 179.849C153.264 179.74 152.067 179.615 150.869 179.5L148.395 179.262C147.571 179.183 146.746 179.107 145.921 179.036C144.393 178.904 142.864 178.773 141.333 178.689C139.969 178.614 138.601 178.587 137.234 178.569C135.708 178.55 134.182 178.535 132.657 178.574ZM92.7659 167.403C91.6018 167.462 90.4379 167.526 89.2735 167.577C88.2187 167.623 87.1632 167.656 86.1081 167.695C85.0724 167.734 84.0368 167.775 83.001 167.812C80.8128 167.891 78.6245 167.967 76.4363 168.046C75.4394 168.083 74.443 168.13 73.446 168.161C72.0014 168.206 70.5564 168.234 69.1119 168.283C68.4847 168.304 67.8546 168.327 67.233 168.406C66.6335 168.481 66.0476 168.683 65.4476 168.734C64.6969 168.797 63.9241 168.814 63.4194 168.059C63.3829 168.005 63.0976 168.031 63.0934 168.053C62.8236 169.421 61.9291 170.395 61.0051 171.336C60.2495 172.107 59.4359 172.82 58.6648 173.576C57.6934 174.527 56.7085 175.469 55.7873 176.468C55.1027 177.21 54.5084 178.036 53.8791 178.829C53.8166 178.907 53.7902 179.015 53.7471 179.109C53.8584 179.122 53.9701 179.15 54.0809 179.147C55.253 179.112 56.4251 179.075 57.597 179.031C58.4965 178.998 59.3955 178.949 60.2951 178.917C61.5644 178.872 62.8348 178.856 64.1031 178.793C65.0657 178.745 66.025 178.634 66.9869 178.567C68.7495 178.443 70.5132 178.335 72.2758 178.213C73.2571 178.144 74.2395 178.08 75.2172 177.975C76.4601 177.842 77.6975 177.658 78.9397 177.517C79.8011 177.419 80.6677 177.367 81.5302 177.277C82.9468 177.129 84.3591 176.927 85.7788 176.826C86.7738 176.754 87.7783 176.797 88.778 176.816C89.7556 176.835 90.7367 176.847 91.7087 176.94C92.837 177.048 93.9561 177.248 95.081 177.394C96.0635 177.522 97.0509 177.613 98.0319 177.751C99.2977 177.929 100.558 178.142 101.823 178.327C102.147 178.375 102.478 178.377 102.806 178.401C102.538 178.125 102.297 177.815 101.997 177.58C100.499 176.403 99.2767 174.955 98.1661 173.439C97.1572 172.062 96.3443 170.54 95.4561 169.076C94.8505 168.077 94.138 167.259 92.7659 167.403ZM167.809 166.634C166.875 166.723 165.934 166.729 164.995 166.759C163.55 166.804 162.106 166.842 160.661 166.876C158.905 166.919 157.148 166.966 155.392 166.992C152.194 167.039 148.997 167.073 145.799 167.11C145.364 167.115 144.928 167.104 144.493 167.112C142.425 167.149 140.357 167.189 138.172 167.228H126.212C122.57 167.228 118.927 167.213 115.285 167.243C114.704 167.248 114.121 167.465 113.836 168.075C113.333 169.152 112.885 170.256 112.338 171.31C111.048 173.798 109.222 175.876 107.166 177.747C106.733 178.141 107.028 178.269 107.269 178.31C107.711 178.385 108.177 178.359 108.629 178.326C110.023 178.223 111.416 178.099 112.809 177.98C114.143 177.866 115.477 177.743 116.812 177.631C118.244 177.51 119.676 177.399 121.108 177.278C122.443 177.166 123.776 177.027 125.112 176.933C127.01 176.799 128.909 176.677 130.81 176.586C131.73 176.541 132.655 176.549 133.576 176.585C134.927 176.636 136.278 176.726 137.628 176.814C139.294 176.922 140.959 177.046 142.625 177.162C143.742 177.241 144.859 177.317 145.975 177.396C147.622 177.512 149.268 177.629 150.914 177.747C151.992 177.824 153.07 177.904 154.148 177.98C155.284 178.06 156.421 178.135 157.557 178.215C158.635 178.291 159.712 178.379 160.791 178.446C162.2 178.533 163.609 178.672 165.018 178.665C166.836 178.656 168.658 178.574 170.471 178.434C172.11 178.307 173.74 178.064 175.372 177.861C176.22 177.756 176.536 177.129 176.096 176.414C174.466 173.757 172.81 171.116 171.195 168.45C170.412 167.157 169.359 166.486 167.809 166.634ZM103.112 102.598C103.029 102.834 102.973 103.085 102.859 103.306C102.472 104.062 102.06 104.805 101.667 105.559C100.766 107.285 99.873 108.987 98.233 110.198C97.1644 110.987 95.9125 111.577 95.1497 112.757C94.9248 113.105 94.5292 113.341 94.2957 113.685C93.878 114.301 93.5444 114.973 93.1395 115.598C91.5701 118.022 90.1358 120.509 89.2984 123.299C88.6498 125.459 88.1886 127.649 88.2124 129.917C88.2247 131.089 88.2521 132.263 88.335 133.432C88.4036 134.399 88.5572 135.36 88.685 136.322C88.871 137.724 89.101 139.12 89.2435 140.526C89.302 141.104 89.1185 141.704 89.1568 142.286C89.223 143.293 89.32 144.304 89.5055 145.295C89.8592 147.184 90.262 149.065 90.6858 150.94C91.1196 152.858 91.6149 154.763 92.0619 156.679C92.7459 159.611 93.7453 162.432 95.0635 165.135C96.3928 167.861 97.9779 170.44 99.779 172.878C100.639 174.042 101.534 175.201 102.558 176.217C103.696 177.348 105.181 177.57 106.376 176.222C107.111 175.393 107.809 174.527 108.485 173.649C109.959 171.733 111.41 169.798 112.867 167.869C112.919 167.8 112.942 167.71 112.978 167.63C112.888 167.613 112.798 167.593 112.707 167.579C112.011 167.471 111.298 167.429 110.623 167.246C108.402 166.644 106.618 165.256 104.822 163.907C103.123 162.632 101.454 161.318 99.7632 160.032C99.4935 159.827 99.2412 159.822 99.038 160.187C98.482 161.186 97.9011 162.172 97.3204 163.157C97.2238 163.321 97.0787 163.456 96.9559 163.605C96.806 163.422 96.6257 163.256 96.5113 163.052C96.0814 162.289 96.5162 161.582 96.728 160.886C97.175 159.416 97.5064 157.94 97.4441 156.391C97.39 155.044 97.319 153.696 97.3394 152.349C97.3532 151.435 97.6886 150.535 98.4778 150.058C99.0788 149.694 98.9911 149.27 98.933 148.801C98.7249 147.12 98.3807 145.449 98.2854 143.763C98.1626 141.591 98.2175 139.406 98.6097 137.132C98.6487 136.876 98.6737 136.617 98.729 136.365C98.9871 135.187 99.194 133.994 99.5316 132.84C99.9971 131.248 100.536 129.675 101.098 128.114C101.42 127.218 102.923 124.181 102.815 125.092C102.77 125.593 102.141 128.029 101.774 129.197C101.203 131.009 100.637 132.825 100.16 134.663C99.585 136.884 99.1538 139.138 99.1969 141.451C99.2202 142.701 99.2547 143.952 99.3163 145.201C99.3685 146.26 99.4654 147.318 99.5455 148.376C99.5727 148.735 99.8328 149.001 100.031 148.877C100.403 148.643 100.771 148.403 101.137 148.162C102.986 146.942 104.62 145.471 106.131 143.861C106.42 143.553 106.78 143.224 106.884 142.845C107.186 141.733 107.403 140.596 107.601 139.459C107.76 138.541 107.843 137.61 107.96 136.684C108.154 135.148 108.425 133.617 108.514 132.075C108.564 131.217 108.289 130.345 108.2 129.475C108.112 128.619 108.119 127.753 108.003 126.902C107.831 125.641 107.642 124.377 107.357 123.137C107.156 122.265 106.918 121.347 106.457 120.598C105.519 119.078 104.357 117.697 103.406 116.184C102.667 115.008 102.026 113.723 101.908 112.318C101.79 110.919 101.834 109.499 101.915 108.095C101.937 107.73 102.294 107.219 102.624 107.083C102.972 106.94 103.264 107.377 103.406 107.773C103.618 108.366 103.859 108.948 104.089 109.535C104.113 109.596 104.144 109.655 104.171 109.715C104.187 109.643 104.221 109.571 104.215 109.501C104.208 109.413 104.166 109.328 104.145 109.24C103.845 107.958 103.492 106.691 103.504 105.351C103.51 104.683 103.37 104.012 103.281 103.345C103.247 103.093 103.17 102.846 103.112 102.598ZM89.2358 154.598C88.6118 154.661 87.984 154.689 87.3573 154.721C86.4975 154.765 85.6374 154.804 84.7772 154.838C82.7846 154.918 80.7918 154.995 78.6823 155.073C77.04 155.151 75.3984 155.248 73.7554 155.301C71.8836 155.362 70.0105 155.408 68.138 155.411C67.4486 155.412 66.7581 155.282 66.0697 155.198C65.145 155.085 64.225 154.905 63.2974 154.853C62.2283 154.793 61.9237 155.142 61.9097 156.213C61.8826 158.276 61.8498 160.34 62.4979 162.337C62.7593 163.142 62.9419 164.001 63.3599 164.72C63.9857 165.797 65.1059 166.269 66.3 166.27C68.5068 166.272 70.7137 166.138 72.9205 166.059C73.9364 166.022 74.9521 165.98 75.968 165.942C78.0775 165.864 80.187 165.788 82.2965 165.708C83.2345 165.672 84.172 165.618 85.1103 165.594C86.9632 165.546 88.8164 165.516 90.6694 165.474L90.8046 165.471C91.7509 165.447 92.6882 165.424 93.2453 166.455C93.2946 166.546 93.5773 166.511 93.7516 166.534C93.7635 166.385 93.8307 166.213 93.7787 166.091C93.3258 165.032 92.8552 163.981 92.3829 162.931C91.2306 160.368 90.3924 157.701 89.7272 154.977C89.6643 154.719 89.5522 154.566 89.2358 154.598ZM105.444 147.728C104.062 148.44 102.679 149.16 101.352 149.967C100.761 150.327 100.229 150.85 99.8082 151.403C99.4829 151.831 99.368 152.42 99.1661 152.94C98.6375 154.301 99.063 155.545 99.8047 156.646C100.962 158.365 102.266 159.983 103.871 161.32C104.858 162.144 112.052 167.112 114.711 164.857C115.08 164.544 115.236 164.065 115.451 163.645C116.33 161.927 117.75 160.474 118.046 158.474C118.165 157.674 118.27 156.85 118.202 156.051C118.124 155.128 117.845 154.221 117.662 153.306C117.542 152.704 117.507 152.066 116.907 151.691C116.831 151.644 116.747 151.608 116.667 151.567C116.648 151.656 116.599 151.75 116.613 151.833C116.793 152.877 116.9 153.915 117.262 154.948C117.697 156.19 117.472 157.529 116.963 158.778C116.736 159.334 115.953 159.599 115.418 159.534C113.927 159.354 112.687 158.623 111.607 157.608C110.082 156.174 109.132 154.384 108.369 152.385C108.194 151.873 108.025 151.359 107.841 150.85C107.535 150.004 107.259 149.144 106.895 148.323C106.609 147.675 106.013 147.435 105.444 147.728ZM131.6 92.1001C131.648 92.2469 131.669 92.411 131.748 92.5376C132.226 93.2959 132.799 93.4249 133.189 94.2248C134.089 96.0686 134.759 97.4139 135.549 99.3073C135.855 100.04 135.886 100.995 136.14 102.205C136.149 102.25 136.283 102.377 136.38 102.434C136.88 102.727 137.423 102.961 137.885 103.306C139.206 104.291 139.628 105.378 139.227 106.781C138.52 109.256 137.679 108.019 138.183 106.542C138.388 105.942 138.235 105.329 137.762 104.891C137.604 104.746 136.896 104.389 136.023 103.983C135.94 103.945 136 104.214 135.648 104.926C135.543 105.138 135.134 105.753 135.017 105.441C134.819 104.908 135.187 103.602 135.017 103.526L134.836 103.445C133.445 102.829 132.053 102.254 131.882 102.233C131.362 102.168 130.88 102.423 130.875 103.351C130.863 105.625 129.961 107.462 128.233 108.91C126.696 110.198 124.982 110.871 122.928 110.555C121.423 110.323 120.139 109.693 119.024 108.688C118.042 107.802 117.298 106.754 116.963 105.454C116.883 105.142 116.796 105.162 116.581 105.361C115.508 106.354 114.8 107.563 114.398 108.959C114.35 109.125 114.34 109.302 114.312 109.474C114.496 109.458 114.686 109.468 114.861 109.421C115.367 109.283 115.866 109.122 116.369 108.972C116.434 108.952 116.502 108.94 116.568 108.924C116.543 108.981 116.512 109.035 116.493 109.093C116.259 109.813 115.74 110.266 115.056 110.506C114.293 110.775 113.134 110.032 113.351 109.266C113.507 108.717 113.78 108.197 114.04 107.684C114.491 106.798 114.972 105.927 115.498 105.05C115.548 104.905 115.598 104.76 115.648 104.615C115.54 104.721 115.431 104.827 115.265 104.933C115.182 105.054 115.121 105.202 115.013 105.294C113.512 106.559 111.836 107.249 109.813 107.057C108.659 106.947 107.654 106.543 106.704 105.947C105.9 105.444 105.036 105.748 104.945 106.683C104.881 107.335 104.948 108.032 105.113 108.669C105.649 110.73 106.222 112.772 107.102 114.738C107.749 116.185 108.652 117.187 110.124 117.663C111.226 118.02 112.341 118.374 113.477 118.587C114.841 118.843 116.224 118.834 117.598 118.505C118.597 118.266 119.62 118.129 120.621 117.899C121.594 117.675 122.609 117.516 123.506 117.109C125.686 116.12 129.567 112.873 131.319 111.258C131.402 111.182 131.485 111.105 131.567 111.028C131.584 111.138 131.621 111.25 131.613 111.358C131.546 112.373 128.99 114.797 128.077 115.238C127.902 115.323 127.854 115.67 127.747 115.896C127.942 115.982 128.135 116.129 128.332 116.136C128.557 116.144 128.784 116.015 129.014 115.97C129.078 115.957 129.215 116.023 129.222 116.069C129.278 116.42 129.337 116.775 129.343 117.129C129.358 118.129 129.368 119.129 129.338 120.129C129.327 120.468 129.229 120.818 129.109 121.14C128.302 123.298 127.43 125.434 126.674 127.61C125.988 129.589 125.344 131.591 124.829 133.62C124.457 135.084 124.187 136.604 124.123 138.11C124.033 140.202 123.998 142.303 124.417 144.395C124.881 146.71 125.763 148.832 127.019 150.799C128.381 152.932 129.799 155.031 131.237 157.113C131.593 157.628 131.965 158.181 132.592 158.446C132.753 158.514 133.172 158.434 133.401 158.296C133.654 158.144 133.736 157.881 133.568 157.53C132.991 156.329 132.462 155.106 131.92 153.889C131.129 152.113 130.335 150.339 129.556 148.558C128.212 145.484 127.693 142.226 127.624 138.911C127.583 136.976 127.812 135.034 127.952 133.097C128.033 131.975 128.137 130.85 128.306 129.738C128.582 127.914 128.948 126.103 129.224 124.279C129.522 122.304 130.023 120.394 131.013 118.651C131.757 117.343 132.727 116.207 134.134 115.578C135.835 114.818 137.436 113.973 138.623 112.453C139.729 111.038 140.4 109.46 140.551 107.702C140.748 105.397 140.207 103.253 138.811 101.361C137.637 99.7713 136.522 98.1484 135.648 96.362C134.763 94.5547 133.754 93.3985 131.965 92.2953C131.848 92.2231 131.722 92.1648 131.6 92.1001ZM102.538 108.102C102.475 108.281 102.367 108.458 102.357 108.64C102.266 110.321 102.512 111.973 103.074 113.542C103.555 114.887 104.134 116.225 105.104 117.312C105.871 118.171 106.379 119.25 107.348 119.937C107.434 119.998 107.455 120.161 107.491 120.281C107.803 121.337 108.143 122.386 108.411 123.453L108.483 123.739C108.706 124.647 108.897 125.565 108.78 126.517C108.764 126.651 108.765 126.791 108.78 126.926C108.972 128.618 109.162 130.31 109.364 132.001C109.529 133.379 109.035 134.675 108.89 136.015C108.798 136.865 108.673 137.712 108.541 138.558C108.399 139.469 108.246 140.38 108.073 141.286C107.895 142.221 107.769 143.179 107.46 144.072C107.29 144.561 107.347 144.916 107.514 145.341C107.87 146.246 108.185 147.167 108.548 148.069C109.394 150.173 110.202 152.295 111.134 154.36C111.843 155.93 113.081 157.002 114.768 157.498C115.586 157.739 116.321 157.453 116.46 156.782C116.527 156.46 116.489 156.096 116.414 155.771C116.339 155.446 116.073 155.154 116.041 154.832C115.954 153.957 115.946 153.074 115.908 152.194C115.901 152.04 115.911 151.884 115.895 151.731C115.785 150.668 115.663 149.605 115.559 148.541C115.465 147.577 115.412 146.608 115.298 145.646C115.176 144.614 114.99 143.59 114.862 142.558C114.789 141.975 114.807 141.38 114.732 140.797C114.599 139.748 114.386 138.708 114.281 137.658C114.126 136.112 114.024 134.562 113.924 133.012C113.829 131.526 113.725 130.039 113.697 128.551C113.658 126.506 113.653 124.459 113.705 122.415C113.723 121.728 113.933 121.041 114.105 120.366C114.178 120.08 114.154 120.037 113.857 119.998C112.904 119.874 111.946 119.752 111.013 119.53C109.459 119.162 108.193 118.328 107.381 116.921C106.52 115.43 105.7 113.916 104.804 112.354C104.611 112.084 104.404 111.822 104.228 111.54C103.904 111.018 103.552 110.504 103.3 109.948C103.107 109.524 103.075 109.03 102.923 108.584C102.86 108.401 102.67 108.261 102.538 108.102ZM129.768 89.9701C129.714 89.9761 129.661 89.9918 129.607 90.003C129.645 90.0581 129.672 90.1303 129.724 90.1656C130.376 90.6098 131.038 91.0406 131.686 91.4905C133.117 92.4829 134.345 93.1028 135.304 94.557C136.492 96.3582 137.657 98.1749 138.812 99.9976C139.915 101.738 140.953 103.485 141.183 105.626C141.335 107.041 141.259 108.403 140.84 109.728C139.896 112.707 137.897 114.803 135.04 115.976C133.029 116.801 131.854 118.297 131.122 120.204C130.689 121.333 130.423 122.532 130.154 123.716C129.808 125.236 129.505 126.767 129.241 128.304C129.036 129.497 128.897 130.702 128.769 131.906C128.592 133.573 128.344 135.242 128.326 136.912C128.308 138.635 128.466 140.367 128.668 142.081C128.821 143.389 129.084 144.696 129.435 145.965C130.404 149.474 132.207 152.614 133.91 155.794C134.19 156.318 134.767 156.442 135.103 155.998C135.303 155.735 135.42 155.259 135.33 154.949C134.873 153.373 134.293 151.832 133.836 150.256C133.124 147.8 132.477 145.326 131.803 142.742C131.764 142.7 131.697 142.662 131.69 142.615C131.529 141.59 131.359 140.566 131.222 139.537C131.05 138.241 130.793 136.942 130.777 135.641C130.753 133.688 130.816 131.724 131.014 129.782C131.166 128.295 131.508 126.813 131.902 125.366C132.603 122.796 133.726 120.404 135.317 118.256C135.944 117.409 136.64 116.609 137.344 115.824C138.202 114.866 139.228 114.034 139.957 112.991C141.349 111.002 141.948 108.688 142.063 106.285C142.124 105.019 142.068 103.714 141.821 102.476C141.488 100.812 140.998 99.1672 140.433 97.5643C139.54 95.0258 138.176 92.7829 135.958 91.1397C134.109 89.7694 132.067 89.7206 129.768 89.9701ZM130.436 86.7249C129.476 86.6971 128.507 87.5121 127.545 87.6431C127.506 87.6483 127.441 87.8382 127.471 87.9061C127.748 88.538 128.313 88.8749 128.92 89.0153C130.051 89.2769 131.207 88.8483 132.355 89.0364C135.068 89.4812 137.097 91.0728 138.786 93.0827C140.196 94.7607 141.137 96.7528 141.684 98.8817C142.094 100.478 142.501 102.103 142.631 103.737C142.772 105.51 142.748 107.304 142.346 109.087C141.861 111.235 140.958 113.125 139.469 114.735C138.697 115.57 137.882 116.368 137.121 117.213C136.03 118.424 135.147 119.783 134.373 121.214C133.512 122.807 132.827 124.467 132.317 126.207C131.746 128.157 131.393 130.15 131.364 132.169C131.34 133.793 131.53 135.426 131.698 137.047C131.83 138.317 132.022 139.586 132.282 140.835C132.747 143.069 133.242 145.298 133.803 147.509C134.241 149.24 134.775 150.954 135.652 152.523C135.862 152.896 136.285 153.341 136.657 153.39C137.255 153.467 138.158 151.988 137.993 151.387C137.762 150.548 137.529 149.71 137.296 148.871C136.528 146.121 136.177 143.293 136.048 140.462C135.941 138.107 136.114 135.734 136.263 133.375C136.354 131.93 136.569 130.484 136.846 129.062C137.159 127.455 137.613 125.876 137.989 124.281C138.447 122.344 139.502 120.661 140.266 118.855C141.108 116.866 142.019 114.905 142.81 112.897C143.467 111.23 143.848 109.483 144.097 107.697C144.306 106.199 144.413 104.697 144.161 103.229C143.878 101.586 143.406 99.9705 142.93 98.3687C142.29 96.2107 141.544 94.0816 141.62 91.6673C141.666 90.6577 141.051 90.032 140.314 89.5104C139.103 88.6531 137.685 88.2449 136.307 87.7633C134.409 87.1 132.434 86.7829 130.436 86.7249ZM87.8637 146.019C87.2459 147.122 86.6494 148.236 85.9871 149.404C85.9048 149.564 85.822 149.724 85.7402 149.885C85.3518 150.648 84.705 151.341 85.2471 152.32C85.3631 152.53 85.3929 152.638 85.6443 152.623C86.5407 152.572 87.4447 152.59 88.332 152.476C88.6608 152.433 89.122 152.155 89.2179 151.879C89.3471 151.507 89.2049 151.028 89.1371 150.602C89.0424 150.006 88.8996 149.417 88.7959 148.822C88.7411 148.507 88.7067 148.187 88.6965 147.867C88.6763 147.235 88.7388 146.616 88.2831 146.051C88.0681 145.784 87.9781 145.815 87.8637 146.019ZM142.441 92.82C142.513 93.606 142.494 94.4186 142.696 95.171C143.169 96.9331 143.777 98.6583 144.278 100.414C144.69 101.858 145.034 103.326 145.005 104.845C144.991 105.589 144.93 106.332 144.893 107.076C144.81 108.761 144.361 110.371 143.871 111.97C142.874 115.222 141.265 118.215 139.924 121.322C139.34 122.675 138.865 124.089 138.486 125.514C138.078 127.054 137.8 128.633 137.542 130.207C137.325 131.535 137.102 132.88 137.086 134.219C137.053 137.031 136.922 139.85 137.293 142.654C137.43 143.694 137.53 144.739 137.646 145.898C137.841 147.181 137.999 148.471 138.256 149.742C138.323 150.071 138.663 150.537 138.947 150.595C139.883 150.786 140.642 150.34 141.028 149.454C141.616 148.104 142.05 146.762 141.653 145.21C141.269 143.709 141.115 142.144 140.929 140.599C140.728 138.928 140.55 137.251 140.467 135.572C140.375 133.706 140.392 131.827 140.814 129.994C141.127 128.635 141.484 127.279 141.941 125.962C142.761 123.598 143.761 121.293 144.52 118.911C145.526 115.755 146.033 112.483 146.279 109.183C146.379 107.84 146.279 106.482 146.299 105.132C146.329 103.174 146.174 101.232 145.825 99.3073C145.608 98.1153 145.429 96.9104 145.109 95.7453C144.744 94.4205 143.974 93.3536 142.74 92.647C142.409 92.4578 142.418 92.5751 142.441 92.82ZM145.871 95.3643C145.895 95.515 145.92 95.6657 145.945 95.8748C146.217 97.4173 146.563 98.9513 146.743 100.505C146.945 102.238 147.061 103.988 147.093 105.732C147.118 107.1 147 108.476 146.868 109.84C146.723 111.342 146.574 112.852 146.275 114.328C145.863 116.36 145.393 118.389 144.791 120.372C144.248 122.159 143.512 123.889 142.829 125.632C141.606 128.755 141.018 131.982 141.15 135.337C141.172 135.901 141.108 136.471 141.162 137.031C141.289 138.351 141.447 139.67 141.627 140.985C141.744 141.843 141.952 142.688 142.064 143.546C142.183 144.461 142.39 145.405 142.269 146.297C142.187 146.903 142.463 147.264 142.64 147.711C142.688 147.832 142.946 147.919 143.114 147.933C143.576 147.972 144.304 147.302 144.545 146.698C145.151 145.172 145.304 143.561 145.335 141.952C145.354 140.991 145.105 140.026 145.015 139.06C144.885 137.672 144.667 136.276 144.712 134.892C144.766 133.212 144.987 131.529 145.264 129.869C145.518 128.343 145.811 126.799 146.316 125.342C147.526 121.846 148.249 118.271 148.393 114.581C148.467 112.69 148.49 110.796 148.509 108.904C148.515 108.278 148.432 107.651 148.401 107.024C148.356 106.125 148.376 105.219 148.27 104.328C148.079 102.726 147.934 101.102 147.545 99.5436C147.215 98.2212 146.568 96.9778 146.062 95.6411C145.998 95.5488 145.934 95.4566 145.871 95.3643ZM148.789 101.445C148.737 101.521 148.659 101.59 148.639 101.674C148.613 101.784 148.624 101.907 148.634 102.023C148.749 103.279 148.899 104.533 148.975 105.792C149.054 107.117 149.057 108.446 149.105 109.773C149.113 110.011 149.178 110.247 149.217 110.601C149.178 111.617 149.169 112.635 149.094 113.649C148.961 115.435 148.893 117.237 148.604 119C148.313 120.774 147.885 122.541 147.339 124.254C146.429 127.115 145.677 130.006 145.501 133.003C145.405 134.654 145.525 136.32 145.602 137.977C145.683 139.709 145.816 141.438 145.952 143.167C145.993 143.699 146.049 144.25 146.226 144.746C146.356 145.11 146.695 145.4 146.941 145.723C147.266 145.396 147.705 145.124 147.892 144.732C148.24 144.005 148.507 143.223 148.684 142.436C148.891 141.515 149.052 140.566 149.073 139.626C149.09 138.879 148.797 138.129 148.765 137.376C148.71 136.048 148.704 134.713 148.762 133.385C148.826 131.893 148.954 130.402 149.109 128.916C149.266 127.396 149.5 125.884 149.682 124.367L149.86 122.885C150.007 121.65 150.149 120.414 150.26 119.176C150.385 117.772 150.479 116.36 150.49 114.951C150.504 113.079 150.444 111.205 150.379 109.333C150.337 108.118 150.258 106.903 150.145 105.692C150.012 104.266 149.594 102.914 148.913 101.649C148.875 101.579 148.831 101.513 148.789 101.445ZM176.653 135.344C177.705 135.587 178.761 135.814 179.821 136.015C180.424 136.13 181.04 136.178 181.709 136.256C183.199 136.372 184.628 136.553 186.062 136.593C188.761 136.667 191.391 136.227 193.934 135.306C193.967 135.294 193.989 135.23 194.018 135.229C194.265 135.222 194.512 135.224 194.76 135.223C194.595 135.372 194.449 135.555 194.261 135.666C192.86 136.497 191.366 137.04 189.748 137.33C187.947 137.654 186.14 137.605 184.352 137.505C182.382 137.393 180.419 137.111 178.48 136.636C176.835 136.233 175.252 135.698 173.69 135.071C173.592 135.032 173.506 134.963 173.414 134.908C173.504 134.89 173.594 134.874 173.683 134.853C174.742 134.601 175.673 135.117 176.653 135.344ZM177.567 120.485C178.209 120.719 178.846 120.967 179.476 121.23C179.858 121.389 180.225 121.584 180.628 121.792C182.439 122.605 184.27 123.19 186.197 123.542C188.037 123.877 189.877 123.923 191.719 123.842C192.875 123.791 194.02 123.499 195.171 123.323C195.312 123.301 195.46 123.325 195.604 123.328C195.516 123.463 195.461 123.652 195.337 123.725C194.114 124.44 192.818 124.924 191.386 125.042C187.955 125.325 184.74 124.467 181.648 123.127C180.194 122.497 178.852 121.606 177.465 120.823C177.347 120.756 177.271 120.617 177.175 120.511C177.307 120.5 177.455 120.444 177.567 120.485ZM86.9684 120.489C86.8728 120.702 86.7896 120.921 86.679 121.125C86.4534 121.543 86.0857 121.921 86.2261 122.447C86.4398 123.248 86.6861 124.04 86.9285 124.832C86.9407 124.872 87.0984 124.909 87.1013 124.903C87.1658 124.776 87.2181 124.642 87.2727 124.393C87.3822 124.205 87.4569 123.98 87.6095 123.84C87.8181 123.648 87.8456 123.499 87.752 123.225C87.5136 122.526 87.3337 121.807 87.1319 121.096C87.0748 120.894 87.0228 120.692 86.9684 120.489ZM88.2723 117.445C88.2118 117.512 88.1309 117.571 88.0942 117.649C87.8748 118.12 87.6023 118.578 87.4661 119.073C87.1716 120.143 87.6797 121.138 87.8571 122.164C87.935 122.128 88.0526 122.113 88.0847 122.052C88.4222 121.418 88.7743 120.789 89.0585 120.131C89.1591 119.898 89.1538 119.567 89.0747 119.321C88.9613 118.967 88.7359 118.648 88.5583 118.198C88.5194 118.04 88.4916 117.878 88.4375 117.725C88.4021 117.624 88.3287 117.538 88.2723 117.445ZM89.6306 111.945C89.5848 112.067 89.4971 112.189 89.5001 112.309C89.5215 113.176 89.2814 113.972 88.9697 114.775C88.7738 115.28 88.663 115.81 88.749 116.42C88.8408 117.07 89.263 117.429 89.5581 117.904C89.6915 118.118 89.8836 118.296 90.0491 118.49C90.195 118.296 90.3409 118.101 90.5452 117.848C90.7788 117.419 91.023 116.996 91.2436 116.562C91.7333 115.596 91.7281 115.594 90.9533 114.748C90.8904 114.679 90.8337 114.604 90.7795 114.529C90.2955 113.851 90.0268 113.09 89.8735 112.277C89.8505 112.156 89.7144 112.055 89.6306 111.945ZM91.2918 108.102C91.2369 108.195 91.1769 108.287 91.128 108.384C90.8928 108.85 90.7069 109.348 90.4169 109.777C89.9682 110.439 90.2818 111.058 90.4315 111.688C90.7013 112.826 91.0657 113.924 91.852 114.831C92.0336 115.04 92.0315 115.042 92.24 114.633C92.6244 114.093 92.9956 113.543 93.3992 113.017C93.588 112.771 93.7572 112.617 93.4436 112.307C93.0917 111.959 92.7539 111.554 92.5486 111.11C92.1348 110.215 91.8166 109.276 91.454 108.358C91.4175 108.265 91.3467 108.187 91.2918 108.102ZM108.094 111.85C108.505 112.039 108.904 112.289 109.245 112.587C110.193 113.414 111.272 113.789 112.524 113.705C112.699 113.694 116.423 113.506 116.144 113.984C115.954 114.311 113.143 114.852 112.821 114.856C111.525 114.873 109.971 114.255 109.321 113.984C109.058 113.875 107.122 112.71 107.485 112.026C107.626 111.761 107.949 111.783 108.094 111.85ZM93.1253 105.216C92.9276 105.52 92.6447 105.801 92.5539 106.135C92.4424 106.544 92.0455 106.864 92.1801 107.348C92.4575 108.343 92.6713 109.361 93.0199 110.331C93.2395 110.942 93.6549 111.482 93.992 112.049C93.9995 112.061 94.1524 112.027 94.1862 111.978C94.6441 111.323 95.259 110.867 96.0384 110.484C96.2351 110.348 96.4205 110.19 96.6314 110.081C96.8787 109.953 96.8486 109.924 96.6274 109.774C95.2244 108.824 94.2516 107.502 93.4704 106.025C93.3338 105.767 93.2392 105.486 93.1253 105.216ZM28.5153 93.8565C28.5566 93.9187 28.5938 93.9842 28.6398 94.0428C29.7821 95.4981 30.9257 96.9524 32.0678 98.4079C32.1823 98.5538 32.2889 98.7059 32.4284 98.8844C33.5732 100.068 34.6371 101.279 35.8175 102.363C37.2486 103.677 38.7724 104.89 40.2671 106.134C41.3432 107.03 42.4178 107.952 43.7528 108.436C44.603 108.744 45.4939 109.041 46.3853 109.114C48.3716 109.277 50.3717 109.265 52.3618 109.393C52.9655 109.432 53.5574 109.686 54.148 109.863C54.2355 109.89 54.4855 110.03 54.1021 110.086C52.9902 110.25 51.8909 110.506 50.7765 110.644C50.0985 110.728 49.4016 110.668 48.7133 110.658C46.9419 110.632 45.2691 110.178 43.6367 109.515C41.5571 108.67 39.6949 107.484 38.0273 105.994C36.8817 104.971 35.6865 103.983 34.6687 102.841C32.8514 100.803 31.1198 98.6845 29.4208 96.5452C28.8738 95.8563 28.5233 95.0031 28.4856 94.0771C28.4827 94.0041 28.5048 93.93 28.5153 93.8565ZM94.8359 102.23C94.319 102.882 93.6564 103.495 93.8313 104.432C93.9568 105.104 94.1945 105.756 94.4048 106.41C94.8607 107.827 96.03 108.625 97.1228 109.482C97.1812 109.528 97.3822 109.481 97.4497 109.412C98.3647 108.476 99.2678 107.528 100.174 106.583C100.348 106.402 100.592 106.245 100.072 106.203C99.7214 106.174 99.3847 105.993 99.0389 105.89C98.6052 105.76 98.1685 105.641 97.6163 105.517C97.2081 105.148 96.835 104.727 96.3839 104.421C95.6166 103.901 95.1415 103.224 94.9808 102.316C94.974 102.278 94.8415 102.223 94.8359 102.23ZM123.105 98.2744L122.706 98.4078C121.685 98.7493 120.672 99.1127 119.853 99.8735C118.913 100.747 118.431 101.869 118.136 103.076C118.076 103.32 118.035 103.562 118.013 103.802C118.034 103.712 118.061 103.625 118.09 103.546C118.168 103.33 118.366 103.153 118.528 102.974L118.593 102.903C118.911 102.562 119.253 102.302 119.765 102.636C120.33 103.004 120.081 103.462 119.923 103.91C119.87 104.061 119.789 104.202 119.692 104.378C119.429 104.813 119.069 105.049 118.62 104.912C118.377 104.838 118.105 104.592 118.014 104.358C118.006 104.34 118 104.32 117.995 104.301C118.014 105.122 118.279 105.901 118.843 106.589C119.336 107.192 119.938 107.718 120.545 108.212C122.013 109.41 123.661 109.62 125.33 108.751C127.457 107.644 128.516 105.637 129.465 103.472C129.525 102.986 129.659 102.495 129.628 102.015C129.565 101.073 128.958 100.407 128.276 99.8386C126.779 98.5918 125.191 97.5744 123.105 98.2744ZM97.0294 97.9226C96.8939 98.0803 96.749 98.2312 96.6268 98.3985C96.5653 98.4826 96.5374 98.5944 96.5071 98.6975C96.2324 99.6336 95.9022 100.559 95.7091 101.512C95.588 102.109 95.7442 102.73 96.1553 103.355C96.6207 103.686 97.0852 104.019 97.5518 104.348C98.4926 105.013 99.6034 105.226 100.687 105.503C100.775 105.525 100.987 105.365 101.021 105.254C101.323 104.243 101.6 103.224 101.875 102.206C101.881 102.185 101.786 102.113 101.732 102.106C100.778 101.979 99.8343 101.925 99.0266 101.231C98.1435 100.473 97.6013 99.5407 97.2085 98.485C97.14 98.3008 97.0887 98.1102 97.0294 97.9226ZM108.052 93.8239C106.921 94.0125 106.178 94.8395 105.528 95.734C104.733 96.8286 104.284 98.0664 104.241 99.3998C104.204 100.506 104.519 101.57 105.033 102.569L105.114 102.727C105.426 103.334 105.742 103.913 106.415 104.238C108.083 105.043 109.83 105.311 111.648 105.034C112.192 104.952 112.828 104.824 113.215 104.482C114.699 103.174 115.52 101.488 115.732 99.4395C115.713 98.9963 115.719 98.55 115.669 98.1104C115.518 96.7979 114.828 95.7992 113.81 94.9971C112.915 94.2918 111.868 93.8876 110.774 93.7425C109.883 93.6244 108.942 93.6754 108.052 93.8239ZM110.884 85.4739C110.278 87.3002 109.675 89.1276 109.082 90.9581C109.214 90.9315 109.354 90.8793 109.464 90.9165C110.123 91.1399 110.756 91.4076 111.271 91.9119C111.561 92.1956 111.916 92.4133 112.27 92.6899C112.345 92.7539 112.42 92.814 112.492 92.8725C112.536 92.8838 112.579 92.8959 112.623 92.9082C113.949 93.2839 115.094 93.9853 115.908 95.1451C116.997 96.6957 117.262 98.5056 117.543 100.311C117.558 100.403 117.569 100.495 117.581 100.587C117.675 100.546 117.785 100.523 117.86 100.46C118.009 100.335 118.14 100.19 118.276 100.051C119.339 98.9608 120.531 98.0267 121.904 97.3795C123.363 96.6915 124.865 96.5213 126.444 97.1496C127.63 97.6214 128.582 98.3792 129.509 99.1986C129.912 99.556 131.811 100.461 135.205 101.915C134.651 99.5705 134.079 97.8864 133.49 96.862C132.749 95.5719 131.912 94.5864 130.87 93.6224C129.049 91.9384 127.145 90.391 125.031 89.0838C122.806 87.7085 120.403 86.7958 117.9 86.1246C116.141 85.653 114.358 85.27 112.588 84.8387C111.814 84.6503 111.071 84.9101 110.884 85.4739ZM99.3307 95.7072C98.401 96.3374 97.6594 97.4123 98.0815 98.7358C98.5494 100.203 100.204 101.471 101.774 101.527C101.923 101.533 102.152 101.346 102.219 101.193C102.408 100.766 102.542 100.314 102.674 99.8642C102.699 99.7784 102.613 99.5703 102.575 99.5695C101.579 99.5475 100.942 98.9099 100.246 98.2123C99.7966 97.4768 99.4892 96.7006 99.5352 95.8159C99.537 95.7808 99.3627 95.6855 99.3307 95.7072ZM50.5668 97.2816C51.0832 97.5386 51.5976 97.8037 52.0918 98.1006C53.12 98.7185 54.1137 99.3972 55.1641 99.9736C55.724 100.281 56.3747 100.421 56.9791 100.651C57.1124 100.701 57.2234 100.811 57.3447 100.893C57.2197 100.954 57.0729 100.99 56.9732 101.08C56.2468 101.73 55.5635 101.129 54.8852 100.988C53.484 100.699 52.5049 99.7377 51.5377 98.7091C51.1126 98.3229 50.7103 97.9726 50.3254 97.6041C50.2331 97.5157 50.199 97.3664 50.1382 97.2452C50.2822 97.2549 50.4474 97.2222 50.5668 97.2816ZM106.143 98.3528C106.636 98.5612 106.592 98.9568 106.566 99.3399C106.522 99.975 105.657 100.805 105.104 100.703C104.907 100.666 104.61 100.366 104.614 100.194C104.626 99.7455 104.78 99.3011 104.907 98.8259C104.991 98.7417 105.047 98.6874 105.101 98.6316C105.393 98.3308 105.692 98.1614 106.143 98.3528ZM101.006 93.9463C100.83 94.2038 100.589 94.4385 100.491 94.7226C100.008 96.1149 100.89 98.2864 102.73 98.815C102.818 98.8403 103.014 98.7607 103.04 98.6874C103.33 97.8745 103.598 97.0537 103.865 96.233C103.882 96.1809 103.847 96.0579 103.835 96.0577C102.466 96.0388 101.8 95.1965 101.403 94.0172C101.378 93.9443 101.181 93.9296 101.006 93.9463ZM125.048 96.4726C125.165 96.5344 125.261 96.6339 125.367 96.716C125.252 96.6888 125.139 96.6546 125.023 96.6356C123.825 96.439 122.626 96.2496 121.43 96.0447C121.263 96.0161 121.109 95.9148 120.948 95.8471C121.124 95.7979 121.299 95.7487 121.533 95.6995C122.807 95.6752 123.967 95.899 125.048 96.4726ZM103.921 90.3302C103.787 90.5274 103.65 90.7233 103.521 90.9234C103.503 90.9508 103.533 91.007 103.516 91.0374C103.145 91.7393 102.788 92.4496 102.39 93.1359C102.167 93.52 102.154 94.2724 102.487 94.4755C102.961 94.7653 103.477 94.9879 103.98 95.2304C104.314 95.3914 104.516 95.1873 104.684 94.9409C105.004 94.4722 105.298 93.984 105.639 93.531C105.906 93.177 105.642 93.2506 105.389 93.1866C104.177 92.8836 104.037 91.8699 103.876 90.8811C103.847 90.7046 103.903 90.5142 103.921 90.3302ZM105.904 87.529C105.732 87.6681 105.496 87.7727 105.399 87.9523C104.862 88.9475 104.661 90.0363 104.699 91.1526C104.728 92.0264 105.265 92.6225 106.111 92.8466C106.228 92.8776 106.394 92.8304 106.503 92.7634C106.785 92.5901 107.047 92.3854 107.375 92.1348C107.492 91.9306 107.641 91.7378 107.718 91.5196C107.827 91.213 107.897 90.8901 107.952 90.5687C107.971 90.4562 107.935 90.2734 107.855 90.2147C107.072 89.6337 106.49 88.8977 106.091 88.0125C106.02 87.8551 105.966 87.6903 105.904 87.529ZM109.067 91.0075L108.827 91.7496C108.8 91.8322 108.914 92.0452 108.995 92.0645C109.708 92.2357 110.429 92.3812 111.145 92.5413C110.751 92.2509 110.357 91.9596 109.962 91.6707C109.756 91.5203 109.527 91.4018 109.32 91.2534C109.225 91.1858 109.149 91.0935 109.067 91.0075ZM109.445 82.4755C109.038 82.82 108.649 83.1867 108.194 83.6028C107.426 84.1925 107.112 85.0377 106.92 85.9344C106.665 87.1276 106.792 88.2347 107.75 89.1254C108.075 89.4272 108.288 89.2991 108.423 88.969C108.836 87.9533 109.229 86.9293 109.628 85.9077C110.047 84.8353 110.283 83.7669 109.852 82.616C109.72 82.2628 109.623 82.3253 109.445 82.4755ZM124.042 83.5648C123.533 83.6791 122.954 84.4598 122.748 85.0651C122.658 85.3311 122.524 85.5367 123.041 85.6781C124.173 85.988 125.253 86.4822 126.251 87.2813C126.476 87.2905 126.708 87.3405 126.924 87.3015C127.735 87.1547 128.537 86.2848 129.349 86.2601C130.442 86.2268 131.55 86.3285 132.636 86.4828C133.757 86.6421 134.888 86.8444 135.962 87.1896C137.381 87.6453 138.749 88.2589 140.14 88.8027C140.232 88.8389 140.331 88.859 140.427 88.8866C140.402 88.8063 140.364 88.7277 140.354 88.6456C140.289 88.1047 139.927 87.7661 139.502 87.526C138.289 86.8413 137.08 86.1454 135.827 85.5421C133.73 84.5325 131.564 83.7461 129.231 83.4021C127.473 83.1428 125.754 83.1803 124.042 83.5648ZM122.804 80.5069C121.079 80.5791 119.63 81.2321 118.547 82.6045C118.022 83.2688 118.14 84.2388 118.938 84.4722C119.93 84.7621 120.93 85.0217 122.043 85.2944C122.277 84.9438 122.44 83.9153 122.759 83.6796C123.65 83.0218 124.708 82.7538 125.804 82.7373C126.76 82.7229 127.726 82.7401 128.673 82.8596C129.801 83.0019 130.935 83.1894 132.027 83.497C134.432 84.1746 136.668 85.2683 138.854 86.4652C138.987 86.5378 139.128 86.5948 139.265 86.6591C139.263 86.4507 139.286 86.2374 139.248 86.0358C139.23 85.941 139.106 85.8508 139.01 85.7888C138.151 85.2336 137.326 84.6095 136.417 84.1505C134.521 83.1923 132.586 82.3201 130.529 81.7309C127.999 81.0064 125.461 80.3957 122.804 80.5069ZM119.221 76.5178C117.303 76.7284 115.631 77.37 114.341 78.8562C113.594 79.7174 113.147 80.6996 113.102 81.9665C113.102 82.142 113.067 82.9085 113.111 83.0719C113.167 83.2766 113.256 83.6037 113.387 83.634C113.965 83.7678 114.562 83.8265 115.155 83.8782C115.242 83.8857 115.414 83.7186 115.428 83.616C115.492 83.1481 115.444 82.0745 115.564 81.6248C116.026 79.8839 117.275 78.8842 118.892 78.2899C120.251 77.7906 121.665 77.7809 123.1 77.7965C125.23 77.8195 127.311 78.1273 129.36 78.6533C130.189 78.8663 130.971 79.2706 131.768 79.6044C131.871 79.6475 131.932 79.7899 132.013 79.8863C131.894 79.8682 131.768 79.8681 131.656 79.8294C128.947 78.8941 126.145 78.4558 123.296 78.2917C121.9 78.2112 120.499 78.3555 119.173 78.7749C117.708 79.2385 116.477 80.0689 115.978 81.6598C115.708 82.5185 116.096 83.8591 116.934 84.1687C117.423 84.3494 117.598 84.1224 117.789 83.7242C118.031 83.2177 118.287 82.1077 118.656 81.6961C119.821 80.3985 121.396 79.9686 123.056 79.9461C124.155 79.9313 125.27 80.0846 126.355 80.2883C127.986 80.5946 129.624 80.9203 131.21 81.4015C133.582 82.1216 135.849 83.1174 137.942 84.4743C138.092 84.5715 138.287 84.5982 138.462 84.6577C138.408 84.4858 138.376 84.3041 138.299 84.1433C137.347 82.1457 136.186 80.2933 134.498 78.8242C133.509 77.9628 132.382 77.3219 131.104 77.0098C130.178 76.7835 129.244 76.7272 128.268 76.8494C127.348 76.9644 126.395 76.8108 125.457 76.7628C125.005 76.7396 124.55 76.7115 124.103 76.6443C122.48 76.4005 120.862 76.3376 119.221 76.5178ZM112.572 80.1549C112.506 80.1834 112.431 80.2003 112.376 80.2422C112.034 80.4991 111.728 80.8269 111.351 81.0075C110.741 81.3 110.851 81.7639 110.933 82.2499C110.945 82.3201 110.992 82.386 110.996 82.4556C111.02 82.8167 111.035 83.1784 111.053 83.5398C111.134 84.0462 111.757 84.0462 112.167 83.9504C112.245 83.6526 112.355 83.3589 112.395 83.0561C112.486 82.3504 112.545 81.0591 112.612 80.3504C112.618 80.287 112.586 80.2202 112.572 80.1549ZM90.0759 47.5293C90.184 47.6602 90.102 47.9605 90.0784 48.1833C90.0634 48.3249 89.9583 48.4646 89.9675 48.6001C90.074 50.169 90.235 51.7352 90.2994 53.3055C90.3568 54.7054 90.3091 56.1096 90.3144 57.5119C90.3151 57.6965 90.3358 58.0353 90.3797 58.0408C90.7242 58.0834 91.0768 58.0671 91.4259 58.049C91.4484 58.0479 91.4851 57.8783 91.476 57.7912C91.449 57.5334 91.3908 57.2788 91.3653 57.0209C91.2057 55.4109 91.0003 53.8031 90.9116 52.1889C90.8357 50.8103 90.8697 49.4231 90.9236 48.0424C90.9319 47.8307 91.2959 47.4872 91.5205 47.4656C91.8186 47.4369 91.9903 47.7331 91.9575 48.1057C91.9168 48.5695 91.913 49.0428 91.9541 49.5066C92.0934 51.0795 92.257 57.602 92.3115 57.9893C92.317 58.0278 92.5055 58.062 92.6091 58.0621C95.4722 58.066 98.3355 58.0885 101.198 58.0547C102.472 58.0396 103.743 57.904 105.016 57.8334C105.896 57.7846 106.78 57.7974 107.655 57.7063C110.094 57.4519 112.537 57.3571 114.989 57.3447C116.227 57.3384 117.462 57.1133 118.701 57.0175C120.424 56.8843 122.147 56.7399 123.873 56.6729C125.978 56.5912 128.086 56.5777 130.193 56.5535C130.514 56.5498 130.662 56.5311 130.645 56.1342C130.579 54.5739 130.56 53.0116 130.515 51.4503C130.485 50.3755 130.444 49.3009 130.397 48.2267C130.384 47.917 130.474 47.7714 130.816 47.7714C131.17 47.7714 131.217 47.9441 131.224 48.24C131.248 49.2759 131.18 50.3324 131.362 51.342C131.636 52.8519 131.523 54.358 131.57 55.866C131.588 56.4424 131.858 56.6561 132.405 56.5478C132.659 56.4974 132.917 56.4343 133.174 56.434C138.51 56.4274 143.847 56.4195 149.183 56.4344C150.959 56.4393 155.642 56.5011 157.417 56.5498C157.889 56.5627 158.36 56.6144 158.829 56.6653C159.326 56.7191 159.715 57.2315 159.719 57.8425C159.726 58.8942 159.721 59.946 159.721 60.9977C159.721 61.0951 159.716 61.1928 159.722 61.2898C159.74 61.5778 159.876 62.0428 159.759 62.1182C159.472 62.304 159.071 62.3651 158.711 62.3808C156.524 62.4765 151.429 62.5687 149.24 62.6177C146.433 62.6805 143.625 62.7054 140.817 62.7393C137.249 62.7824 133.681 62.8117 130.114 62.8604C128.669 62.8801 127.225 62.9321 125.78 62.975C124.628 63.0093 123.475 63.0572 122.323 63.0897C120.761 63.1337 119.2 63.1728 117.638 63.2069C115.668 63.2499 113.697 63.284 111.727 63.3253C109.99 63.3616 108.253 63.4026 106.517 63.4416C104.78 63.4805 103.042 63.5029 101.306 63.5634C99.7409 63.618 98.1761 63.7045 96.6121 63.7957C95.5916 63.8552 94.5705 63.9249 93.5541 64.0319C92.3111 64.1628 91.0742 64.3507 89.8319 64.4891C88.9318 64.5894 88.0285 64.6766 87.1243 64.7216C85.1903 64.8179 83.2534 64.8585 81.3205 64.9703C80.1779 65.0363 73.2287 65.2131 72.0868 65.3011C71.7186 65.3294 71.3336 65.2647 70.971 65.1796C70.8237 65.1451 70.6273 64.9568 70.6048 64.8145C70.494 64.1119 70.4242 63.4021 70.3591 62.6931C70.3053 62.1068 70.2379 61.5171 70.2524 60.9308C70.2634 60.4873 70.3851 60.0627 70.2855 59.5951C70.2562 59.4576 70.7613 59.0703 71.0566 59.0246C71.988 58.8807 78.7517 58.866 79.6902 58.7611C80.8751 58.6287 82.0553 58.4555 83.2381 58.3035C83.3528 58.2888 83.471 58.3035 83.5873 58.2985C85.3858 58.2213 87.184 58.1323 88.9832 58.0757C89.2927 58.0659 89.2632 57.9251 89.2618 57.7235C89.2564 56.9444 89.2444 56.165 89.2639 55.3864C89.2831 54.6231 89.3375 53.8608 89.3765 53.0396C89.2251 51.8947 89.0449 50.8113 88.9333 49.7208C88.8684 49.0861 88.877 48.4369 88.9326 47.8013C88.948 47.6255 89.2291 47.386 89.4277 47.3376C89.6259 47.2894 89.952 47.3793 90.0759 47.5293ZM149.396 57.254C143.803 57.2756 138.21 57.3189 132.618 57.3666C129.771 57.3909 126.923 57.4112 124.078 57.4941C122.702 57.5342 121.332 57.7241 119.958 57.8291C118.293 57.9562 116.627 58.0662 114.961 58.1816C114.355 58.2237 113.747 58.2591 113.14 58.2992C111.377 58.4156 109.616 58.5634 107.851 58.6411C106.078 58.7191 104.301 58.7276 102.408 58.7665C101.957 58.8055 101.506 58.8731 101.055 58.8789C97.351 58.9259 93.647 58.9436 89.9438 59.0087C88.3782 59.0362 86.8142 59.1547 85.2496 59.2347C84.5644 59.2697 83.8784 59.2973 83.1949 59.3538C81.4086 59.5012 73.8104 59.667 72.0242 59.8152C71.6027 59.8502 71.3606 59.955 71.3955 60.474C71.4742 61.6432 71.5041 62.8167 71.5136 63.9888C71.5164 64.3329 71.6119 64.4088 71.9312 64.3817C73.0079 64.2903 79.8997 64.2197 80.9776 64.1432C82.0943 64.0639 83.2105 63.9764 84.328 63.9117C85.8532 63.8234 87.3796 63.7566 88.9049 63.6716C89.124 63.6594 89.3391 63.5881 89.558 63.5601C90.5024 63.4394 91.446 63.3108 92.3927 63.2118C93.3128 63.1156 94.2353 63.0363 95.1586 62.9773C97.1544 62.8499 99.1503 62.7147 101.148 62.6311C102.942 62.556 104.738 62.5465 106.533 62.5063C108.211 62.4687 109.889 62.4259 111.568 62.3904C113.557 62.3484 115.547 62.3068 117.537 62.2741C120.209 62.2301 122.88 62.2011 125.551 62.1533C126.879 62.1295 128.207 62.0802 129.534 62.0384C130.667 62.0027 131.8 61.9469 132.933 61.9251C135.449 61.8768 137.964 61.8415 140.48 61.806C143.463 61.764 146.447 61.7461 149.429 61.6821C151.52 61.6372 156.517 61.5362 158.607 61.4439C158.709 61.4394 158.888 61.2798 158.89 61.1895C158.91 60.1967 158.902 59.2033 158.903 58.21C158.904 57.7891 158.66 57.5515 158.281 57.489C157.835 57.4155 157.38 57.3821 156.928 57.3678C155.387 57.3189 150.938 57.248 149.396 57.254ZM133.213 46.909C133.354 48.9444 133.501 50.9795 133.682 53.0116C133.74 53.6682 133.889 54.3187 134.027 54.9655C134.146 55.5248 133.816 55.9171 133.118 55.9323C132.971 55.5045 132.803 55.1129 132.748 54.7059C132.635 53.8685 132.543 53.0243 132.512 52.1804C132.446 50.429 132.425 48.676 132.388 46.9237C132.382 46.6565 132.329 46.3833 132.76 46.3682C133.191 46.353 133.19 46.5851 133.213 46.909Z" fill="#1A1A1A"/>
<path fill-rule="evenodd" clip-rule="evenodd" d="M112.416 162.762C110.106 168.551 100.711 161.497 99.5333 157.346C99.0918 155.79 102.117 152.601 103.63 153.862C106.325 156.108 106.131 159.668 110.273 160.56C110.891 160.693 112.216 160.674 112.816 160.846C113.124 160.934 112.991 161.573 112.416 162.762Z" fill="#93BCB2"/>
<path fill-rule="evenodd" clip-rule="evenodd" d="M150.168 134.619C150.437 135.923 150.673 137.169 150.645 138.457C150.629 139.218 150.704 139.983 150.754 140.745C150.893 142.913 149.894 144.435 148.139 145.612C146.936 146.419 145.849 147.399 144.66 148.23C143.661 148.928 142.612 149.564 141.545 150.155C139.389 151.349 137.179 152.467 136.199 154.96C135.744 156.115 135.141 157.243 134.899 158.443C134.621 159.829 134.875 161.208 136.151 162.154C136.195 162.187 136.216 162.252 136.261 162.282C136.459 162.415 136.672 162.652 136.859 162.634C137.004 162.62 137.138 162.295 137.242 162.09C137.472 161.633 137.261 161.229 137.158 160.769C137.001 160.072 137.124 159.312 137.144 158.579C137.147 158.499 137.26 158.423 137.322 158.345C137.357 158.438 137.415 158.529 137.424 158.624C137.471 159.133 137.458 159.653 137.561 160.149C137.635 160.511 137.819 160.866 138.023 161.179C138.233 161.504 138.942 161.349 139.058 160.956C139.273 160.228 139.236 159.498 139.079 158.753C139 158.376 139.063 157.967 139.087 157.574C139.09 157.515 139.226 157.464 139.301 157.41C139.339 157.481 139.401 157.556 139.409 157.622C139.756 160.311 140.264 160.311 140.473 160.39C140.682 160.47 140.948 160.362 141.046 160.311C141.168 160.246 141.26 160.031 141.276 159.872C141.337 159.268 141.264 158.631 141.427 158.059C141.637 157.322 141.956 156.593 142.361 155.943C142.63 155.511 143.122 155.213 143.531 154.876C144.594 153.999 145.698 153.184 147.039 152.77C147.989 152.476 148.947 152.206 149.898 151.916C151.54 151.414 153.212 150.989 154.812 150.378C157.307 149.425 159.167 147.772 159.734 145.039C160.045 143.54 159.805 142.03 159.24 140.619C158.791 139.501 158.183 138.448 157.65 137.363C157.596 137.253 157.575 137.126 157.539 137.007C157.635 137.07 157.748 137.117 157.825 137.198C159.184 138.623 160.083 140.312 160.498 142.221C160.943 144.267 161.087 146.336 160.081 148.281C159.86 148.707 159.411 149.05 159 149.335C157.76 150.196 156.374 150.777 154.956 151.273C153.306 151.851 151.682 152.578 149.982 152.919C148.342 153.248 146.92 154.007 145.411 154.602C144.484 154.968 143.979 155.819 143.252 156.409C142.486 157.033 142.265 157.796 142.334 158.717C142.354 158.989 142.326 159.263 142.339 159.535C142.42 161.285 141.55 161.443 140.233 160.924C140.176 160.901 140.013 160.976 140.009 161.018C139.9 162.005 139.336 162.488 138.436 162.166C138.049 162.027 138.068 162.288 138.03 162.379C137.634 163.327 136.664 163.634 135.999 162.9C135.309 162.139 134.668 161.296 134.196 160.39C133.962 159.941 134.07 159.252 134.174 158.701C134.353 157.758 134.594 156.818 134.911 155.913C135.331 154.715 136.02 153.667 136.82 152.666C137.636 151.644 138.655 150.912 139.756 150.294C141.269 149.446 142.76 148.567 144.168 147.558C144.746 147.145 145.236 146.612 145.804 146.183C146.553 145.618 147.341 145.104 148.11 144.565C149.16 143.83 149.878 142.951 149.844 141.543C149.82 140.601 150.126 139.655 150.146 138.709C150.166 137.769 150 136.827 149.939 135.884C149.909 135.432 149.93 134.976 149.937 134.521C149.938 134.44 149.98 134.36 150.003 134.28C150.058 134.373 150.113 134.467 150.168 134.619Z" fill="#1A1A1A"/>
<path fill-rule="evenodd" clip-rule="evenodd" d="M35.0441 71.2723C35.0991 71.152 35.2021 71.0356 35.2025 71.036C36.4042 72.09 37.1634 73.4022 37.6425 74.93C37.8487 75.5876 38.3035 76.1886 38.7298 76.7515C39.5339 77.8131 40.4015 78.8265 41.2299 79.8702C41.2627 79.9115 41.1916 80.1048 41.1209 80.1473C40.6458 80.4327 39.7969 80.2807 39.2856 79.7646C38.8493 79.3241 38.4658 78.8284 38.0834 78.3381C37.5095 77.6023 36.7059 77.3119 35.8422 77.1149C34.4689 76.8016 33.4461 75.9578 32.5936 74.8928C31.1556 73.0963 30.5539 70.9697 30.2581 68.737C30.1865 68.1968 30.0739 67.6229 30.1812 67.1062C30.4028 66.0387 31.3568 65.455 32.5508 65.8054C34.6935 66.4341 36.8254 67.1344 38.8918 67.9766C40.235 68.5239 40.7708 69.7909 41.0214 71.1994C41.2329 72.3888 40.9696 73.4613 40.4998 74.5178C40.3371 74.8836 40.3085 74.8701 40.0686 74.5272C39.6005 73.8578 39.4818 73.069 39.6266 72.3298C39.9447 70.706 39.2117 69.4249 37.9194 68.9391C36.4194 68.3751 34.9236 67.7907 33.3953 67.3135C31.8826 66.8412 31.9036 66.9432 32.183 68.4098C32.5619 70.3985 33.2889 72.3365 34.0245 74.2351C34.4168 75.2474 35.2277 76.0079 36.3763 76.3155C36.7847 76.4249 36.7286 76.1959 36.6704 76.031C36.3951 75.2507 36.1022 74.4755 35.7826 73.7123C35.4593 72.9404 35.0033 72.2141 35.0441 71.2723Z" fill="#357A6A"/>
<path fill-rule="evenodd" clip-rule="evenodd" d="M153.644 132.778C152.148 132.316 150.742 132.524 149.339 133.078C149.01 133.208 148.549 133.133 148.195 133.014C148.032 132.96 148.544 132.083 148.955 131.927C149.443 131.742 149.944 131.538 150.456 131.478C152.014 131.296 153.459 131.712 154.831 132.44C155.434 132.76 156.071 133.017 156.671 133.343C156.928 133.482 157.141 133.713 157.349 133.926C157.407 133.985 157.42 134.198 157.381 134.222C157.284 134.28 157.127 134.32 157.028 134.281C156.411 134.036 155.8 133.773 155.192 133.505C154.682 133.281 154.18 133.041 153.644 132.778Z" fill="#1A1A1A"/>
<path fill-rule="evenodd" clip-rule="evenodd" d="M107.478 49.7377C106.464 50.4398 105.505 51.1527 104.489 51.7747C103.38 52.4535 102.227 53.0621 101.074 53.6637C100.909 53.7497 100.507 53.6986 100.437 53.5802C100.316 53.3736 100.272 53.0899 100.66 52.906C101.346 52.5815 101.998 52.1789 102.636 51.7654C103.621 51.1275 104.578 50.4477 105.554 49.7957C106.084 49.4411 106.605 49.0576 107.178 48.788C107.411 48.6781 107.951 48.734 108.039 48.8901C108.301 49.3568 107.893 49.5622 107.478 49.7377Z" fill="#A9A9A9"/>
<path fill-rule="evenodd" clip-rule="evenodd" d="M114.725 123.019C115.065 122.717 115.373 122.439 115.691 122.174C115.784 122.097 115.907 122.055 116.016 121.997C116.063 122.098 116.137 122.195 116.152 122.3C116.252 122.997 116.265 123.737 116.912 124.2C117.187 124.397 117.509 124.602 117.83 124.646C119.027 124.808 120.442 124.685 121.259 123.403C121.59 122.883 121.489 122.354 121.541 121.82C121.555 121.679 121.651 121.452 121.748 121.429C122.142 121.335 122.003 121.671 121.992 121.832C121.947 122.476 122.112 123.112 121.675 123.75C121.148 124.52 120.453 125.011 119.612 125.116C118.787 125.218 117.918 125.278 117.079 124.933C116.328 124.624 115.967 124.08 115.804 123.338C115.783 123.239 115.742 123.145 115.71 123.049C115.634 123.099 115.557 123.149 115.48 123.198C114.666 123.718 113.893 124.344 112.856 124.321C112.707 124.317 112.563 124.13 112.416 124.028C112.549 123.974 112.683 123.923 112.815 123.866C113.442 123.595 114.069 123.321 114.725 123.019Z" fill="#1A1A1A"/>
<path fill-rule="evenodd" clip-rule="evenodd" d="M139.503 50.0883C140.184 49.4845 140.823 48.8922 141.499 48.347C141.68 48.201 141.975 48.1619 142.222 48.1474C142.333 48.1409 142.549 48.3145 142.55 48.4085C142.553 48.5878 142.485 48.8264 142.357 48.9372C142.054 49.1995 141.675 49.3724 141.37 49.633C140.376 50.4843 139.413 51.373 138.405 52.2076C138.267 52.322 137.879 52.2993 137.72 52.1841C137.505 52.0291 137.588 51.7443 137.798 51.5612C138.354 51.0769 138.915 50.5983 139.503 50.0883Z" fill="#A9A9A9"/>
<path fill-rule="evenodd" clip-rule="evenodd" d="M120.598 154.021C120.027 154.099 119.517 154.212 119.002 154.245C118.395 154.285 117.781 154.289 117.176 154.234C116.981 154.217 116.808 153.963 116.624 153.817C116.804 153.729 116.975 153.593 117.164 153.561C118.167 153.391 119.17 153.198 120.182 153.109C121.037 153.033 121.903 153.079 122.764 153.098C122.862 153.1 123.029 153.271 123.032 153.368C123.035 153.466 122.888 153.638 122.784 153.659C122.078 153.797 121.366 153.904 120.598 154.021Z" fill="#1A1A1A"/>
<path fill-rule="evenodd" clip-rule="evenodd" d="M78.6682 49.6794C78.9047 49.4943 79.092 49.2803 79.3252 49.2001C79.5307 49.1295 79.9549 49.1442 79.9893 49.2338C80.0801 49.4703 80.1231 49.7352 79.7942 49.9858C78.7931 50.7486 77.8514 51.5891 76.8836 52.3959C76.7865 52.4769 76.6736 52.5842 76.5617 52.5923C76.3656 52.6065 76.0597 52.62 75.9911 52.5122C75.8971 52.3643 75.8937 52.0031 76.0038 51.9061C76.8616 51.1502 77.7559 50.4358 78.6682 49.6794Z" fill="#A9A9A9"/>
<path fill-rule="evenodd" clip-rule="evenodd" d="M142.103 52.3382C142.892 51.647 143.694 51.0302 144.461 50.3733C144.741 50.1345 145.027 49.9528 145.292 50.2385C145.527 50.4916 145.384 50.7989 145.116 51.0232C144.349 51.6652 143.601 52.3323 142.812 52.9456C142.66 53.0641 142.352 52.9834 142.117 52.9945C142.112 52.7952 142.108 52.5959 142.103 52.3382Z" fill="#A9A9A9"/>
<path fill-rule="evenodd" clip-rule="evenodd" d="M115.601 125.474C115.806 125.737 116.129 125.975 116.123 126.204C116.115 126.59 116.001 126.992 115.556 127.237C114.899 127.597 114.342 127.455 113.804 127.058C113.334 126.711 113.359 126.089 113.832 125.432C114.028 125.158 114.792 125.049 115.134 125.238C115.275 125.316 115.426 125.376 115.601 125.474ZM115.455 125.795C115.295 125.713 115.142 125.609 114.973 125.552C114.581 125.421 114.269 125.515 114.057 125.902C113.85 126.281 114.033 126.553 114.314 126.736C114.5 126.857 114.78 126.925 114.995 126.886C115.23 126.845 115.521 126.701 115.632 126.511C115.717 126.365 115.562 126.078 115.455 125.795Z" fill="#1A1A1A"/>
<path fill-rule="evenodd" clip-rule="evenodd" d="M108.647 52.6596C109.144 52.3579 109.598 52.0566 110.087 51.8325C110.216 51.7736 110.615 51.9574 110.613 52.0237C110.608 52.2857 110.574 52.6531 110.401 52.7846C109.959 53.1206 109.455 53.3937 108.939 53.6016C108.748 53.6786 108.313 53.5752 108.238 53.4278C108.082 53.1198 108.239 52.8084 108.647 52.6596Z" fill="#A9A9A9"/>
</svg>
