<svg width="20" height="20" viewBox="0 0 20 20" fill="none" xmlns="http://www.w3.org/2000/svg">
<g id="milk-bottle">
<path id="Vector" d="M12.2727 4.16675C13.0258 4.16675 13.6363 3.60711 13.6363 2.91675C13.6363 2.22639 13.0258 1.66675 12.2727 1.66675H7.72727C6.97416 1.66675 6.36363 2.22639 6.36363 2.91675C6.36363 3.60711 6.97416 4.16675 7.72727 4.16675M12.7049 4.10267C14.0553 6.57848 15 8.64783 15 11.481V15.0001C15 17.7578 14.3721 18.3334 11.3637 18.3334H8.63633C5.62787 18.3334 5 17.7578 5 15.0001V11.481C5 8.64783 5.92228 6.57143 7.27273 4.09562" stroke="#1A1A1A" stroke-width="1.25" stroke-linecap="round" stroke-linejoin="round"/>
<path id="Vector_2" d="M5 10C5.47619 10.4167 6.74338 10.3968 7.48694 10.2324C8.00538 10.1179 8.564 10.2522 8.91533 10.6366L9.6025 11.3882C9.99775 11.8205 10.5969 12.0257 11.1871 11.9311L12.0567 11.7916C12.5352 11.7148 13.011 11.9087 13.3367 12.2546C14.3522 13.3333 15 13.3333 15 13.3333" stroke="#1A1A1A" stroke-width="1.25" stroke-linejoin="round"/>
</g>
</svg>
