<svg width="273" height="273" viewBox="0 0 273 273" fill="none" xmlns="http://www.w3.org/2000/svg">
<rect width="273" height="273" rx="136.5" fill="#F9FCF8"/>
<path d="M232.409 195.941C230.893 225.521 207.192 252.327 178.14 258.093C149.087 263.858 117.291 248.522 103.135 222.505C101.573 219.634 100.182 216.623 98.791 213.612C95.1998 205.838 91.6098 198.067 85.0815 192.72C77.6277 186.615 68.0413 184.982 58.3585 183.333C52.2098 182.285 46.0222 181.231 40.317 179.021C26.5636 173.694 15.8848 161.073 12.9079 146.627C8.08394 123.218 23.364 99.3176 43.7406 86.8252C64.1172 74.3328 88.6024 70.8535 112.353 68.1726C121.438 67.1471 128.818 60.3004 134.089 52.8296C136.13 49.9374 137.966 46.8984 139.8 43.8615C142.705 39.0539 145.606 34.252 149.31 30.0473C164.994 12.243 194.201 9.23865 214.178 22.041C234.155 34.8433 243.717 61.1685 238.404 84.2934C237.489 88.2764 236.19 92.1546 234.892 96.0332L234.891 96.0337C233.648 99.7464 232.405 103.459 231.498 107.265C229.559 115.398 229.189 123.815 228.968 132.174C228.705 142.14 228.643 152.131 229.576 162.057C229.901 165.51 230.346 168.958 230.791 172.406C231.802 180.24 232.813 188.071 232.409 195.941Z" fill="#93BCB2"/>
<path d="M112.32 61.1077C123.183 55.7036 131.828 46.3183 137.273 35.4757C137.987 34.054 138.663 32.5435 138.638 30.9529C138.613 29.3623 137.688 27.6774 136.149 27.2735C133.944 26.6946 132.048 28.8087 130.673 30.6271C121.227 43.1187 107.478 52.9251 91.9639 55.0638C86.0054 55.8852 79.9559 55.5767 73.9491 55.2666L64.5667 54.7822C57.0099 54.392 49.3483 54.0097 41.9514 55.6042C34.5545 57.1988 27.3268 61.0338 23.2642 67.4175C21.9711 69.4494 21.0025 71.844 21.3603 74.2258C21.7269 76.6665 23.4619 78.7381 25.5517 80.0513C27.6416 81.3644 30.0695 82.0213 32.4757 82.571C34.2374 82.9734 36.0368 83.3299 37.8394 83.203C40.7865 82.9955 43.461 81.5301 46.0633 80.1041C46.2366 80.0091 46.4096 79.9143 46.5824 79.8201C51.1306 77.3388 55.8434 75.1352 60.7589 73.4979C67.927 71.1103 75.4642 69.9419 82.9828 68.7763C93.1117 67.2061 103.207 65.6412 112.32 61.1077Z" fill="#93BCB2"/>
<path d="M55.8293 205.076L55.8356 205.076C56.2783 205.094 56.7208 205.111 57.1622 205.134C64.1425 205.497 71.0502 207.209 77.3927 210.146C79.8109 211.266 82.2601 212.668 83.6183 214.961C85.2988 217.798 87.3162 220.436 89.6144 222.8C90.506 223.718 91.4715 224.615 92.6618 225.084C93.8521 225.552 95.3219 225.509 96.2877 224.671C97.4611 223.651 97.5372 221.842 97.1756 220.33C96.583 217.853 95.1053 215.695 93.6427 213.61C88.8433 206.768 83.7904 199.927 77.1115 194.904C70.4325 189.88 61.813 186.838 53.6378 188.573C50.8151 189.173 48.0174 190.394 46.1459 192.591C44.2744 194.787 43.5349 198.093 44.8828 200.644C45.952 202.668 48.1198 203.914 50.3392 204.475C52.1279 204.927 53.9804 205.002 55.8288 205.076H55.8293Z" fill="#93BCB2"/>
<path d="M244.639 102.17C242.773 101.466 240.66 102.316 239.08 103.533C235.961 105.938 234.115 109.7 233.276 113.548C232.436 117.397 232.504 121.377 232.575 125.316L233.192 159.153C233.237 161.626 233.347 164.29 234.867 166.24C235.343 166.85 235.994 167.386 236.764 167.464C237.697 167.56 238.56 166.97 239.234 166.318C242.918 162.751 243.402 157.131 243.843 152.009L243.859 151.823C244.507 144.305 245.629 136.827 247.217 129.449C247.663 127.375 248.154 125.287 249.087 123.381C252.015 117.407 251.315 109.823 247.343 104.485C246.625 103.52 245.765 102.594 244.639 102.17Z" fill="#93BCB2"/>
<path d="M177.798 147.972C179.767 148.514 181.531 150.154 181.724 152.187C182.097 151.378 182.918 150.793 183.804 150.705L182.517 152.072L184.145 152.105L181.905 153.356C183.294 155.924 183.069 159.093 182.179 161.874C181.634 163.576 180.846 165.282 180.999 167.062C181.15 168.814 182.706 170.603 184.406 170.245L184.491 170.225C186.535 169.709 188.772 170.008 190.609 171.042C193.247 172.528 194.848 175.289 196.661 177.714C198.262 179.855 200.156 181.846 202.524 183.086C204.893 184.327 207.797 184.736 210.264 183.706C211.488 183.195 212.584 182.35 213.882 182.08C215.181 181.811 216.512 182.533 216.989 183.764C217.2 184.309 216.747 186.326 215.59 188.683C215.779 188.629 215.975 188.594 216.181 188.581C222.257 188.186 228.389 186.865 233.618 183.746C235.28 182.754 236.832 181.592 238.374 180.421L239.272 179.736L239.816 179.318C243.198 176.697 246.537 173.776 247.928 169.791L248 169.577L248.154 169.106C248.452 168.214 248.829 167.292 249.69 167.015C250.881 166.632 251.966 167.785 252.69 168.806L257.909 176.164C258.043 176.353 258.18 176.548 258.231 176.774C258.458 177.774 256.965 178.279 256.003 177.924C254.255 177.278 252.851 175.355 251.016 175.685C249.726 175.917 248.956 177.166 248.318 178.342L248.157 178.642C244.295 185.873 237.797 191.657 230.168 194.655C228.201 195.428 226.169 196.02 224.14 196.611L220.042 197.805L220.764 197.933C226.879 199.006 233.404 199.66 238.957 196.95C242.655 195.146 245.503 192.04 248.19 188.901L249.165 187.755L249.567 187.276C251.216 185.298 252.783 183.18 253.264 180.673C253.449 179.71 254.664 179.251 255.609 179.512C256.555 179.773 257.274 180.521 257.943 181.237L263.017 186.667C263.416 187.095 263.837 187.567 263.895 188.149C263.954 188.732 263.432 189.391 262.869 189.228L257.368 187.63C256.852 187.48 256.281 187.334 255.795 187.563C255.423 187.739 255.182 188.1 254.969 188.456L249.055 198.444C247.389 201.256 244.303 202.887 241.27 204.106C233.998 207.031 226.107 208.405 218.274 208.111C217.423 208.079 216.571 208.027 215.73 207.895C212.571 207.397 209.717 205.79 206.954 204.165C207.439 205.937 207.007 207.431 204.13 207.545C201.581 207.645 195.339 197.152 193.397 196.608C182.801 193.636 181.061 187.771 177.657 183.764C177.657 183.764 170.777 184.653 166.235 183.706C155.588 181.487 148.433 174.658 145.853 174.224C143.274 173.789 141.573 175.442 140.776 174.44L140.776 173.713C140.899 173.513 142.132 172.361 145.648 173.109C150.559 174.154 158.408 178.098 164.403 178.834C170.695 179.608 176.026 178.584 175.996 178.412C175.936 178.062 177.518 176.573 176.254 175.821C174.991 175.069 156.644 167.706 152.656 161.569L152.608 161.493C151.923 160.355 151.402 157.527 152.782 158.821L153.168 158.136C154.653 159.537 159.531 162.739 164.597 165.896C169.954 169.234 177.518 171.371 177.657 171.278C180.739 169.193 178.005 167.683 177.495 167.24C176.301 166.203 174.715 165.637 173.686 164.436C171.217 161.554 172.981 156.399 170.159 153.862C169.732 153.478 169.214 153.176 168.905 152.692C168.375 151.863 168.635 150.71 169.277 149.964C169.919 149.219 170.858 148.803 171.787 148.478C173.715 147.805 175.829 147.429 177.798 147.972Z" fill="#F9FCF8"/>
<ellipse cx="179.452" cy="162.708" rx="0.727997" ry="0.728004" fill="#357A6A"/>
<ellipse cx="175.014" cy="162.708" rx="0.539894" ry="0.728004" fill="#357A6A"/>
<path d="M148.632 166.236C141.863 164.486 134.749 164.082 127.826 165.055C128.35 162.467 129.006 159.907 129.79 157.386C127.537 158.113 124.878 156.048 125.024 153.686C125.169 151.323 128.062 149.601 130.208 150.599C130.946 148.898 130.992 146.909 130.336 145.175C130.021 144.343 131.276 143.863 132.166 143.863L137.081 143.862C137.768 143.862 138.726 143.543 138.555 142.877C138.15 141.299 139.235 139.496 140.819 139.115C142.374 138.741 144.125 139.806 144.527 141.349L144.548 141.435C144.921 143.092 147.02 143.618 148.718 143.586L149.564 143.566C151.033 143.535 152.564 143.582 153.547 144.61C154.723 145.839 154.46 147.796 154.073 149.464L154.047 149.575C153.498 151.891 152.912 154.198 152.29 156.496C153.498 166.212 150.508 166.721 148.632 166.236Z" fill="#F9FCF8"/>
<path d="M92.1781 158.124C91.4605 153.454 91.4615 148.674 92.181 144.005L92.2174 143.779C92.3959 142.719 92.7094 141.6 93.5949 141.016C94.2578 140.579 95.0951 140.546 95.8936 140.546L102.007 140.563C102.285 140.564 102.59 140.574 102.799 140.758C103.009 140.941 103.003 141.362 102.735 141.437C102.094 141.614 101.726 142.352 101.804 143.012C101.882 143.672 102.311 144.244 102.815 144.677C104.016 145.71 105.884 146.077 107.214 145.215C108.545 144.354 108.857 142.135 107.597 141.175C110.453 141.117 113.31 141.126 116.165 141.202L117.235 141.233C117.581 141.245 117.964 141.272 118.206 141.52C118.387 141.706 118.447 141.977 118.488 142.233C118.804 144.21 118.458 146.287 117.519 148.054C117.369 148.336 117.023 148.646 116.787 148.432C115.783 147.521 114.096 147.645 113.07 148.529C112.043 149.414 111.646 150.883 111.828 152.225C112.002 153.518 112.944 154.898 114.247 154.833C115.273 154.781 116.413 153.884 117.189 154.558L115.883 160.393C115.651 161.43 115.234 162.66 114.195 162.882C108.199 164.165 101.911 164.068 95.9569 162.601L95.6681 162.528C94.9455 162.338 94.2257 162.094 93.6619 161.611C92.6806 160.771 92.3742 159.4 92.1781 158.124Z" fill="#F9FCF8"/>
<path d="M139.224 112.333L153.715 112.624L153.952 112.63C154.387 112.644 154.826 112.682 155.218 112.865C156.104 113.278 156.51 114.297 156.779 115.237C158.217 120.253 158.039 125.719 156.279 130.631L156.205 130.832C155.976 131.437 155.676 132.039 155.135 132.379C154.69 132.659 154.147 132.717 153.619 132.746L153.506 132.751C151.351 132.854 149.189 132.799 147.042 132.587C148.16 131.898 148.443 130.223 147.733 129.118C147.023 128.014 145.523 127.553 144.26 127.911C143.49 128.13 142.773 128.656 142.495 129.406C142.216 130.157 142.485 131.12 143.197 131.487C143.689 131.74 143.604 132.538 143.173 132.885C142.742 133.233 142.143 133.257 141.59 133.266L134.32 133.384C133.773 133.393 133.198 133.395 132.719 133.134C132.038 132.762 131.725 131.963 131.534 131.212C131.071 129.4 131.009 127.487 131.352 125.648C131.765 127.1 133.554 127.982 134.958 127.425C136.361 126.868 137.059 125 136.364 123.66C135.67 122.32 133.741 121.812 132.477 122.638L132.424 122.169C132.243 120.527 132.102 118.864 132.417 117.247C132.763 115.476 133.748 113.736 135.363 112.931C136.541 112.344 137.901 112.312 139.224 112.333Z" fill="#F9FCF8"/>
<path d="M95.2739 128.634C93.2333 128.642 91.1923 128.558 89.1592 128.383L88.9618 128.364C88.2337 128.292 87.4702 128.146 86.9932 127.605C86.3494 126.874 86.5066 125.772 86.7 124.808L86.7194 124.712C87.5835 120.483 87.9229 116.146 87.7279 111.833L87.6917 111.09C87.6375 109.753 87.7229 108.237 88.8336 107.549C89.1715 107.34 89.5638 107.243 89.9548 107.164L90.0851 107.138C97.1962 105.753 104.601 105.893 111.654 107.547C112.583 107.765 112.841 109.023 112.533 109.926C112.225 110.829 111.564 111.588 111.317 112.509C111.069 113.431 111.523 114.678 112.476 114.708C114.461 114.77 116.143 116.786 115.876 118.753C115.609 120.721 113.483 122.213 111.536 121.822C111.079 121.731 110.918 122.406 110.968 122.869L111.523 128.005C111.614 128.843 110.424 129.108 109.584 129.042L104.68 128.66C103.909 128.601 102.876 128.733 102.757 129.497C102.462 131.398 100.512 132.883 98.6006 132.663C96.6891 132.442 95.1288 130.553 95.2739 128.634Z" fill="#F9FCF8"/>
<path fill-rule="evenodd" clip-rule="evenodd" d="M82.0732 160.241C82.6174 160.373 83.3963 160.608 83.3531 161.123C82.4823 171.493 78.7339 169.585 75.3914 172.559C74.5082 173.344 73.9804 175.203 73.601 175.245C75.0077 175.895 77.0491 178.501 80.5624 178.62C90.3511 178.952 93.914 171.81 93.914 171.81C94.1443 169.519 92.9828 165.395 94.4326 166.55C95.4333 167.347 95.2355 163.463 96.6025 163.85C97.0133 163.966 96.2958 166.549 96.6025 166.703C96.772 166.788 97.0226 166.084 97.4599 165.524C97.8245 165.057 98.3869 164.711 98.5033 164.813C98.5822 164.883 98.5065 165.55 98.1782 166.115C97.7168 166.908 96.9452 167.672 97.0531 167.8C97.172 167.94 99.2068 166.046 99.3308 166.212C100.154 167.31 94.9392 179.951 86.1393 182.338L85.4425 182.525C80.3127 183.888 78.1585 184.074 73.4057 182.338C71.1522 181.515 69.7506 189.203 68.4979 191.762C67.707 193.378 63.8653 197.338 62.111 196.14C59.7966 194.56 57.9093 191.619 55.9397 190.132L55.8132 190.039C54.4709 189.076 51.4349 187.616 46.7052 185.658L46.9183 185.559C47.9051 185.11 50.4469 184.014 52.3985 182.338C55.1715 179.957 56.6734 174.843 58.6066 172.085C60.5152 169.362 63.0765 169.763 61.5307 169.281C61.5307 169.281 57.6138 167.206 55.8132 167.016C49.7997 166.381 41.9603 169.223 39.4525 171.055C36.0115 173.568 39.4303 177.266 34.6757 175.454C33.0911 174.849 37.3383 167.023 43.1968 163.85C51.3399 159.439 59.0397 158.226 66.7592 165.247C69.9009 168.105 70.2118 170.648 71.0543 172.588L70.8819 172.113C80.1945 171.499 66.2412 162.175 77.8901 159.842C79.1135 159.597 80.3974 159.852 81.6237 160.135L82.0732 160.241Z" fill="#F9FCF8"/>
<ellipse cx="76.0759" cy="166.712" rx="0.728001" ry="0.728004" fill="#357A6A"/>
<ellipse cx="80.08" cy="168.168" rx="0.728001" ry="0.727997" fill="#357A6A"/>
<path fill-rule="evenodd" clip-rule="evenodd" d="M37.8171 194.945C45.7081 200.409 35.6118 192.862 44.2337 201.856C45.9748 203.672 54.7901 193.299 55.6995 199.446C56.0312 201.689 55.3079 204.023 55.7489 206.246C56.1603 208.321 65.1841 207.076 65.8811 206.168C68.4079 202.879 60.5445 194.429 58.8957 193.078C49.6949 185.541 46.6587 186.064 38.0618 193.862L37.8171 194.945Z" fill="#F9FCF8"/>
<path fill-rule="evenodd" clip-rule="evenodd" d="M243.092 58.3692C244.64 58.5542 246.079 58.7262 246.079 56.9223C246.079 56.4931 240.87 52.7227 239.327 54.1747C237.342 56.0419 235.765 58.1831 234.239 60.257C231.033 64.611 228.046 68.6687 221.955 69.2732L221.881 69.2813C219.52 69.5665 223.919 71.6621 228.859 69.2732C232.256 67.6307 236.775 62.4343 238.921 59.9662C239.483 59.3203 239.882 58.8613 240.056 58.7016L240.101 58.6633C240.833 58.0991 241.99 58.2374 243.092 58.3692ZM250.441 63.2514L255.595 67.3424C256.599 68.1394 255.423 69.857 254.144 69.9393C253.401 69.987 252.689 69.7586 251.974 69.529C251.456 69.3629 250.936 69.1962 250.402 69.133C247.375 68.7752 245.068 71.6257 243.19 74.0264C241.474 76.2204 239.596 78.2869 237.575 80.2032L237.301 80.4601L237.016 80.7222C235.391 82.2003 233.567 83.5391 231.422 83.9248C228.264 84.4928 225.127 82.8758 222.548 80.9674C221.918 80.5017 221.3 80.0132 220.681 79.5243C218.765 78.0103 216.846 76.4936 214.574 75.6436C212.606 76.718 210.763 78.0162 209.08 79.4972L209.155 79.4381C211.98 82.2697 213.956 85.9384 214.765 89.8556L214.224 89.7606L213.867 89.6998C210.529 89.14 206.954 88.8088 204.133 90.5952C203.139 91.2248 202.252 92.1039 201.375 92.9732L201.375 92.9732C200.765 93.5784 200.159 94.1788 199.526 94.6869C199.687 94.7825 199.851 94.8819 200.02 94.9851C203.142 96.262 206.451 97.0799 209.808 97.4042C210.321 97.4538 210.839 97.4931 211.359 97.5326L211.359 97.5326L211.36 97.5327C213.768 97.7155 216.207 97.9008 218.265 99.1097L218.987 99.5412C220.145 100.227 221.434 100.879 222.404 100.086C222.684 99.8572 222.866 99.5442 223.049 99.2298C223.161 99.0384 223.273 98.8466 223.407 98.6729C223.762 98.2139 224.465 97.8909 224.906 98.2679L225.085 99.6705C225.214 98.7682 226.085 98.0347 226.996 98.06C227.907 98.0853 228.736 98.8661 228.815 99.7743C228.959 101.423 227.091 102.409 225.504 102.934L217.282 105.584C214.344 106.531 211.087 106.04 208.255 104.813C205.618 103.67 203.291 101.931 201.068 100.103L200.576 99.6958C198.897 98.2987 196.627 96.781 194.722 97.8496C198.032 98.0509 200.446 100.903 202.42 103.601L202.61 103.861C202.93 104.302 203.259 104.766 203.338 105.304C203.559 106.812 201.846 107.812 200.4 108.291C201.619 108.944 201.015 110.84 200.07 111.85C198.696 113.319 196.897 114.376 194.956 114.9L194.779 115.513C194.768 115.554 194.762 115.576 194.764 115.576C195.679 115.513 196.244 116.742 195.871 117.581C195.498 118.419 194.577 118.866 193.694 119.115C190.784 119.938 187.498 119.289 185.119 117.422L184.657 117.663C182.647 118.703 180.568 119.67 178.335 119.998C175.93 120.351 173.282 119.856 171.543 118.157L171.657 118.407C171.903 118.952 172.124 119.516 172.132 120.111C172.141 120.796 171.787 121.536 171.137 121.756C170.066 122.119 169.129 120.974 168.573 119.989C168.268 120.747 168.583 121.601 168.888 122.431C169.237 123.378 169.574 124.294 168.968 125.003C168.337 125.741 167.14 125.552 166.272 125.117C163.02 123.486 161.492 119.38 162.197 115.81C162.901 112.241 165.468 109.252 168.524 107.278C166.449 105.757 164.931 103.492 164.313 100.995C164.477 101.208 165.213 100.524 166.258 99.5525L166.258 99.5525C168.17 97.7757 171.117 95.0367 173.497 95.0623C173.954 95.0671 174.69 95.4201 175.412 95.7657L175.412 95.7658C175.934 96.0161 176.449 96.2626 176.843 96.3704C176.876 96.3283 176.915 96.2902 176.961 96.2568L176.511 95.9332C175.604 95.2895 174.658 94.6841 173.585 94.4173C172.334 94.1061 170.851 94.3622 170.054 95.376C168.104 97.8551 165.633 99.9226 162.849 101.405L164.499 104.452C163.817 104.778 162.967 104.718 162.334 104.307L162.256 104.254L162.305 104.315C163.256 105.555 162.42 107.717 160.864 107.962C159.285 108.624 157.693 106.645 157.848 104.94C157.957 103.744 158.549 102.685 159.142 101.624C159.396 101.171 159.649 100.718 159.865 100.253C160.595 98.6844 160.916 96.9416 161.235 95.2099C161.673 92.8363 162.106 90.4835 163.584 88.6282C164.619 87.3288 166.068 86.4252 167.555 85.6842C173.456 82.7433 180.438 82.04 186.807 83.7453C187.892 79.8591 190.042 76.2761 192.961 73.4909L193.135 73.3277C194.252 72.2988 195.641 71.3795 197.122 71.5483L197.24 71.5639C198.71 71.7882 199.989 70.6532 201.058 69.6026L201.388 69.2791L201.646 69.0303C203.768 67.004 206.23 65.1339 209.129 64.9322C211.707 64.7527 214.176 65.9367 216.401 67.2511C218.919 68.7382 221.315 70.4332 223.555 72.3132L223.949 72.6469C224.054 72.7369 224.159 72.8276 224.265 72.9188C226.378 74.7334 228.689 76.7189 231.44 76.5543C234.259 76.3857 236.319 74.0452 238.217 71.8886C238.37 71.7141 238.523 71.5408 238.674 71.37C241.015 68.7345 243.682 66.4143 246.38 64.1415L247.537 63.1696C247.888 62.876 248.265 62.5702 248.718 62.5114C249.356 62.4286 249.937 62.8516 250.441 63.2514ZM199.483 107.926C198.91 107.811 198.128 107.861 197.138 108.075C197.79 108.078 198.339 108.066 198.785 108.04C199.001 108.013 199.215 107.98 199.427 107.937L199.483 107.926ZM178.26 95.3064C178.469 95.0919 178.69 94.8657 178.934 94.6723L178.828 94.7312C178.371 94.9958 177.979 95.3802 177.71 95.8277L177.644 95.8778C177.512 95.974 177.379 96.0449 177.242 96.0772C176.965 96.1424 176.307 95.6374 175.749 95.2097C175.416 94.9538 175.118 94.7257 174.96 94.6637C173.918 94.2548 173.795 94.249 173.072 94.2147L173.072 94.2147C172.95 94.2089 172.811 94.2023 172.647 94.1928L172.348 94.174C172.282 94.1703 172.209 94.1672 172.132 94.164H172.132H172.132H172.132C171.533 94.1388 170.671 94.1026 170.843 93.6367C173.923 85.3001 187.083 83.4859 184.907 92.9097C184.727 93.6889 184.255 94.3709 183.783 95.0529C183.546 95.3939 183.31 95.7349 183.111 96.0881C182.26 94.8796 181.334 94.2426 180.331 94.177C179.772 94.1404 179.323 94.365 178.934 94.6723C179.389 94.4324 179.902 94.3106 180.418 94.3596C182.164 94.5255 183.486 96.3824 183.258 98.1213C182.336 100.405 180.055 101.708 177.799 102.997L177.799 102.997C176.409 103.791 175.029 104.58 173.982 105.589C174.245 105.156 174.532 104.81 174.824 104.598C175.735 103.935 176.687 103.36 177.584 102.819C178.338 102.364 179.054 101.932 179.674 101.491C180.649 100.797 181.304 100.137 181.811 99.6255C182.199 99.2346 182.501 98.9304 182.794 98.7641C182.818 98.7505 183.918 96.5201 181.258 95.0623C179.25 93.9616 178.355 95.3541 177.874 96.1024C177.718 96.3451 177.606 96.5201 177.513 96.5201C177.489 96.5201 177.455 96.5164 177.413 96.509C177.48 96.2716 177.581 96.0424 177.71 95.8277C177.89 95.6858 178.07 95.5009 178.26 95.3064L178.26 95.3064ZM202.7 87.2524L202.702 87.2476C201.978 88.6244 201.2 90.2815 200.369 92.219C200.994 90.4975 201.777 88.8345 202.7 87.2524ZM208.567 88.5221L208.467 88.5259C207.663 88.5596 206.943 88.6798 206.305 88.8864C205.598 89.1156 204.845 89.4989 204.047 90.0363C205.444 89.2627 206.987 88.7452 208.567 88.5221Z" fill="#F9FCF8"/>
<path fill-rule="evenodd" clip-rule="evenodd" d="M167.504 123.437C166.873 124.175 165.959 123.937 165.121 123.12C163.368 121.411 162.663 118.113 163.368 114.544C164.072 110.974 166.818 109.504 169.874 107.53C168.503 106.965 166.018 103.383 165.769 99.9029C166.614 100.994 166.659 102.951 167.504 104.042C168.306 105.077 169.909 106.337 170.711 107.372C170.814 107.505 170.902 107.727 170.757 107.809C167.827 109.473 165.928 110.024 164.2 114.543C162.472 119.063 165.981 123.243 166.447 123.12C167.021 122.969 166.818 122.207 166.488 121.713C165.557 120.319 166.442 118.461 167.201 116.967C167.606 117.422 166.631 118.726 166.837 120.082C167.037 121.406 168.066 122.779 167.504 123.437Z" fill="#A9A9A9"/>
<circle cx="179.452" cy="108.472" r="0.727997" fill="#357A6A"/>
<ellipse cx="176.904" cy="105.56" rx="0.728004" ry="0.728001" fill="#357A6A"/>
<path d="M68.0354 112.709C68.4563 113.495 67.7947 114.618 66.9036 114.631C66.1405 110.341 65.3176 105.902 62.8344 102.322C58.0797 95.4663 48.2817 93.2146 44.2109 85.9322C41.4391 87.905 37.2008 87.4021 34.9677 84.8354C33.5789 83.2392 31.158 83.0433 29.0724 83.3994C26.9867 83.7555 24.9491 84.5428 22.8343 84.4759C21.9167 84.4468 20.9169 84.2001 20.3828 83.4533C19.8487 82.7065 20.1573 81.3922 21.0661 81.2621C25.0255 80.6954 28.9849 80.1287 32.9443 79.5619C33.2552 79.5174 33.5852 79.4645 33.8212 79.2573C34.0883 79.0228 34.1722 78.648 34.2414 78.2994C34.8146 75.4147 35.2276 71.9757 33.1034 69.9414C31.3429 68.2555 28.5643 68.3136 26.1726 68.784C23.7808 69.2543 21.3158 70.0282 18.9587 69.4071C16.6016 68.786 14.6303 65.986 15.901 63.9058C16.7521 62.5126 15.7924 60.6545 14.4796 59.6839C13.1668 58.7134 11.5331 58.2353 10.2606 57.2124C8.9881 56.1896 8.18054 54.2159 9.19409 52.936C9.63985 52.3731 10.3378 52.0765 11.0226 51.8605C13.2889 51.1456 15.816 51.091 18.0005 52.0264C20.1851 52.9618 21.9592 54.9667 22.3146 57.3163C22.6043 59.2306 22.054 61.4575 23.3194 62.9227C24.9739 64.8384 28.0317 63.7639 30.5629 63.7409C33.1516 63.7173 35.7115 65.0898 37.1245 67.2591C38.5375 69.4283 38.7583 72.3245 37.6903 74.6828C40.6973 71.6234 44.7473 69.2764 49.0341 69.4362C52.9937 69.5838 56.6318 71.8613 59.28 74.8086C61.9282 77.7559 63.7347 81.3455 65.5061 84.8898C66.1661 86.2102 67.8401 86.9258 69.2506 86.4905C70.6611 86.0553 71.6407 84.5207 71.4418 83.058C72.6711 83.326 72.7991 84.9878 72.837 86.2453C72.9166 88.8876 73.8734 91.496 75.5212 93.5631C76.0724 92.5462 76.493 91.4587 76.7693 90.3355C77.9721 91.7183 78.4208 93.7197 77.9237 95.4836C77.4265 97.2475 75.9987 98.72 74.2509 99.2711C73.3208 99.5644 72.1836 99.7054 71.722 100.565C73.4661 103.619 74.9662 106.812 76.2034 110.104C76.8668 111.869 77.3454 114.141 75.949 115.408C74.3346 114.216 73.4172 112.326 72.5606 110.511C71.2245 107.68 69.8883 104.849 68.5522 102.018" fill="#F9FCF8"/>
<path fill-rule="evenodd" clip-rule="evenodd" d="M72.4425 84.3726C72.0917 87.8005 73.3748 91.3599 75.8321 93.7755C76.7083 93.2467 77.2686 92.232 77.2492 91.2088C78.1701 92.7228 77.6541 94.7761 76.5091 96.1286C75.3641 97.481 73.7212 98.292 72.127 99.0659C71.2136 99.5093 70.2653 99.9617 69.2503 99.992C67.7019 100.038 66.3146 99.1071 65.0486 98.2144L61.334 95.5954C63.2531 99.1766 67.6214 101.262 71.6127 100.502C74.3884 104.396 76.088 109.049 76.4756 113.815L75.7294 112.437C75.7282 112.433 75.7268 112.43 75.7254 112.427C75.7237 112.423 75.722 112.42 75.7201 112.416C75.7189 112.414 75.7177 112.412 75.7165 112.409C75.7154 112.407 75.7143 112.406 75.7132 112.404C75.7098 112.398 75.7062 112.392 75.7023 112.386L75.7294 112.437C75.8367 112.701 75.4173 112.993 75.135 112.857C74.8347 112.711 74.7214 112.35 74.6327 112.028C73.5399 108.065 71.5816 104.344 68.9344 101.2L72.9428 109.692C73.7993 111.507 74.7168 113.398 76.3312 114.59C77.7276 113.322 77.249 111.051 76.5855 109.285C75.3484 105.993 73.8482 102.8 72.1041 99.7457C72.479 99.0481 73.2994 98.824 74.0926 98.6074C74.2761 98.5572 74.4582 98.5075 74.633 98.4524C76.3809 97.9012 77.8087 96.4288 78.3059 94.6648C78.803 92.9009 78.3542 90.8995 77.1515 89.5168C76.8752 90.6399 76.4546 91.7275 75.9034 92.7443C74.2556 90.6773 73.2988 88.0688 73.2192 85.4266C73.1813 84.169 73.0533 82.5072 71.824 82.2393C72.0229 83.702 71.0433 85.2365 69.6328 85.6718C68.2222 86.1071 66.5482 85.3914 65.8883 84.071C64.1169 80.5267 62.3103 76.9372 59.6621 73.9898C57.014 71.0425 53.3758 68.765 49.4163 68.6174C45.1295 68.4576 41.0795 70.8046 38.0725 73.8641C39.1404 71.5058 38.9197 68.6095 37.5067 66.4403C36.0937 64.2711 33.5338 62.8985 30.945 62.9221C30.2884 62.9281 29.5963 63.0048 28.9024 63.0818C26.9217 63.3014 24.9268 63.5227 23.7016 62.104C22.8362 61.102 22.82 59.7438 22.8036 58.373C22.796 57.7392 22.7884 57.1028 22.6968 56.4976C22.3413 54.1479 20.5673 52.1431 18.3827 51.2077C16.1981 50.2723 13.6711 50.3268 11.4048 51.0417C10.72 51.2577 10.022 51.5543 9.57626 52.1172C8.56271 53.3971 9.37027 55.3708 10.6427 56.3937C11.3124 56.932 12.0822 57.3195 12.8526 57.7072L12.8526 57.7072L12.8526 57.7072C13.546 58.0562 14.2399 58.4054 14.8618 58.8652C16.1746 59.8357 17.1343 61.6938 16.2832 63.0871C15.0125 65.1673 16.9837 67.9673 19.3409 68.5884C21.2894 69.1018 23.3116 68.6619 25.3052 68.2283L25.3052 68.2283L25.3053 68.2283L25.3053 68.2283L25.3053 68.2283L25.3054 68.2283L25.3054 68.2283C25.7234 68.1374 26.1402 68.0467 26.5547 67.9652C28.9465 67.4949 31.7251 67.4367 33.4856 69.1226C35.6098 71.1569 35.1968 74.5959 34.6236 77.4807C34.5543 77.8292 34.4705 78.2041 34.2034 78.4385C33.9673 78.6457 33.6374 78.6987 33.3265 78.7432L21.4483 80.4434C20.5394 80.5735 20.2309 81.8877 20.765 82.6345C21.299 83.3813 22.2988 83.6281 23.2165 83.6571C24.6195 83.7015 25.9887 83.3699 27.3604 83.0377C28.0562 82.8692 28.7526 82.7005 29.4545 82.5806C31.5402 82.2245 33.9611 82.4204 35.3499 84.0167C37.583 86.5833 41.8213 87.0862 44.5931 85.1134C46.7352 88.9455 50.4631 91.3846 54.2075 93.8345C57.579 96.0404 60.9638 98.255 63.2166 101.503C65.6998 105.083 66.5226 109.522 67.2858 113.812C68.1769 113.799 68.8385 112.676 68.4176 111.891L67.5803 112.995C67.2711 106.234 63.8179 99.6814 58.4154 95.6043C57.0775 94.5947 55.6104 93.7096 54.1464 92.8264C50.9294 90.8858 47.7277 88.9544 45.9465 85.7308C45.7861 85.4405 45.6367 85.1331 45.6107 84.8024C45.5779 84.384 45.7446 83.9807 45.9056 83.5913L45.9285 83.5358C46.5706 81.9781 47.0191 80.2689 46.7037 78.6139C46.3883 76.9588 45.1424 75.3938 43.4761 75.1448C46.2966 76.9489 46.8748 81.4262 44.6051 83.8876C42.3355 86.349 37.826 86.1351 35.7996 83.4699C34.1755 81.3339 30.928 81.5954 28.314 82.2012C25.7 82.807 22.6217 83.441 20.6023 81.6739C24.9226 80.4861 29.3681 79.7547 33.8412 79.4958C34.9068 79.4342 35.3248 78.1049 35.4683 77.0472C35.6889 75.4213 35.9095 73.7692 35.6678 72.1463C35.4261 70.5234 34.6547 68.9045 33.2776 68.0125C31.6238 66.9413 29.4889 67.1073 27.5292 67.3124L22.3214 67.8572C21.1993 67.9747 20.0461 68.0898 18.9581 67.791C17.8701 67.4922 16.8465 66.681 16.6379 65.5722C16.5061 64.8719 16.7066 64.1823 16.9087 63.4871C17.0542 62.9866 17.2006 62.4831 17.2245 61.9707C17.2924 60.5116 16.3498 59.1746 15.2044 58.2681C14.5027 57.7127 13.7207 57.2757 12.938 56.8382L12.938 56.8382C12.4432 56.5617 11.9482 56.285 11.4729 55.9781C10.5783 55.4005 9.66032 54.4673 9.90907 53.4318C10.0682 52.7697 10.6674 52.3106 11.2698 51.9931C13.3038 50.9209 15.8462 50.8727 17.9193 51.867C19.9925 52.8613 21.5464 54.8741 21.9835 57.1315C22.0913 57.6883 22.1403 58.27 22.1892 58.8504V58.8504C22.3024 60.1931 22.415 61.5294 23.2538 62.5382C24.2559 63.7431 25.9878 64.0467 27.5532 63.9721C28.0899 63.9465 28.6266 63.8864 29.1628 63.8263C30.1906 63.7112 31.2167 63.5963 32.2385 63.725C35.6744 64.1577 38.3815 67.7327 37.8665 71.1572C37.838 71.3464 37.8013 71.5374 37.7646 71.7289L37.7646 71.729L37.7646 71.729L37.7646 71.729L37.7646 71.729L37.7646 71.7291L37.7645 71.7292C37.6334 72.4124 37.5011 73.1021 37.7344 73.7438C38.0332 74.5654 39.3401 75.0029 39.7542 74.2329C41.6096 70.7828 45.8652 69.0445 49.7561 69.5001C53.6469 69.9558 57.1289 72.2986 59.6834 75.2687C62.2379 78.2387 63.9756 81.8128 65.5604 85.3953C66.1186 86.6572 67.7806 87.1142 69.1084 86.7387C70.4361 86.3633 71.4898 85.3707 72.4425 84.3726ZM65.4701 90.3857C65.5078 90.3805 65.5953 90.5518 65.7273 90.8101C66.0521 91.4459 66.646 92.6084 67.4291 92.962C67.3943 93.2915 66.8762 93.1151 66.6608 92.8634C66.0484 92.1479 65.3987 91.3248 65.4701 90.3857ZM67.3186 96.033C67.7228 96.6253 65.302 96.9201 64.4974 96.4033C64.6391 96.376 64.8258 96.3905 65.0325 96.4066H65.0326C65.2778 96.4257 65.5512 96.4469 65.811 96.4033C66.1914 96.3393 66.5587 96.2225 66.836 96.1343L66.8361 96.1343L66.8361 96.1343C67.1051 96.0487 67.2894 95.9901 67.3186 96.033ZM66.7375 93.8317C65.7739 93.9969 64.59 92.7135 64.59 91.5064C64.8677 92.3989 65.8544 93.1068 66.3997 93.498C66.6771 93.6971 66.8402 93.8141 66.7375 93.8317ZM70.19 98.8792C68.9065 98.8792 68.3247 96.7151 68.9065 96.576C69.0457 96.5129 69.0523 96.7067 69.062 96.993C69.0721 97.2939 69.0857 97.6971 69.2607 98.011C69.4551 98.3598 69.8666 98.5929 70.1069 98.729C70.2885 98.8318 70.3722 98.8792 70.19 98.8792ZM71.6197 95.9324C71.9015 96.0875 72.1586 96.3283 72.2315 96.6416C72.3044 96.9549 72.1293 97.3346 71.8143 97.4C71.7157 97.255 71.7691 97.1628 71.8255 97.0656C71.9084 96.9229 71.9975 96.7692 71.6197 96.4212C71.4607 96.2746 71.2755 96.2109 71.1456 96.1662C71.0457 96.1318 70.9784 96.1087 70.981 96.0677C70.9973 95.8073 71.3912 95.8065 71.6197 95.9324ZM69.2175 93.1122C69.1539 93.1564 69.1103 93.1867 69.1477 93.2215C69.2637 93.3294 69.4002 93.381 69.5365 93.3026C69.6405 93.2429 69.6932 93.1217 69.7177 93.0043C69.8547 92.3486 69.1623 91.6715 68.5098 91.823C68.5677 91.9756 68.6785 92.0245 68.8131 92.0837C68.9684 92.1521 69.1553 92.2345 69.3287 92.5061C69.5626 92.8723 69.3481 93.0214 69.2175 93.1122ZM68.9981 99.2932C68.2423 99.0731 67.495 97.2884 67.8974 97.1533C68.1483 97.069 68.1469 97.0825 68.1323 97.2237C68.1189 97.353 68.0945 97.5893 68.2423 97.9556C68.4259 98.4104 68.6831 98.7795 68.8469 99.0146C68.9591 99.1757 69.0275 99.2737 68.9981 99.2932ZM242.088 58.7742C240.465 58.9735 239.187 60.282 238.38 61.7039C237.991 62.3915 237.678 63.1191 237.367 63.8466C237.033 64.6236 236.7 65.4004 236.272 66.1281C234.231 69.6 230.352 71.4979 226.635 73.0488C225.994 73.3162 224.871 73.1904 225.071 72.5253C231.157 71.3705 236.396 66.5521 238.055 60.584C238.25 59.8809 237.336 59.2875 236.63 59.4734C235.992 59.6417 235.537 60.1742 235.127 60.7025L234.999 60.8688C231.609 65.2779 226.743 69.0056 221.186 69.2463C220.793 69.2633 220.23 69.0233 220.403 68.6697C224.518 68.5317 228.398 66.5005 231.454 63.7406C234.51 60.9806 236.84 57.5213 239.02 54.028C239.357 53.4877 240.167 53.6032 240.77 53.8087C242.619 54.4395 244.394 55.2904 246.044 56.3377C246.93 56.8999 246.228 58.4 245.221 58.6941C244.642 58.8632 244.038 58.8222 243.431 58.7809C242.982 58.7504 242.531 58.7198 242.088 58.7742ZM240.507 55.3336L240.365 55.2906C239.932 55.1664 239.449 55.0975 239.1 55.3663C238.965 55.4704 238.869 55.6142 238.78 55.7609L237.622 57.7138C238.23 57.8545 238.812 58.1035 239.334 58.4458C239.76 58.7254 240.348 58.7361 240.784 58.4723C241.22 58.2084 241.483 57.6833 241.434 57.1759C241.415 56.9867 241.725 56.9352 241.855 57.0744C241.951 57.1784 241.98 57.3211 242.009 57.4632C242.019 57.5113 242.029 57.5594 242.041 57.6059C242.09 57.7897 242.24 57.9876 242.426 57.9498C242.615 57.7703 242.718 57.5043 242.7 57.2442C242.768 56.9759 243.187 57.2151 243.251 57.4841C243.316 57.7532 243.438 58.1358 243.705 58.0639C244.098 57.9668 244.221 57.4197 244.03 57.0632C243.838 56.7067 243.453 56.5051 243.086 56.335C242.249 55.9471 241.387 55.6124 240.507 55.3336ZM236.987 58.5085C237.592 59.117 238.472 59.4408 239.327 59.3694C238.803 58.7095 237.911 58.3648 237.08 58.4924L236.987 58.5085ZM193.694 119.115C190.784 119.938 187.498 119.289 185.119 117.422C182.966 118.55 180.74 119.645 178.335 119.998C175.93 120.351 173.282 119.855 171.543 118.156C171.83 118.779 172.123 119.425 172.132 120.11C172.141 120.796 171.787 121.536 171.137 121.756C170.065 122.119 169.129 120.974 168.573 119.988C168.268 120.747 168.582 121.601 168.888 122.431C169.237 123.378 169.574 124.294 168.968 125.003C168.337 125.741 167.14 125.552 166.272 125.117C163.02 123.485 161.492 119.379 162.197 115.81C162.901 112.241 165.468 109.251 168.524 107.277C166.449 105.756 164.931 103.492 164.313 100.995C164.735 101.54 165.049 102.174 165.362 102.807C165.676 103.441 165.989 104.075 166.412 104.62C166.813 105.138 167.323 105.567 167.834 105.996C168.344 106.425 168.854 106.855 169.255 107.372C169.358 107.504 169.446 107.727 169.301 107.809C166.371 109.473 163.864 112.125 163.033 115.39C162.202 118.656 163.358 122.51 166.228 124.277C166.733 124.588 167.336 124.838 167.911 124.686C168.485 124.535 168.916 123.814 168.586 123.32C167.655 121.926 167.542 120.027 168.301 118.533L170.705 121.229C171.258 121.087 171.395 120.343 171.247 119.792C171.201 119.617 171.137 119.444 171.073 119.272C170.936 118.901 170.799 118.531 170.836 118.143C170.89 117.575 171.631 117.066 172.023 117.482C173.587 119.139 176.099 119.609 178.348 119.244C180.597 118.879 182.657 117.8 184.671 116.736L187.049 115.48C186.878 116.166 186.322 116.742 185.642 116.937C187.938 118.586 191.007 119.104 193.716 118.3C194.183 118.162 194.662 117.97 194.965 117.589C195.267 117.208 195.316 116.587 194.951 116.266C194.906 116.227 194.856 116.192 194.807 116.158C194.709 116.09 194.612 116.023 194.556 115.921C194.471 115.766 194.602 115.505 194.764 115.576C195.679 115.512 196.244 116.742 195.871 117.581C195.498 118.419 194.577 118.866 193.694 119.115ZM177.449 106.945C176.926 106.777 176.339 107.138 176.112 107.638C175.885 108.137 175.949 108.725 176.121 109.246C176.176 108.658 176.251 108.215 176.473 107.828C176.57 107.661 176.867 107.504 177.128 107.366C177.466 107.187 177.744 107.04 177.449 106.945ZM177.006 105.467C177.768 105.277 178.63 105.571 179.117 106.187C179.605 106.803 179.693 107.709 179.333 108.407C179.247 108.303 179.227 108.114 179.201 107.876C179.125 107.175 179.004 106.055 177.006 105.467ZM176.344 110.884C176.103 111.185 176.943 111.981 178.258 111.432C178.501 111.33 178.302 111.319 177.989 111.3C177.704 111.284 177.323 111.261 177.096 111.16C176.904 111.074 176.805 110.937 176.731 110.834C176.622 110.682 176.567 110.606 176.344 110.884ZM179.007 111.891C179.85 111.472 179.321 112.702 177.559 112.551C177.4 112.538 177.192 112.476 177.194 112.316C177.195 112.26 177.344 112.247 177.575 112.227C177.935 112.196 178.495 112.147 179.007 111.891ZM173.81 109.556C174.127 109.866 174.589 109.874 174.897 109.814C175.084 109.778 175.176 109.61 175.004 109.556C174.964 109.543 174.897 109.533 174.817 109.52C174.635 109.491 174.382 109.452 174.212 109.349C174.103 109.284 174.041 109.059 173.988 108.867C173.933 108.67 173.888 108.506 173.81 108.583C173.658 108.734 173.493 109.246 173.81 109.556ZM174.092 110.604C174.245 110.837 173.661 110.757 173.535 110.604C173.409 110.45 173.286 109.874 173.496 109.874C173.557 109.874 173.578 109.965 173.603 110.074C173.626 110.174 173.653 110.29 173.717 110.363C173.844 110.506 173.928 110.528 173.99 110.543C174.032 110.554 174.064 110.562 174.092 110.604ZM200.379 109.444C200.694 110.073 200.143 110.779 199.612 111.241C197.451 113.117 194.868 114.504 192.111 115.271C195.083 115.291 198.041 114.02 200.07 111.85C201.015 110.84 201.619 108.944 200.4 108.291C201.846 107.812 203.559 106.811 203.338 105.304C203.259 104.765 202.929 104.302 202.61 103.861L202.42 103.601C200.446 100.903 198.032 98.0507 194.722 97.8494C196.627 96.7809 198.897 98.2985 200.576 99.6956L201.068 100.103C203.291 101.931 205.618 103.67 208.255 104.813C211.087 106.04 214.344 106.53 217.282 105.584L225.504 102.934C227.09 102.409 228.959 101.423 228.815 99.7741C228.736 98.8659 227.907 98.0851 226.996 98.0598C226.085 98.0345 225.214 98.768 225.085 99.6704L224.906 98.2677C224.465 97.8907 223.762 98.2137 223.407 98.6727C223.273 98.8464 223.161 99.0382 223.049 99.2295C222.866 99.544 222.683 99.857 222.404 100.085C221.434 100.879 220.144 100.227 218.986 99.541L218.265 99.1095C216.207 97.9006 213.768 97.7154 211.36 97.5325L211.359 97.5324L211.359 97.5324L211.358 97.5324L211.358 97.5323C210.838 97.4929 210.32 97.4535 209.808 97.404C206.451 97.0797 203.142 96.2618 200.02 94.9849C202.883 97.3325 206.623 97.7266 210.396 98.1241C212.298 98.3244 214.207 98.5255 216.017 98.978C217.453 99.3369 219.04 100.069 219.392 101.506C219.903 103.593 217.424 105.209 215.284 105.404C211.785 105.724 208.375 104.235 205.404 102.336L205.069 102.119C203.994 101.413 202.952 100.654 201.91 99.8948L201.91 99.8947C199.999 98.502 198.089 97.1104 195.979 96.0528C198.159 96.1624 199.75 94.5847 201.375 92.973L201.375 92.9729C202.252 92.1037 203.139 91.2246 204.133 90.595C207.055 88.7448 210.786 89.1662 214.224 89.7604L214.764 89.8554C213.956 85.9382 211.98 82.2695 209.155 79.4379L214.01 88.9818C208.898 87.279 202.769 89.4069 199.812 93.9104C202.094 86.2089 207.523 79.4909 214.574 75.6434C216.846 76.4934 218.765 78.0101 220.681 79.5241L220.682 79.5247C221.3 80.0134 221.918 80.5017 222.547 80.9672C225.127 82.8756 228.264 84.4926 231.422 83.9246C233.693 83.5162 235.604 82.0393 237.301 80.4599L237.574 80.203C239.596 78.2867 241.474 76.2202 243.19 74.0262C245.068 71.6255 247.375 68.775 250.402 69.1328C250.936 69.196 251.456 69.3627 251.974 69.5288C252.689 69.7584 253.401 69.9869 254.143 69.9391C255.423 69.8568 256.599 68.1392 255.595 67.3422L250.44 63.2512C249.937 62.8514 249.355 62.4284 248.718 62.5112C248.264 62.57 247.888 62.8758 247.537 63.1694L246.38 64.1413C243.681 66.4141 241.015 68.7343 238.674 71.3698C238.522 71.5406 238.37 71.7139 238.216 71.8884C236.318 74.045 234.259 76.3855 231.44 76.5542C228.689 76.7187 226.378 74.7332 224.265 72.9186C224.159 72.8274 224.054 72.7367 223.948 72.6467L223.555 72.313C221.315 70.433 218.919 68.738 216.401 67.2509C214.176 65.9365 211.707 64.7525 209.129 64.932C206.112 65.142 203.567 67.1593 201.388 69.2789L201.058 69.6024C199.989 70.653 198.71 71.788 197.239 71.5637L197.122 71.5481C195.641 71.3793 194.252 72.2986 193.135 73.3275L192.961 73.4907C190.042 76.2759 187.891 79.8589 186.807 83.7451C180.438 82.0399 173.456 82.7431 167.555 85.684C166.068 86.425 164.619 87.3286 163.584 88.628C162.106 90.4833 161.673 92.8361 161.235 95.2097C160.916 96.9414 160.595 98.6842 159.865 100.253C159.649 100.718 159.396 101.171 159.142 101.624C158.549 102.685 157.957 103.744 157.848 104.94C157.693 106.645 159.285 108.624 160.864 107.962C162.446 107.712 163.283 105.482 162.256 104.254C162.896 104.712 163.788 104.791 164.499 104.452L162.849 101.405C165.633 99.9224 168.104 97.8549 170.054 95.3758C170.851 94.362 172.333 94.106 173.585 94.4171C174.658 94.6839 175.604 95.2893 176.511 95.933L176.961 96.2566C176.436 96.6384 176.739 97.6534 177.387 97.6856C176.969 95.9824 178.672 94.1936 180.418 94.3594C182.164 94.5253 183.486 96.3822 183.258 98.1211C182.336 100.405 180.055 101.708 177.799 102.997C175.351 104.396 172.932 105.778 172.312 108.377C171.687 110.996 173.707 113.929 176.376 114.279C179.045 114.629 181.753 112.316 181.824 109.625C181.824 109.625 182.219 109.665 182.359 109.246C182.58 108.586 182.788 107.855 182.995 107.131C183.384 105.768 183.766 104.429 184.207 103.628C185.445 101.385 187.749 99.6085 190.31 99.5466C191.124 99.527 191.932 99.4063 192.739 99.2858C193.771 99.1318 194.801 98.978 195.839 99.0352C197.69 99.1372 199.718 100.221 199.985 102.055C197.933 101.656 195.792 101.724 193.768 102.25L200.931 103.102C202.504 103.289 202.798 105.725 201.677 106.844C200.62 107.899 199.01 108.072 197.503 108.139L197.23 108.151C197.493 108.688 198.148 108.743 198.804 108.799C199.458 108.855 200.112 108.91 200.379 109.444ZM238.481 78.1444C236.26 80.6098 233.664 83.2595 230.348 83.3831C227.449 83.4913 224.913 81.6227 222.567 79.8945L222.394 79.767L221.834 79.3576C219.213 77.4565 216.498 75.6845 213.703 74.0502C211.539 72.7846 209.049 71.5621 206.622 72.1898L210.465 73.3993C209.817 73.7468 209.586 74.6926 210.001 75.2996C210.09 74.3907 211.141 73.8128 212.043 73.9549C212.946 74.097 213.679 74.7593 214.238 75.4816C209.394 77.3394 205.272 81.0171 202.876 85.6196C202.431 86.4754 202.043 87.3606 201.656 88.2455L201.656 88.2461L201.656 88.2463C201.131 89.4458 200.606 90.6446 199.937 91.7688C198.776 93.7224 197.056 95.4997 194.842 96.0174C194.532 96.0898 194.215 96.1374 193.897 96.1849C193.261 96.2802 192.627 96.3752 192.061 96.6699C192.025 96.6888 191.988 96.7083 191.95 96.7282L191.865 96.7736L191.864 96.7742C191.199 97.1291 190.38 97.5665 189.971 96.9895C189.3 96.0445 188.23 95.3924 187.083 95.229C188.98 88.8552 193.861 83.4387 200.003 80.8907C200.351 80.7464 200.218 80.2262 200.028 79.9013L197.234 75.1204C196.976 74.6789 197.278 74.0783 197.733 73.8441C198.187 73.6098 198.729 73.645 199.237 73.7082C202.469 74.1107 205.58 75.4368 208.109 77.4894C208.513 77.8177 209.176 78.1402 209.472 77.7113C206.587 74.8021 202.461 73.4533 198.401 72.9097C201.911 72.5666 205.54 73.672 208.263 75.9132L208.396 76.0217C209.047 76.5499 209.834 77.1112 210.584 76.7874C207.543 73.8704 203.385 72.1488 199.172 72.0627C200.039 71.418 200.848 70.7013 201.658 69.9847L201.658 69.9845L201.658 69.9844C202.48 69.2563 203.303 68.5283 204.185 67.8757C205.937 66.5807 208.03 65.5696 210.205 65.6966C211.783 65.7888 213.264 66.47 214.66 67.2116C217.613 68.7791 220.393 70.6713 222.934 72.8429C223.114 72.9967 223.295 73.1527 223.477 73.3098C225.892 75.3911 228.527 77.6617 231.649 77.3684C233.552 77.1896 235.239 76.0396 236.579 74.6755C237.32 73.921 237.981 73.0945 238.642 72.2679L238.642 72.2677L238.642 72.2674L238.642 72.2672L238.642 72.2671C239.176 71.5997 239.71 70.9321 240.286 70.302C241.118 69.393 242.081 68.5382 243.263 68.1911C244.445 67.844 245.886 68.1314 246.588 69.1437L238.481 78.1444ZM161.979 95.0295C162.407 92.6868 162.83 90.3703 164.413 88.6648C165.189 87.8296 166.181 87.2281 167.19 86.7C172.356 83.9981 178.38 82.9696 184.15 83.8046C185.561 84.0089 187.311 84.8011 187.288 86.1417C187.28 86.2236 187.272 86.3056 187.265 86.3876C187.279 86.3037 187.287 86.2217 187.288 86.1417C187.863 80.5366 191.128 75.2633 195.898 72.2604C196.321 75.21 197.613 78.0296 199.571 80.2756C194.381 82.4615 190.072 86.6646 187.757 91.7984L187.721 91.8795C187.063 93.3187 186.02 95.0859 184.498 94.7275L185.252 90.0697C185.321 89.6427 185.385 89.1801 185.182 88.7978C184.956 88.371 184.473 88.1743 184.001 88.0323L183.836 87.9841C181.107 87.2116 178.045 86.4698 175.553 87.8235C174.235 88.5397 173.288 89.7399 172.403 90.9721L171.746 91.8952C170.187 94.0728 168.44 96.1168 166.533 97.9975C165.765 98.755 164.934 99.5077 163.906 99.8337C162.878 100.16 161.6 99.9404 160.989 99.0508C161.476 97.7795 161.728 96.4 161.979 95.0295ZM178.797 113.179C177.177 113.78 175.859 113.484 174.594 112.748C174.053 112.432 173.543 112.027 173.238 111.48C172.781 110.659 172.85 109.641 173.113 108.739C173.507 107.392 174.314 106.168 175.396 105.274C176.145 104.656 177.007 104.202 177.869 103.748L177.869 103.748C178.166 103.592 178.464 103.435 178.756 103.272C181.614 101.678 184.08 99.3853 185.877 96.6505C186.236 96.1046 186.993 95.9276 187.626 96.0889C188.259 96.2501 188.786 96.6837 189.243 97.151C189.569 97.4854 189.812 98.1504 189.376 98.3192C186.324 99.5006 183.866 102.122 182.885 105.244C182.858 105.329 182.832 105.415 182.806 105.501C182.657 105.995 182.506 106.495 182.185 106.894C181.809 107.364 181.054 109.016 181.439 109.799C181.439 109.799 180.418 112.578 178.797 113.179ZM183.031 88.4506C183.526 88.5615 184.064 88.7209 184.336 89.1489C184.558 89.4993 184.543 89.9448 184.509 90.3582C184.371 91.9934 184.027 93.6112 183.488 95.1611C183.397 95.4231 183.115 95.7382 182.91 95.5515C182.678 94.3782 181.606 93.4242 180.413 93.3295C179.221 93.2348 178.012 94.0077 177.597 95.1296C177.515 95.351 177.227 95.4334 176.999 95.3723C176.828 95.3265 176.682 95.223 176.542 95.1114L176.404 94.9988C174.984 93.8449 173.061 93.3326 171.255 93.6266C172.217 92.0071 173.438 90.5415 174.857 89.3023C175.437 88.7951 176.067 88.3169 176.801 88.0791C177.491 87.8552 178.232 87.8574 178.957 87.8942C180.328 87.964 181.692 88.1503 183.031 88.4506ZM247.804 67.8397C247.114 67.1036 246.167 66.6111 245.167 66.4711L246.302 65.0303C246.662 64.5786 247.082 64.1152 247.649 64.0439C248.058 63.9925 248.461 64.1604 248.833 64.3379C250.079 64.9316 251.254 65.6753 252.323 66.5478C252.68 66.839 253.039 67.164 253.194 67.5977C253.349 68.0314 253.225 68.5991 252.809 68.7975C252.393 68.9959 251.794 68.5614 251.965 68.1335L251.981 68.0855C252.051 67.8422 251.941 67.5548 251.721 67.4267L251.319 68.1967C251.282 68.264 251.239 68.3292 251.173 68.3658C250.905 68.5139 250.687 68.0973 250.67 67.7915L250.667 67.7491C250.638 67.448 250.48 67.064 250.203 67.1577C250.166 67.6735 249.797 68.15 249.307 68.3153C248.817 68.4806 248.235 68.3249 247.893 67.9371L247.804 67.8397ZM161.31 105.849L160.825 104.01C160.595 103.945 160.37 104.176 160.337 104.414C160.315 104.572 160.351 104.728 160.398 104.882L160.473 105.112C160.722 105.892 160.715 106.752 160.455 107.529C159.975 106.546 159.724 105.451 159.728 104.356C159.415 104.184 159.202 104.708 159.224 105.065L159.36 107.194C158.702 106.602 158.471 105.641 158.583 104.764C158.695 103.887 159.107 103.076 159.571 102.323C159.812 101.929 160.08 101.535 160.465 101.28C160.849 101.024 161.379 100.937 161.772 101.179C162.098 101.381 162.25 101.739 162.403 102.102C162.519 102.376 162.637 102.654 162.832 102.868C162.901 102.944 162.982 103.022 163.064 103.101C163.381 103.408 163.72 103.735 163.498 104.065C162.815 103.645 162.189 103.13 161.646 102.54C161.449 103.759 161.629 105.036 162.156 106.153C162.263 106.381 161.907 106.599 161.684 106.482C161.46 106.365 161.375 106.094 161.31 105.849ZM226.97 99.8319L226.97 99.8319C227.32 99.522 227.64 99.2388 227.795 99.316C228.246 99.541 227.021 100.53 226.371 100.81C226.418 101.123 226.873 100.982 227.139 100.81C227.404 100.637 228.148 100.451 228.003 100.639C227.096 101.812 225.344 102.745 223.725 102.927C223.068 103.001 222.257 102.826 222.047 102.199C221.857 101.628 222.281 101.064 222.731 100.639L222.839 100.539C223.027 100.371 223.331 100.206 223.505 100.39C223.967 100.88 224.776 100.479 225.309 100.067C225.309 100.067 226.694 98.7307 226.927 98.8162C227.158 98.9012 226.235 100.408 226.235 100.408C226.464 100.28 226.724 100.049 226.97 99.8319ZM220.339 101.072C220.505 101.035 220.678 101.102 220.821 101.193C221.341 101.528 221.59 102.232 221.394 102.819C221.199 103.406 220.577 103.82 219.96 103.776C219.873 103.769 219.781 103.753 219.713 103.698C219.569 103.582 219.587 103.362 219.619 103.18L219.851 101.851C219.908 101.53 220.022 101.145 220.339 101.072ZM190.998 98.0542C191.891 97.9034 192.815 97.9403 193.692 98.1617C193.642 98.5236 193.219 98.6881 192.861 98.7621C191.757 98.9903 190.615 99.0395 189.495 98.9073C189.776 98.3799 190.409 98.1537 190.998 98.0542ZM246.946 68.5793L244.604 67.1962C245.757 67.0238 246.988 67.6299 247.555 68.6498C247.392 68.7979 247.135 68.6911 246.946 68.5793ZM195.625 96.3176C194.632 96.5805 193.651 96.8861 192.684 97.2334C193.688 97.7885 195.114 97.3446 195.625 96.3176ZM185.92 95.0621C186.193 95.1184 186.069 95.5485 185.851 95.7227C185.188 96.2527 184.179 96.2984 183.47 95.8307L185.92 95.0621ZM248.244 62.9804C248.405 62.9423 248.571 63.0074 248.721 63.0753C249.699 63.517 250.595 64.14 251.35 64.9032L247.984 63.1847C248.036 63.0834 248.134 63.0066 248.244 62.9804ZM196.968 72.2647L197.002 72.2879C197.305 72.2442 197.619 72.2699 197.911 72.3625C197.656 72.845 197.301 73.2744 196.874 73.6155C196.661 73.1925 196.699 72.6541 196.968 72.2647ZM254.561 67.5425L254.568 67.5637C254.94 67.7148 255.193 68.1182 255.167 68.5188C254.401 68.1215 253.781 67.4495 253.447 66.654C253.904 66.8124 254.305 67.1316 254.561 67.5425ZM184.875 96.9182L184.82 96.9942C184.626 97.2579 184.395 97.5441 184.07 97.5819C183.744 97.6197 183.411 97.1992 183.64 96.9655C184.026 96.7928 184.478 96.7754 184.875 96.9182ZM161.841 100.184C162.132 100.252 162.459 100.463 162.414 100.758C161.749 100.671 161.093 100.517 160.459 100.3C160.893 100.118 161.384 100.077 161.841 100.184ZM223.568 100.127C223.417 100.193 223.281 99.9175 223.424 99.8369C223.424 99.8369 224.415 98.0988 224.458 99.316C224.479 99.6189 223.839 99.9894 223.568 100.127ZM181.691 109.052C181.765 108.524 181.904 107.529 182.185 107.529C182.585 107.487 182.431 108.167 182.323 108.647L182.323 108.647L182.322 108.649C182.293 108.78 182.266 108.896 182.256 108.978C182.22 109.266 181.951 109.492 181.643 109.353C181.655 109.311 181.671 109.2 181.691 109.052L181.691 109.052ZM88.7952 127.29C90.8282 127.466 92.8692 127.55 94.9098 127.542C94.7647 129.46 96.325 131.35 98.2365 131.571C100.148 131.791 102.098 130.306 102.393 128.405C102.512 127.641 103.545 127.508 104.316 127.568L109.22 127.95C110.06 128.016 111.25 127.751 111.159 126.913L110.604 121.777C110.554 121.314 110.715 120.638 111.172 120.73C113.119 121.121 115.245 119.629 115.512 117.661C115.778 115.694 114.096 113.678 112.112 113.616C111.159 113.586 110.705 112.339 110.952 111.417C111.086 110.922 111.338 110.473 111.591 110.024C111.809 109.638 112.027 109.251 112.169 108.834C112.477 107.931 112.219 106.673 111.29 106.455C104.237 104.801 96.8321 104.661 89.721 106.046L89.5908 106.072C89.1997 106.151 88.8075 106.248 88.4695 106.457C87.3588 107.145 87.2734 108.661 87.3276 109.998L87.3639 110.741C87.5588 115.054 87.2194 119.39 86.3553 123.62L86.3359 123.716C86.1425 124.68 85.9853 125.782 86.6292 126.512C87.1062 127.054 87.8697 127.2 88.5977 127.272L88.7952 127.29ZM101.305 128.325C101.362 128.602 101.291 128.892 101.18 129.152L101.144 129.231C100.488 130.617 98.5341 131.211 97.225 130.401C95.8911 129.575 95.5641 127.5 96.5792 126.304C93.9997 126.613 91.3857 126.633 88.8017 126.365C88.002 126.281 86.9566 125.85 87.1202 125.062C88.2448 119.649 88.5961 114.075 88.1601 108.564C88.0811 107.565 89.3107 107.046 90.2961 106.865C96.655 105.698 103.235 105.746 109.576 107.007C110.387 107.168 111.431 107.785 111.072 108.53C110.225 110.283 109.887 112.279 110.108 114.213C110.165 114.707 110.551 115.352 110.981 115.105C112.141 114.439 113.82 114.973 114.381 116.187C114.943 117.401 114.263 119.026 113.005 119.478C111.746 119.931 110.187 119.111 109.847 117.818C109.543 120.482 109.651 123.193 110.167 125.824C110.346 126.736 109.018 127.08 108.091 127.011L100.693 126.46C100.466 126.817 100.698 127.186 100.943 127.574C101.095 127.816 101.252 128.066 101.305 128.325ZM139.588 111.605L154.08 111.896L154.316 111.902C154.751 111.916 155.19 111.954 155.582 112.137C156.468 112.55 156.874 113.569 157.143 114.509C158.581 119.525 158.403 124.991 156.643 129.903L156.569 130.104C156.34 130.709 156.041 131.311 155.5 131.651C155.054 131.931 154.511 131.989 153.983 132.018L153.87 132.023C151.716 132.126 149.553 132.071 147.406 131.859C148.524 131.17 148.807 129.495 148.097 128.39C147.387 127.286 145.887 126.825 144.624 127.183C143.854 127.402 143.137 127.928 142.859 128.678C142.58 129.429 142.849 130.392 143.561 130.759C144.053 131.012 143.968 131.81 143.537 132.157C143.106 132.505 142.508 132.529 141.954 132.538L134.684 132.656C134.137 132.665 133.563 132.667 133.083 132.406C132.402 132.034 132.09 131.235 131.898 130.484C131.435 128.672 131.373 126.759 131.716 124.92C132.129 126.372 133.918 127.254 135.322 126.697C136.725 126.14 137.423 124.272 136.728 122.932C136.034 121.592 134.105 121.084 132.841 121.91L132.788 121.441C132.607 119.799 132.466 118.136 132.781 116.519C133.127 114.748 134.112 113.008 135.727 112.203C136.905 111.616 138.265 111.584 139.588 111.605ZM155.407 113.121C155.044 112.903 154.607 112.865 154.181 112.847L154.075 112.843C149.567 112.675 145.056 112.589 140.546 112.587L139.042 112.59C138.091 112.593 137.109 112.607 136.238 112.99C134.939 113.562 134.097 114.889 133.754 116.266C133.41 117.643 133.493 119.086 133.577 120.503C135.861 119.874 138.319 122.195 138.047 124.549C137.776 126.903 135.167 128.602 132.842 128.148C132.736 128.892 132.632 129.664 132.851 130.383C133.069 131.101 133.707 131.751 134.458 131.727L141.198 131.51C141.616 131.497 142.192 131.281 142.071 130.881C141.382 128.612 143.37 125.964 145.741 125.99C148.112 126.017 150.039 128.71 149.299 130.963C150.78 131.296 152.321 131.367 153.827 131.169C154.316 131.105 154.826 131.001 155.201 130.68C155.569 130.365 155.75 129.888 155.903 129.428C157.468 124.741 157.639 119.598 156.39 114.817C156.228 114.198 156.004 113.533 155.487 113.173L155.407 113.121ZM91.45 157.76C90.7324 153.09 90.7334 148.31 91.4529 143.641L91.4892 143.415C91.6678 142.355 91.9813 141.236 92.8668 140.652C93.5297 140.215 94.367 140.182 95.1655 140.182L101.279 140.199C101.557 140.2 101.862 140.21 102.071 140.394C102.28 140.577 102.275 140.998 102.007 141.073C101.366 141.25 100.998 141.988 101.076 142.648C101.154 143.308 101.583 143.88 102.087 144.313C103.288 145.346 105.156 145.713 106.486 144.851C107.816 143.99 108.129 141.771 106.869 140.811C109.724 140.753 112.581 140.762 115.437 140.838L116.507 140.869C116.853 140.881 117.236 140.908 117.478 141.156C117.659 141.342 117.719 141.613 117.76 141.869C118.076 143.846 117.73 145.923 116.791 147.69C116.641 147.972 116.295 148.282 116.059 148.068C115.055 147.157 113.368 147.281 112.342 148.165C111.315 149.05 110.918 150.519 111.1 151.861C111.274 153.154 112.216 154.534 113.519 154.469C113.886 154.45 114.267 154.324 114.642 154.2C115.314 153.977 115.963 153.761 116.46 154.194L115.154 160.029C114.922 161.066 114.506 162.296 113.467 162.518C107.47 163.801 101.183 163.704 95.2288 162.237L94.94 162.164C94.2174 161.974 93.4976 161.73 92.9338 161.247C91.9525 160.407 91.6461 159.036 91.45 157.76ZM115.303 155.238C113.606 156.035 111.396 155.351 110.335 153.806C109.273 152.261 109.377 150.053 110.466 148.527C111.556 147.001 113.514 146.19 115.382 146.35L115.537 146.364C115.799 146.386 116.068 146.395 116.29 146.264C116.571 146.099 116.691 145.759 116.77 145.442C117.081 144.178 117.064 142.834 116.72 141.579L108.817 141.636C108.961 143.83 107.155 145.971 104.968 146.199C102.781 146.427 100.573 144.704 100.261 142.528L100.218 142.204C100.171 141.878 100.098 141.555 99.854 141.348C99.6828 141.202 99.4579 141.145 99.2357 141.101L99.1525 141.085C96.8531 140.65 93.9379 140.47 92.7311 142.475C92.3202 143.158 92.2098 143.974 92.1261 144.767C91.6459 149.317 91.7601 153.929 92.4649 158.449L92.4993 158.66C92.6139 159.333 92.7933 160.024 93.2939 160.475C93.6382 160.786 94.09 160.939 94.5383 161.066L94.6502 161.097C100.384 162.674 106.489 162.885 112.319 161.709L112.643 161.643C112.929 161.582 113.227 161.513 113.453 161.326C113.746 161.082 113.859 160.688 113.957 160.319L115.303 155.238ZM157.953 166.799C157.953 166.799 157.986 165.89 158.101 165.591C158.308 165.052 158.919 164.284 158.919 164.284C158.877 164.492 158.817 164.714 158.756 164.944C158.546 165.729 158.313 166.597 158.666 167.24C158.938 167.735 162.92 170.345 164.289 170.956C170.141 173.571 176.022 175.938 181.931 178.316L181.932 178.316L181.932 178.316L181.932 178.316L181.933 178.317L181.936 178.318C184.351 179.29 186.771 180.263 189.196 181.257C185.03 180.749 181.194 178.809 177.457 176.901C176.65 181.376 179.144 185.888 182.509 188.947C184.959 191.175 187.842 192.826 190.726 194.478L190.727 194.478C191.803 195.094 192.879 195.711 193.932 196.357L194.319 196.597C198.058 198.937 201.633 201.891 203.284 205.965C203.586 206.713 204.516 207.138 205.279 206.879C206.043 206.62 206.521 205.716 206.306 204.939C207.105 205.595 206.644 207.061 205.676 207.423C204.708 207.785 203.598 207.294 202.883 206.546C202.345 205.984 201.969 205.296 201.594 204.609L201.594 204.609L201.594 204.609L201.593 204.609L201.593 204.608L201.593 204.608L201.593 204.608L201.593 204.607L201.593 204.607L201.593 204.607L201.592 204.607L201.592 204.607C201.47 204.383 201.348 204.159 201.22 203.94C198.912 199.983 194.836 197.526 190.792 195.278L188.893 194.227C184.504 191.776 180.008 188.832 178.128 184.194C171.305 185.276 164.201 184.542 157.743 182.086C156.362 181.561 155.009 180.959 153.657 180.356L153.657 180.356C151.503 179.397 149.351 178.439 147.087 177.794C145.826 177.435 144.087 177.396 143.615 178.62C143.615 178.619 143.614 178.62 143.613 178.622L143.613 178.622L143.613 178.623C143.599 178.647 143.509 178.804 143.107 178.838C142.918 178.855 142.745 178.524 142.691 178.304C142.645 178.243 142.63 178.07 142.63 177.714C142.63 177.522 143.02 176.684 143.756 176.166C144.267 175.805 144.842 175.674 145.144 175.606C145.28 175.575 145.36 175.557 145.353 175.536C145.338 175.488 144.815 175.352 144.34 175.582C143.973 175.76 143.626 175.995 143.307 176.211C142.813 176.545 142.386 176.834 142.058 176.796C141.614 176.745 141.298 176.537 141.294 176.09C141.289 175.643 141.407 175.099 141.752 174.818C142.49 174.217 143.442 173.887 144.393 173.9C144.598 173.903 144.826 173.932 144.96 174.088C145.094 174.244 145.028 174.554 144.822 174.564C143.59 174.619 142.165 174.825 141.685 176.09C141.545 176.458 142.427 176.517 142.769 176.321C142.966 176.207 143.136 176.054 143.307 175.901C143.43 175.79 143.553 175.679 143.687 175.582C144.088 175.294 144.586 175.143 145.079 175.161C145.278 175.168 145.497 175.214 145.614 175.375C145.732 175.535 145.649 175.827 145.45 175.831C144.172 175.851 143.005 176.959 142.918 178.234C142.923 178.28 142.958 178.49 143.107 178.54C143.281 178.599 143.473 178.457 143.481 178.443C144.146 177.255 145.361 176.461 146.667 176.859C147.16 177.009 147.635 177.238 148.108 177.466C148.935 177.864 149.756 178.26 150.658 178.226L150.117 175.356C147.922 173.344 144.615 172.635 141.788 173.57C141.485 173.67 141.159 173.815 141.035 174.109C140.912 174.402 141.183 174.829 141.48 174.715C141.012 175.148 140.221 174.413 140.399 173.801C140.578 173.189 141.249 172.875 141.866 172.714C145.328 171.814 148.778 173.383 152.113 174.898C152.732 175.18 153.346 175.459 153.957 175.721C160.746 178.631 168.418 179.445 175.667 178.025C175.353 178.885 174.28 179.145 173.37 179.248C166.913 179.974 160.281 179.085 154.243 176.685C153.505 177.622 153.857 179.078 154.696 179.925C155.535 180.771 156.722 181.156 157.865 181.498C164.267 183.411 171.054 184.875 177.596 183.514L176.536 177.311L176.515 177.198C176.462 176.95 176.366 176.694 176.135 176.616L176.076 176.596C167.691 173.748 161.301 171.578 153.003 163.668C152.986 163.653 152.97 163.636 152.954 163.62C152.893 165.997 152.139 166.52 148.996 165.872C142.136 164.458 135.113 163.718 128.19 164.69C128.714 162.103 129.37 159.542 130.154 157.022C127.901 157.749 125.242 155.684 125.388 153.322C125.533 150.959 128.426 149.237 130.572 150.235C131.31 148.534 131.356 146.545 130.7 144.811C130.385 143.979 131.64 143.499 132.53 143.499L137.445 143.498C138.132 143.498 139.09 143.179 138.919 142.513C138.514 140.935 139.599 139.132 141.183 138.751C142.738 138.377 144.489 139.442 144.891 140.985L144.911 141.071C145.285 142.728 147.384 143.254 149.082 143.222L149.928 143.201C151.397 143.171 152.928 143.218 153.911 144.246C155.087 145.475 154.824 147.432 154.437 149.1L154.411 149.211C154.222 150.008 153.946 150.656 153.669 151.308C153.141 152.549 152.607 153.804 152.654 156.132C152.674 157.081 152.708 157.952 152.747 158.749C152.883 158.189 153.003 157.819 153.003 157.819C153.003 157.819 169.022 169.747 178.916 171.366C180.101 170.318 179.417 168.277 178.223 167.24C177.72 166.803 177.147 166.449 176.575 166.097C175.791 165.613 175.009 165.131 174.414 164.436C173.231 163.055 173.02 161.152 172.81 159.266C172.582 157.215 172.357 155.183 170.887 153.862C170.756 153.744 170.616 153.633 170.476 153.523C170.161 153.275 169.847 153.027 169.633 152.692C169.103 151.863 169.363 150.71 170.005 149.964C170.647 149.219 171.586 148.802 172.515 148.478C174.443 147.805 176.557 147.429 178.526 147.972C180.495 148.514 182.258 150.153 182.452 152.187C182.825 151.378 183.646 150.793 184.532 150.704L183.245 152.072L184.873 152.104L182.633 153.356C184.022 155.924 183.797 159.093 182.907 161.874C182.798 162.214 182.679 162.554 182.56 162.895L182.56 162.897C182.084 164.262 181.604 165.638 181.727 167.062C181.878 168.814 183.434 170.603 185.134 170.245L185.219 170.225C187.263 169.709 189.5 170.007 191.337 171.042C193.478 172.248 194.936 174.294 196.378 176.318L196.378 176.318C196.713 176.788 197.047 177.257 197.389 177.714C198.99 179.855 200.884 181.846 203.252 183.086C205.621 184.327 208.524 184.736 210.991 183.706C211.445 183.517 211.881 183.282 212.316 183.047C213.056 182.648 213.793 182.25 214.61 182.08C215.909 181.811 217.563 182.447 217.717 183.764C217.045 182.642 215.453 182.442 214.201 182.821C213.494 183.035 212.843 183.384 212.19 183.733L212.19 183.733L212.189 183.734C211.686 184.003 211.181 184.273 210.651 184.482C207.994 185.525 204.9 184.893 202.454 183.422C200.085 181.996 198.229 179.869 196.554 177.664L196.393 177.451C196.222 177.224 196.052 176.995 195.882 176.767C194.705 175.184 193.519 173.591 191.965 172.387C190.222 171.037 187.881 170.239 185.782 170.887L185.654 170.929C183.647 171.609 181.521 169.688 181.159 167.6C180.798 165.511 181.649 163.425 182.482 161.476C183.342 159.466 181.764 157.12 179.774 156.214C177.928 155.373 175.711 155.392 173.879 156.264C173.286 156.547 173.178 157.326 173.198 157.991L173.201 158.065C173.304 160.415 173.932 162.885 175.647 164.495C176.157 164.973 176.746 165.36 177.335 165.745C178.071 166.228 178.805 166.71 179.381 167.369C180.416 168.556 180.575 170.779 179.137 171.421C181.604 171.866 184.045 172.456 186.444 173.186C173.54 171.866 161.675 165.779 153.157 158.428C152.983 158.768 152.86 159.128 152.785 159.498C152.805 159.866 152.825 160.217 152.845 160.551C152.872 161.023 152.897 161.461 152.917 161.866C153.327 163.216 154.285 164.405 155.601 164.928C155.497 163.98 155.817 162.994 156.457 162.287C156.041 163.216 155.382 164.997 157.953 166.799ZM177.774 148.634C176.625 148.42 175.458 148.306 174.29 148.294C174.211 148.441 174.181 148.614 174.206 148.779C175.508 148.887 176.791 149.231 177.973 149.787C177.479 150.281 176.663 149.985 175.999 149.745L175.96 149.731C174.827 149.32 173.583 149.221 172.399 149.447C171.795 149.561 171.191 149.768 170.726 150.17C170.261 150.572 169.957 151.198 170.06 151.804C170.193 152.577 170.921 153.106 171.647 153.404C173.448 154.142 175.607 153.934 177.234 152.866C177.366 152.779 177.552 152.924 177.56 153.081C177.568 153.239 177.461 153.378 177.349 153.489C176.701 154.135 175.736 154.34 174.823 154.394C174.556 154.409 174.288 154.414 174.02 154.42L174.019 154.42C173.369 154.432 172.719 154.445 172.092 154.604C172.176 155.122 172.823 155.3 173.347 155.338C175.347 155.483 177.377 155.214 179.27 154.553C179.744 154.387 180.18 154.862 180.459 155.279L182.499 158.323C183.169 157.692 183.129 156.602 182.813 155.738C182.69 155.4 182.532 155.075 182.376 154.75L182.376 154.75L182.375 154.75L182.375 154.75L182.375 154.749L182.375 154.749C182.131 154.242 181.886 153.736 181.772 153.188C181.708 152.885 181.685 152.575 181.663 152.265C181.631 151.83 181.599 151.397 181.455 150.987C180.948 149.546 179.276 148.913 177.774 148.634ZM153.136 176.417L151.285 175.353C151.079 175.235 150.701 175.215 150.721 175.451C150.658 176.407 150.736 177.578 151.35 178.374C151.737 178.876 152.017 179.133 153.384 179.472L153.284 176.796C153.278 176.654 153.259 176.488 153.136 176.417ZM181.327 161.858C181.552 161.727 181.695 161.495 181.829 161.272C182.069 160.873 182.316 160.45 182.326 159.985C182.337 159.52 182.015 159.012 181.55 158.994C181.319 158.985 181.099 159.095 180.91 159.229C180.491 159.526 180.167 159.956 179.998 160.441C180.212 160.749 180.696 160.474 180.912 160.166C181.127 159.859 181.446 159.47 181.789 159.623C181.563 160.408 181.163 161.142 180.626 161.757C180.769 161.974 181.101 161.989 181.327 161.858ZM185.03 184.463C184.515 183.646 183.959 182.763 183.042 182.497C185.077 186.328 188.231 189.555 192.014 191.677C193.335 192.418 194.728 193.027 196.119 193.635L196.119 193.635L196.119 193.635L196.119 193.635L196.12 193.635L196.12 193.635C198.061 194.483 199.999 195.33 201.735 196.533C203.91 198.041 205.709 200.086 206.926 202.437C206.448 199.086 203.646 196.521 200.655 194.936C199.301 194.219 197.878 193.641 196.456 193.063C194.737 192.365 193.018 191.666 191.424 190.723C188.882 189.22 186.704 187.107 185.124 184.612L185.03 184.463ZM191.423 185.597L191.48 185.723C191.73 186.302 191.904 187.031 191.433 187.423C191.059 187.736 190.491 187.616 190.049 187.409C189.093 186.96 188.303 186.168 187.857 185.211C188.415 185.1 188.938 184.82 189.339 184.416C189.671 184.081 190.26 184.149 190.635 184.436C191.01 184.723 191.223 185.168 191.423 185.597ZM191.119 186.968C191.601 186.104 190.619 184.829 190.139 184.746C189.931 184.71 189.715 184.917 189.484 185.139C189.246 185.366 188.992 185.61 188.711 185.625C188.711 185.625 190.638 187.832 191.119 186.968ZM215.401 189.453C227.092 189.069 238.505 183.374 245.841 174.264C246.22 173.792 246.972 173.784 247.5 174.081C248.028 174.377 248.385 174.898 248.722 175.4C249.09 175.346 249.101 174.776 248.848 174.503C248.723 174.369 248.566 174.272 248.409 174.175C248.247 174.074 248.086 173.974 247.96 173.835C247.449 173.269 247.722 172.379 248.021 171.678L249.355 168.555C249.534 168.137 249.813 167.649 250.268 167.655C250.601 167.66 250.857 167.938 251.068 168.195C253.37 170.999 255.505 173.94 257.459 176.997C256.254 177.183 255.096 176.59 253.954 176.005C252.678 175.351 251.422 174.707 250.142 175.171C249.027 175.575 248.371 176.698 247.78 177.726C245.849 181.091 243.637 184.331 240.835 187.014C234.328 193.244 225.248 195.94 216.402 197.645C221.874 199.716 227.902 200.297 233.668 199.309C236.968 198.743 240.259 197.63 242.831 195.486C243.872 194.618 244.775 193.599 245.674 192.585L252.299 185.107C252.686 184.669 253.402 185.089 253.764 185.549C254.125 186.009 254.615 186.583 255.166 186.386C254.772 185.503 254.087 184.752 253.244 184.279C253.194 183.224 253.162 182.094 253.723 181.2C254.284 180.305 255.682 179.869 256.409 180.634C258.795 183.144 261.08 185.748 263.259 188.438C261.98 188.639 260.766 188.089 259.56 187.543L259.559 187.543C259.187 187.374 258.815 187.206 258.443 187.06C256.865 186.443 254.653 186.456 253.934 187.99C251.966 192.185 249.921 196.487 246.543 199.659C240.902 204.956 232.659 206.152 224.97 207.024C221.56 207.41 218.057 207.777 214.736 206.909C212.32 206.277 210.121 205.02 207.954 203.776L206.235 202.789C205.729 202.915 206.135 203.682 206.585 203.947C209.463 205.644 212.43 207.374 215.73 207.894C216.571 208.027 217.423 208.078 218.274 208.11C226.106 208.405 233.998 207.031 241.27 204.106C244.303 202.887 247.389 201.256 249.055 198.444L254.924 188.532C255.149 188.152 255.396 187.752 255.795 187.563C256.281 187.333 256.852 187.48 257.368 187.63L262.869 189.228C263.432 189.391 263.954 188.732 263.895 188.149C263.837 187.567 263.416 187.095 263.017 186.667L257.943 181.237C257.274 180.52 256.555 179.773 255.609 179.512C254.664 179.251 253.449 179.71 253.264 180.673C252.719 183.516 250.777 185.858 248.903 188.064C246.003 191.477 242.983 194.986 238.957 196.95C233.184 199.767 226.363 198.949 220.042 197.804L224.14 196.611C226.169 196.02 228.201 195.428 230.168 194.655C237.797 191.657 244.295 185.872 248.157 178.642C248.827 177.387 249.616 175.937 251.016 175.685C252.167 175.478 253.148 176.157 254.151 176.852C254.747 177.265 255.351 177.683 256.003 177.924C256.965 178.279 258.457 177.774 258.231 176.774C258.18 176.548 258.043 176.352 257.909 176.163L252.69 168.806C251.966 167.785 250.881 166.632 249.69 167.015C248.733 167.323 248.373 168.428 248.057 169.402L248.019 169.518L248 169.576C246.515 174.103 242.52 177.265 238.729 180.15C237.07 181.412 235.407 182.678 233.618 183.746C228.389 186.865 222.257 188.186 216.181 188.581C214.464 188.692 213.386 190.302 212.398 191.776C212.281 191.952 212.165 192.125 212.049 192.294C210.358 194.758 207.95 196.723 205.197 197.887C205.657 198.396 206.496 198.091 207.078 197.727C209.84 196.001 212.183 193.609 213.853 190.812C214.221 190.195 214.683 189.477 215.401 189.453ZM178.722 163.044C178.453 163.633 177.854 164.057 177.209 164.114C176.564 164.171 175.9 163.86 175.531 163.328C175.396 163.132 175.397 162.75 175.634 162.771C176.127 163.426 177.155 163.595 177.832 163.133C178.125 162.933 178.633 162.7 178.722 163.044ZM173.54 158.766C173.598 158.273 174.014 157.844 174.505 157.771C174.996 157.698 175.519 157.986 175.719 158.441C175.36 158.441 175.119 158.376 174.919 158.322C174.511 158.212 174.27 158.147 173.54 158.766ZM177.346 161.513L176.787 161.752L176.755 161.734C176.61 162.01 176.183 161.697 176.15 161.387C176.149 161.376 176.148 161.364 176.147 161.352C176.147 161.345 176.146 161.339 176.145 161.332L176.143 161.294C176.142 161.276 176.141 161.258 176.14 161.24L176.137 161.187C176.125 160.924 176.112 160.651 175.895 160.533C175.623 160.924 175.499 161.438 175.657 161.887C175.815 162.336 176.295 162.677 176.763 162.592C177.232 162.508 177.568 161.934 177.346 161.513ZM178.017 157.703C178.724 157.76 178.912 157.798 179.107 158.263C179.145 158.354 178.843 158.268 178.555 158.186C178.344 158.125 178.139 158.067 178.084 158.084C175.719 158.785 177.31 157.646 178.017 157.703ZM177.817 158.925C178.208 159.234 178.095 160.468 177.518 160.235C177.277 160.138 176.988 158.267 177.817 158.925ZM196.516 191.952C196.33 191.72 196.541 191.306 196.839 191.32C196.97 191.405 197.06 191.552 197.075 191.708C196.962 191.891 196.729 191.992 196.518 191.947L196.516 191.952ZM191.204 189.548L191.61 189.486L191.643 189.475C191.784 189.211 191.323 188.91 191.138 189.146C191.098 189.28 191.123 189.433 191.204 189.548ZM194.096 191.15C193.861 191.214 193.829 190.81 193.961 190.605L194.524 190.861C194.437 191.013 194.276 191.12 194.102 191.142L194.096 191.15ZM187.075 185.257C187.012 185.102 186.789 185.043 186.658 185.146L186.694 185.182C186.581 185.33 186.671 185.581 186.851 185.625C187.017 185.609 187.137 185.411 187.075 185.257ZM174.722 160.264C174.495 160.264 174.259 160.043 174.27 159.658C174.282 159.274 174.387 158.918 174.722 159.107C175.057 159.296 174.955 160.264 174.722 160.264ZM69.2965 113.534C69.4328 113.713 69.7444 113.634 69.8643 113.444C69.9842 113.253 69.9691 113.01 69.9474 112.786C69.6337 109.545 68.7926 106.356 67.4672 103.382C67.0897 102.535 66.6927 101.479 67.2707 100.753C68.6069 104.093 69.9542 107.474 70.4409 111.038C70.5737 112.01 70.6214 113.075 70.0791 113.894C69.5368 114.712 68.1856 115.026 67.5831 114.251C68.5098 114.057 69.2188 113.119 69.152 112.174C69.58 112.466 69.6536 113.158 69.2965 113.534ZM80.0968 177.885C84.945 177.619 90.5617 176.919 93.1048 172.782C93.7642 171.71 93.6236 170.023 93.5077 168.634C93.4146 167.517 93.3374 166.593 93.704 166.331C94.5268 165.745 95.185 167.257 95.185 167.257C95.1928 167.225 95.201 167.19 95.2095 167.153C95.2274 167.076 95.2468 166.988 95.2679 166.894C95.4977 165.863 95.9209 163.965 96.5858 164.321C96.8593 164.468 96.7651 165.391 96.7004 166.025L96.7004 166.025C96.6852 166.174 96.6717 166.307 96.6649 166.41C96.6494 166.508 96.6472 166.59 96.6589 166.648C96.6681 166.644 96.6778 166.639 96.6879 166.632C96.6949 166.631 96.7032 166.624 96.7134 166.612C96.8209 166.522 96.9681 166.297 97.1319 166.048L97.132 166.048L97.132 166.048C97.4715 165.531 97.8821 164.906 98.1572 165.136C98.5893 165.496 97.0531 167.8 97.0531 167.8C97.0531 167.8 98.8776 165.795 99.0315 166.648C99.1854 167.501 95.0304 175.208 91.2797 178.23C87.5291 181.253 82.2442 182.945 77.4656 182.339C77.5723 180.444 78.2014 177.989 80.0968 177.885ZM96.7134 166.612C96.7046 166.62 96.6961 166.626 96.6879 166.632C96.659 166.636 96.6556 166.551 96.6649 166.41C96.7001 166.187 96.8043 165.881 96.971 165.59C96.9397 165.689 96.9084 165.785 96.8789 165.876L96.8781 165.878C96.745 166.286 96.6486 166.582 96.7486 166.559C96.7351 166.583 96.7234 166.6 96.7134 166.612ZM97.6164 164.873C97.3477 165.043 97.1307 165.31 96.971 165.59C97.2199 164.801 97.4719 163.807 96.8592 163.727C95.8201 163.592 94.8043 165.284 94.9847 166.182C94.6964 165.466 93.4964 165.776 93.2058 166.491C92.9828 167.04 93.0776 167.64 93.1718 168.237C93.2003 168.418 93.2288 168.598 93.2483 168.777C93.5606 171.627 91.4233 174.292 88.8324 175.521C86.3895 176.681 83.6172 176.843 80.9056 176.927L80.273 176.946C78.725 176.986 77.0486 176.951 75.8671 175.963C74.6497 174.944 74.6511 172.529 76.1796 172.102C80.0599 171.018 83.0197 167.237 83.1402 163.21C83.1758 162.02 83.9476 161.03 84.6936 160.073C84.7606 159.987 84.8274 159.901 84.8934 159.816L85.0573 159.601C85.8923 158.493 86.5787 156.967 85.8776 155.771C84.7914 157.164 82.7564 157.726 81.1088 157.088C80.4214 156.821 79.8124 156.376 79.2072 155.933C78.3967 155.341 77.593 154.753 76.6168 154.606C74.708 154.319 72.8146 156.252 73.1413 158.154C72.6245 157.72 71.8225 158.377 71.7666 159.049C71.7338 159.444 71.8377 159.829 71.942 160.215C72.0152 160.486 72.0886 160.757 72.1152 161.034C72.1462 161.357 72.1132 161.679 72.0801 162.002L72.0801 162.002C72.0578 162.22 72.0354 162.439 72.0328 162.658C72.019 163.79 72.5236 164.838 73.0205 165.87C73.0706 165.975 73.1207 166.079 73.1702 166.183L73.3031 166.466C73.8689 167.693 74.2885 169.152 73.6856 170.361C73.0826 171.57 71.0302 171.949 70.4488 170.73C67.599 164.753 61.1397 160.684 54.5189 160.694C46.8532 160.706 39.956 165.758 35.4384 171.951C34.875 172.723 34.3235 173.555 34.2007 174.503C34.0779 175.452 34.5179 176.54 35.4198 176.857C36.3218 177.174 37.4913 176.287 37.1974 175.377C37.655 175.911 38.5909 175.406 38.8065 174.737C38.9276 174.361 38.9261 173.964 38.9246 173.566C38.9235 173.255 38.9223 172.944 38.9793 172.641C39.2587 171.156 40.7864 170.298 42.1614 169.671L42.4387 169.545C45.6774 168.079 49.0518 166.771 52.5944 166.522C56.2382 166.266 60.1265 167.279 62.6306 169.938C59.2138 170.749 57.2295 174.177 55.6479 177.344L55.4285 177.785C53.8315 180.992 51.7399 184.491 48.2379 185.171C48.371 185.862 48.981 186.433 49.6791 186.521L36.8408 194.154L37.8256 195.376C34.6998 200.166 31.1645 204.69 27.2708 208.881C25.1539 211.159 22.405 213.52 19.3404 212.99C18.7863 212.894 18.2491 212.704 17.7137 212.514L17.7135 212.514C16.9295 212.236 16.1494 211.96 15.3263 211.984C13.9409 212.023 12.5506 213.708 13.491 214.727C15.5736 216.981 17.9505 218.964 20.5424 220.608L20.6096 220.65C20.9251 220.847 21.2721 221.03 21.638 220.988C22.0079 220.946 22.309 220.683 22.5841 220.432L39.9715 204.578C41.3955 203.29 42.9626 202.002 44.8596 201.812L45.0196 201.793C46.4227 201.598 47.5785 200.711 48.7376 199.821L48.7379 199.821C49.2425 199.434 49.7477 199.046 50.2742 198.715C52.0561 197.593 55.0118 197.478 55.7049 199.466C56.0732 200.523 55.5911 201.597 55.116 202.656C54.9744 202.972 54.8334 203.286 54.7158 203.598C54.2033 204.957 54.6232 207.047 56.0752 207.022L64.2012 206.878C64.4932 206.875 64.8008 206.891 65.0278 207.07C65.2655 207.257 65.3488 207.568 65.3945 207.873L65.4134 208.013C65.7194 210.502 65.6772 213.033 65.2883 215.51C64.867 218.195 63.7458 221.148 61.2128 222.132C59.6151 222.753 57.8355 222.431 56.1527 222.045L45.9279 219.657C45.9108 218.419 47.031 217.41 48.2252 217.082C49.2377 216.804 50.3012 216.889 51.3544 216.973L51.5483 216.988L51.9198 217.016C54.5075 217.194 57.1235 216.954 59.6354 216.307L56.0109 207.237C56.3804 210.248 57.1949 213.204 58.4197 215.98L46.5044 216.366C45.4668 216.395 44.3149 216.349 43.6175 215.592C43.4384 215.398 43.2892 215.159 43.1413 214.922C42.8376 214.435 42.5396 213.957 42.0005 213.895C41.5346 213.841 41.1125 214.152 40.7557 214.456C38.4262 216.443 36.4919 218.892 35.0983 221.618C35.6008 222.862 37.2654 223.211 38.5587 222.854C39.3152 222.645 40.0056 222.268 40.6975 221.891C41.1883 221.624 41.6798 221.356 42.196 221.147C45.0763 219.983 48.2427 220.772 51.2844 221.688L53.0912 222.238C56.6617 223.311 61.0151 223.861 63.6908 221.265C65.2697 219.733 65.8449 217.453 66.1575 215.276C67.0596 208.992 66.3283 202.481 64.0547 196.554C66.5897 195.576 67.7859 192.74 68.7159 190.187L70.5371 185.188C71.1456 183.517 72.528 181.467 74.1735 182.14C78.8775 184.064 84.4337 183.251 88.8131 180.672C93.1925 178.094 96.4709 173.917 98.679 169.339L98.7382 169.216C99.1703 168.306 99.7211 166.184 99.2291 165.948C99.0457 165.804 98.719 166.043 98.4964 166.206L98.4963 166.206L98.4962 166.207C98.3759 166.295 98.286 166.36 98.2656 166.331C98.2531 166.314 98.2934 166.196 98.3506 166.029C98.5755 165.374 99.061 163.96 97.6164 164.873ZM66.4878 192.939C65.9187 194.218 64.977 195.724 63.5871 195.554C62.8429 195.463 62.2807 194.902 61.7749 194.324L61.5039 194.01C58.5663 190.6 54.5757 188.334 50.5648 186.248L49.2285 185.558C52.4957 184.915 54.5111 181.684 55.9503 178.681L56.4089 177.724C57.7249 174.996 59.2223 172.189 61.9367 170.96C62.3118 170.791 62.7422 170.656 63.1291 170.796C63.1575 170.807 63.187 170.818 63.2174 170.829C63.2483 170.841 63.28 170.853 63.3124 170.866L63.3169 170.867C63.7946 171.051 64.4098 171.288 64.4 170.835C63.529 170.484 63.3858 169.214 63.8882 168.42C64.3469 167.696 65.1414 167.278 65.9281 166.918L66.1523 166.816C65.6505 166.124 64.5629 166.706 63.9947 167.345L63.9479 167.397C63.3777 168.022 62.5024 168.707 61.8442 168.199C59.1246 166.097 55.5 165.423 52.079 165.753C48.6579 166.083 45.394 167.334 42.2687 168.763C41.1233 169.288 39.9598 169.859 39.1097 170.789C38.4521 171.508 38.384 172.465 38.3155 173.427C38.2954 173.709 38.2754 173.991 38.2405 174.267C38.156 174.936 37.7881 174.962 37.464 174.984C37.2903 174.996 37.1292 175.008 37.0311 175.116C37.0232 175.125 36.9978 175.164 36.9597 175.223L36.9596 175.223C36.765 175.522 36.2384 176.331 36.0006 176.25C35.6513 176.131 35.8294 175.377 35.8294 175.377C35.8294 175.377 34.7928 175.674 34.7156 175.377C34.4457 174.341 36.0006 172.219 36.0006 172.219C38.6148 168.374 42.4916 165.182 46.7539 163.328C51.095 161.438 56.1609 161.073 60.5987 162.723C65.6019 164.582 69.5638 169.025 70.841 174.207C71.1595 175.499 72.6624 176.07 73.9757 176.284C74.0992 176.305 74.2243 176.324 74.3502 176.344C75.5622 176.533 76.851 176.734 77.6234 177.66C77.8511 177.933 77.7881 178.336 77.7099 178.683L77.687 178.783C77.3989 180.019 76.8963 181.402 75.6955 181.777C74.6041 182.118 73.3109 181.238 73.2274 180.098C73.22 179.997 73.2178 179.891 73.2156 179.783C73.2064 179.34 73.1968 178.873 72.8246 178.69L66.4878 192.939ZM56.1664 199.698C55.7583 197.601 54.5178 195.714 52.8903 194.33C52.9538 195.154 53.3026 195.954 53.8634 196.561C51.1054 197.438 48.5045 198.807 46.22 200.583C45.6086 201.059 44.5699 201.492 44.2117 200.806C42.8028 198.103 40.5599 195.844 37.8685 194.414L48.9334 188.056C49.4335 187.768 49.9624 187.473 50.5392 187.467C50.9863 187.463 51.411 187.634 51.8153 187.833L52.0157 187.935C56.1564 190.067 59.8629 193.039 62.8453 196.616C63.5837 197.502 63.9274 198.636 64.2199 199.758L65.5361 204.9C65.6232 205.241 65.6871 205.662 65.4203 205.891C65.2702 206.02 65.0587 206.042 64.8615 206.057L64.6307 206.075C61.3543 206.327 58.7109 206.531 55.4285 206.057C54.9387 205.118 55.3088 203.954 55.6909 202.753C56.0184 201.723 56.3548 200.666 56.1664 199.698ZM39.7057 196.536C40.9334 197.617 42.0402 198.836 42.9988 200.161C43.1014 200.303 43.2069 200.461 43.196 200.636C43.1832 200.84 43.0181 200.997 42.8644 201.131L28.5634 213.648C27.9671 214.17 27.0158 214.078 26.3479 213.652C25.7634 213.279 25.3455 212.707 24.9621 212.123L24.7995 211.873C28.5266 209.915 30.9174 206.406 33.3295 202.866L33.3296 202.866C34.8426 200.645 36.3639 198.413 38.2286 196.542C38.4098 196.361 38.6143 196.172 38.8694 196.144C39.1849 196.108 39.4674 196.326 39.7057 196.536ZM81.3522 161.622L81.7172 161.735C82.4283 161.955 82.5464 162.907 82.4559 163.646C82.0812 166.705 80.1799 169.733 77.2483 170.683L77.1435 170.719C75.2332 171.393 73.8675 173.391 73.9491 175.418C72.6668 175.659 71.292 174.633 71.1572 173.335C71.1304 173.076 71.2069 172.74 71.464 172.701C72.629 172.522 73.7006 171.807 74.313 170.8C74.9255 169.793 75.0675 168.513 74.6906 167.396C74.6137 167.168 74.5158 166.939 74.4178 166.711L74.4178 166.711C74.1392 166.06 73.8595 165.408 74.0552 164.752C74.5017 164.793 74.5864 165.406 74.5393 165.851L74.5342 165.906C74.498 166.345 74.5756 166.909 75.0021 166.968C75.2832 166.322 75.3417 165.6 75.3997 164.883C75.4729 163.977 75.5454 163.08 76.0647 162.359C76.6584 161.534 77.7234 161.155 78.7396 161.143C79.6289 161.132 80.4983 161.363 81.3522 161.622ZM17.0956 213.196L17.1873 213.09C17.6992 212.978 18.1879 213.634 17.9344 214.092C17.7718 214.386 18.2719 214.678 18.5512 214.49C18.8304 214.303 18.8868 213.923 18.9175 213.588C19.1984 213.5 19.4414 213.822 19.4945 214.112C19.5085 214.188 19.5172 214.268 19.5259 214.347C19.5501 214.567 19.5744 214.788 19.7136 214.954C19.9027 215.18 20.4039 215.063 20.3217 214.78C20.1991 214.359 20.6973 214.015 21.132 213.952C21.2364 213.937 21.3442 213.929 21.4523 213.92L21.4527 213.92C21.7946 213.892 22.1393 213.863 22.3882 213.641L22.4257 213.611C22.7415 213.387 23.1326 213.802 23.371 214.17L23.4819 214.348C24.0061 215.163 24.8971 215.734 25.8577 215.864C26.0459 215.89 25.9502 216.183 25.8119 216.313L22.5699 219.366C22.4128 219.514 22.1581 219.409 21.974 219.296C20.0496 218.118 18.2731 216.699 16.6992 215.082C16.2034 214.572 16.6239 213.76 17.0956 213.196ZM45.4473 218.879C45.3538 219.264 45.088 219.695 44.6929 219.665C43.7406 219.595 42.7749 219.71 41.8657 220.001C41.9491 219.614 41.7795 219.184 41.4539 218.957C41.2163 219.297 41.3135 219.824 41.6567 220.056L40.7502 220.952L40.3163 219.955C40.1023 220.012 40.096 220.274 40.1108 220.515L40.1214 220.664C40.1648 221.296 39.6293 221.909 38.998 221.952C38.3667 221.995 37.7537 221.458 37.7119 220.827C37.6664 220.139 38.1932 219.562 38.683 219.077L42.1605 215.634C42.2345 215.563 42.3191 215.498 42.419 215.5C42.5293 215.502 42.6188 215.585 42.6964 215.664L44.0534 217.033C44.3166 217.299 44.1502 217.705 43.9882 218.101C43.8213 218.509 43.659 218.905 43.9741 219.126C44.2808 219.144 44.5362 218.878 44.6541 218.594C44.7143 218.449 44.7509 218.297 44.7874 218.144C44.8225 217.997 44.8576 217.85 44.9137 217.711C45.028 217.425 45.2748 217.154 45.5821 217.16C45.8893 217.167 46.1263 217.606 45.8887 217.801C45.6354 218.009 45.5631 218.346 45.4928 218.675C45.4781 218.744 45.4635 218.812 45.4473 218.879ZM21.6707 220.401C18.545 218.729 15.782 216.383 13.6254 213.57C13.9082 213.302 14.3335 213.587 14.607 213.89L14.6747 213.97C16.7238 216.505 19.2972 218.615 22.1853 220.128C22.1618 220.356 21.8728 220.509 21.6707 220.401ZM36.6612 219.761C38.0151 217.99 39.5154 216.331 41.1415 214.807C41.3936 214.57 41.9171 214.411 41.9809 214.75C40.0878 216.557 38.2771 218.451 36.5564 220.423C36.3695 220.261 36.5108 219.958 36.6612 219.761ZM26.2626 215.334C25.3177 214.997 24.4754 214.379 23.8719 213.578C23.6449 213.277 23.5016 212.753 23.8457 212.598C24.1176 212.476 24.3788 212.733 24.5685 212.982L24.7107 213.176C25.3219 213.982 26.1936 214.588 27.1631 214.878C27.1648 215.137 26.9507 215.38 26.6938 215.41C26.5475 215.427 26.4013 215.383 26.2626 215.334ZM72.6277 162.931C73.0719 162.942 73.448 163.405 73.3673 163.842L73.3777 163.848C73.4391 164.164 73.3987 164.5 73.2638 164.793C72.7781 164.317 72.5349 163.605 72.6277 162.931ZM81.0896 162.942C81.1458 162.937 81.2047 162.932 81.2645 162.931C81.3395 162.93 81.4259 162.944 81.5074 162.956C81.7273 162.99 81.9113 163.019 81.7375 162.747C81.4993 162.374 80.8021 162.332 80.6878 162.759C80.7198 162.975 80.8858 162.96 81.0896 162.942ZM81.6508 164.786L81.6609 164.748C81.8303 164.106 81.7323 163.599 81.2645 163.599C81.084 163.613 80.8085 164.532 80.8348 164.81C80.861 165.089 81.1751 165.347 81.4184 165.209C81.5627 165.127 81.6089 164.948 81.6508 164.786ZM78.5652 164.591C78.2391 164.138 78.2049 163.494 78.4813 163.009C78.5225 162.936 78.5724 162.865 78.6446 162.824C78.8276 162.719 79.0723 162.861 79.153 163.056C79.2336 163.251 79.1984 163.472 79.162 163.679C79.162 163.679 78.8913 165.044 78.5652 164.591ZM147.647 164.605C141.69 163.143 135.466 162.774 129.378 163.521C130.434 161.059 130.898 158.345 130.719 155.672C129.133 156.784 126.528 155.479 126.468 153.543C126.408 151.606 128.927 150.143 130.579 151.154C131.017 151.422 131.498 150.867 131.674 150.384C132.27 148.739 132.276 146.887 131.69 145.239C131.462 144.597 132.43 144.249 133.111 144.263L138.893 144.377C139.281 144.385 139.693 144.386 140.025 144.184C140.356 143.982 140.545 143.496 140.301 143.193C139.301 141.952 140.451 139.73 142.042 139.83C143.633 139.93 144.496 142.278 143.348 143.385C143.134 143.591 143.55 143.857 143.847 143.864L151.407 144.038C152.91 144.072 153.972 145.674 154.034 147.177C154.086 148.448 153.634 149.666 153.188 150.869C153.149 150.974 153.11 151.079 153.072 151.183L152.949 151.523C151.61 155.28 151.179 159.357 151.703 163.311C151.805 164.083 151.095 164.769 150.335 164.936C149.664 165.083 148.974 164.937 148.302 164.769L147.647 164.605Z" fill="#1A1A1A"/>
<path fill-rule="evenodd" clip-rule="evenodd" d="M67.0712 95.4136C67.1262 95.0573 67.6011 94.8515 67.9443 94.9738C68.2875 95.0961 68.5939 95.5883 68.3424 95.8667C67.9443 96.3074 66.9644 96.1051 67.0712 95.4136Z" fill="#357A6A"/>
<path fill-rule="evenodd" clip-rule="evenodd" d="M216.46 187.682C216.235 187.87 215.785 187.938 215.743 187.648C216.619 186.757 217.221 185.601 217.45 184.373C217.736 184.297 217.819 184.752 217.747 185.039C217.505 186.007 217.223 187.041 216.46 187.682Z" fill="#1A1A1A"/>
<path d="M23.1599 81.5451C23.151 81.8323 22.7154 81.8155 22.452 81.7009C22.5468 81.4446 22.9312 81.3589 23.126 81.5505L23.1599 81.5451Z" fill="#1A1A1A"/>
<path fill-rule="evenodd" clip-rule="evenodd" d="M147.469 160.44C147.166 160.71 146.655 160.297 146.7 159.893C146.745 159.489 147.103 159.2 147.446 158.983C148.676 158.204 150.101 157.734 151.553 157.629C151.592 158.183 150.874 158.412 150.329 158.518C149.173 158.743 148.071 159.244 147.142 159.967C147.31 160.07 147.432 160.246 147.469 160.44V160.44Z" fill="#1A1A1A"/>
<path fill-rule="evenodd" clip-rule="evenodd" d="M151.594 161.146C150.913 161.475 150.219 161.779 149.515 162.057C149.595 162.354 150.022 162.344 150.311 162.239C150.6 162.135 150.981 162.025 151.168 162.269C150.692 162.995 149.514 163.108 148.908 162.486C148.645 162.215 148.169 162.393 147.829 162.229C147.343 161.994 147.433 161.26 147.72 160.802C148.317 159.846 149.457 159.256 150.583 159.321C151.012 159.346 151.524 159.557 151.553 159.986C150.208 159.901 148.837 160.456 147.929 161.451C148.445 161.85 149.185 161.552 149.767 161.258C150.348 160.963 151.116 160.702 151.594 161.146Z" fill="#1A1A1A"/>
<path fill-rule="evenodd" clip-rule="evenodd" d="M80.0166 164.96C80.4026 165.346 80.5627 165.523 80.5627 166.091C80.5627 166.659 80.2546 167.023 79.7348 167.19C79.495 167.267 79.1632 167.208 79.101 166.964C80.8334 166.61 80.1967 165.855 80.0166 164.96Z" fill="#1A1A1A"/>
<path fill-rule="evenodd" clip-rule="evenodd" d="M77.7052 162.544C77.89 161.931 78.694 161.6 79.2568 161.905C79.4796 162.026 79.6648 162.245 79.6763 162.498C79.0192 162.514 78.4782 162.089 77.7052 162.544Z" fill="#1A1A1A"/>
<path fill-rule="evenodd" clip-rule="evenodd" d="M79.2781 168.019C78.4824 168.591 75.6131 165.984 79.2781 168.019V168.019Z" fill="#1A1A1A"/>
</svg>
