<svg width="20" height="20" viewBox="0 0 20 20" fill="none" xmlns="http://www.w3.org/2000/svg">
<g id="package">
<path id="Vector" d="M10 18.3335C9.31817 18.3335 8.66683 18.0583 7.36411 17.5081C4.12137 16.1382 2.5 15.4533 2.5 14.3012C2.5 13.9787 2.5 8.38725 2.5 5.8335M10 18.3335C10.6818 18.3335 11.3332 18.0583 12.6359 17.5081C15.8787 16.1382 17.5 15.4533 17.5 14.3012V5.8335M10 18.3335V9.4625" stroke="#1A1A1A" stroke-width="1.25" stroke-linecap="round" stroke-linejoin="round"/>
<path id="Vector_2" d="M6.93827 8.07623L4.50393 6.89829C3.16797 6.25183 2.5 5.92861 2.5 5.41675C2.5 4.90489 3.16797 4.58166 4.50393 3.93521L6.93827 2.75726C8.44067 2.03026 9.19192 1.66675 10 1.66675C10.8081 1.66675 11.5593 2.03025 13.0617 2.75726L15.4961 3.93521C16.832 4.58166 17.5 4.90489 17.5 5.41675C17.5 5.92861 16.832 6.25183 15.4961 6.89829L13.0617 8.07623C11.5593 8.80325 10.8081 9.16675 10 9.16675C9.19192 9.16675 8.44067 8.80325 6.93827 8.07623Z" stroke="#1A1A1A" stroke-width="1.25" stroke-linecap="round" stroke-linejoin="round"/>
<path id="Vector_3" d="M5 10L6.66667 10.8333" stroke="#1A1A1A" stroke-width="1.25" stroke-linecap="round" stroke-linejoin="round"/>
<path id="Vector_4" d="M14.1663 3.3335L5.83301 7.50016" stroke="#1A1A1A" stroke-width="1.25" stroke-linecap="round" stroke-linejoin="round"/>
</g>
</svg>
