<svg width="40" height="41" viewBox="0 0 40 41" fill="none" xmlns="http://www.w3.org/2000/svg">
<g clip-path="url(#clip0_3927_8221)">
<g clip-path="url(#clip1_3927_8221)">
<rect width="40" height="40" transform="translate(0 0.5)" fill="#F9FCF8"/>
<path d="M15.392 16.297C14.8805 16.2961 14.3896 16.4983 14.0271 16.8592L10.9728 19.9149V25.699H19.3833L27.9798 23.5495L33.2115 21.3175C33.4055 21.2115 33.5539 21.0379 33.6283 20.8297C33.7027 20.6214 33.6981 20.3931 33.6153 20.1881C33.5324 19.9831 33.3772 19.8156 33.179 19.7175C32.9808 19.6195 32.7535 19.5976 32.5402 19.6561L32.5122 19.6645L23.0403 21.842H17.7862V19.045H22.3271C22.6839 19.0336 23.0223 18.8839 23.2707 18.6274C23.5191 18.371 23.6579 18.028 23.6579 17.671C23.6579 17.314 23.5191 16.971 23.2707 16.7145C23.0223 16.4581 22.6839 16.3084 22.3271 16.297H15.392ZM26.4666 18.1849L31.8312 16.9501C32.7151 16.7207 33.6526 16.8261 34.4635 17.246C35.2743 17.6659 35.9014 18.3708 36.2241 19.225C36.5468 20.0793 36.5423 21.0227 36.2116 21.8739C35.8809 22.7251 35.2472 23.4239 34.4324 23.8362L34.3946 23.8544L28.8734 26.2094L19.7273 28.496H3V17.9374H8.99391L12.0524 14.8789C12.4921 14.4407 13.0139 14.0933 13.5878 13.8567C14.1618 13.6201 14.7768 13.4989 15.3976 13.5H22.3271C22.9182 13.5001 23.5026 13.6258 24.0414 13.8688C24.5803 14.1117 25.0614 14.4665 25.4528 14.9095C25.8442 15.3524 26.137 15.8735 26.3118 16.4382C26.4865 17.0029 26.5393 17.5983 26.4666 18.1849ZM8.1744 20.733H5.79697V25.699H8.1744V20.733Z" fill="#1A1A1A"/>
</g>
<rect x="0.5" y="1" width="39" height="39" rx="7.5" stroke="#1A1A1A"/>
</g>
<defs>
<clipPath id="clip0_3927_8221">
<rect width="40" height="40" fill="white" transform="translate(0 0.5)"/>
</clipPath>
<clipPath id="clip1_3927_8221">
<rect y="0.5" width="40" height="40" rx="8" fill="white"/>
</clipPath>
</defs>
</svg>
