<svg width="313" height="96" viewBox="0 0 313 96" fill="none" xmlns="http://www.w3.org/2000/svg">
<path d="M280.795 11.7171C280.848 11.3746 280.968 11.0461 281.149 10.7506C281.33 10.4552 281.568 10.1987 281.85 9.99618C282.131 9.79366 282.45 9.64912 282.787 9.57099C283.125 9.49287 283.475 9.48271 283.816 9.54111C290.93 10.684 279.578 19.1858 280.795 11.7171Z" stroke="#F9FCF8" stroke-width="2.44124" stroke-miterlimit="10"/>
<path d="M94.3751 110.85C94.6501 112.604 95.1072 114.324 95.739 115.983C96.4413 117.595 97.3181 119.125 98.3539 120.546C100.432 123.52 103.174 125.97 106.363 127.701C107.54 128.326 108.761 128.862 110.016 129.307C111.276 129.672 112.584 130.03 113.857 130.319C118.504 131.35 123.357 130.915 127.747 129.073C132.136 127.232 135.847 124.075 138.369 120.037C140.67 116.384 142.015 112.209 142.28 107.899C142.518 102.457 141.28 97.0518 138.696 92.2561C137.946 90.7839 139.039 90.137 140.953 90.7795C142.331 91.3772 143.551 92.2844 144.521 93.4305C145.49 94.5767 146.183 95.9309 146.544 97.3881C148.293 103.865 147.903 110.734 145.432 116.972C144.222 120.065 142.501 122.933 140.34 125.455C138.197 128.013 135.61 130.165 132.704 131.806C129.171 133.706 125.31 134.919 121.325 135.381C117.334 135.793 113.301 135.388 109.472 134.191C105.328 132.821 101.51 130.615 98.2536 127.709C95.0841 124.719 92.6093 121.071 91.0037 117.02C89.0817 112.068 88.6039 106.673 89.6257 101.461C90.4383 97.5774 92.0082 93.8925 94.2456 90.6162C96.4829 87.34 99.3439 84.5367 102.665 82.3666C107.731 78.8058 113.821 76.9959 120.01 77.2117C121.37 77.2697 122.725 77.4166 124.066 77.6512C125.861 77.9631 127.574 78.6359 129.102 79.629C129.498 79.8803 129.84 80.2088 130.106 80.5949C130.372 80.9809 130.558 81.4167 130.652 81.8761C130.75 82.2304 130.802 82.5962 130.805 82.9639C130.689 84.065 128.621 83.9125 125.633 83.0021C121.083 81.8017 116.286 81.9216 111.802 83.3478C107.263 84.7807 103.209 87.4422 100.09 91.0375C98.9363 92.4208 97.9162 93.91 97.0429 95.4852C96.2192 97.0628 95.5522 98.7174 95.0515 100.425C94.0132 103.83 93.8271 107.437 94.5095 110.93L94.3751 110.85Z" fill="#F9FCF8"/>
<path d="M119.233 89.5376L123.845 86.8438L131.038 99.1589L119.861 113.911L117.707 110.222L123.698 99.3001L122.62 97.4552L111.552 103.92L107.242 96.5408L119.233 89.5376Z" fill="#F9FCF8"/>
<path d="M119.57 125.8L99.5664 101.024L107.38 96.4607L127.384 121.237L119.57 125.8Z" fill="#F9FCF8"/>
<path d="M238.808 84.6881C244.328 83.3859 249.458 80.7887 253.776 77.1112C258.094 73.4336 261.474 68.7814 263.638 63.5389C265.252 59.6826 266.257 55.5987 266.617 51.4336C267.412 44.0745 266.005 36.6451 262.575 30.0861C258.989 23.5268 253.475 18.2275 246.778 14.9057C240.775 11.8881 234.122 10.3953 227.405 10.559C218.908 10.8875 210.687 13.6635 203.73 18.5532C201.476 20.0541 200.808 18.8168 201.822 16.2087C202.756 14.2184 204.08 12.4353 205.715 10.9645C207.349 9.49366 209.262 8.36489 211.34 7.64466C220.68 4.13667 230.903 3.73421 240.491 6.49703C250.142 9.0931 258.597 14.9491 264.422 23.0709C267.83 28.008 270.198 33.5867 271.382 39.4678C272.567 45.3489 272.542 51.4095 271.311 57.2809C270 63.7041 267.237 69.7424 263.234 74.934C259.23 80.1255 254.093 84.3327 248.214 87.2338C247.318 87.6914 246.395 88.0931 245.45 88.4367C244.533 88.8259 243.59 89.1482 242.627 89.4013L236.876 90.9264C234.918 91.2022 232.96 91.478 231.002 91.7538C230.014 91.8686 229.017 91.8852 228.026 91.8032L225.057 91.7283C219.032 91.3406 213.164 89.643 207.863 86.7541C202.558 83.9599 197.908 80.0681 194.224 75.3376C192.773 73.5435 191.473 71.6321 190.337 69.6231C189.252 67.5861 188.275 65.4937 187.408 63.3546C186.732 61.1817 186.001 58.9673 185.512 56.7188L185.029 53.2861C184.819 52.1442 184.73 50.9833 184.763 49.8228C184.703 47.7655 184.767 45.7066 184.954 43.6571C185.237 40.9858 185.971 38.3817 187.124 35.9555C187.635 34.744 188.548 33.7451 189.708 33.1261C190.107 32.8805 190.535 32.6875 190.983 32.552C192.313 32.3648 192.058 35.4577 190.985 40.2683C189.523 47.6073 190.184 55.2111 192.89 62.1881C195.616 69.1958 200.371 75.2303 206.548 79.5186C208.84 81.1223 211.295 82.4788 213.873 83.5654L217.854 84.8783C219.206 85.2483 220.58 85.5324 221.968 85.7288L224.042 86.1023L226.169 86.1479C227.574 86.2295 228.982 86.2368 230.388 86.17L234.618 85.5741C235.329 85.5598 236.035 85.4603 236.721 85.2779L238.787 84.7157L238.808 84.6881Z" fill="#F9FCF8"/>
<path d="M227.233 32.5379L231.845 29.844L239.038 42.1591L227.861 56.911L225.707 53.2218L231.698 42.3003L230.62 40.4554L219.552 46.92L215.242 39.5411L227.233 32.5379Z" fill="#F9FCF8"/>
<path d="M227.57 68.8003L207.566 44.0242L215.38 39.461L235.384 64.2371L227.57 68.8003Z" fill="#F9FCF8"/>
<path d="M246.287 53.3818L241.062 60.9247L228.882 54.8125L233.89 47.5839L246.287 53.3818Z" fill="#F9FCF8"/>
<path d="M149.531 44.5857C149.644 43.8969 150.026 43.281 150.592 42.873C151.159 42.4651 151.864 42.2985 152.553 42.4097C159.666 43.5526 148.315 52.0544 149.531 44.5857Z" stroke="#F9FCF8" stroke-width="2.44124" stroke-miterlimit="10"/>
<path d="M279.531 83.5857C279.644 82.8969 280.026 82.281 280.592 81.873C281.159 81.4651 281.864 81.2985 282.553 81.4097C289.666 82.5526 278.315 91.0544 279.531 83.5857Z" stroke="#F9FCF8" stroke-width="2.44124" stroke-miterlimit="10"/>
</svg>
