<svg width="218" height="218" viewBox="0 0 218 218" fill="none" xmlns="http://www.w3.org/2000/svg">
<rect width="218" height="218" rx="109" fill="#F9FCF8"/>
<path fill-rule="evenodd" clip-rule="evenodd" d="M20.8724 96.8057C26.2092 63.2804 125.526 21.0835 177.763 47.588C230 74.0924 162.257 98.0798 167.24 153.239C170.698 191.505 112.161 194.072 65.667 173.691C37.4923 161.341 16.9755 121.285 20.8724 96.8057Z" fill="#93BCB2"/>
<g clip-path="url(#clip0_2623_3652)">
<path fill-rule="evenodd" clip-rule="evenodd" d="M160.595 25.8685C161.617 25.8594 162.29 26.3208 162.531 27.2856C162.651 27.7664 162.588 28.2951 162.591 28.8022C162.601 30.1057 162.616 31.4094 162.599 32.7127C162.589 33.5245 162.524 34.3356 162.486 35.1471C162.478 35.3015 162.477 35.4563 162.477 35.6109C162.476 37.3123 162.49 39.0138 162.473 40.715C162.445 43.6987 162.401 46.6823 162.359 49.6659C162.324 52.1431 162.281 54.6202 162.243 57.0974C162.203 59.6135 162.165 62.1297 162.126 64.6458C162.087 67.123 162.053 69.6003 162.007 72.0773C161.979 73.5418 161.921 75.0057 161.895 76.4702C161.878 77.4895 161.903 78.5094 161.89 79.5289C161.857 82.0451 161.82 84.5613 161.773 87.0772C161.746 88.5223 161.687 89.9667 161.662 91.4117C161.644 92.4505 161.673 93.49 161.655 94.5288C161.63 95.9544 161.569 97.3793 161.545 98.8048C161.527 99.902 161.556 101 161.537 102.097C161.515 103.406 161.451 104.714 161.428 106.023C161.41 107.081 161.436 108.14 161.422 109.198C161.39 111.773 161.349 114.347 161.307 116.922C161.271 119.126 161.234 121.331 161.189 123.535C161.157 125.136 161.101 126.736 161.077 128.337C161.059 129.571 161.089 130.805 161.07 132.039C161.05 133.308 160.981 134.577 160.961 135.847C160.942 137.061 160.972 138.276 160.953 139.49C160.934 140.643 160.863 141.795 160.844 142.948C160.825 144.182 160.852 145.416 160.838 146.65C160.807 149.205 160.764 151.76 160.723 154.315C160.686 156.558 160.687 158.804 160.594 161.045C160.505 163.2 161.002 165.199 162.073 167.039C163.165 168.914 164.335 170.743 165.495 172.577C166.642 174.389 167.649 176.276 168.182 178.357C168.563 179.842 168.619 181.384 168.191 182.888C168.045 183.402 167.155 186.949 167.912 187.87C168.885 189.053 170.114 189.584 171.628 189.618C173.104 189.652 174.506 189.293 175.92 188.966C177.64 188.567 179.367 188.28 181.098 188.908C181.96 189.221 182.737 189.663 183.246 190.46C183.324 190.582 183.512 190.786 183.101 190.788C182.104 190.793 181.107 190.855 180.111 190.894C178.117 190.972 176.124 191.052 174.13 191.127C172.977 191.17 171.825 191.207 170.672 191.244C169.383 191.285 168.094 191.325 166.805 191.361C165.302 191.402 163.799 191.443 162.296 191.477C160.422 191.52 158.549 191.56 156.676 191.594C154.374 191.637 152.072 191.678 149.77 191.711C146.709 191.755 143.647 191.785 140.585 191.83C138.498 191.861 136.41 191.908 134.323 191.945C133.965 191.951 133.608 191.943 133.251 191.946C128.942 191.984 124.634 192.024 120.326 192.062C119.949 192.065 119.572 192.06 119.196 192.063C114.79 192.101 110.385 192.141 105.979 192.179C105.583 192.182 105.186 192.176 104.79 192.18C100.424 192.218 96.0569 192.258 91.6903 192.296C91.3135 192.299 90.9367 192.293 90.5599 192.297C86.1543 192.335 81.7487 192.374 77.3431 192.413C76.9859 192.415 42.3298 192.411 41.9726 192.415C41.4073 192.419 38.9943 188.076 42.2864 178.357C43.0174 176.199 45.5868 172.25 49.9945 166.513C49.3944 74.4818 49.3944 28.4558 49.9945 28.4346C50.972 28.4001 51.949 28.3553 52.9264 28.3191C55.0757 28.2397 77.5719 28.1653 79.7211 28.0836C80.5429 28.0524 81.3638 27.9977 82.1857 27.9701C83.5717 27.9236 84.9584 27.894 86.3446 27.8499C87.361 27.8175 88.377 27.7704 89.3934 27.735C90.6043 27.6929 91.8156 27.6597 93.0265 27.6163C93.965 27.5827 94.9029 27.5312 95.8415 27.5024C97.3446 27.4564 98.848 27.4259 100.351 27.3826C101.523 27.3489 102.695 27.304 103.867 27.2672C105.176 27.2262 106.484 27.1889 107.793 27.1499C109.101 27.1109 110.41 27.0711 111.718 27.0333C113.104 26.9932 114.491 26.9557 115.877 26.916C117.212 26.8778 118.546 26.8363 119.881 26.7998C121.384 26.7586 122.887 26.7215 124.391 26.6823C125.874 26.6436 127.358 26.6037 128.842 26.5657C130.403 26.5258 131.965 26.488 133.527 26.4485C135.049 26.4101 136.573 26.3844 138.095 26.3273C139.256 26.2838 140.417 26.1956 141.578 26.1391C141.75 26.1308 141.925 26.2135 142.099 26.211C144.498 26.1778 146.897 26.1407 149.296 26.0968C151.092 26.064 152.887 26.0186 154.683 25.9815C156.653 25.9408 158.624 25.8898 160.595 25.8685ZM58.7717 129.822C57.5077 134.331 59.6416 147.335 58.0789 153.026C58.0789 153.541 66.3955 153.378 83.0288 152.535C84.7629 148.5 85.3744 145.017 84.8635 142.086C84.6724 140.99 81.4102 141.715 81.2507 140.851C80.77 138.247 83.4167 134.787 82.2993 132.464C80.9484 132.464 79.2051 129.69 75.5028 129.275C71.8004 128.859 61.8782 129.822 58.7717 129.822ZM128.777 127.938C127.527 129.307 123.208 131.882 121.858 131.882C120.74 134.206 123.387 137.666 122.906 140.269C122.747 141.134 119.484 140.408 119.293 141.504C118.782 144.436 119.37 148.083 121.056 152.445C137.737 152.96 146.078 152.96 146.078 152.445C144.811 147.072 146.431 132.189 145.167 127.68L144.946 127.68C141.629 127.673 132.395 127.532 128.777 127.938Z" fill="#F9FCF8"/>
</g>
<path fill-rule="evenodd" clip-rule="evenodd" d="M60.0833 43.2598C61.2776 48.9801 61.2826 54.8729 61.2829 60.7165C61.284 90.9239 61.2851 121.131 61.2863 151.339C61.2863 151.824 61.2749 152.347 60.988 152.739C60.701 153.131 60.027 153.264 59.7473 152.867C59.612 152.675 59.6065 152.423 59.606 152.188C59.5419 120.653 59.4779 89.117 59.4139 57.5814C59.4041 52.7978 59.3958 47.9937 60.0833 43.2598H60.0833Z" fill="#1A1A1A"/>
<path fill-rule="evenodd" clip-rule="evenodd" d="M60.708 40.6381C63.9125 41.3775 66.5939 44.5391 69.8255 43.9288C72.5033 43.4231 74.1008 40.5031 76.6809 39.6254C81.5682 37.9628 87.2033 44.2402 91.5227 41.413C92.3063 40.9001 92.9099 40.1324 93.7361 39.6915C97.2678 37.8064 101.837 42.8774 105.248 40.7818C106.039 40.2958 106.588 39.4894 107.362 38.9771C110.688 36.7759 114.79 41.1259 118.768 40.8428C122.402 40.5842 125.453 36.4555 128.919 37.577C130.356 38.0418 131.401 39.3447 132.835 39.8177C135.956 40.8475 139.334 37.5937 142.434 38.6845C143.461 39.0457 144.303 39.8539 145.362 40.108C146.676 40.4235 148.023 39.8251 149.216 39.191C150.41 38.5569 151.664 37.8497 153.013 37.9341C154.362 38.0186 155.719 39.3171 155.297 40.6012C154.319 43.5776 154.203 46.7578 154.095 49.8888C152.943 83.2994 151.792 116.71 150.64 150.121C149.854 150.075 149.644 149.022 149.662 148.234C150.481 112.532 151.3 76.829 152.119 41.1263C150.556 40.245 148.888 42.2019 147.115 42.4754C145.26 42.7615 143.677 41.1642 141.86 40.6931C138.421 39.8009 134.541 43.0079 131.447 41.261C130.397 40.6688 129.657 39.5782 128.528 39.1574C125.375 37.982 123.022 42.5693 119.729 43.2643C116.158 44.018 112.985 39.9614 109.367 40.4408C106.018 40.8846 103.506 45.0992 100.251 44.1933C98.0655 43.5849 96.4731 40.7375 94.2963 41.3772C93.0379 41.7471 92.412 43.1485 91.3496 43.9177C89.682 45.1253 87.3308 44.5459 85.4945 43.6149C83.6581 42.6838 81.8683 41.4183 79.8104 41.3526C76.7776 41.2557 74.3408 43.7495 71.4823 44.7674C67.5376 46.1722 62.7035 44.3195 60.708 40.6381Z" fill="#1A1A1A"/>
<path fill-rule="evenodd" clip-rule="evenodd" d="M103.945 46.0528C103.975 46.7889 103.406 47.3962 102.877 47.9093C100.809 49.9168 98.7373 51.93 96.8896 54.1425C94.6462 56.8287 92.7171 59.824 90.0258 62.0612C89.7419 61.727 90.0115 61.2247 90.2809 60.8787C94.1941 55.8545 98.4084 51.0647 102.894 46.5436C103.18 46.2548 103.553 45.9423 103.945 46.0528V46.0528Z" fill="#A9A9A9"/>
<path fill-rule="evenodd" clip-rule="evenodd" d="M132.716 111.477C132.406 111.696 132.019 111.901 131.665 111.766C131.798 111.362 132.064 111.017 132.331 110.686C135.598 106.641 139.763 103.433 143.887 100.265C144.258 99.9798 144.747 99.6814 145.161 99.8997C145.123 100.249 144.855 100.523 144.596 100.76C142.173 102.988 139.275 104.677 136.997 107.055C135.574 108.54 134.395 110.29 132.716 111.477Z" fill="#A9A9A9"/>
<path fill-rule="evenodd" clip-rule="evenodd" d="M65.4502 79.0621C65.6459 78.6545 66.1926 78.5975 66.6446 78.5967C71.4337 78.5876 76.2227 78.5786 81.0117 78.5695C81.0443 68.338 80.8959 58.1058 80.5666 47.8795C80.5551 47.5218 80.5503 47.1382 80.7477 46.8398C80.9452 46.5414 81.4283 46.4112 81.66 46.6839C81.8302 57.3601 82.0003 68.0364 82.1705 78.7127C82.1753 79.0124 82.1738 79.3341 82.0037 79.5809C81.732 79.9753 81.1709 80.0045 80.6921 79.994C76.2608 79.8971 71.8296 79.8002 67.3983 79.7033C66.69 79.6878 65.8815 79.6242 65.4502 79.0621Z" fill="#1A1A1A"/>
<path fill-rule="evenodd" clip-rule="evenodd" d="M51.1116 31.4381C56.8291 71.7669 50.4515 112.941 54.4543 153.476C88.785 153.276 123.116 153.076 157.446 152.876C158.263 152.871 159.184 152.82 159.722 152.206C160.168 151.696 160.202 150.956 160.213 150.279C160.883 109.286 161.554 68.2934 162.224 27.3008C136.017 28.0068 109.809 28.7128 83.602 29.4188C73.7812 29.6834 63.9241 29.9466 54.1581 28.8775C89.6322 27.1625 125.136 26.0634 160.648 25.5808C161.669 25.5669 162.807 25.5984 163.533 26.3151C164.276 27.0476 164.307 28.2157 164.289 29.2585C163.605 69.7501 162.92 110.242 162.236 150.733C162.129 157.064 162.084 163.682 164.927 169.339C167.159 173.779 171.209 178.205 169.776 182.963C169.427 184.124 168.748 185.239 168.838 186.448C169.071 189.587 173.533 189.992 176.597 189.273C179.661 188.553 183.948 188.299 184.869 191.309C134.204 192.444 83.5222 192.861 32.8452 192.561C36.4557 191.385 40.2252 190.698 44.0185 190.525C41.9112 185.81 42.462 180.008 45.419 175.773C47.0837 173.389 49.4581 171.452 50.5328 168.75C51.3171 166.778 51.3246 164.596 51.3212 162.474C51.2513 118.795 51.1815 75.1168 51.1116 31.4381ZM122.258 179.196C113.745 179.49 105.284 181.104 96.7708 180.825C92.9402 180.7 89.1331 180.192 85.3097 179.926C75.9314 179.274 66.52 180.085 57.1541 180.895C53.428 181.217 49.7019 181.54 45.9759 181.862C45.6255 181.892 45.2445 181.936 44.9949 182.184C44.6738 182.503 44.6991 183.02 44.7468 183.47C44.9537 185.422 45.1606 187.374 45.3675 189.326C45.4151 189.775 45.4863 190.271 45.8316 190.562C46.1516 190.831 46.6092 190.841 47.0274 190.837C86.7308 190.478 126.434 190.119 166.138 189.76C166.578 189.756 167.062 189.735 167.384 189.435C167.705 189.137 167.761 188.658 167.798 188.222C168.013 185.674 168.227 183.125 168.442 180.577C153.133 182.459 137.673 178.663 122.258 179.196ZM94.0775 178.459C104.964 178.961 115.823 176.936 126.721 177.019C140.122 177.12 153.573 180.401 166.814 178.331C167.125 178.283 167.47 178.211 167.65 177.952C167.911 177.58 167.679 177.073 167.446 176.683C165.997 174.253 164.548 171.823 163.099 169.393C162.742 168.794 162.361 168.17 161.762 167.814C161.114 167.428 160.318 167.416 159.564 167.416C124.65 167.395 89.735 167.855 54.8335 168.797C51.7961 172.406 48.5711 175.857 45.1758 179.131C56.3154 180.461 67.5038 177.186 78.7213 177.351C83.8539 177.427 88.9498 178.223 94.0775 178.459ZM53.2739 161.25C53.5418 163.286 54.6807 165.334 56.5828 166.107C57.6726 166.551 58.8862 166.538 60.0625 166.519C93.3111 165.978 126.56 165.437 159.808 164.896C159.936 162.688 160.063 160.479 160.191 158.271C160.211 157.917 160.224 157.535 160.028 157.24C159.766 156.847 159.239 156.753 158.771 156.696C124.039 152.459 88.7468 158.385 53.9065 155.157C53.4576 157.161 53.006 159.215 53.2739 161.25Z" fill="#1A1A1A"/>
<path fill-rule="evenodd" clip-rule="evenodd" d="M103.362 54.1424C103.565 53.9571 103.777 53.7684 104.036 53.6782C104.296 53.588 104.618 53.6206 104.797 53.8287C104.69 54.2879 104.289 54.6078 103.921 54.9033C100.423 57.7185 97.9131 61.5935 94.5002 64.5118C94.2499 64.7258 93.8062 64.9054 93.6519 64.6145C93.5457 64.4142 93.7068 64.1813 93.8583 64.0125C96.9097 60.6114 99.9884 57.2238 103.362 54.1424Z" fill="#A9A9A9"/>
<path fill-rule="evenodd" clip-rule="evenodd" d="M64.3868 114.439C64.3819 113.843 64.9127 113.4 65.389 113.042C68.3192 110.84 71.0361 108.354 73.4896 105.631C73.7076 105.389 74.1477 105.677 74.1491 106.003C74.1506 106.328 73.9012 106.593 73.6683 106.821C71.1959 109.238 68.7147 111.662 65.9498 113.737C65.4845 114.086 64.9685 114.44 64.3868 114.439Z" fill="#A9A9A9"/>
<path fill-rule="evenodd" clip-rule="evenodd" d="M83.3066 46.5803C83.6227 46.4188 83.9886 46.3564 84.3403 46.404C84.6584 57.025 84.9188 67.6476 85.1216 78.2714C96.8844 77.9084 108.663 78.0539 120.413 78.7074C121.457 67.7818 121.432 56.7849 121.333 45.81C121.33 45.524 121.332 45.2217 121.478 44.9759C121.624 44.7302 121.971 44.5801 122.206 44.7426C122.41 44.8832 122.435 45.1688 122.44 45.4161C122.672 56.6289 122.371 67.8527 121.538 79.037C121.521 79.2627 121.499 79.5027 121.36 79.6819C121.129 79.9816 120.687 79.9865 120.309 79.9645C108.221 79.26 96.097 79.1614 83.9988 79.6692C83.9759 68.6365 83.7451 57.6043 83.3066 46.5803Z" fill="#1A1A1A"/>
<path fill-rule="evenodd" clip-rule="evenodd" d="M123.163 152.74C121.345 148.893 120.646 144.525 121.172 140.302C121.19 140.159 121.213 140.007 121.307 139.898C121.352 143.927 122.081 147.947 123.454 151.735C123.525 151.931 123.599 152.137 123.57 152.344C123.542 152.55 123.371 152.753 123.163 152.74H123.163Z" fill="#1A1A1A"/>
<path fill-rule="evenodd" clip-rule="evenodd" d="M131.144 102.497C133.183 100.529 135.223 98.5613 137.262 96.5935C137.474 96.3886 137.857 96.6632 137.852 96.9583C137.848 97.2534 137.622 97.4917 137.41 97.6975C135.702 99.3596 133.993 101.022 132.285 102.684C132.065 102.898 131.81 103.127 131.503 103.122C131.196 103.118 130.923 102.71 131.144 102.497H131.144Z" fill="#A9A9A9"/>
<path fill-rule="evenodd" clip-rule="evenodd" d="M87.812 140.3C93.0052 140.319 98.1937 140.019 103.378 139.72C109.384 139.374 115.39 139.027 121.396 138.68C122.736 138.603 124.13 138.51 125.299 137.85C123.941 136.263 123.033 134.295 122.707 132.232C122.675 132.034 122.651 131.82 122.744 131.642C122.836 131.463 123.092 131.359 123.245 131.489C123.516 133.728 124.399 135.889 125.773 137.676C126.051 138.038 125.57 138.502 125.146 138.67C123.68 139.253 122.073 139.347 120.498 139.434C115.866 139.69 111.235 139.947 106.603 140.203C100.727 140.528 94.8499 140.853 88.9687 141.077C87.8189 141.121 86.4661 141.066 85.81 140.12C85.2643 139.334 85.455 138.272 85.6803 137.342C86.0413 135.852 86.4346 134.369 86.8599 132.896C86.9815 132.475 87.2254 131.964 87.6631 131.988C86.7733 134.041 86.3024 136.274 86.2875 138.511C86.2834 139.12 86.3728 139.834 86.9003 140.137C87.1712 140.292 87.4996 140.299 87.812 140.3Z" fill="#1A1A1A"/>
<path fill-rule="evenodd" clip-rule="evenodd" d="M87.5447 56.4897C87.2168 56.3427 87.4032 55.8466 87.6308 55.5686C90.2349 52.3877 92.839 49.2069 95.4431 46.026C95.5521 45.8928 95.668 45.7544 95.8275 45.6897C95.987 45.625 96.2027 45.6636 96.2789 45.818C96.3665 45.9955 96.2333 46.1982 96.1072 46.3509C93.5 49.5105 90.8927 52.6701 88.2854 55.8297C88.073 56.0872 87.8494 56.3533 87.5447 56.4897H87.5447Z" fill="#A9A9A9"/>
<path fill-rule="evenodd" clip-rule="evenodd" d="M51.3697 31.2784C51.323 30.9193 51.3104 30.5557 51.332 30.1942C51.3355 30.136 51.3479 30.0662 51.4021 30.0446C51.4915 30.009 51.5515 30.138 51.5617 30.2337C51.6003 30.5978 51.6226 31.0136 51.3697 31.2784H51.3697Z" fill="#1A1A1A"/>
<path fill-rule="evenodd" clip-rule="evenodd" d="M143.835 79.8131C137.173 79.8778 130.511 79.9424 123.85 80.007C123.664 80.0088 123.46 80.0044 123.319 79.883C123.156 79.7425 123.139 79.5007 123.133 79.2857C122.868 68.1515 123.267 57.0133 123.667 45.8831C123.679 45.5376 123.7 45.1665 123.914 44.8946C124.127 44.6227 124.609 44.5426 124.8 44.8305C124.309 55.8846 124.063 66.9496 124.061 78.0146C124.061 78.3489 124.173 78.8 124.508 78.7872C132.079 78.498 139.661 78.4959 147.233 78.7811C147.387 78.7869 147.569 78.8083 147.645 78.9428C147.776 79.1734 147.466 79.4016 147.211 79.4749C146.12 79.7888 144.969 79.8021 143.835 79.8131Z" fill="#1A1A1A"/>
<path fill-rule="evenodd" clip-rule="evenodd" d="M38.0323 141.702C37.9132 141.584 37.7942 141.465 37.6751 141.347C37.6113 141.283 37.5441 141.184 37.5999 141.113C37.6645 141.032 37.7934 141.105 37.867 141.179C37.9767 141.289 38.0865 141.399 38.1962 141.509C38.2696 141.583 38.3413 141.713 38.258 141.776C38.1886 141.828 38.0938 141.763 38.0323 141.702L38.0323 141.702Z" fill="#1A1A1A"/>
<path fill-rule="evenodd" clip-rule="evenodd" d="M71.0823 92.6464C71.153 92.7806 71.1018 92.9459 71.0325 93.0808C70.8726 93.3923 70.6257 93.6492 70.3793 93.898C69.8962 94.3858 69.4011 94.8618 68.8946 95.3254C68.7229 95.4825 68.5357 95.6452 68.3055 95.6791C68.0754 95.7131 67.8025 95.5527 67.8102 95.3202C67.8147 95.1863 67.9059 95.0731 67.9936 94.9718C68.6869 94.1709 69.4431 93.4244 70.2529 92.7415C70.3758 92.6378 70.5056 92.5327 70.6617 92.4942C70.8177 92.4556 71.0074 92.5042 71.0823 92.6464Z" fill="#A9A9A9"/>
<path fill-rule="evenodd" clip-rule="evenodd" d="M67.0313 74.5948C66.9803 74.5926 66.9786 74.4975 67.0295 74.4937C67.0807 74.4973 67.0792 74.593 67.0279 74.595L67.0313 74.5948Z" fill="#1A1A1A"/>
<path fill-rule="evenodd" clip-rule="evenodd" d="M66.5766 101.16C66.5194 100.958 66.6835 100.766 66.8412 100.628C67.1914 100.322 67.5769 100.06 67.9543 99.789C69.3715 98.7697 70.6866 97.6085 71.8734 96.3283C72.0106 96.1802 72.1516 96.0266 72.3357 95.9438C72.5198 95.861 72.7608 95.8682 72.8978 96.0165C73.0283 96.1578 73.025 96.3844 72.9416 96.5577C72.8583 96.731 72.7106 96.8633 72.5666 96.9908C71.5573 97.8842 70.5479 98.7777 69.5385 99.6711C68.8775 100.256 68.2085 100.847 67.4291 101.262C67.2834 101.339 67.1277 101.412 66.9627 101.412C66.7976 101.412 66.6216 101.318 66.5766 101.16H66.5766Z" fill="#A9A9A9"/>
<path fill-rule="evenodd" clip-rule="evenodd" d="M130.201 96.539C130.059 96.692 129.914 96.8528 129.722 96.935C129.53 97.0172 129.275 96.9956 129.151 96.8274C128.952 96.5566 129.213 96.1929 129.46 95.9644C130.932 94.6017 132.474 93.3141 134.077 92.1084C134.379 91.8813 134.759 91.6456 135.109 91.7878C135.147 91.8034 135.187 91.8268 135.2 91.866C135.21 91.8971 135.201 91.9312 135.191 91.9624C135.036 92.4391 134.627 92.7814 134.234 93.0923C132.845 94.1901 131.407 95.243 130.201 96.539Z" fill="#A9A9A9"/>
<path fill-rule="evenodd" clip-rule="evenodd" d="M89.24 142.083C89.4935 143.237 89.889 145.164 89.7506 146.338C89.5011 148.453 88.9235 149.972 88.454 152.049C88.379 152.382 87.9386 152.606 87.6236 152.735C87.429 152.466 87.5114 152.094 87.5987 151.773C88.4602 148.607 89.0108 145.357 89.24 142.083Z" fill="#1A1A1A"/>
<path fill-rule="evenodd" clip-rule="evenodd" d="M107.826 152.373C107.659 152.555 107.362 152.386 107.184 152.213C106.163 151.218 105.239 150.123 104.431 148.948C104.392 148.891 104.308 148.958 104.276 149.019C103.686 150.165 103.097 151.31 102.507 152.456C102.482 152.505 102.447 152.561 102.392 152.565C102.281 152.573 102.28 152.4 102.324 152.297C102.903 150.969 103.482 149.64 104.061 148.311C104.087 148.251 104.115 148.188 104.165 148.145C104.354 147.978 104.631 148.204 104.78 148.409C105.644 149.596 106.601 150.715 107.639 151.753C107.809 151.922 107.987 152.195 107.826 152.373Z" fill="#1A1A1A"/>
<path fill-rule="evenodd" clip-rule="evenodd" d="M64.1492 122.234C63.9239 122.557 63.9383 122.983 63.9616 123.376L64.2109 127.576C64.2398 128.063 64.2964 128.608 64.6711 128.921C65.0207 129.212 65.5247 129.197 65.9789 129.167L74.9211 128.572C77.5036 128.4 80.3207 128.291 82.4232 129.801C86.3224 132.6 92.374 131.726 95.3217 127.938C95.6673 127.494 96.3097 127.447 96.8724 127.437L113.851 127.159L113.897 127.158C114.662 127.145 115.663 127.129 116.032 127.708C119.176 132.645 127.384 131.717 131.461 127.738C132.245 126.973 133.436 126.852 134.529 126.773L145.308 125.994C146.562 125.903 147.508 124.705 147.739 123.469C147.969 122.234 147.652 120.969 147.336 119.752C147.239 119.376 147.115 118.963 146.782 118.763C146.536 118.616 146.232 118.621 145.947 118.63L123.412 119.367C122.975 107.002 123.194 94.6144 124.068 82.2726C132.341 81.8731 140.626 81.736 148.908 81.8616C149.156 81.1857 148.129 80.8156 147.409 80.8339L124.315 81.4198C123.915 81.43 123.476 81.4564 123.19 81.7348C122.904 82.0129 122.865 82.4512 122.844 82.8495C122.205 95.0565 122.012 107.287 122.265 119.508C121.797 119.585 121.308 119.524 120.874 119.335L121.05 82.4784C121.051 82.1473 121.033 81.7706 120.78 81.5574C120.577 81.3869 120.288 81.3788 120.024 81.3791C107.978 81.3921 95.9327 81.5543 83.8912 81.8657L84.5587 120.771L82.9962 120.957C82.3962 108.115 82.1882 95.2548 82.3726 82.4C82.3827 81.6919 81.4514 81.4356 80.7439 81.4046C75.4079 81.1706 70.062 81.1653 64.7256 81.3888C65.5345 82.2538 66.8542 82.3388 68.038 82.3661L81.2998 82.6719C81.0861 95.3632 81.2746 108.061 81.865 120.741L65.5898 121.696C65.0591 121.727 64.4535 121.798 64.1492 122.234ZM85.0291 82.489C96.6076 82.4285 108.186 82.319 119.764 82.1605C120.003 82.1572 120.078 82.4795 120.076 82.7185L119.73 119.523L85.6521 120.835C85.3369 108.055 85.1293 95.2725 85.0291 82.489ZM89.8078 124.002C89.1434 124.028 88.6039 124.537 88.1899 125.057C88.1239 125.14 88.0587 125.225 87.9932 125.31C87.6485 125.757 87.2987 126.211 86.7998 126.463C86.3337 126.698 85.794 126.726 85.2724 126.75L65.3058 127.648L64.9418 122.905C91.8778 121.395 118.836 120.28 145.805 119.562C145.99 119.557 146.193 119.558 146.336 119.676C146.506 119.817 146.523 120.067 146.527 120.288L146.613 124.805C140.303 125.731 133.913 125.935 127.539 126.137C126.645 126.166 125.691 126.178 124.936 125.699C124.422 125.372 124.071 124.861 123.722 124.353C123.641 124.234 123.559 124.115 123.476 123.999C123.037 123.388 122.448 122.791 121.698 122.729C120.948 122.667 120.154 123.466 120.488 124.14C119.8 123.232 118.033 123.779 117.978 124.916C117.763 124.052 116.66 123.544 115.862 123.941C115.065 124.338 114.807 125.524 115.366 126.217L95.9433 126.557C95.9687 125.855 95.4168 125.177 94.7238 125.06C94.0308 124.942 93.2865 125.4 93.0791 126.072C93.0963 125.01 91.4311 124.444 90.798 125.298C91.1393 124.727 90.4722 123.976 89.8078 124.002ZM120.604 129.967C119.619 129.751 118.598 129.443 117.897 128.718C117.541 128.349 117.289 127.894 117.042 127.444L116.097 125.728C115.985 125.523 115.869 125.301 115.898 125.07C115.928 124.838 116.665 124.134 117.321 124.916C117.978 125.699 118.219 126.01 118.725 126.991C118.767 127.072 118.809 127.156 118.851 127.241C119.189 127.919 119.567 128.676 120.293 128.716C120.432 128.187 120.191 127.639 119.955 127.145L119.297 125.765C119.088 125.327 118.887 124.778 119.176 124.388C120.684 124.897 121.525 126.466 122.174 127.919C122.256 128.102 122.342 128.292 122.499 128.416C122.656 128.541 122.906 128.572 123.047 128.43C123.232 128.242 123.114 127.929 122.99 127.697C122.372 126.542 121.827 125.348 121.359 124.124C121.304 123.981 121.255 123.805 121.353 123.687C121.471 123.544 121.7 123.604 121.867 123.685C122.899 124.19 123.73 125.093 124.148 126.163C124.18 126.245 124.21 126.329 124.24 126.413C124.338 126.685 124.436 126.959 124.609 127.189C125.143 127.897 126.165 127.956 127.051 127.952C127.292 127.951 127.541 127.948 127.759 127.847C127.977 127.745 128.156 127.516 128.118 127.278C128.083 127.055 128.396 126.965 128.622 126.967L131.42 126.991C130.017 128.665 127.764 129.305 125.652 129.858C125.054 130.015 124.453 130.172 123.839 130.24C122.758 130.359 121.666 130.199 120.604 129.967ZM81.0113 128.328C81.9203 128.137 82.8421 128.007 83.7684 127.939C83.6936 128.257 83.9079 128.584 84.1862 128.756C84.8352 129.157 85.7155 128.876 86.2814 128.364C86.6628 128.02 86.9486 127.591 87.2348 127.161C87.3733 126.953 87.5118 126.745 87.6613 126.546C88.2537 125.759 89.842 123.967 90.1565 124.805C90.3413 125.298 89.8838 126.21 89.3743 127.225C89.0166 127.938 88.6333 128.702 88.4288 129.407C89.0683 128.921 89.3364 128.475 89.6204 127.919C89.9477 127.278 90.6267 126.378 91.1556 125.728C91.3938 125.435 91.7485 125.26 92.0847 125.411C92.4208 125.561 92.5211 125.968 92.4322 126.163C92.224 126.622 92.0921 126.959 91.9601 127.296C91.8282 127.634 91.6963 127.971 91.488 128.43C91.4748 128.459 91.4542 128.5 91.4294 128.55C91.3043 128.803 91.0731 129.271 91.1556 129.409C91.2405 129.552 91.4719 129.305 91.7079 129.054C91.7636 128.994 91.8195 128.935 91.8739 128.88C91.9568 128.796 92.0976 128.548 92.2818 128.224C92.7294 127.437 93.4334 126.198 94.1869 125.765C94.8049 125.411 95.0777 126.319 94.948 126.593C94.7092 127.098 94.4554 127.595 94.1869 128.085C93.8308 128.735 93.1465 129.385 92.5719 129.852C91.842 130.446 90.889 130.69 89.9558 130.812C86.7121 131.236 83.6046 130.321 81.0113 128.328ZM85.0291 128.572C84.5525 128.618 84.1862 127.939 84.1862 127.939L86.1476 127.796C86.1476 127.796 85.5057 128.526 85.0291 128.572Z" fill="#1A1A1A"/>
<defs>
<clipPath id="clip0_2623_3652">
<rect width="143.008" height="166.552" fill="white" transform="translate(40.4028 25.8694)"/>
</clipPath>
</defs>
</svg>
