<svg width="20" height="20" viewBox="0 0 20 20" fill="none" xmlns="http://www.w3.org/2000/svg">
<g id="soda-can">
<path id="Vector" d="M4.93958 3.23939L5.75058 2.2662C5.99633 1.9713 6.1192 1.82385 6.28718 1.74518C6.45515 1.6665 6.64708 1.6665 7.03095 1.6665H12.9697C13.3536 1.6665 13.5455 1.6665 13.7135 1.74518C13.8815 1.82385 14.0043 1.9713 14.2501 2.2662L15.0611 3.23939C15.4434 3.69819 15.6346 3.92759 15.7341 4.20255C15.8337 4.4775 15.8337 4.77611 15.8337 5.37334V14.6263C15.8337 15.2236 15.8337 15.5222 15.7341 15.7972C15.6346 16.0721 15.4434 16.3015 15.0611 16.7603L14.0002 18.0333C13.8773 18.1808 13.8159 18.2545 13.7319 18.2938C13.6479 18.3332 13.5519 18.3332 13.36 18.3332H6.64063C6.4487 18.3332 6.35274 18.3332 6.26875 18.2938C6.18476 18.2545 6.12333 18.1808 6.00045 18.0333L4.93958 16.7603C4.55725 16.3015 4.36608 16.0721 4.26654 15.7972C4.16699 15.5222 4.16699 15.2236 4.16699 14.6263V5.37334C4.16699 4.77611 4.16699 4.4775 4.26654 4.20255C4.36608 3.92759 4.55725 3.69819 4.93958 3.23939Z" stroke="#1A1A1A" stroke-width="1.25" stroke-linecap="round"/>
<path id="Vector_2" d="M4.16699 4.1665H15.8337" stroke="#1A1A1A" stroke-width="1.25"/>
<path id="Vector_3" d="M4.16699 15.8335H15.8337" stroke="#1A1A1A" stroke-width="1.25"/>
<path id="Vector_4" d="M5 1.66675H15" stroke="#1A1A1A" stroke-width="1.25" stroke-linecap="round"/>
<path id="Vector_5" d="M10.0003 12.0832C11.1509 12.0832 12.0837 11.1504 12.0837 9.99984C12.0837 8.84924 11.1509 7.9165 10.0003 7.9165C8.84973 7.9165 7.91699 8.84924 7.91699 9.99984C7.91699 11.1504 8.84973 12.0832 10.0003 12.0832Z" stroke="#1A1A1A" stroke-width="1.25"/>
</g>
</svg>
