<svg width="362" height="86" viewBox="0 0 362 86" fill="none" xmlns="http://www.w3.org/2000/svg">
<path fill-rule="evenodd" clip-rule="evenodd" d="M351.495 15.1587C351.195 15.547 350.577 15.5044 350.151 15.2608C349.725 15.0171 349.401 14.6253 348.984 14.3673C347.909 13.7025 346.405 14.0239 345.391 13.2698C345.069 13.0302 344.809 12.6057 344.97 12.2381C345.035 12.0917 345.156 11.9797 345.263 11.8605C346.023 11.0103 346.075 9.74072 345.902 8.61302C345.73 7.48531 345.375 6.36493 345.475 5.22853C345.5 4.94569 345.564 4.64452 345.772 4.45112C345.98 4.25773 346.371 4.24698 346.512 4.49367C347.024 5.39184 347.536 6.29 348.048 7.18817C348.344 7.70789 348.655 8.24436 349.142 8.5917C349.629 8.93904 350.345 9.04137 350.81 8.6651C351.134 8.40342 351.634 8.80837 351.644 9.22427C351.655 9.64016 351.39 10.0038 351.201 10.3745C350.73 11.2984 350.718 12.4423 351.169 13.3762C351.447 13.9535 351.887 14.6517 351.495 15.1587Z" fill="#F9FCF8"/>
<path fill-rule="evenodd" clip-rule="evenodd" d="M319.154 30.9484C318.664 30.9534 318.314 30.4422 318.241 29.9569C318.169 29.4716 318.275 28.9746 318.219 28.4871C318.075 27.2314 316.891 26.2506 316.854 24.9871C316.842 24.5857 317.014 24.1186 317.403 24.0177C317.558 23.9774 317.721 24.0031 317.88 24.013C319.019 24.0832 320.047 23.3365 320.825 22.5023C321.604 21.6681 322.263 20.6955 323.217 20.07C323.455 19.9143 323.731 19.778 324.011 19.8213C324.292 19.8646 324.543 20.1648 324.436 20.428C324.049 21.3864 323.661 22.3447 323.273 23.3031C323.049 23.8577 322.821 24.4342 322.85 25.0317C322.879 25.6292 323.243 26.2549 323.826 26.3867C324.232 26.4784 324.224 27.1219 323.904 27.3878C323.584 27.6536 323.135 27.671 322.727 27.7526C321.71 27.9559 320.805 28.6551 320.351 29.5874C320.07 30.1637 319.795 30.9418 319.154 30.9484Z" fill="#F9FCF8"/>
<path fill-rule="evenodd" clip-rule="evenodd" d="M353.127 70.2988C352.675 70.4905 352.157 70.1512 351.905 69.7303C351.653 69.3094 351.562 68.8092 351.324 68.38C350.712 67.2743 349.243 66.819 348.727 65.665C348.563 65.2984 348.544 64.801 348.865 64.5595C348.993 64.4633 349.153 64.4248 349.305 64.3731C350.384 64.0038 351.05 62.9215 351.451 61.8536C351.852 60.7857 352.091 59.6351 352.735 58.6931C352.895 58.4586 353.098 58.2273 353.374 58.1603C353.65 58.0934 353.996 58.2753 353.998 58.5592C354.005 59.593 354.012 60.6268 354.019 61.6605C354.024 62.2587 354.032 62.8788 354.287 63.42C354.542 63.9612 355.117 64.4009 355.706 64.3003C356.117 64.2303 356.355 64.8282 356.16 65.196C355.966 65.5638 355.557 65.7513 355.211 65.9823C354.348 66.5579 353.778 67.5495 353.714 68.5843C353.675 69.224 353.717 70.0483 353.127 70.2988Z" fill="#F9FCF8"/>
<path fill-rule="evenodd" clip-rule="evenodd" d="M326.008 53.7317C325.704 53.3463 325.896 52.7573 326.236 52.4034C326.575 52.0495 327.034 51.8304 327.386 51.4883C328.292 50.6071 328.346 49.0706 329.324 48.27C329.635 48.0156 330.11 47.8666 330.427 48.1128C330.553 48.2108 330.633 48.3556 330.722 48.488C331.362 49.4326 332.581 49.7908 333.717 49.8977C334.853 50.0046 336.026 49.9331 337.104 50.3066C337.372 50.3996 337.648 50.535 337.785 50.7837C337.922 51.0324 337.838 51.4142 337.564 51.4906C336.569 51.7688 335.573 52.047 334.577 52.3252C334.001 52.4862 333.405 52.6575 332.95 53.0455C332.495 53.4335 332.221 54.1035 332.473 54.6461C332.648 55.0234 332.134 55.4103 331.728 55.3192C331.322 55.2281 331.034 54.8827 330.72 54.6094C329.938 53.9284 328.832 53.6383 327.816 53.8483C327.189 53.978 326.404 54.2352 326.008 53.7317Z" fill="#F9FCF8"/>
<path fill-rule="evenodd" clip-rule="evenodd" d="M348.979 35.6985C348.675 35.313 348.866 34.7241 349.206 34.3702C349.546 34.0163 350.005 33.7972 350.357 33.4551C351.263 32.5739 351.317 31.0374 352.295 30.2368C352.605 29.9824 353.08 29.8334 353.398 30.0796C353.524 30.1776 353.603 30.3224 353.693 30.4548C354.333 31.3994 355.552 31.7576 356.688 31.8645C357.823 31.9714 358.996 31.8999 360.074 32.2734C360.343 32.3664 360.619 32.5018 360.756 32.7505C360.893 32.9992 360.809 33.381 360.535 33.4574C359.539 33.7356 358.544 34.0138 357.548 34.292C356.972 34.453 356.376 34.6243 355.921 35.0123C355.465 35.4003 355.192 36.0703 355.444 36.6129C355.619 36.9902 355.105 37.377 354.699 37.286C354.293 37.1949 354.004 36.8495 353.691 36.5762C352.909 35.8952 351.802 35.6051 350.787 35.8151C350.159 35.9448 349.375 36.202 348.979 35.6985Z" fill="#F9FCF8"/>
<path fill-rule="evenodd" clip-rule="evenodd" d="M318.883 78.9224C318.747 79.3941 318.158 79.583 317.672 79.5141C317.186 79.4452 316.74 79.201 316.257 79.1156C315.012 78.8955 313.734 79.75 312.513 79.4244C312.125 79.321 311.726 79.0227 311.741 78.6214C311.746 78.4616 311.817 78.3127 311.872 78.1625C312.265 77.0913 311.843 75.8928 311.266 74.9088C310.688 73.9248 309.945 73.0149 309.618 71.9219C309.536 71.6499 309.485 71.3464 309.606 71.0898C309.728 70.8332 310.087 70.6787 310.309 70.8559C311.117 71.5011 311.924 72.1464 312.732 72.7916C313.2 73.1649 313.687 73.5484 314.268 73.691C314.849 73.8336 315.552 73.6638 315.845 73.1422C316.049 72.7795 316.664 72.9708 316.827 73.3534C316.99 73.736 316.879 74.1718 316.84 74.5861C316.745 75.6185 317.156 76.6859 317.92 77.387C318.392 77.8203 319.059 78.3063 318.883 78.9224Z" fill="#F9FCF8"/>
<path fill-rule="evenodd" clip-rule="evenodd" d="M305.269 47.4263C305.134 47.898 304.544 48.0869 304.059 48.018C303.573 47.9491 303.127 47.7049 302.644 47.6195C301.399 47.3994 300.121 48.2539 298.9 47.9284C298.512 47.8249 298.113 47.5266 298.127 47.1253C298.133 46.9655 298.204 46.8166 298.259 46.6664C298.652 45.5952 298.23 44.3967 297.652 43.4127C297.075 42.4287 296.332 41.5188 296.004 40.4258C295.923 40.1538 295.871 39.8503 295.993 39.5937C296.115 39.3371 296.474 39.1826 296.696 39.3598C297.503 40.005 298.311 40.6503 299.119 41.2955C299.586 41.6688 300.074 42.0523 300.655 42.1949C301.236 42.3375 301.939 42.1677 302.232 41.6461C302.436 41.2834 303.05 41.4747 303.214 41.8573C303.377 42.2399 303.265 42.6757 303.227 43.09C303.132 44.1224 303.543 45.1898 304.307 45.8909C304.779 46.3243 305.446 46.8102 305.269 47.4263Z" fill="#F9FCF8"/>
<path fill-rule="evenodd" clip-rule="evenodd" d="M311.269 13.4263C311.134 13.898 310.544 14.0869 310.059 14.018C309.573 13.9491 309.127 13.7049 308.644 13.6195C307.399 13.3994 306.121 14.2539 304.9 13.9284C304.512 13.8249 304.113 13.5266 304.127 13.1253C304.133 12.9655 304.204 12.8166 304.259 12.6664C304.652 11.5952 304.23 10.3967 303.652 9.41267C303.075 8.42866 302.332 7.51878 302.004 6.42584C301.923 6.15381 301.871 5.85027 301.993 5.59371C302.115 5.33715 302.474 5.18261 302.696 5.35983C303.503 6.00505 304.311 6.65026 305.119 7.29548C305.586 7.66884 306.074 8.05227 306.655 8.1949C307.236 8.33754 307.939 8.1677 308.232 7.64614C308.436 7.28342 309.05 7.47467 309.214 7.85728C309.377 8.23988 309.265 8.67573 309.227 9.08998C309.132 10.1224 309.543 11.1898 310.307 11.8909C310.779 12.3243 311.446 12.8102 311.269 13.4263Z" fill="#F9FCF8"/>
<path fill-rule="evenodd" clip-rule="evenodd" d="M-22.8702 95.7379C-21.2228 97.5426 -18.4728 98.0126 -16.0949 97.4505C-13.7169 96.8883 -11.6443 95.4518 -9.75199 93.9059C0.443672 85.5764 6.87568 73.6213 15.2555 63.4669C24.3035 52.5029 36.0482 43.4134 49.668 39.3416C54.194 37.9885 59.0151 37.1989 63.6438 38.1427C68.2725 39.0866 72.6852 42.0078 74.4774 46.3785C76.0772 50.2797 75.4399 54.7075 74.5539 58.8298C73.8826 61.9532 73.0583 65.1079 71.3523 67.809C69.6263 70.5418 67.0783 72.6707 64.3386 74.3856C59.5114 77.4071 53.6856 79.2848 48.0977 78.1864C42.5097 77.0881 37.4261 72.4427 37.0776 66.7586C36.9102 64.0275 37.803 61.3129 39.1667 58.9408C41.8803 54.2208 47.096 50.513 52.4921 51.2365C57.8883 51.9601 62.1672 58.4772 59.4521 63.1963C58.2602 65.2677 56.0895 66.5852 53.8807 67.4978C52.5251 68.058 51.0104 68.5029 49.6086 68.0707C48.2069 67.6386 47.1098 65.991 47.7526 64.6725C48.4897 63.1606 51.2699 63.6337 51.4654 65.3043C55.0665 66.1017 58.3696 61.7151 57.207 58.2148C56.0444 54.7145 51.6862 52.9686 48.1304 53.9488C44.5747 54.9289 41.9146 58.0423 40.5704 61.477C39.912 63.1592 39.515 64.9722 39.6663 66.7723C40.0389 71.206 43.8383 74.8691 48.1505 75.9647C52.4628 77.0604 57.0981 75.9432 61.0174 73.8371C64.8278 71.7894 68.1841 68.745 70.1257 64.8794C71.1439 62.8522 71.7565 60.6474 72.2753 58.439C73.023 55.2566 73.5817 51.8766 72.5969 48.7594C71.1834 44.2847 66.7345 41.253 62.1157 40.4234C57.4969 39.5937 52.7394 40.6317 48.2977 42.1459C39.4422 45.1645 31.2512 50.1157 24.4623 56.5533C12.0084 68.3629 4.461 84.825 -8.85657 95.6514C-12.7879 98.8473 -18.8036 101.41 -22.5674 98.0185C-23.2408 97.4117 -23.6788 96.1477 -22.8702 95.7379L-22.8702 95.7379Z" fill="white"/>
<path fill-rule="evenodd" clip-rule="evenodd" d="M36.0178 0.387058L36.0622 0.466112L36.1162 0.567591C36.1487 0.630053 36.1853 0.702527 36.225 0.784368C36.3629 1.06804 36.5022 1.38906 36.6355 1.74309C37.0108 2.73961 37.2732 3.8151 37.3628 4.93559C37.4844 6.45609 37.2649 7.89109 36.709 9.19655L36.6614 9.30614C36.2098 10.3259 35.5519 11.2603 34.6978 12.0986L34.6132 12.1806L34.6852 12.1841C35.9151 12.2357 37.1313 12.1256 38.2005 11.7847C38.4298 11.7116 38.6798 11.7494 38.8774 11.8867C39.0745 12.0239 39.197 12.2446 39.2093 12.4844L39.2121 12.5588L39.2139 12.6572V12.695C39.2139 12.8323 39.2098 12.9862 39.2001 13.1549C39.1731 13.6207 39.1085 14.1232 38.9961 14.6477C38.6784 16.1296 38.0433 17.5176 37.0052 18.687C36.8675 18.8423 36.6736 18.9353 36.4676 18.9463L36.42 18.9474C36.1999 18.9433 35.999 18.8524 35.8562 18.697L35.7516 18.5755L35.7004 18.5173L35.5914 18.3963L35.472 18.2674C35.4306 18.2232 35.3874 18.1779 35.3427 18.1315C34.9615 17.7363 34.5409 17.3445 34.0941 16.984C32.8557 15.9847 31.6612 15.4205 30.6411 15.4817C28.9724 15.5819 27.5905 15.504 26.3084 15.1443C24.651 14.6793 23.3495 13.7668 22.4882 12.3143L22.44 12.2315C21.9941 11.4538 21.3355 10.5581 20.5587 9.62571C20.3186 9.33756 20.0818 9.06358 19.8561 8.81018L19.7601 8.70287C19.6063 8.53181 19.4804 8.39552 19.4276 8.34002C19.2326 8.13459 19.1648 7.83984 19.25 7.57031L19.2625 7.53389C19.3561 7.28203 19.5737 7.09541 19.8389 7.04307L21.2611 6.76199L21.2776 6.73803C21.7865 6.01471 22.5131 5.40205 23.4782 5.15528C24.4849 4.89786 25.5442 5.12167 26.611 5.79858L26.6855 5.84654C28.1263 6.7889 29.5545 6.7369 30.9123 6.02696C31.8822 5.51981 32.8066 4.65867 33.5071 3.60471C34.1584 2.62479 34.5455 1.57724 34.5731 0.750435C34.5846 0.404905 34.8229 0.10823 35.1581 0.0236317C35.4936 -0.0611704 35.8444 0.0873825 36.0178 0.387058ZM35.4216 0.787019L35.4124 0.857879C35.2875 1.76483 34.9373 3.02789 34.3041 3.98063C33.5245 5.15362 32.4243 6.05069 31.3187 6.6288C29.7238 7.46272 27.9877 7.6154 26.2783 6.53202L26.2029 6.48347C25.3046 5.89592 24.6229 5.61303 23.6875 5.84648C22.7522 6.07994 22.2979 6.76116 21.8941 7.3932L21.8756 7.41993C21.8109 7.5064 21.7162 7.56628 21.6095 7.58736L19.8361 7.86825L20.4819 8.67053C20.6763 8.91372 20.8145 9.08904 20.8964 9.19649L21.6063 10.1316C23.7218 12.9062 25.9985 15.5554 30.4381 14.6383L30.5886 14.606C31.7648 14.3446 32.7509 15.0468 33.9881 16.0817L34.2524 16.3043C34.5797 16.5813 35.5691 17.4535 35.974 17.8734L36.1064 18.0122L36.2285 18.1436C36.2539 18.1713 36.2781 18.198 36.3011 18.2235L36.4274 18.3658L36.5049 18.2742C37.3423 17.2661 37.8668 15.7305 38.1384 14.4638C38.241 13.9852 38.2998 13.5269 38.3243 13.1041L38.3273 13.049C38.3337 12.9255 38.3366 12.8175 38.337 12.7274V12.6605L38.2105 12.6976C36.7462 13.1129 35.0988 13.1541 33.4913 12.9687C33.1029 12.9239 37.3628 9.47368 36.4884 5.00543C36.2891 3.98707 36.1627 2.62548 35.8146 1.70132C35.7048 1.40984 35.5911 1.14329 35.4783 0.904944L35.4216 0.787019Z" fill="#F9FCF8"/>
<path fill-rule="evenodd" clip-rule="evenodd" d="M91.1365 18.8824L91.1653 18.9338L91.2004 18.9998C91.2215 19.0404 91.2453 19.0875 91.2711 19.1407C91.3608 19.3251 91.4513 19.5337 91.5379 19.7639C91.7819 20.4116 91.9525 21.1107 92.0107 21.839C92.0897 22.8273 91.947 23.7601 91.5857 24.6086L91.5548 24.6798C91.2612 25.3427 90.8336 25.9501 90.2784 26.495L90.2234 26.5482L90.2702 26.5505C91.0696 26.5841 91.8602 26.5125 92.5552 26.2909C92.7042 26.2434 92.8667 26.268 92.9951 26.3572C93.1233 26.4464 93.2029 26.5898 93.2109 26.7457L93.2127 26.7941L93.2139 26.858V26.8826C93.2139 26.9719 93.2112 27.0719 93.2049 27.1815C93.1874 27.4843 93.1454 27.8109 93.0723 28.1519C92.8658 29.1151 92.453 30.0173 91.7782 30.7774C91.6887 30.8783 91.5627 30.9388 91.4288 30.946L91.3978 30.9467C91.2548 30.944 91.1242 30.8849 91.0314 30.7839L90.9634 30.7049L90.9301 30.6671L90.8592 30.5884L90.7817 30.5047C90.7547 30.476 90.7267 30.4465 90.6976 30.4163C90.4498 30.1595 90.1764 29.9048 89.886 29.6704C89.0811 29.0209 88.3047 28.6542 87.6416 28.694C86.5569 28.7591 85.6587 28.7084 84.8253 28.4746C83.748 28.1724 82.902 27.5793 82.3422 26.6351L82.3108 26.5813C82.021 26.0759 81.5929 25.4936 81.088 24.8876C80.932 24.7003 80.778 24.5222 80.6313 24.3575L80.5689 24.2877C80.469 24.1765 80.3871 24.0879 80.3528 24.0519C80.226 23.9183 80.182 23.7268 80.2374 23.5516L80.2455 23.5279C80.3063 23.3642 80.4478 23.2429 80.6201 23.2089L81.5445 23.0262L81.5553 23.0106C81.8861 22.5404 82.3583 22.1422 82.9857 21.9818C83.64 21.8145 84.3286 21.9599 85.022 22.3999L85.0704 22.4311C86.007 23.0436 86.9353 23.0098 87.8178 22.5484C88.4483 22.2187 89.0491 21.659 89.5045 20.9739C89.9278 20.337 90.1794 19.6561 90.1974 19.1186C90.2048 18.894 90.3598 18.7012 90.5776 18.6462C90.7957 18.5911 91.0237 18.6877 91.1365 18.8824ZM90.7487 19.1425L90.7428 19.1885C90.6616 19.7781 90.434 20.5991 90.0224 21.2183C89.5157 21.9808 88.8005 22.5639 88.0819 22.9396C87.0452 23.4817 85.9167 23.5809 84.8056 22.8767L84.7566 22.8452C84.1727 22.4633 83.7296 22.2794 83.1216 22.4311C82.5137 22.5829 82.2184 23.0257 81.9559 23.4365L81.9439 23.4539C81.9018 23.5101 81.8403 23.549 81.7709 23.5627L80.6182 23.7453L81.038 24.2668C81.1643 24.4248 81.2541 24.5388 81.3074 24.6086L81.7688 25.2165C83.1439 27.02 84.6237 28.7419 87.5095 28.1458L87.6073 28.1248C88.3718 27.9549 89.0128 28.4113 89.817 29.0841L89.9888 29.2287C90.2015 29.4088 90.8446 29.9757 91.1078 30.2486L91.1939 30.3389L91.2732 30.4243C91.2898 30.4423 91.3055 30.4596 91.3205 30.4762L91.4025 30.5687L91.4529 30.5092C91.9973 29.8539 92.3382 28.8558 92.5147 28.0324C92.5814 27.7213 92.6196 27.4234 92.6355 27.1486L92.6375 27.1128C92.6416 27.0325 92.6435 26.9623 92.6438 26.9037V26.8603L92.5616 26.8844C91.6098 27.1543 90.5389 27.1811 89.494 27.0606C89.2416 27.0315 92.0106 24.7888 91.4422 21.8845C91.3127 21.2225 91.2305 20.3375 91.0042 19.7368C90.9329 19.5473 90.8589 19.3741 90.7856 19.2191L90.7487 19.1425Z" fill="#F9FCF8"/>
<path fill-rule="evenodd" clip-rule="evenodd" d="M15.6521 34.0687L15.6321 34.1043L15.6078 34.1499C15.5932 34.1781 15.5767 34.2107 15.5588 34.2475C15.4968 34.3752 15.4341 34.5196 15.3741 34.6789C15.2052 35.1274 15.0871 35.6113 15.0468 36.1155C14.9921 36.7998 15.0909 37.4455 15.341 38.033L15.3625 38.0823C15.5657 38.5412 15.8618 38.9617 16.2461 39.3389L16.2842 39.3758L16.2518 39.3774C15.6983 39.4006 15.151 39.3511 14.6699 39.1977C14.5667 39.1648 14.4542 39.1817 14.3653 39.2436C14.2766 39.3053 14.2215 39.4046 14.2159 39.5125L14.2146 39.546L14.2139 39.5903V39.6073C14.2139 39.6691 14.2157 39.7383 14.2201 39.8142C14.2322 40.0239 14.2613 40.25 14.3119 40.486C14.4548 41.1529 14.7406 41.7774 15.2078 42.3037C15.2698 42.3736 15.357 42.4154 15.4497 42.4204L15.4711 42.4209C15.5701 42.419 15.6606 42.3781 15.7248 42.3082L15.7719 42.2535L15.7949 42.2273L15.844 42.1729L15.8977 42.1149C15.9164 42.095 15.9358 42.0746 15.9559 42.0537C16.1274 41.8759 16.3167 41.6996 16.5178 41.5373C17.075 41.0877 17.6125 40.8338 18.0716 40.8613C18.8225 40.9064 19.4444 40.8713 20.0213 40.7095C20.7672 40.5002 21.3528 40.0896 21.7404 39.436L21.7621 39.3987C21.9628 39.0488 22.2591 38.6457 22.6087 38.2261C22.7167 38.0964 22.8233 37.9731 22.9249 37.8591L22.9681 37.8108C23.0373 37.7338 23.0939 37.6725 23.1177 37.6475C23.2054 37.5551 23.2359 37.4225 23.1976 37.3012L23.192 37.2848C23.1499 37.1714 23.0519 37.0875 22.9326 37.0639L22.2926 36.9374L22.2852 36.9266C22.0562 36.6012 21.7292 36.3255 21.2949 36.2144C20.8419 36.0986 20.3652 36.1993 19.8851 36.5039L19.8516 36.5255C19.2033 36.9495 18.5606 36.9261 17.9496 36.6067C17.5131 36.3784 17.0971 35.9909 16.7819 35.5167C16.4888 35.0757 16.3146 34.6043 16.3022 34.2322C16.297 34.0767 16.1898 33.9432 16.039 33.9052C15.888 33.867 15.7301 33.9339 15.6521 34.0687ZM15.9201 34.248L15.9243 34.2799C15.9805 34.6881 16.1381 35.2564 16.423 35.6852C16.7738 36.213 17.2689 36.6167 17.7664 36.8768C18.4842 37.2521 19.2654 37.3208 20.0346 36.8333L20.0686 36.8114C20.4728 36.5471 20.7796 36.4197 21.2005 36.5248C21.6214 36.6299 21.8258 36.9364 22.0075 37.2208L22.0158 37.2329C22.0449 37.2718 22.0875 37.2987 22.1356 37.3082L22.9336 37.4346L22.643 37.7956C22.5555 37.9051 22.4933 37.984 22.4565 38.0323L22.137 38.4531C21.185 39.7017 20.1606 40.8938 18.1627 40.4811L18.095 40.4666C17.5657 40.3489 17.1219 40.6649 16.5652 41.1307L16.4463 41.2308C16.299 41.3555 15.8538 41.748 15.6715 41.9369L15.612 41.9994L15.557 42.0585C15.5456 42.071 15.5347 42.083 15.5243 42.0944L15.4675 42.1585L15.4327 42.1173C15.0558 41.6636 14.8198 40.9726 14.6976 40.4026C14.6514 40.1872 14.6249 39.981 14.6139 39.7907L14.6125 39.766C14.6097 39.7103 14.6084 39.6618 14.6082 39.6212V39.5911L14.6651 39.6078C15.324 39.7947 16.0654 39.8133 16.7888 39.7298C16.9635 39.7096 15.0466 38.157 15.4401 36.1463C15.5297 35.6881 15.5867 35.0754 15.7433 34.6595C15.7927 34.5283 15.8439 34.4084 15.8946 34.3011L15.9201 34.248Z" fill="#F9FCF8"/>
<path fill-rule="evenodd" clip-rule="evenodd" d="M68.9717 1.26562L68.9473 1.3091L68.9176 1.36491C68.8997 1.39926 68.8796 1.43912 68.8577 1.48414C68.7819 1.64016 68.7053 1.81672 68.632 2.01144C68.4255 2.55952 68.2812 3.15104 68.2319 3.76731C68.1651 4.60358 68.2858 5.39283 68.5915 6.11083L68.6177 6.17111C68.8661 6.73199 69.228 7.2459 69.6977 7.70697L69.7443 7.75206L69.7047 7.75397C69.0282 7.78239 68.3593 7.72184 67.7712 7.53433C67.6451 7.49413 67.5076 7.51489 67.3989 7.59044C67.2905 7.66587 67.2232 7.78725 67.2164 7.91914L67.2148 7.96009L67.2139 8.01419V8.03501C67.2139 8.11052 67.2161 8.19516 67.2215 8.28793C67.2363 8.54412 67.2718 8.82049 67.3336 9.10899C67.5084 9.92403 67.8577 10.6874 68.4286 11.3306C68.5044 11.416 68.611 11.4672 68.7243 11.4732L68.7505 11.4738C68.8715 11.4715 68.982 11.4215 69.0606 11.3361L69.1181 11.2693L69.1463 11.2372L69.2062 11.1707L69.2719 11.0998C69.2947 11.0755 69.3184 11.0506 69.343 11.0251C69.5527 10.8077 69.784 10.5922 70.0297 10.3939C70.7108 9.84433 71.3678 9.53402 71.9289 9.56766C72.8467 9.6228 73.6067 9.57993 74.3119 9.38209C75.2235 9.12632 75.9393 8.62447 76.413 7.82558L76.4395 7.78004C76.6848 7.35235 77.047 6.85968 77.4742 6.34687C77.6063 6.18839 77.7365 6.0377 77.8606 5.89834L77.9134 5.83931C77.998 5.74523 78.0673 5.67027 78.0963 5.63974C78.2036 5.52676 78.2408 5.36465 78.194 5.2164L78.1871 5.19637C78.1356 5.05785 78.016 4.95521 77.8701 4.92642L77.0879 4.77183L77.0788 4.75865C76.7989 4.36083 76.3993 4.02386 75.8685 3.88814C75.3148 3.74656 74.7322 3.86965 74.1454 4.24195L74.1045 4.26833C73.312 4.78663 72.5265 4.75803 71.7797 4.36756C71.2463 4.08863 70.7379 3.615 70.3526 3.03532C69.9944 2.49637 69.7815 1.92022 69.7663 1.46547C69.76 1.27543 69.6289 1.11226 69.4445 1.06573C69.26 1.01909 69.0671 1.10079 68.9717 1.26562ZM69.2991 1.48633L69.3041 1.5253C69.3729 2.02413 69.5654 2.71881 69.9137 3.24282C70.3425 3.88796 70.9476 4.38135 71.5557 4.69931C72.4329 5.15797 73.3877 5.24193 74.3279 4.64608L74.3694 4.61938C74.8635 4.29622 75.2384 4.14063 75.7528 4.26903C76.2673 4.39743 76.5171 4.77211 76.7392 5.11973L76.7494 5.13443C76.785 5.18198 76.837 5.21492 76.8957 5.22651L77.8711 5.381L77.5159 5.82226C77.409 5.95601 77.333 6.05244 77.2879 6.11153L76.8975 6.62585C75.734 8.15188 74.4818 9.60892 72.04 9.10452L71.9573 9.08677C71.3103 8.94298 70.768 9.32919 70.0875 9.89842L69.9421 10.0208C69.7621 10.1732 69.218 10.6529 68.9953 10.8838L68.9225 10.9602L68.8553 11.0324C68.8413 11.0477 68.828 11.0623 68.8153 11.0764L68.7459 11.1547L68.7033 11.1043C68.2427 10.5498 67.9542 9.70526 67.8049 9.00857C67.7484 8.74533 67.7161 8.49328 67.7026 8.26073L67.7009 8.23044C67.6974 8.16247 67.6959 8.10312 67.6956 8.05354V8.01676L67.7652 8.03715C68.5705 8.26555 69.4766 8.28824 70.3608 8.18624C70.5744 8.1616 68.2314 6.26399 68.7123 3.80646C68.8219 3.24635 68.8915 2.49748 69.0829 1.98919C69.1433 1.82888 69.2059 1.68228 69.2679 1.55119L69.2991 1.48633Z" fill="#F9FCF8"/>
</svg>
