<svg width="273" height="273" viewBox="0 0 273 273" fill="none" xmlns="http://www.w3.org/2000/svg">
<rect width="273" height="273" rx="136.5" fill="#F9FCF8"/>
<path fill-rule="evenodd" clip-rule="evenodd" d="M51.0554 199.813C67.5336 217.75 131.256 207.447 173.214 207.447C191.315 207.447 252.06 216.519 226.976 154.215C144.73 -50.0694 -1.15623 142.979 51.0554 199.813Z" fill="#93BCB2"/>
<path fill-rule="evenodd" clip-rule="evenodd" d="M123.964 201.256C124.045 201.195 124.128 201.128 124.163 201.033C124.275 200.729 123.836 200.527 123.513 200.535C123.043 200.545 122.441 200.862 122.585 201.309C122.668 201.568 122.987 201.688 123.254 201.64C123.522 201.592 123.749 201.422 123.964 201.256ZM125.361 195.93C125.716 196.041 126.066 196.178 126.375 196.385C126.955 196.774 127.349 197.377 127.728 197.963C127.999 198.383 128.275 198.812 128.41 199.294C128.557 199.815 128.531 200.372 128.432 200.905C128.126 202.565 127.102 204.08 125.675 204.983C124.248 205.885 122.44 206.161 120.809 205.726C120.491 205.641 120.171 205.525 119.927 205.306C119.722 205.121 119.584 204.875 119.457 204.629C118.793 203.341 118.345 201.91 118.396 200.461C118.447 199.013 119.042 197.547 120.17 196.637C121.586 195.494 123.625 195.385 125.361 195.93" fill="#F9FCF8"/>
<path fill-rule="evenodd" clip-rule="evenodd" d="M200.272 117.128C199.494 117.118 198.765 117.77 198.688 118.544C198.656 118.86 198.79 119.253 199.105 119.297C199.341 119.33 199.548 119.147 199.707 118.97C200.042 118.594 200.33 118.175 200.562 117.728C200.64 117.578 200.708 117.385 200.606 117.251C200.532 117.153 200.395 117.129 200.272 117.128ZM199.935 113.657C201.039 114.042 202.04 114.72 202.808 115.602C203.468 116.361 203.971 117.345 203.832 118.341C203.781 118.706 203.646 119.055 203.493 119.391C202.91 120.661 201.908 121.879 200.532 122.125C199.81 122.254 199.066 122.099 198.372 121.863C197.569 121.59 196.804 121.207 196.104 120.728C195.733 120.474 195.364 120.172 195.202 119.753C195.089 119.464 195.086 119.146 195.09 118.836C195.101 118.069 195.151 117.289 195.419 116.571C195.757 115.661 196.419 114.911 197.12 114.241C197.402 113.972 197.702 113.706 198.064 113.562C198.657 113.326 199.332 113.447 199.935 113.657Z" fill="#F9FCF8"/>
<path fill-rule="evenodd" clip-rule="evenodd" d="M200.273 58.3446C204.842 63.0571 208.449 68.6923 210.81 74.8077C210.972 75.2277 211.13 75.6943 210.975 76.1171C209.784 79.3726 207.485 82.0866 205.231 84.7256C203.791 86.4119 202.351 88.0981 200.91 89.7844C199.536 91.3942 198.16 93.0043 196.739 94.5736C189.502 102.564 180.951 109.551 171.048 113.85C170.674 114.012 170.273 114.174 169.87 114.109C169.468 114.044 169.091 113.655 169.196 113.262C170.421 108.703 171.653 103.936 170.67 99.3182C170.433 98.2044 170.169 96.8021 171.093 96.1319C178.573 90.7058 183.958 82.95 189.119 75.2995C190.417 73.3758 191.711 71.4468 192.859 69.4311C194.898 65.8522 196.468 62.0087 197.518 58.0286C197.662 57.4825 198.354 57.2365 198.902 57.3797C199.451 57.5228 199.879 57.9384 200.273 58.3446" fill="#F9FCF8"/>
<path fill-rule="evenodd" clip-rule="evenodd" d="M57.7646 76.6523C58.5076 83.3687 60.5753 89.9359 63.8144 95.8664C65.8199 99.5383 68.2592 102.952 70.6921 106.356C72.385 108.725 74.1954 111.193 76.8369 112.417C77.5392 112.743 77.4412 113.755 77.2527 114.506C76.438 117.752 76.0578 121.106 76.1256 124.451C76.132 124.767 76.1403 125.095 76.0161 125.385C75.5946 126.372 74.1503 126.208 73.156 125.804C67.0039 123.307 62.2806 118.284 57.8683 113.323C52.1397 106.881 46.4962 100.156 43.1121 92.2276C42.882 91.6886 42.6587 91.1214 42.6972 90.5366C42.7364 89.9407 43.0426 89.3991 43.3531 88.8891C46.421 83.8502 50.6889 79.5475 55.7028 76.4389C56.0559 76.2199 56.433 76.0005 56.8482 75.9861C57.2635 75.9718 57.7189 76.2393 57.7646 76.6523Z" fill="#F9FCF8"/>
<path fill-rule="evenodd" clip-rule="evenodd" d="M199.376 194.476C199.906 193.578 200.563 192.588 201.593 192.418C201.998 192.351 202.212 191.91 202.35 191.522C204.051 186.751 204.215 181.444 202.812 176.576C202.412 175.187 202.905 173.714 203.393 172.353C204.652 168.84 205.911 165.327 207.17 161.814C206.449 160.566 204.547 160.603 203.572 159.541C202.318 158.174 203.264 156.001 204.246 154.428C209.986 145.236 215.726 136.044 221.466 126.852C222.169 125.726 223.712 125.373 225.005 125.673C226.299 125.973 227.403 126.787 228.467 127.581C232.653 130.708 236.839 133.835 241.025 136.961C243.272 138.639 245.752 140.783 245.623 143.584C245.551 145.134 244.664 146.512 243.806 147.805C240.489 152.804 237.171 157.804 233.853 162.803C231.984 165.619 232.5 169.318 231.936 172.651C231.043 177.916 227.432 182.241 224.088 186.405C220.745 190.57 217.399 195.22 217.211 200.558C216.987 206.919 213.965 213.132 209.099 217.236C210.51 213.811 201.593 215.177 191.392 211.118C193.07 205.18 196.24 199.79 199.376 194.476Z" fill="#F9FCF8"/>
<path fill-rule="evenodd" clip-rule="evenodd" d="M87.3638 209.369C86.7278 208.849 86.5249 207.97 86.4126 207.154C85.1135 197.708 90.6927 188.385 89.6989 178.902C89.1867 174.015 86.9413 169.455 84.1157 165.445C82.1644 162.676 82.055 158.966 82.783 155.652C83.511 152.338 84.9795 149.24 85.97 145.996C90.3747 131.569 85.015 116.157 79.7161 102.037C90.2751 96.9313 102.597 97.9203 114.294 98.6121C125.992 99.3038 138.572 99.3528 148.322 92.8201C149.658 106.952 146.712 121.1 143.782 134.987C158.648 133.539 173.514 132.091 188.381 130.643C188.807 130.601 189.273 130.569 189.627 130.811C190.1 131.134 190.172 131.793 190.2 132.366C190.895 147.063 191.316 161.773 191.463 176.486C191.467 176.855 191.454 177.267 191.195 177.529C190.974 177.753 190.635 177.8 190.323 177.834C169.495 180.155 148.667 182.476 127.839 184.798C126.038 184.998 123.472 184.529 123.577 182.711C124.048 174.604 123.773 166.454 122.758 158.398C117.223 158.188 111.65 159.032 106.422 160.872C105.236 161.289 103.81 162.411 104.45 163.498C108.682 170.69 103.429 181.5 109.177 187.537C111.153 189.613 111.017 192.879 110.625 195.724C109.786 201.824 108.359 207.843 106.373 213.668C107.333 206.963 87.9507 212.965 87.3638 209.369Z" fill="#F9FCF8"/>
<path fill-rule="evenodd" clip-rule="evenodd" d="M27.7899 57.1577C27.8077 57.3009 27.7302 57.4512 27.6033 57.5198C27.5022 57.4187 27.4011 57.3175 27.3 57.2164C27.4516 57.1501 27.6234 57.1312 27.7858 57.163L27.7899 57.1577Z" fill="#1A1A1A"/>
<path fill-rule="evenodd" clip-rule="evenodd" d="M124.997 195.93C125.351 196.041 125.702 196.178 126.011 196.385C126.591 196.774 126.985 197.377 127.364 197.963C127.635 198.383 127.911 198.812 128.046 199.294C128.193 199.815 128.167 200.372 128.068 200.905C127.762 202.565 126.738 204.08 125.311 204.983C123.884 205.885 122.076 206.161 120.445 205.726C120.127 205.641 119.807 205.525 119.563 205.306C119.358 205.121 119.22 204.875 119.093 204.629C118.429 203.341 117.981 201.91 118.032 200.461C118.083 199.013 118.678 197.547 119.806 196.637C121.222 195.494 123.261 195.385 124.997 195.93M123.008 204.554C123.895 204.419 124.676 203.84 125.186 203.101C125.696 202.363 125.957 201.477 126.083 200.589C126.155 200.081 126.161 199.5 125.803 199.133C125.589 198.914 125.282 198.816 124.988 198.728C123.885 198.398 122.626 198.117 121.638 198.709C120.919 199.139 120.517 199.937 120.154 200.692C119.728 201.577 119.833 202.694 120.417 203.484C121 204.273 122.037 204.702 123.008 204.554V204.554Z" fill="#1A1A1A"/>
<path fill-rule="evenodd" clip-rule="evenodd" d="M165.525 156.079C165.54 155.891 165.563 155.689 165.688 155.547C165.809 155.408 166.001 155.358 166.181 155.316C170.816 154.237 175.604 153.815 180.356 154.066C180.961 154.098 181.74 154.303 181.78 154.908C182.009 158.375 182.239 161.842 182.469 165.31C182.48 165.485 182.486 165.68 182.374 165.815C182.282 165.926 182.135 165.968 181.996 166.004C177.053 167.293 171.843 167.547 166.798 166.745C166.668 166.725 166.531 166.7 166.43 166.616C166.308 166.514 166.266 166.348 166.231 166.192C165.487 162.883 165.248 159.46 165.525 156.079ZM166.618 161.831C166.709 163.14 166.984 164.437 167.431 165.67C167.878 165.735 168.32 165.828 168.765 165.903C172.598 166.552 176.52 165.899 180.353 165.247C180.625 165.2 180.923 165.139 181.091 164.92C181.263 164.696 181.24 164.385 181.209 164.105C181.077 162.91 180.945 161.715 180.813 160.52C180.802 160.424 180.788 160.321 180.723 160.249C180.644 160.162 180.515 160.148 180.397 160.14C177.673 159.961 174.94 160.164 172.218 160.367C170.713 160.479 169.208 160.592 167.703 160.704C167.35 160.73 166.948 160.783 166.745 161.073C166.595 161.287 166.6 161.57 166.618 161.831ZM166.66 156.833C166.422 157.597 166.379 158.421 166.537 159.205C166.566 159.346 166.605 159.495 166.712 159.591C166.871 159.733 167.113 159.709 167.323 159.678C169.887 159.303 172.479 159.116 175.07 159.121C175.435 159.121 175.547 158.629 175.543 158.264C175.537 157.728 175.532 157.193 175.526 156.657C175.522 156.347 175.507 156.006 175.295 155.78C175.04 155.508 174.614 155.517 174.242 155.545C173.384 155.611 172.526 155.676 171.667 155.742C171.257 155.773 170.167 156.052 169.667 156.085C168.795 156.224 167.924 156.363 167.053 156.502C166.96 156.517 166.862 156.534 166.79 156.595C166.72 156.655 166.688 156.746 166.66 156.833ZM178.154 159.163C178.835 159.172 179.517 159.104 180.184 158.96C180.342 158.926 180.509 158.883 180.622 158.767C180.788 158.596 180.786 158.328 180.774 158.091C180.739 157.4 180.704 156.71 180.669 156.019C180.656 155.773 180.628 155.495 180.436 155.341C180.266 155.206 180.027 155.214 179.811 155.228C179.053 155.28 178.296 155.332 177.538 155.383C177.418 155.391 177.292 155.401 177.192 155.468C177.009 155.589 176.981 155.843 176.976 156.063C176.959 156.795 176.989 157.528 177.066 158.256C177.088 158.466 177.118 158.688 177.249 158.855C177.452 159.116 177.824 159.159 178.154 159.163Z" fill="#357A6A"/>
<path fill-rule="evenodd" clip-rule="evenodd" d="M177.388 140.926C178.4 140.488 179.643 140.635 180.525 141.297C181.408 141.959 181.896 143.111 181.759 144.205C182.379 143.87 183.166 143.54 183.745 143.942C184.399 144.397 184.25 145.377 184.152 146.167C183.98 147.548 184.202 148.976 184.786 150.239C185.027 150.761 185.234 151.552 184.7 151.763C184.609 151.798 184.511 151.806 184.414 151.814C178.142 152.32 171.871 152.825 165.599 153.331C165.427 153.344 165.235 153.352 165.105 153.239C164.972 153.123 164.955 152.926 164.948 152.75C164.888 151.275 164.828 149.8 164.768 148.325C164.751 147.929 164.744 147.502 164.967 147.175C165.337 146.634 166.112 146.636 166.759 146.532C167.406 146.429 168.159 145.882 167.91 145.276C167.632 144.6 168.579 144.107 169.301 143.997C170.024 143.887 170.982 143.456 170.763 142.759C170.524 141.997 171.572 141.525 172.363 141.42C172.921 141.345 173.505 141.274 174.035 141.465C174.564 141.657 175.012 142.202 174.893 142.753C174.756 143.383 175.524 143.97 176.129 143.747C176.734 143.525 176.979 142.698 176.673 142.13C176.423 141.667 176.904 141.135 177.388 140.926ZM180.626 150.647C180.392 150.212 180.39 149.694 180.388 149.2C180.378 146.88 180.235 144.561 179.961 142.257C179.947 142.14 179.925 142.01 179.83 141.942C179.748 141.883 179.638 141.89 179.537 141.9C179.047 141.946 178.467 142.054 178.273 142.506C178.191 142.699 178.2 142.917 178.211 143.127C178.336 145.452 178.46 147.778 178.584 150.103C178.596 150.32 178.625 150.569 178.805 150.69C178.903 150.756 179.026 150.768 179.144 150.774C179.641 150.801 180.141 150.759 180.626 150.647ZM172.191 147.072C172.13 147.459 172.045 147.844 172.022 148.235C171.984 148.89 172.122 149.54 172.259 150.181C172.347 150.592 172.878 150.794 173.267 150.636C173.656 150.477 173.891 150.062 173.956 149.647C174.021 149.231 173.945 148.809 173.879 148.394C173.619 146.764 173.506 145.11 173.543 143.459C173.552 143.042 173.145 142.665 172.729 142.706C172.313 142.747 171.988 143.197 172.079 143.605C172.333 144.74 172.371 145.923 172.191 147.072ZM176.316 144.845C176.071 144.524 175.511 144.695 175.32 145.05C175.129 145.405 175.187 145.835 175.235 146.235C175.358 147.28 175.37 148.339 175.27 149.386C175.24 149.695 175.208 150.032 175.378 150.291C175.64 150.69 176.216 150.686 176.69 150.638C176.839 150.623 177.01 150.594 177.085 150.464C177.137 150.374 177.125 150.262 177.111 150.159C176.892 148.534 176.673 146.909 176.454 145.284C176.434 145.13 176.41 144.968 176.316 144.845ZM181.748 145.543C181.564 145.794 181.525 146.121 181.509 146.432C181.454 147.499 181.596 148.565 181.737 149.624C181.792 150.041 181.983 150.577 182.403 150.549C182.828 150.52 182.939 149.951 182.93 149.524C182.903 148.395 182.877 147.266 182.851 146.136C182.844 145.839 182.813 145.495 182.566 145.33C182.308 145.156 181.932 145.292 181.748 145.543ZM168.893 145.276C168.893 145.276 169.08 146.75 169.145 147.501C169.227 148.444 169.331 149.385 169.458 150.323C169.476 150.459 169.501 150.606 169.601 150.7C169.775 150.863 170.447 150.755 170.571 150.551C170.695 150.347 170.688 150.093 170.677 149.855C170.643 149.103 170.609 148.35 170.575 147.597C170.538 146.79 170.346 145.05 170.346 145.05M166.455 150.613C166.509 150.782 166.572 150.959 166.709 151.072C166.975 151.292 167.407 151.156 167.618 150.881C167.828 150.606 167.875 150.244 167.915 149.901C167.964 149.48 168.012 149.042 167.875 148.64C167.739 148.238 167.361 147.885 166.939 147.922C166.55 147.956 166.249 148.311 166.158 148.691C166.067 149.071 166.144 149.469 166.238 149.847C166.302 150.105 166.375 150.36 166.455 150.613Z" fill="#A9A9A9"/>
<path fill-rule="evenodd" clip-rule="evenodd" d="M191.879 90.258C191.373 91.018 190.824 91.788 190.04 92.2573C189.257 92.7265 188.175 92.818 187.471 92.2362C186.694 91.5943 186.646 90.4371 186.708 89.4314C186.732 89.0442 186.763 88.6539 186.874 88.2822C187.066 87.6374 187.486 87.0872 187.925 86.5771C188.457 85.9581 189.046 85.3611 189.785 85.0128C190.523 84.6645 191.44 84.6033 192.132 85.0367C192.96 85.5554 193.266 86.6588 193.109 87.6232C192.952 88.5875 192.421 89.4449 191.879 90.258M190.271 91.0621C190.91 90.382 191.457 89.6167 191.895 88.7929C192.183 88.2508 192.428 87.6615 192.416 87.0478C192.405 86.434 192.081 85.7925 191.511 85.5647C190.769 85.2681 189.954 85.7426 189.333 86.2468C188.891 86.6058 188.464 86.9995 188.18 87.4932C188.001 87.8053 187.885 88.1488 187.769 88.4897C187.551 89.1347 187.33 89.8068 187.413 90.4826C187.496 91.1585 187.98 91.8369 188.657 91.9069C189.284 91.9717 189.84 91.5216 190.271 91.0621Z" fill="#357A6A"/>
<path fill-rule="evenodd" clip-rule="evenodd" d="M61.4429 98.8488C62.2361 99.6523 62.8909 100.592 63.3699 101.615C63.8513 102.642 63.366 103.963 62.4212 104.591C61.4765 105.22 60.1992 105.212 59.1633 104.748C58.1275 104.285 57.3134 103.421 56.7139 102.457C56.2619 101.731 55.9114 100.917 55.8739 100.062C55.8363 99.2074 56.1509 98.3079 56.8271 97.7838C57.5109 97.2537 58.4725 97.178 59.2995 97.4323C60.1265 97.6867 60.835 98.2331 61.4429 98.8488M58.3479 98.3602C57.6615 98.2895 57.0518 98.9195 56.9341 99.5993C56.8163 100.279 57.0755 100.969 57.4109 101.572C58.1381 102.88 59.4356 104.041 60.9301 103.969C61.6983 103.932 62.5404 103.399 62.5267 102.63C62.5208 102.298 62.3568 101.991 62.1929 101.702C61.7576 100.933 61.2875 100.172 60.6596 99.55C60.0317 98.9283 59.2268 98.4507 58.3479 98.3602Z" fill="#357A6A"/>
<path fill-rule="evenodd" clip-rule="evenodd" d="M121.42 200.001C121.972 199.582 122.657 199.311 123.347 199.356C124.038 199.4 124.721 199.797 125.01 200.425C125.32 201.1 125.127 201.939 124.643 202.502C124.16 203.066 123.431 203.377 122.695 203.48C122.193 203.55 121.595 203.487 121.32 203.061C121.188 202.856 121.157 202.603 121.131 202.359C121.083 201.923 121.035 201.487 120.987 201.05C120.967 200.865 120.947 200.673 121.007 200.497C121.077 200.29 121.246 200.133 121.42 200.001M123.6 201.256C123.68 201.195 123.764 201.128 123.799 201.033C123.911 200.729 123.472 200.528 123.149 200.535C122.679 200.545 122.077 200.862 122.22 201.309C122.304 201.568 122.622 201.688 122.89 201.64C123.158 201.593 123.385 201.422 123.6 201.256Z" fill="#1A1A1A"/>
<path fill-rule="evenodd" clip-rule="evenodd" d="M199.468 60.4714C203.761 64.9156 207.15 70.2299 209.368 75.9971C209.52 76.3932 209.668 76.8332 209.523 77.2319C208.404 80.302 206.244 82.8615 204.127 85.3502L200.067 90.121C198.776 91.6391 197.484 93.1575 196.148 94.6374C189.35 102.173 181.316 108.762 172.012 112.816C171.66 112.969 171.284 113.121 170.906 113.06C170.528 112.999 170.173 112.632 170.272 112.262C171.423 107.962 172.58 103.466 171.657 99.1118C171.435 98.0614 171.186 96.739 172.054 96.1069C179.081 90.9899 184.141 83.6757 188.989 76.4609C190.209 74.6467 191.424 72.8276 192.503 70.9266C194.419 67.5516 195.894 63.9269 196.88 60.1735C197.015 59.6584 197.666 59.4265 198.181 59.5615C198.696 59.6964 199.098 60.0884 199.468 60.4714ZM196.464 65.9904C196.028 65.8099 195.625 66.2979 195.403 66.7144C195.162 67.1653 194.922 67.6169 194.681 68.0688C190.233 76.4238 185.717 84.907 178.939 91.4877C178.298 92.1095 177.583 92.8606 177.701 93.7454C178.079 96.5815 176.565 99.5765 174.057 100.953C172.918 101.579 172.931 103.192 173.098 104.48C173.165 104.996 173.36 105.642 173.878 105.686C175.398 105.814 176.857 106.562 177.848 107.722C178.16 108.088 178.753 107.859 179.16 107.603C189.414 101.156 197.293 91.6344 204.986 82.2787C205.252 81.9559 205.534 81.5492 205.396 81.1549C204.232 77.8388 204.418 74.0702 205.904 70.8852C205.027 69.1406 203.982 67.4805 202.789 65.9354C200.802 66.7979 198.465 66.8182 196.464 65.9904ZM172.141 111.113C172.546 111.325 173.035 111.123 173.44 110.912C174.504 110.357 175.528 109.727 176.503 109.028C176.761 108.843 176.838 108.474 176.747 108.171C176.656 107.867 176.428 107.622 176.175 107.43C175.387 106.832 174.284 106.675 173.36 107.028C173.189 107.094 173.019 107.179 172.902 107.319C172.764 107.483 172.713 107.701 172.669 107.911C172.446 108.97 172.27 110.038 172.141 111.113ZM200.938 63.7822C200.242 62.4199 199.167 61.2532 197.866 60.4469C197.414 60.8457 197.326 61.4518 197.236 62.0696V62.0697C197.175 62.4936 197.112 62.923 196.931 63.2949C196.872 63.416 196.8 63.5319 196.728 63.6475C196.59 63.8676 196.454 64.0867 196.409 64.3395C196.342 64.725 196.669 65.2086 197.039 65.0811C197.339 64.9774 197.655 65.044 197.973 65.1112C198.14 65.1466 198.309 65.1823 198.477 65.1931C199.453 65.2561 200.263 64.491 200.938 63.7822ZM206.461 71.9477C205.714 73.4324 205.832 75.1859 205.968 76.8421L206.163 79.2173C206.184 79.4785 206.326 79.831 206.578 79.7586C206.734 79.3211 207.032 78.9602 207.331 78.5983L207.331 78.5982C207.592 78.2817 207.853 77.9644 208.022 77.5946C208.592 76.3419 207.959 74.8982 207.336 73.6711L206.461 71.9477ZM173.049 98.3097C173.08 98.7743 173.562 99.1221 174.028 99.109C174.493 99.096 174.912 98.7948 175.184 98.4168C175.456 98.0388 175.605 97.5887 175.751 97.1463L176.231 95.6855C176.364 95.2782 176.373 94.6555 175.947 94.6076C175.793 94.5903 175.646 94.6717 175.52 94.7614C175.043 95.1008 174.695 95.5883 174.356 96.0665L173.434 97.3689C173.235 97.6514 173.025 97.9644 173.049 98.3097ZM63.0863 94.4104C59.8473 88.48 57.7795 81.9127 57.0366 75.1963C56.9909 74.7833 56.5355 74.5158 56.1202 74.5302C55.705 74.5445 55.3279 74.764 54.9747 74.9829C49.9609 78.0915 45.6929 82.3942 42.6251 87.4331C42.3146 87.9431 42.0084 88.4847 41.9692 89.0806C41.9307 89.6654 42.154 90.2326 42.384 90.7717C45.7682 98.7002 51.4116 105.425 57.1403 111.867C61.5526 116.828 66.2758 121.851 72.4279 124.348C73.4222 124.752 74.8665 124.916 75.2881 123.929C75.4107 123.642 75.4041 123.319 75.3978 123.007L75.3975 122.995C75.3298 119.65 75.7099 116.296 76.5247 113.05C76.7132 112.3 76.8112 111.287 76.1089 110.961C73.4673 109.737 71.657 107.269 69.964 104.9C67.5312 101.496 65.0918 98.0823 63.0863 94.4104ZM68.8044 120.334C68.4405 120.431 68.0771 120.201 67.7733 119.979C62.174 115.876 57.8349 110.324 53.5716 104.846L46.0481 95.179C47.318 94.3702 47.4792 92.6129 47.5069 91.1076C47.5429 89.1508 47.5692 87.1361 46.8623 85.3111C46.7052 84.9055 46.9097 84.456 47.1288 84.0802C48.0682 82.4683 49.3709 81.0696 50.9121 80.0182C51.0613 79.9165 51.2192 79.8153 51.3981 79.7901C51.87 79.7234 52.2321 80.1824 52.4843 80.5868C53.4804 82.1842 54.8494 83.9906 56.7272 83.8591C57.4423 83.809 57.8388 84.6512 58.0474 85.337C60.6414 93.8647 65.5116 101.556 71.223 108.4C71.9652 109.289 72.1514 110.489 72.336 111.679C72.5417 113.005 72.7454 114.317 73.7156 115.17C74.544 115.898 74.3902 117.206 74.1667 118.286C74.1209 118.507 74.0665 118.743 73.8986 118.894C73.7739 119.006 73.6054 119.053 73.4435 119.096L68.8044 120.334ZM55.5303 81.8837C54.5032 81.166 53.6159 80.2489 52.9326 79.1985C52.7848 78.9714 52.6412 78.7167 52.6672 78.4469C52.6954 78.1535 52.9161 77.9188 53.1357 77.7223C53.678 77.2369 54.291 76.8306 54.9492 76.5201C55.1902 76.4064 55.5014 76.314 55.7017 76.4899C55.8196 76.5934 55.8568 76.7589 55.8875 76.9128L56.8362 81.6575C56.8923 81.938 56.5981 82.1907 56.3122 82.1988C56.0262 82.207 55.7648 82.0475 55.5303 81.8837ZM46.1419 91.0609C46.1218 91.9534 46.0536 92.955 45.3848 93.5462C45.2448 93.5628 45.1518 93.4092 45.097 93.2794C44.6151 92.1386 44.1265 90.9704 44.0506 89.7343C43.9747 88.4983 44.389 87.1598 45.399 86.4434C45.5357 86.3464 45.7362 86.2663 45.8568 86.3827C45.9053 86.4294 45.926 86.4972 45.9437 86.5622C46.2182 87.5711 46.1966 88.6336 46.173 89.6788L46.1419 91.0609ZM73.3984 120.747C73.5606 120.88 73.5779 121.117 73.5823 121.327L73.6305 123.621C72.6895 123.099 71.7879 122.506 70.9361 121.849C70.7746 121.724 70.5971 121.522 70.696 121.344C70.7451 121.255 70.8471 121.213 70.942 121.178C71.5509 120.953 72.1805 120.785 72.8202 120.675C73.0179 120.642 73.2431 120.62 73.3984 120.747ZM73.4526 111.711C73.4439 111.607 73.4439 111.494 73.5055 111.411C73.668 111.19 74.0207 111.39 74.1698 111.62C74.5288 112.174 74.6081 112.901 74.3771 113.519C73.8498 113.067 73.5102 112.403 73.4526 111.711ZM213.621 94.2923C214.559 93.1111 216.268 92.9412 217.776 92.978C218.128 92.9866 218.491 93.0037 218.812 93.1498C219.704 93.5564 219.893 94.722 219.923 95.7019C219.951 96.5935 219.946 97.4967 219.729 98.362C219.512 99.2273 219.064 100.061 218.347 100.592C218.025 100.831 217.651 101.005 217.256 101.071C216.645 101.173 216.02 101.016 215.439 100.8C214.665 100.512 213.931 100.117 213.265 99.6285C212.94 99.3901 212.604 99.0779 212.593 98.6747C212.569 97.7447 212.673 96.8115 212.902 95.9098C213.048 95.3335 213.251 94.758 213.621 94.2923ZM216.053 100.175C217.257 100.521 218.538 99.5893 218.994 98.4225C219.451 97.2557 219.282 95.9451 219.031 94.7176C218.935 94.2463 218.431 93.9831 217.967 93.8571C217.248 93.662 216.484 93.6362 215.754 93.7822C215.391 93.8547 215.02 93.979 214.766 94.2475C214.627 94.3938 214.531 94.5745 214.437 94.7527L213.731 96.086C213.607 96.3205 213.482 96.5572 213.409 96.8123C213.191 97.5752 213.479 98.4224 214.012 99.0105C214.545 99.5985 215.29 99.9563 216.053 100.175ZM199.935 113.657C201.039 114.042 202.04 114.72 202.808 115.603C203.468 116.361 203.971 117.345 203.832 118.341C203.781 118.707 203.646 119.055 203.493 119.391C202.91 120.661 201.908 121.879 200.532 122.125C199.81 122.254 199.066 122.099 198.372 121.863C197.569 121.59 196.804 121.207 196.104 120.728C195.733 120.474 195.364 120.172 195.201 119.753C195.089 119.464 195.086 119.146 195.09 118.836C195.101 118.069 195.151 117.289 195.419 116.571C195.757 115.661 196.419 114.911 197.12 114.241C197.402 113.972 197.702 113.706 198.064 113.562C198.657 113.326 199.332 113.447 199.935 113.657ZM201.064 120.34C201.862 119.55 202.327 118.405 202.2 117.29C202.074 116.174 201.319 115.127 200.263 114.746C199.824 114.588 199.337 114.544 198.887 114.668C198.645 114.735 198.417 114.85 198.205 114.985C197.296 115.563 196.658 116.549 196.503 117.615C196.348 118.681 196.679 119.808 197.386 120.621C197.838 121.142 198.577 121.365 199.261 121.279C199.946 121.192 200.574 120.825 201.064 120.34ZM100.277 107.081C100.24 106.555 99.5363 106.417 99.0092 106.432C96.2419 106.514 93.4783 106.721 90.7299 107.053C90.2784 107.108 90.2419 107.836 90.6042 108.111C90.9665 108.386 91.4712 108.335 91.9214 108.271L100.277 107.081ZM91.4304 110.638C91.4541 110.367 91.7946 110.269 92.0648 110.238L108.364 108.392C108.659 108.359 108.973 108.329 109.238 108.461C109.503 108.594 109.674 108.957 109.501 109.198C109.373 109.376 109.129 109.412 108.911 109.433L92.2398 111.051C91.8931 111.084 91.3999 110.985 91.4304 110.638ZM127.971 113.383C127.059 113.583 126.123 113.254 125.248 112.928C122.42 111.871 119.604 110.785 116.798 109.67C115.666 109.22 114.423 109.894 113.404 110.563C110.457 112.499 107.619 114.602 104.909 116.859C104.213 117.439 103.142 117.032 102.44 116.459C102.291 116.338 102.145 116.209 101.998 116.08L101.998 116.08C101.452 115.596 100.898 115.107 100.19 115.007C99.1032 114.852 98.1467 115.677 97.3589 116.442L92.2785 121.376C91.5953 122.039 90.8761 123.102 91.4842 123.835C91.8854 124.318 92.622 124.294 93.2463 124.221C96.5051 123.844 99.7478 123.314 102.989 122.785L102.99 122.785L102.99 122.785L102.99 122.785L102.99 122.785L102.99 122.784L102.99 122.784L102.99 122.784L102.99 122.784L102.99 122.784L102.991 122.784L102.991 122.784L102.991 122.784C108.349 121.909 113.704 121.034 119.124 120.847C120.325 120.805 121.527 120.798 122.728 120.79H122.729C123.481 120.785 124.234 120.78 124.986 120.767C128.379 120.708 131.77 120.479 135.141 120.082C135.304 120.063 135.489 120.03 135.574 119.889C135.638 119.783 135.622 119.649 135.604 119.526L134.176 109.811C134.104 109.318 133.977 108.747 133.526 108.534C133.07 108.319 132.533 108.596 132.159 108.934C131.574 109.463 131.123 110.165 130.678 110.858C129.948 111.994 129.235 113.105 127.971 113.383ZM104.784 118.699C107.834 116.191 111.013 113.843 114.306 111.665C114.982 111.218 115.804 110.76 116.559 111.053L124.544 114.156C125.876 114.674 127.333 115.198 128.701 114.783C130.292 114.3 131.242 112.718 132.043 111.262C132.199 110.979 132.652 111.011 132.876 111.244C133.101 111.477 133.157 111.819 133.204 112.139L133.788 116.19C133.878 116.812 133.966 117.458 133.786 118.06C133.606 118.662 133.078 119.209 132.45 119.197C122.173 118.999 111.875 119.846 101.769 121.722C101.456 121.78 101.143 121.839 100.831 121.898L100.829 121.899C98.4149 122.355 95.9917 122.812 93.538 122.82C94.7228 121.142 96.2241 119.717 97.7149 118.303C98.5335 117.527 99.557 116.69 100.656 116.944C101.249 117.081 101.705 117.508 102.157 117.932C102.303 118.068 102.448 118.204 102.597 118.33C103.211 118.849 104.163 119.21 104.784 118.699ZM236.634 146.959C236.362 147.061 236.057 146.991 235.78 146.904C233.901 146.313 232.374 144.992 230.874 143.693L230.874 143.693C230.671 143.517 230.468 143.342 230.266 143.169C227.78 141.049 225.083 139.177 222.227 137.591C221.936 137.43 221.632 137.26 221.454 136.979C221.276 136.699 221.281 136.271 221.555 136.084C222.836 135.209 223.667 133.709 223.728 132.16C223.744 131.747 224.21 131.471 224.622 131.504C225.034 131.538 225.393 131.785 225.73 132.024L238.78 141.288C239.034 141.468 239.308 141.677 239.37 141.982C239.421 142.231 239.316 142.483 239.211 142.715C238.649 143.957 238.001 145.161 237.276 146.315C237.111 146.576 236.924 146.851 236.634 146.959ZM223.579 135.97C223.425 136.24 223.292 136.632 223.541 136.819L234.19 144.837C234.773 145.276 235.679 145.688 236.139 145.12C236.666 144.468 237.158 143.789 237.613 143.085C237.738 142.892 237.865 142.672 237.82 142.447C237.779 142.242 237.606 142.092 237.444 141.961C233.536 138.792 229.398 135.906 225.073 133.334L223.579 135.97ZM218.279 140.873C218.451 140.578 218.66 140.255 218.993 140.183C219.248 140.128 219.508 140.237 219.743 140.351C221.025 140.974 222.2 141.818 223.199 142.835C223.439 143.079 223.469 143.473 223.362 143.799C223.255 144.125 223.035 144.399 222.818 144.665C222.471 145.093 222.101 145.539 221.588 145.742C221.035 145.961 220.391 145.855 219.867 145.573C219.343 145.291 218.923 144.85 218.553 144.384C218.069 143.777 217.636 143.049 217.711 142.276C217.761 141.77 218.023 141.313 218.279 140.873ZM220.522 144.273C221.328 144.587 221.844 144.338 221.865 143.809C221.878 143.475 221.587 143.218 221.323 143.015L220.522 142.399C220.257 142.195 219.965 141.982 219.631 141.984C219.297 141.986 218.957 142.33 219.094 142.635C219.073 142.782 219.715 143.959 220.522 144.273ZM217.338 150.783C217.535 150.891 217.744 150.997 217.968 151.001C218.192 151.006 218.435 150.879 218.49 150.662C218.619 150.152 218.957 149.729 219.287 149.315C219.323 149.269 219.359 149.224 219.395 149.179C219.757 148.721 220.106 148.202 220.116 147.618C220.125 147.035 219.642 146.413 219.064 146.492C218.608 146.555 218.184 146.256 217.853 145.937C217.801 145.886 217.748 145.834 217.696 145.781C217.419 145.505 217.137 145.224 216.77 145.105C216.332 144.962 215.737 145.189 215.702 145.647C215.632 146.571 214.865 147.267 214.152 147.859C213.939 148.036 214.132 148.377 214.331 148.569C215.229 149.437 216.243 150.184 217.338 150.783ZM217.481 149.023L216.078 148.075C215.722 147.833 215.75 147.242 216.068 146.952C216.386 146.662 216.88 146.639 217.286 146.785C217.691 146.93 218.028 147.215 218.356 147.495C218.572 147.68 218.602 148.017 218.503 148.284C218.404 148.551 218.202 148.765 218.005 148.971C217.938 149.042 217.863 149.117 217.766 149.129C217.663 149.142 217.567 149.081 217.481 149.023ZM228.6 149.086L229.286 147.629C229.496 147.183 229.699 146.63 229.416 146.227C229.317 146.087 229.172 145.988 229.03 145.892L226.535 144.211C226.266 144.03 225.974 143.841 225.65 143.846C225.265 143.852 224.943 144.127 224.67 144.397C224.261 144.803 223.879 145.235 223.526 145.691C223.258 146.037 223.038 146.608 223.404 146.848L227.222 149.353C227.524 149.551 227.906 149.754 228.223 149.582C228.409 149.481 228.51 149.277 228.6 149.086ZM227.754 148.054C227.594 148.091 227.426 148.05 227.269 148.003C226.305 147.713 225.422 147.156 224.745 146.412C224.519 146.164 224.647 145.727 224.933 145.553C225.22 145.38 225.592 145.42 225.901 145.549C226.1 145.633 226.282 145.75 226.465 145.866C226.565 145.93 226.665 145.994 226.768 146.053C226.879 146.116 226.995 146.174 227.11 146.232L227.111 146.232C227.439 146.397 227.767 146.561 227.991 146.846C228.294 147.231 228.231 147.945 227.754 148.054ZM229.043 149.682C229.483 149.577 229.618 149.129 229.758 148.662C229.873 148.277 229.992 147.879 230.29 147.654C230.804 147.266 231.531 147.59 232.084 147.919L233.843 148.966C234.123 149.132 234.41 149.305 234.611 149.562C234.812 149.819 234.911 150.182 234.77 150.477C234.676 150.673 234.499 150.803 234.32 150.935C234.174 151.042 234.026 151.15 233.923 151.296C233.791 151.484 233.742 151.718 233.693 151.95C233.632 152.242 233.572 152.528 233.35 152.711C232.945 153.045 232.343 152.778 231.895 152.504L229.417 150.99C229.167 150.837 228.904 150.67 228.781 150.404C228.658 150.138 228.758 149.75 229.043 149.682ZM232.292 151.186C232.647 151.064 232.932 150.801 233.206 150.545C233.404 150.359 233.139 150.054 232.902 149.921L231.384 149.066C231.225 148.977 231.005 148.895 230.882 149.029C230.487 149.461 230.429 150.165 230.75 150.655C231.07 151.145 231.738 151.375 232.292 151.186ZM214.873 151.133C214.534 151.037 214.188 150.939 213.91 150.75C213.479 150.456 212.879 150.527 212.426 150.787C211.974 151.047 211.637 151.463 211.31 151.87C211.129 152.096 210.943 152.332 210.874 152.613C210.804 152.894 210.887 153.235 211.14 153.376L213.787 154.851C213.988 154.963 214.212 155.078 214.436 155.029C214.659 154.979 214.813 154.781 214.947 154.596L215.628 153.659C216.007 153.137 216.404 152.472 216.126 151.89C215.904 151.423 215.396 151.28 214.873 151.133ZM214.035 153.56C213.897 153.597 213.755 153.53 213.627 153.465L211.823 152.547C212.17 152.057 212.83 151.868 213.428 151.928C214.026 151.987 214.581 152.253 215.122 152.515L214.293 153.375C214.219 153.453 214.139 153.533 214.035 153.56ZM201.541 116.857C201.82 117.283 201.732 117.852 201.547 118.326C201.303 118.951 200.89 119.53 200.307 119.863C199.725 120.196 198.959 120.244 198.391 119.887C197.823 119.529 197.538 118.735 197.842 118.136C197.912 117.998 198.008 117.876 198.104 117.753L198.105 117.753C198.197 117.636 198.288 117.518 198.358 117.387C198.404 117.301 198.439 117.209 198.475 117.118L198.475 117.118L198.475 117.118C198.526 116.986 198.578 116.854 198.659 116.739C198.948 116.329 199.517 116.249 200.019 116.256C200.587 116.264 201.229 116.382 201.541 116.857ZM200.272 117.128C199.494 117.118 198.765 117.77 198.688 118.544C198.656 118.86 198.79 119.253 199.105 119.297C199.341 119.33 199.548 119.147 199.707 118.97C200.042 118.594 200.33 118.176 200.562 117.728C200.64 117.578 200.708 117.385 200.606 117.251C200.532 117.153 200.395 117.129 200.272 117.128ZM218.872 96.8441C218.812 96.132 218.336 95.4316 217.644 95.2532C216.765 95.0266 215.913 95.6455 215.215 96.2261C215.008 96.3979 214.793 96.5826 214.705 96.8365C214.557 97.2673 214.824 97.7213 215.087 98.0935C215.388 98.5197 215.709 98.9481 216.149 99.2299C216.588 99.5116 217.173 99.6209 217.634 99.3761C217.869 99.2514 218.052 99.0475 218.211 98.8342C218.637 98.2609 218.932 97.5563 218.872 96.8441ZM216.923 98.6698C216.625 98.7145 216.316 98.5942 216.096 98.3877C215.768 98.0783 215.637 97.5809 215.752 97.1445C215.873 96.6849 216.259 96.3054 216.72 96.192C217.182 96.0787 217.699 96.2363 218.019 96.5875C218.007 96.6833 217.997 96.7796 217.987 96.876C217.953 97.2034 217.919 97.5315 217.806 97.8391C217.659 98.2372 217.342 98.6069 216.923 98.6698ZM193.261 209.749C194.882 204.016 197.942 198.812 200.971 193.681C201.483 192.813 202.117 191.858 203.111 191.693C203.502 191.629 203.709 191.203 203.842 190.829C205.485 186.222 205.643 181.098 204.288 176.398C203.901 175.057 204.378 173.634 204.849 172.32L208.496 162.145C208.117 161.489 207.4 161.201 206.673 160.909C206.065 160.664 205.451 160.417 205.022 159.95C203.811 158.631 204.724 156.532 205.673 155.013L222.299 128.388C222.977 127.301 224.467 126.96 225.716 127.249C226.965 127.539 228.031 128.325 229.058 129.092L241.184 138.149C243.353 139.769 245.748 141.839 245.623 144.543C245.554 146.04 244.697 147.37 243.869 148.619L234.259 163.099C233.017 164.972 232.866 167.248 232.714 169.535C232.646 170.569 232.577 171.606 232.408 172.608C231.579 177.497 228.323 181.546 225.203 185.425L225.201 185.427C225.078 185.581 224.954 185.735 224.831 185.888C221.603 189.909 218.372 194.399 218.191 199.553C217.975 205.695 215.057 211.694 210.358 215.656L214.447 205.736C215.419 203.378 216.319 200.443 214.692 198.478C213.956 197.588 212.843 197.118 211.775 196.68L205.425 194.074C204.987 193.895 204.536 193.712 204.062 193.709C202.587 193.7 201.71 195.3 201.111 196.649C199.042 201.314 196.399 205.724 193.261 209.749ZM214.142 196.279C215.23 196.682 216.763 196.926 217.279 195.886C219.776 190.853 222.342 185.722 226.317 181.75C228.608 179.461 230.012 176.406 230.807 173.267C231.601 170.127 231.826 166.875 232.048 163.644C231.084 163.995 231 165.297 231.004 166.323C231.013 168.586 230.617 170.85 229.841 172.976C229.679 173.421 229.461 173.902 229.026 174.089C228.591 174.277 227.951 173.9 228.097 173.449C229.218 169.992 229.636 166.307 229.318 162.686C229.219 161.563 229.01 160.362 228.212 159.567C228.299 161.339 228.385 163.12 228.205 164.886C227.895 167.941 226.799 170.854 225.714 173.726C225.573 174.099 225.402 174.506 225.044 174.681C224.686 174.856 224.13 174.578 224.224 174.191L225.85 167.47C226.743 163.774 227.623 159.799 226.239 156.258C225.542 156.211 225.378 157.208 225.44 157.904C225.866 162.669 224.549 167.399 223.244 172.003C223.092 172.54 222.553 173.212 222.134 172.843C221.954 172.683 221.945 172.409 221.96 172.168C222.042 170.814 222.413 169.504 222.784 168.195C222.899 167.789 223.014 167.382 223.12 166.975C224.101 163.221 224.351 159.277 223.852 155.429C222.994 156.53 222.629 157.926 222.285 159.279L220.245 167.312C219.322 170.943 218.143 174.935 214.945 176.886C214.69 177.041 214.394 177.186 214.104 177.117C213.743 177.031 213.539 176.658 213.388 176.32C211.347 171.721 211.092 166.357 212.688 161.585C212.785 161.296 212.49 160.993 212.186 160.969C211.881 160.945 211.596 161.111 211.347 161.287C208.728 163.135 207.725 166.483 206.892 169.578L205.784 173.694C205.622 174.295 205.459 174.901 205.425 175.523C205.374 176.468 205.621 177.392 205.866 178.312C205.923 178.525 205.98 178.738 206.033 178.95C207.098 183.226 206.617 187.87 204.697 191.837C204.414 192.422 205.162 192.954 205.771 193.179L214.142 196.279ZM218.279 157C217.843 156.699 217.375 156.355 217.24 155.843C217.033 155.056 217.782 154.266 218.588 154.16C219.394 154.055 220.183 154.444 220.851 154.907C221.792 155.56 222.984 154.565 223.688 153.662C222.738 153.093 221.831 152.21 221.793 151.103C221.756 149.996 223.102 148.941 223.998 149.593C224.345 149.846 224.766 150 225.182 150.153C225.805 150.383 226.418 150.608 226.759 151.154C227.148 151.774 227.01 152.613 226.614 153.23C226.218 153.846 225.609 154.288 225.015 154.716C225.868 154.8 226.699 155.104 227.406 155.591L228.175 153.348C228.235 153.174 228.3 152.992 228.437 152.869C228.701 152.633 229.111 152.706 229.449 152.813C230.335 153.094 231.204 153.534 231.79 154.256C232.375 154.979 232.618 156.029 232.21 156.865C231.801 157.7 230.647 158.145 229.865 157.641C229.703 157.537 229.54 157.397 229.377 157.258L229.377 157.258C228.941 156.884 228.506 156.511 228.085 156.81C229.37 157.81 230.252 159.313 230.499 160.921C234.542 154.763 238.542 148.575 242.498 142.36C242.876 141.767 243.181 140.832 242.566 140.49C239.938 139.033 237.616 137.081 235.3 135.134C232.375 132.676 229.46 130.225 225.951 128.786C225.728 128.695 225.485 128.606 225.252 128.668C225.008 128.732 224.837 128.944 224.683 129.144C218.149 137.673 212.285 146.714 207.162 156.158C206.448 157.476 207.404 159.046 208.319 160.233C208.776 160.826 209.659 161.453 210.157 160.894C210.786 160.19 211.816 159.787 212.706 160.102C213.596 160.416 214.15 161.574 213.666 162.384C213.316 162.97 214.001 163.621 214.6 163.949C215.796 164.605 217.023 165.204 218.275 165.744C218.45 165.819 218.652 165.892 218.822 165.807C218.983 165.727 219.049 165.534 219.099 165.361L220.487 160.586C220.715 159.801 220.868 158.782 220.194 158.318L218.279 157ZM243.101 143.616C242.917 143.553 242.749 143.737 242.64 143.899L232.251 159.451C231.971 159.869 231.685 160.305 231.604 160.801C231.522 161.298 231.704 161.875 232.156 162.096C232.905 162.462 233.687 161.693 234.168 161.012L243.821 147.331C244.537 146.315 243.931 144.926 243.317 143.845C243.264 143.752 243.203 143.651 243.101 143.616ZM213.85 164.383C213.667 164.25 213.393 164.33 213.24 164.496C213.087 164.663 213.024 164.891 212.967 165.11C212.825 165.648 212.682 166.192 212.661 166.749C212.64 167.305 212.741 167.858 212.842 168.406L213.837 173.814C213.878 174.041 213.927 174.282 214.088 174.447C214.249 174.612 214.562 174.648 214.692 174.458C216.165 172.304 217.658 170.108 218.428 167.616C218.524 167.306 218.552 166.87 218.248 166.756C216.684 166.167 215.2 165.367 213.85 164.383ZM225.339 151.04C224.84 150.565 224.181 150.262 223.496 150.192C222.871 150.128 222.511 151.005 222.796 151.565C223.081 152.124 223.711 152.401 224.294 152.635C224.705 152.8 225.204 152.955 225.563 152.695C226.078 152.321 225.8 151.479 225.339 151.04ZM221.237 157.307C221.441 157.162 221.467 156.866 221.41 156.623C221.196 155.708 220.192 155.24 219.291 154.972C218.942 154.869 218.509 154.796 218.263 155.064C218.058 155.288 218.101 155.659 218.278 155.906C218.455 156.153 218.732 156.305 219 156.449L220.391 157.198C220.656 157.341 220.993 157.481 221.237 157.307ZM229.157 154.007C228.863 154.402 228.893 154.976 229.139 155.403C229.385 155.829 229.81 156.126 230.26 156.327C230.414 156.397 230.583 156.457 230.748 156.424C230.891 156.396 231.012 156.3 231.1 156.184C231.421 155.754 231.265 155.107 230.897 154.717C230.528 154.326 230.004 154.131 229.5 153.948C229.412 153.916 229.311 153.886 229.232 153.934C229.202 153.952 229.178 153.979 229.157 154.007ZM89.5606 189.776C89.7534 188.352 90.0234 186.785 91.1424 185.883C92.0347 185.163 93.2597 185.049 94.4055 185.027C98.1592 184.954 101.925 185.564 105.464 186.817C106.584 187.213 107.756 187.735 108.368 188.753C109.031 189.854 108.869 191.244 108.686 192.517L105.843 212.265C107.803 206.546 109.21 200.637 110.039 194.649C110.425 191.855 110.56 188.649 108.61 186.611C105.566 183.43 105.649 178.899 105.734 174.292C105.807 170.315 105.88 166.282 103.946 163.012C103.315 161.945 104.722 160.843 105.892 160.433C111.05 158.627 116.549 157.799 122.01 158.004C123.011 165.913 123.282 173.915 122.818 181.873C122.714 183.658 125.245 184.119 127.022 183.922L188.67 177.086C188.979 177.051 189.312 177.005 189.531 176.786C189.786 176.529 189.799 176.125 189.795 175.762C189.65 161.318 189.234 146.877 188.549 132.449C188.522 131.885 188.45 131.239 187.984 130.922C187.634 130.684 187.175 130.715 186.754 130.756L142.752 135.022C145.643 121.388 148.55 107.499 147.231 93.625C137.612 100.038 125.2 99.9903 113.659 99.3111C113.179 99.2829 112.698 99.2542 112.217 99.2254C101.11 98.5616 89.528 97.8694 79.5433 102.674C84.7713 116.535 90.0593 131.666 85.7135 145.829C85.329 147.082 84.8716 148.313 84.4143 149.543C83.7093 151.44 83.0048 153.335 82.5691 155.309C81.8509 158.562 81.9588 162.204 83.884 164.923C86.6718 168.86 88.8872 173.337 89.3925 178.134C89.872 182.687 88.8006 187.202 87.7304 191.712C86.6122 196.425 85.4953 201.131 86.1502 205.87C86.261 206.671 86.4611 207.533 87.0887 208.044L89.5606 189.776ZM93.9223 132.566C95.0881 132.607 95.5515 134.071 95.7006 135.228L96.8809 144.389C94.5763 143.195 91.3341 145.223 91.4003 147.818C89.4583 144.069 89.1633 139.774 88.8712 135.521C88.8077 134.596 88.7443 133.673 88.6641 132.758C87.8067 122.975 84.8582 113.512 81.9279 104.139C81.5101 102.802 83.3149 101.935 84.7005 101.732C93.793 100.399 102.995 100.583 112.202 100.767C116.375 100.851 120.549 100.934 124.714 100.876C132.115 100.774 139.946 100.073 145.949 95.744C147.298 104.739 145.464 113.815 143.654 122.776C143.409 123.988 143.164 125.198 142.928 126.405C140.946 136.54 139.597 147.342 143.389 156.946C143.549 157.351 143.004 157.656 142.578 157.745C139.459 158.396 136.234 158.536 133.07 158.158C131.713 157.996 130.371 157.74 129.028 157.484C128.016 157.292 127.004 157.099 125.987 156.946C118.323 155.796 110.325 156.99 103.331 160.326C103.051 160.46 102.717 160.397 102.424 160.296C101.007 159.806 99.9971 158.497 99.4929 157.085C98.9888 155.674 98.9166 154.15 98.8493 152.653L98.5672 146.373C98.5571 146.147 98.6162 145.841 98.842 145.834C111.093 145.451 123.331 144.625 135.522 143.358C135.007 140.474 134.955 137.507 135.371 134.606C135.634 132.775 133.912 131.106 132.078 130.86C130.245 130.615 128.431 131.446 126.909 132.497C126.34 132.89 125.793 133.317 125.246 133.744C124.332 134.458 123.418 135.171 122.401 135.724C121.735 136.085 120.934 136.377 120.235 136.085C119.38 135.727 119.093 134.709 118.837 133.801C118.821 133.744 118.805 133.687 118.789 133.631C118.455 132.461 117.904 131.296 116.935 130.56C115.966 129.824 114.503 129.641 113.547 130.393C112.729 131.036 112.47 132.15 112.333 133.181C112.321 133.273 112.309 133.365 112.298 133.458C112.176 134.406 112.051 135.386 111.485 136.146C110.863 136.981 109.477 137.339 108.796 136.552C107.449 134.997 105.085 134.671 103.101 135.217C101.117 135.763 99.4193 137.023 97.7734 138.258C96.7804 136.704 96.6983 134.612 97.5664 132.985L97.5809 132.957C97.7441 132.652 97.9316 132.301 97.7873 131.99C97.6979 131.798 97.5008 131.679 97.3056 131.596C96.1383 131.095 94.6468 131.523 93.9223 132.566ZM129.001 158.828C129.654 158.958 130.456 159.249 130.496 159.913C130.881 166.249 135.917 171.942 142.107 173.345C148.298 174.747 155.159 171.911 158.768 166.69C162.378 161.469 162.66 154.216 159.701 148.601C156.526 142.579 148.812 139.381 142.308 141.391C142.007 140.06 142.041 138.654 142.406 137.34C142.474 137.096 142.563 136.841 142.76 136.681C142.952 136.525 143.212 136.49 143.458 136.46L161.779 134.254C163.39 134.06 165.005 133.866 166.627 133.852C173.603 133.795 180.574 133.099 187.424 131.777C188.489 146.07 188.99 160.404 188.925 174.736C188.922 175.416 188.715 176.32 188.036 176.34C176.505 176.675 165.066 178.192 153.622 179.709C145.933 180.729 138.242 181.749 130.521 182.411C128.8 182.558 127.067 182.688 125.347 182.524C125.036 182.494 124.684 182.431 124.515 182.167C124.412 182.009 124.401 181.81 124.392 181.621L123.364 158.697C123.351 158.401 123.369 158.044 123.625 157.895C123.795 157.797 124.008 157.832 124.201 157.87L129.001 158.828ZM97.4555 153.52C97.2733 154.711 97.0683 156.05 97.8483 156.951C100.758 160.311 103.78 163.901 104.554 168.278C104.915 170.322 104.76 172.426 104.605 174.521C104.411 177.16 104.217 179.785 105.057 182.261C105.079 182.325 105.102 182.39 105.125 182.455C105.279 182.896 105.436 183.346 105.386 183.807C105.329 184.335 104.87 184.867 104.346 184.777L98.2639 183.728C96.2496 183.38 94.1216 183.042 92.2083 183.761C91.8384 183.9 91.4126 183.656 91.2144 183.314C91.0162 182.973 90.9901 182.561 90.9729 182.166C90.9521 181.69 90.9366 181.21 90.9209 180.728C90.8227 177.7 90.7226 174.615 89.3211 171.962L84.8494 163.498C84.1893 162.248 83.5137 160.943 83.4682 159.53C83.4377 158.587 83.6924 157.66 83.9448 156.751L86.1756 148.715C86.6453 147.024 87.1422 145.278 88.2544 143.92C90.9563 148.504 91.223 154.434 88.9432 159.242C88.7323 159.687 89.3766 160.145 89.8358 159.968C90.2951 159.79 90.5282 159.287 90.6901 158.822C91.3386 156.96 91.566 154.997 91.7937 153.031C91.978 151.441 92.1624 149.849 92.5703 148.306C92.8202 147.362 93.1806 146.397 93.9102 145.747C94.6397 145.097 95.8296 144.874 96.5941 145.483C97.1791 145.949 97.3693 146.745 97.4806 147.484C97.7742 149.436 97.7729 151.431 97.4766 153.382C97.4697 153.428 97.4626 153.474 97.4555 153.52ZM107.95 137.656C108.847 138.343 109.725 139.015 110.801 138.89C112.168 138.732 113.02 137.324 113.417 136.006C113.504 135.718 113.581 135.423 113.659 135.127C113.936 134.071 114.214 133.007 114.939 132.212C115.149 131.982 115.453 131.767 115.752 131.857C115.994 131.93 116.135 132.176 116.248 132.403C116.407 132.724 116.558 133.051 116.709 133.377C117.134 134.299 117.56 135.221 118.178 136.022C119.015 137.107 120.318 137.96 121.68 137.811C122.898 137.678 123.849 136.815 124.777 135.974C124.967 135.802 125.156 135.631 125.347 135.467C127.581 133.54 130.491 132.413 133.44 132.332C133.042 133.326 133.307 134.41 133.568 135.474C133.63 135.73 133.693 135.985 133.745 136.238C134.162 138.228 133.951 140.345 133.151 142.214L113.454 143.731C108.855 144.085 104.245 144.439 99.6362 144.277C99.3451 144.267 99.0465 144.253 98.7786 144.138C98.2728 143.922 97.9722 143.382 97.8633 142.842C97.6192 141.633 98.1768 140.373 99.0214 139.474C99.8659 138.574 100.969 137.968 102.052 137.378C103.179 136.763 104.431 136.128 105.688 136.39C106.524 136.565 107.243 137.115 107.95 137.656ZM145.25 166.35C142.266 166.288 139.68 163.854 138.794 161.003C138.614 160.421 138.99 159.783 139.509 159.464C140.028 159.144 140.655 159.069 141.261 159.001L145.633 158.509C144.304 155.925 143.357 153.144 142.833 150.285C142.785 150.026 142.742 149.753 142.824 149.503C142.968 149.063 143.442 148.831 143.881 148.684C147.433 147.49 151.699 148.939 153.788 152.051C155.877 155.162 155.603 159.66 153.151 162.494C152.089 163.721 150.698 164.627 149.233 165.324C147.984 165.918 146.633 166.378 145.25 166.35ZM159.41 150.988C159.941 152.742 160.095 154.586 160.168 156.416C158.975 156.236 157.771 156.133 156.565 156.11C156.329 153.031 154.28 150.249 151.586 148.74C148.892 147.231 145.64 146.905 142.596 147.421C142.57 146.987 142.491 146.535 142.412 146.082C142.203 144.887 141.994 143.691 142.767 142.843C143.234 142.331 143.945 142.126 144.626 141.999C147.73 141.421 151.039 142.026 153.737 143.667C156.435 145.307 158.495 147.966 159.41 150.988ZM137.525 160.693C137.52 160.749 137.515 160.805 137.513 160.859C137.492 161.284 137.691 161.674 137.887 162.061C137.94 162.164 137.992 162.268 138.04 162.371C138.268 162.861 138.378 163.507 137.998 163.89C137.078 164.819 136.265 165.853 135.58 166.966C135.411 167.242 134.994 167.264 134.716 167.1C134.437 166.936 134.265 166.643 134.104 166.363C133.086 164.588 132.043 162.732 131.916 160.69C131.9 160.437 131.928 160.129 132.153 160.011C132.252 159.959 132.369 159.957 132.482 159.957L137.033 159.943C137.142 159.943 137.256 159.944 137.351 159.998C137.574 160.124 137.549 160.419 137.525 160.693Z" fill="#1A1A1A"/>
</svg>
