<svg width="273" height="273" viewBox="0 0 273 273" fill="none" xmlns="http://www.w3.org/2000/svg">
<rect width="273" height="273" rx="136.5" fill="#F9FCF8"/>
<path fill-rule="evenodd" clip-rule="evenodd" d="M76.4706 212.205C76.4706 212.205 18.0966 201.269 14.14 186.837C10.1834 172.406 57.0684 165.453 57.0684 165.453C57.0684 165.453 79.5508 161.652 82.9935 158.571C86.4362 155.491 154.97 156.679 188.083 132.117C221.196 107.555 232.133 95.0995 248.503 109.051C264.872 123.003 260.909 164.369 242.862 188.287C224.814 212.205 153.018 216.191 153.018 216.191L76.4706 212.205Z" fill="#93BCB2"/>
<path fill-rule="evenodd" clip-rule="evenodd" d="M182.316 197.197C182.316 197.197 180.772 198.265 180.04 196.25C179.307 194.234 178.847 192.812 178.847 192.812C178.847 192.812 177.272 191.23 176.449 191.23C175.626 191.23 172.93 189.367 173.207 187.902C173.484 186.438 176.671 186.604 177.577 186.604C178.483 186.604 177.796 184.377 177.796 183.7C177.796 183.024 178.86 177.281 181.389 178.14C183.918 179 185.29 180.511 184.283 183.13C186.92 183.004 189.32 181.789 189.628 186.949C189.418 188.844 189.467 189.281 190.624 190.686C191.781 192.091 192.252 194.205 191.29 194.925C190.328 195.644 188.763 195.92 188.241 196.25C187.719 196.579 187.441 197.297 187.441 198.483C187.441 199.668 185.624 197.603 185.624 197.603L183.918 195.783L182.316 197.197Z" fill="#F9FCF8"/>
<path d="M160.802 131.42C162.557 150.171 164.02 168.95 165.188 187.747C165.326 189.968 165.411 192.378 164.14 194.207C163.287 195.434 161.938 196.216 160.591 196.867C155.663 199.249 150.232 200.398 144.816 201.212C130.054 203.431 114.938 203.297 100.217 200.818C97.3041 200.327 94.3485 199.724 91.7802 198.268C89.2119 196.812 87.0541 194.354 86.6692 191.432C83.4647 167.102 81.6709 142.588 81.2999 118.052C81.273 116.275 81.2105 114.364 80.1429 112.941C78.9864 111.399 76.9199 110.803 75.6136 109.385C73.3601 106.939 74.2078 102.762 76.5722 100.423C78.9365 98.0829 82.3293 97.1543 85.5885 96.4711C95.1102 94.4749 104.911 93.8066 114.616 94.4916C114.903 95.2724 113.725 95.7105 112.891 95.7115C103.773 95.7223 94.6563 96.4669 85.658 97.9358C82.3606 98.474 78.7655 99.2964 76.7681 101.968C85.8543 104.955 95.596 105.126 105.163 105.199C122.263 105.329 139.486 105.227 156.276 101.988C157.771 101.7 159.392 101.308 160.319 100.104C161.246 98.8989 160.809 96.6679 159.297 96.492C146.358 94.9866 133.286 94.6243 120.284 95.4109C119.279 95.4716 117.801 94.869 118.292 93.9935C130.219 93.4283 142.185 93.6906 154.076 94.7779C157.269 95.0699 160.632 95.4879 163.186 97.4205C165.898 99.4715 167.249 103.161 166.501 106.473C165.753 109.784 162.946 112.539 159.615 113.232" fill="#F9FCF8"/>
<path fill-rule="evenodd" clip-rule="evenodd" d="M115.726 93.6142C116.156 81.7981 117.908 69.8793 115.924 58.2233C115.706 56.943 115.44 55.6596 114.927 54.4667C114.06 52.4516 112.48 50.7524 110.534 49.7424C109.937 49.4323 109.272 49.1558 108.907 48.5895C108.543 48.0232 108.727 47.0641 109.391 46.9561C112.113 47.3917 114.333 49.5198 115.561 51.9902C116.789 54.4605 117.176 57.2547 117.458 59.9994C118.449 69.6315 118.368 79.3738 117.216 88.9879C116.824 92.2595 116.322 95.6686 117.413 98.7774C117.084 98.6986 116.755 98.6198 116.426 98.541C115.649 97.0535 115.665 95.2917 115.726 93.6142H115.726Z" fill="#1A1A1A"/>
<path d="M84.8045 212.075C84.1142 212.836 83.0395 213.241 82.01 213.127C81.4918 213.07 81.2126 213.826 81.5094 214.248C81.8061 214.67 82.3848 214.787 82.9059 214.803C83.4271 214.819 83.9746 214.773 84.4442 214.996C82.6828 215.791 80.9213 216.586 79.1599 217.38C74.0898 221.115 81.7652 219.638 83.0318 219.349C81.6195 220.751 80.6444 222.268 81.7295 222.313C80.7559 222.743 83.177 221.67 82.503 222.484C81.8289 223.298 81.612 224.583 82.31 225.378C83.4789 225.364 84.523 224.284 84.4796 223.134C86.716 223.562 89.0115 223.691 91.2828 223.516C92.6023 223.414 93.6069 221.964 93.2792 220.701C92.9514 219.438 91.4332 218.639 90.1655 219.013C91.7955 218.283 93.34 217.369 94.7587 216.293C94.3736 215.716 93.9885 215.138 93.6033 214.561C93.0162 213.68 92.4131 212.783 91.5653 212.14C90.7175 211.498 89.5644 211.148 88.5582 211.505C87.552 211.863 86.8638 213.082 87.3248 214.033C87.0109 214.42 86.3262 214.423 86.0083 214.039C85.6904 213.656 85.8315 212.996 86.2794 212.771C86.6799 212.57 86.7279 211.985 86.4932 211.608C86.2586 211.23 85.8383 211.011 85.4379 210.809C84.3665 210.27 82.9909 209.753 82.0495 210.49C82.4331 210.717 82.8832 210.833 83.3303 210.82C82.7234 211.177 82.1166 211.534 81.5098 211.891C81.2957 212.088 81.7288 212.331 82.0209 212.307C82.9488 212.23 83.8766 212.152 84.8045 212.075Z" fill="#F9FCF8"/>
<path fill-rule="evenodd" clip-rule="evenodd" d="M82.0209 212.306C82.9488 212.229 83.8766 212.152 84.8045 212.075C84.1142 212.836 83.0395 213.24 82.01 213.127C81.4918 213.07 81.2126 213.825 81.5094 214.247C81.8061 214.67 82.3848 214.787 82.9059 214.802C83.427 214.818 83.9746 214.773 84.4442 214.996C82.6828 215.791 80.9213 216.585 79.1599 217.38C80.4508 217.534 81.7689 217.464 83.0355 217.174C81.6232 218.576 78.6965 217.799 77.6789 219.5C79.7081 219.74 81.795 219.491 83.7077 218.782C83.697 219.46 82.892 219.827 82.2094 219.918C81.5268 220.009 80.7383 220.035 80.3105 220.566C80.0328 220.911 79.4844 220.805 79.06 220.667C78.3559 220.437 77.6269 220.192 77.0903 219.688C76.5536 219.184 76.2693 218.34 76.6357 217.704C77.4398 216.31 80.2883 217.135 80.7688 215.603C80.8891 215.22 80.7927 214.807 80.6977 214.417C80.4767 213.509 80.2641 212.575 80.3901 211.65C80.5161 210.724 81.0517 209.796 81.9342 209.455C83.4168 208.881 84.9344 210.118 86.4887 210.462C87.6589 210.721 88.8997 210.461 90.069 210.724C91.752 211.102 92.9869 212.474 94.1017 213.772C94.6072 214.361 95.1304 214.985 95.2816 215.741C95.4328 216.497 95.0615 217.414 94.3016 217.599C93.6109 217.767 93.337 218.629 93.4719 219.317C93.6068 220.005 94.0133 220.613 94.2013 221.289C94.3893 221.965 94.269 222.828 93.6354 223.147C92.2991 223.819 90.8985 224.507 89.398 224.508C88.3929 224.508 87.4105 224.197 86.406 224.166C85.4014 224.135 84.2683 224.487 83.8451 225.385C83.4194 226.287 81.9143 226.084 81.3576 225.253C80.8009 224.422 80.9056 223.338 81.0313 222.351C81.0682 222.061 81.1139 221.751 81.3123 221.534C81.4748 221.356 81.7143 221.269 81.9462 221.197C82.9829 220.879 84.0759 220.738 85.161 220.783C84.1874 221.213 83.177 221.669 82.503 222.484C81.8289 223.298 81.6119 224.583 82.31 225.377C83.4789 225.363 84.523 224.284 84.4796 223.133C86.716 223.562 89.0114 223.691 91.2828 223.515C92.6023 223.413 93.6069 221.963 93.2792 220.7C92.9514 219.438 91.4332 218.638 90.1655 219.012C91.7955 218.283 93.34 217.369 94.7587 216.293C94.3736 215.715 93.9884 215.138 93.6033 214.56C93.0162 213.68 92.413 212.782 91.5652 212.14C90.7174 211.498 89.5644 211.147 88.5582 211.505C87.552 211.862 86.8638 213.082 87.3248 214.032C87.0109 214.419 86.3261 214.423 86.0083 214.039C85.6904 213.655 85.8314 212.995 86.2794 212.77C86.6799 212.569 86.7278 211.985 86.4932 211.607C86.2586 211.23 85.8383 211.01 85.4379 210.809C84.3665 210.27 82.9909 209.752 82.0495 210.49C82.4331 210.716 82.8832 210.832 83.3302 210.82C82.7234 211.177 82.1166 211.533 81.5098 211.89C81.2957 212.087 81.7288 212.33 82.0209 212.306V212.306Z" fill="#1A1A1A"/>
<path fill-rule="evenodd" clip-rule="evenodd" d="M112.738 91.4043C112.645 91.0449 112.781 90.6135 113.111 90.4424C113.219 90.6663 113.327 90.8902 113.434 91.1141C113.209 91.2526 112.985 91.3911 112.76 91.5295L112.738 91.4043Z" fill="#1A1A1A"/>
<path d="M85.8149 216.916C85.958 217.623 85.8746 218.369 85.5782 219.033C86.4051 219.119 87.2436 219.106 88.0671 218.996C87.4957 219.866 86.0309 220.109 85.2462 219.4C84.4614 218.69 84.7704 217.21 85.8149 216.916L85.8149 216.916Z" fill="#F9FCF8"/>
<path fill-rule="evenodd" clip-rule="evenodd" d="M113.717 74.5065C113.399 78.5462 113.266 82.5982 113.32 86.6481C113.331 87.4409 113.358 88.2685 113.769 88.9656C113.891 89.1709 113.58 89.408 113.335 89.3453C113.09 89.2825 112.943 89.0582 112.833 88.8477C111.342 85.9952 112.284 82.6371 112.217 79.4742C112.174 77.4157 111.696 75.2944 112.394 73.3377C112.535 72.9423 113.225 72.9721 113.498 73.3038C113.772 73.6355 113.75 74.0916 113.717 74.5065L113.717 74.5065Z" fill="#1A1A1A"/>
<path d="M65.7563 175.482C66.0265 175.951 66.0303 176.581 65.7659 177.053C65.4779 175.886 63.9584 175.318 63.052 176.038C62.7193 176.302 62.3592 176.722 61.9753 176.554C62.1535 176.484 62.18 176.172 62.0167 176.068C62.7765 174.771 64.6801 174.473 65.7563 175.482H65.7563Z" fill="#1A1A1A"/>
<path fill-rule="evenodd" clip-rule="evenodd" d="M68.732 174.31C68.7678 174.149 68.8035 173.989 68.8346 173.831C69.016 172.908 68.9082 171.734 68.0572 171.336C67.4677 171.06 66.8286 171.289 66.19 171.517C65.951 171.603 65.712 171.688 65.4757 171.747C64.1477 172.079 62.6391 171.456 61.9302 170.282C61.3931 169.393 59.9062 169.858 59.413 170.772C59.1016 171.349 59.0188 172.004 58.9357 172.662C58.8871 173.046 58.8384 173.431 58.744 173.802C58.4878 174.81 57.5736 175.846 56.5793 175.551C55.7874 175.316 54.8637 175.629 54.3774 176.299C53.8911 176.968 53.8766 177.945 54.3429 178.629C54.9094 179.459 55.9328 179.713 56.94 179.964C57.2276 180.035 57.5139 180.106 57.7879 180.191C58.2596 180.335 58.7424 180.554 59.0128 180.968C59.2832 181.381 59.2359 182.032 58.805 182.273C58.0993 182.667 58.1572 183.831 58.7965 184.326C59.4359 184.821 60.3818 184.729 61.0801 184.321C61.7784 183.914 62.2851 183.251 62.7731 182.606C63.5241 181.613 65.1069 181.391 66.1002 182.141C66.0951 181.274 66.5872 180.422 67.3395 179.994C68.0918 179.567 69.0741 179.582 69.813 180.032C70.4602 179.77 70.4174 178.794 70.0163 178.221C69.8533 177.988 69.6527 177.782 69.4527 177.577C69.1605 177.277 68.8698 176.979 68.6996 176.6C68.3798 175.889 68.5582 175.089 68.732 174.31ZM66.2958 179.344C66.4208 179.775 66.352 180.258 66.1116 180.637L66.1813 180.708C65.7661 180.926 65.2353 180.903 64.8402 180.65L65.2592 179.57C65.5744 179.399 65.9382 179.32 66.2958 179.344Z" fill="#F9FCF8"/>
<path fill-rule="evenodd" clip-rule="evenodd" d="M181.61 129.997C181.186 129.495 180.761 128.993 180.318 128.511C178.948 127.024 177.269 125.668 175.271 125.366C175.06 125.334 174.847 125.314 174.634 125.295C174.205 125.254 173.776 125.214 173.369 125.077C172.824 124.893 172.352 124.544 171.914 124.171C171.321 123.667 170.749 123.098 170.176 122.528C168.491 120.851 166.795 119.163 164.508 119.074C162.098 118.98 159.836 121.144 159.82 123.558C159.806 125.582 161.117 127.345 162.366 128.938L184.091 156.639L197.561 173.814C199.3 176.032 201.585 178.486 204.375 178.1C206.882 177.752 208.566 174.807 207.852 172.376C207.577 171.442 207.036 170.627 206.494 169.81C206.022 169.097 205.548 168.383 205.25 167.589C204.774 166.322 204.779 164.962 204.783 163.596C204.786 162.551 204.789 161.502 204.578 160.488C204.109 158.243 202.63 156.358 201.127 154.627C200.313 153.691 199.45 152.304 200.228 151.338C201.154 150.188 200.692 148.49 200.107 147.134C198.23 142.781 195.506 138.796 192.131 135.469C190.686 134.045 188.583 132.658 186.775 133.578C186.013 133.966 185.102 133.49 184.438 132.951C183.378 132.09 182.494 131.044 181.61 129.997ZM197.522 148.028C197.666 148.764 197.529 149.597 196.993 150.122C196.862 150.251 196.697 150.363 196.513 150.37C196.199 150.383 195.961 150.101 195.775 149.847L187.358 138.298C187.034 137.853 187.26 137.162 187.732 136.88C188.203 136.598 188.82 136.665 189.31 136.915C189.799 137.164 190.187 137.572 190.558 137.977C192.82 140.448 194.846 143.134 196.6 145.989C196.993 146.628 197.378 147.291 197.522 148.028Z" fill="#F9FCF8"/>
<path fill-rule="evenodd" clip-rule="evenodd" d="M163.792 190.849C164.09 189.859 164.019 188.801 163.945 187.77L159.65 127.832C160.52 128.773 160.683 130.145 160.802 131.42C162.557 150.171 164.02 168.95 165.188 187.747C165.326 189.968 165.411 192.378 164.14 194.207C163.287 195.434 161.938 196.216 160.591 196.867C155.663 199.249 150.232 200.398 144.816 201.212C130.054 203.431 114.938 203.297 100.217 200.818C97.3041 200.327 94.3485 199.724 91.7802 198.268C89.2119 196.812 87.0541 194.354 86.6692 191.432C83.4647 167.102 81.6709 142.588 81.2999 118.052C81.273 116.275 81.2105 114.364 80.1429 112.941C79.5199 112.11 78.6328 111.554 77.7428 110.996C76.9806 110.518 76.2162 110.039 75.6136 109.385C73.3601 106.939 74.2079 102.762 76.5722 100.423C78.9365 98.0829 82.3293 97.1543 85.5885 96.4711C95.1102 94.4749 104.911 93.8066 114.616 94.4916C114.903 95.2724 113.725 95.7105 112.891 95.7115C103.773 95.7223 94.6563 96.4669 85.658 97.9358C82.3606 98.474 78.7656 99.2964 76.7681 101.968C85.8543 104.955 95.596 105.126 105.163 105.199C122.263 105.329 139.486 105.227 156.276 101.988C157.771 101.7 159.392 101.308 160.319 100.104C161.246 98.8989 160.809 96.6679 159.297 96.492C146.358 94.9866 133.286 94.6243 120.284 95.4109C119.279 95.4716 117.801 94.869 118.292 93.9935C130.219 93.4283 142.185 93.6906 154.076 94.7779C157.269 95.0699 160.632 95.4879 163.186 97.4205C165.898 99.4715 167.249 103.161 166.501 106.473C165.753 109.784 162.946 112.539 159.615 113.232L159.475 121.381C158.567 120.447 158.689 119.035 158.806 117.687C158.829 117.412 158.853 117.14 158.868 116.875C158.953 115.311 158.025 113.271 156.487 113.59C132.151 118.649 106.795 118.769 82.412 113.94C82.4382 137.228 84.6416 160.453 86.8431 183.638C87.1056 186.403 87.3807 189.219 88.4685 191.776C89.5564 194.332 91.6064 196.636 94.3053 197.319C107.133 200.567 120.447 201.896 133.666 201.248C142.698 200.805 151.917 199.365 159.787 194.921C161.489 193.96 163.229 192.717 163.792 190.849ZM75.9056 102.965C75.1037 105.801 76.7569 108.879 79.1483 110.609C81.5397 112.339 84.5251 113 87.4302 113.535C110.805 117.84 134.976 116.614 158.303 112.059C160.08 111.712 161.944 111.302 163.295 110.097C164.791 108.762 165.388 106.634 165.268 104.635C165.147 102.636 164.394 100.731 163.551 98.9138C162.344 101.862 158.719 102.842 155.571 103.376C134.695 106.919 113.391 107.496 92.2423 106.412C89.8377 106.288 87.4291 106.143 85.0528 105.756C81.8964 105.242 78.8103 104.3 75.9056 102.965ZM88.8961 182.08C88.4366 181.679 87.9078 181.217 87.3287 181.369C87.1054 182.866 88.866 183.794 90.3083 184.21C92.2163 184.762 94.2158 185.267 96.167 184.9C96.871 184.768 97.5718 184.512 98.1051 184.03C99.3022 182.949 99.341 181.104 99.2863 179.484C98.7958 164.954 97.993 150.434 96.8788 135.94C96.7006 133.622 96.3746 131.03 94.5636 129.592C93.8182 129.001 92.901 128.683 92.003 128.375L85.7471 126.23C84.9021 125.94 83.7993 125.721 83.2588 126.437C82.9229 126.883 82.9763 127.502 83.0445 128.057C85.0518 144.393 86.1711 160.84 86.3958 177.299C86.4268 179.57 88.4082 181.394 90.5359 182.137C92.8475 182.943 95.3632 182.811 97.8053 182.669C95.1714 184.456 91.3622 184.226 88.9588 182.134L88.8961 182.08ZM97.6643 180.73C96.0127 181.874 93.8165 181.725 91.8446 181.366C90.6766 181.153 89.4303 180.831 88.6735 179.909C87.893 178.958 87.8338 177.62 87.8064 176.385C87.4398 159.877 86.2509 143.386 84.2457 126.998L90.6849 129.22C92.2135 129.748 93.8441 130.35 94.7738 131.683C95.5791 132.837 95.7024 134.323 95.7992 135.732L97.0438 153.84C97.6591 162.792 98.2746 171.778 97.6643 180.73ZM125.071 185.897C123.108 185.371 121.091 185.046 119.062 184.929L118.958 184.923C117.476 184.839 115.803 184.743 114.888 183.59C114.455 183.044 114.276 182.346 114.115 181.669C110.924 168.244 110.62 154.328 110.332 140.534L110.193 133.891C110.183 133.431 110.165 132.944 109.913 132.559C109.66 132.173 109.082 131.962 108.723 132.252L109.303 155.03C109.344 156.624 109.384 158.218 109.478 159.809C109.907 167.128 111.444 174.333 112.977 181.504C113.367 183.328 114.159 185.538 116.018 185.752L125.343 186.828C125.42 186.837 125.5 186.846 125.574 186.823C126.032 186.682 125.533 186.021 125.071 185.897ZM158.848 174.95C158.941 177.545 158.963 180.372 157.389 182.438C159.718 180.922 159.886 177.638 159.804 174.862L159.086 150.545C158.898 144.184 158.698 137.745 156.94 131.629C156.62 130.516 156.219 129.368 155.379 128.57C154.538 127.772 153.131 127.454 152.21 128.158C150.37 129.562 147.926 129.61 145.569 129.657C145.204 129.664 144.841 129.671 144.482 129.683C141.81 129.773 138.702 130.551 137.687 133.022C137.062 134.543 137.438 136.261 137.789 137.872L137.813 137.982C139.739 146.809 140 155.858 140.261 164.913C140.381 169.043 140.5 173.175 140.777 177.288C140.942 179.731 141.201 182.285 142.548 184.331C142.814 184.736 143.133 185.125 143.562 185.351C143.969 185.566 144.44 185.615 144.898 185.652C147.373 185.853 149.924 185.803 152.251 184.941C154.579 184.078 156.666 182.292 157.388 179.918C157.829 178.469 157.743 176.921 157.659 175.408V175.408L157.656 175.36C157.2 167.156 157.089 158.932 157.324 150.719C157.332 150.41 157.342 150.101 157.351 149.791C157.534 143.62 157.723 137.239 155.155 131.651C154.812 130.904 154.394 130.147 153.705 129.697C153.67 129.673 153.633 129.65 153.595 129.627L153.595 129.626C153.327 129.457 153.035 129.273 153.013 128.968C153.556 128.576 154.358 128.764 154.85 129.218C155.342 129.672 155.593 130.324 155.81 130.957C156.655 133.433 157.213 136.007 157.469 138.611C157.607 140.017 157.657 141.43 157.707 142.842L158.848 174.95ZM139.094 132.025C140.059 130.909 141.7 130.741 143.173 130.651L150.967 130.175C151.749 130.128 152.6 130.099 153.237 130.555C153.673 130.867 153.937 131.361 154.162 131.847C155.967 135.752 156.162 140.183 156.251 144.484C156.499 156.474 156.16 168.476 155.237 180.433C155.138 181.722 154.122 182.795 152.948 183.338C151.774 183.881 150.453 183.992 149.164 184.096L145.563 184.384C145.119 184.42 144.648 184.451 144.248 184.253C143.662 183.963 143.404 183.28 143.216 182.654C141.27 176.187 141.262 169.409 141.254 162.613C141.25 159.057 141.245 155.496 140.963 151.974C140.558 146.912 139.576 141.917 138.595 136.934L138.579 136.852C138.255 135.205 137.995 133.295 139.094 132.025ZM174.427 189.605C175.101 190.275 175.967 190.755 176.897 190.976C177.693 191.165 178.205 192.111 177.921 192.869C177.943 192.978 177.77 193.036 177.679 192.97C177.601 192.914 177.57 192.817 177.54 192.724L177.534 192.706L177.525 192.679C177.3 192.013 176.565 191.679 175.911 191.4C174.984 191.006 174.037 190.548 173.42 189.76C172.803 188.972 172.626 187.763 173.278 187.003C173.706 186.506 174.379 186.301 175.014 186.119C175.861 185.877 176.749 185.633 177.611 185.811L177.808 186.198C178.216 186.447 178.79 186.395 179.144 186.075C179.539 185.72 180.14 185.747 180.672 185.795L183.543 186.057C183.684 186.069 183.831 186.085 183.946 186.166C184.285 186.406 184.014 186.988 183.612 187.103C183.323 187.186 183.022 187.129 182.722 187.072C182.605 187.05 182.488 187.028 182.371 187.014C182.227 186.997 182.076 186.994 181.942 187.049C181.54 187.213 181.515 187.77 181.64 188.18L181.648 188.206C181.657 188.235 181.666 188.264 181.676 188.292C181.687 188.326 181.699 188.361 181.71 188.395C181.826 188.741 181.946 189.098 181.813 189.427C181.44 189.593 181.005 189.254 180.893 188.866C180.808 188.571 180.843 188.262 180.879 187.954C180.89 187.857 180.901 187.76 180.909 187.663C180.939 187.261 180.874 186.801 180.544 186.562C179.21 187.19 177.704 187.458 176.232 187.329C176.115 187.318 175.998 187.306 175.882 187.293C175.509 187.253 175.136 187.212 174.764 187.251C174.276 187.301 173.774 187.516 173.525 187.934C173.717 188.054 173.859 188.249 173.914 188.466L178.612 189.373C178.264 189.752 177.672 189.756 177.154 189.732L174.427 189.605ZM132.114 177.204C131.164 165.828 130.862 154.399 131.211 142.989L131.219 142.731C131.296 140.23 131.375 137.693 130.72 135.281C130.043 132.785 128.437 130.396 126.018 129.453C124.613 128.906 123.066 128.885 121.557 128.871C117.63 128.834 113.667 128.801 109.82 129.584C108.545 129.843 107.15 130.296 106.538 131.438C106.114 132.229 106.166 133.178 106.229 134.073L109.654 182.731C109.72 183.665 109.804 184.653 110.353 185.414C110.924 186.204 111.888 186.599 112.816 186.905C116.753 188.202 120.988 188.596 125.098 188.045C124.723 187.515 123.999 187.393 123.353 187.315L115.324 186.344C114.515 186.247 113.682 186.141 112.975 185.737C111.265 184.761 110.919 182.497 110.759 180.542C109.477 164.863 108.196 149.181 107.521 133.465C107.484 132.614 107.526 131.604 108.24 131.135C108.602 130.897 109.057 130.863 109.49 130.835L121.295 130.09C122.628 130.006 124.006 129.928 125.261 130.383C126.999 131.013 128.243 132.591 128.953 134.291C130.035 136.885 130.058 139.78 130.022 142.588C129.996 144.61 129.948 146.633 129.9 148.658V148.658V148.658C129.718 156.396 129.535 164.142 130.564 171.803C130.614 172.174 130.666 172.548 130.719 172.925V172.925C131.331 177.323 131.984 182.018 129.607 185.699L129.567 185.761C129.39 186.035 129.204 186.32 129.195 186.643C129.186 186.991 129.499 187.368 129.835 187.275C129.968 187.239 130.072 187.141 130.168 187.043C132.589 184.568 132.402 180.646 132.114 177.204ZM113.817 100.6C115.355 100.66 116.989 101.031 118.049 102.184C118.255 102.408 118.439 102.661 118.622 102.913C119.004 103.438 119.384 103.96 119.957 104.215C119.08 103.9 118.121 103.828 117.209 104.009C116.892 104.072 116.581 104.164 116.27 104.257C115.778 104.402 115.288 104.548 114.779 104.576L115.795 103.684C116.158 103.365 116.569 103.028 117.046 103.044C117.124 102.235 116.498 101.465 115.737 101.253C114.976 101.041 114.144 101.309 113.519 101.804C112.893 102.298 112.446 102.995 112.075 103.712C111.927 103.998 111.726 104.331 111.413 104.328C111.153 104.196 111.163 103.802 111.289 103.533C111.326 103.456 111.369 103.38 111.412 103.305C111.518 103.118 111.624 102.932 111.631 102.72C111.648 102.179 111.052 101.87 110.554 101.699C110.058 101.528 109.456 101.376 109.056 101.724C108.766 101.977 108.698 102.404 108.65 102.794L108.486 104.117C107.633 104.416 106.692 104.443 105.824 104.193C106.851 103.553 107.981 102.763 108.171 101.541C109.968 100.847 111.899 100.525 113.817 100.6ZM68.8346 173.831C69.016 172.908 68.9082 171.734 68.0572 171.336C67.4677 171.06 66.8286 171.289 66.19 171.517C65.951 171.603 65.712 171.688 65.4757 171.747C64.1477 172.079 62.6391 171.456 61.9302 170.282C61.3931 169.393 59.9062 169.857 59.413 170.772C59.1016 171.349 59.0188 172.004 58.9357 172.662C58.8871 173.046 58.8384 173.431 58.744 173.802C58.4878 174.81 57.5736 175.846 56.5793 175.551C55.7874 175.316 54.8637 175.629 54.3774 176.299C53.8911 176.968 53.8766 177.945 54.3429 178.629C54.9094 179.459 55.9328 179.713 56.94 179.964C57.2276 180.035 57.5139 180.106 57.7879 180.19C58.2596 180.335 58.7424 180.554 59.0128 180.968C59.2832 181.381 59.2359 182.032 58.805 182.273C58.0993 182.667 58.1572 183.831 58.7965 184.326C59.4359 184.821 60.3818 184.729 61.0801 184.321C61.7784 183.914 62.2851 183.251 62.7731 182.606C63.5241 181.613 65.1069 181.391 66.1002 182.141C66.0951 181.274 66.5872 180.422 67.3395 179.994C68.0918 179.567 69.0741 179.582 69.813 180.032C70.4602 179.77 70.4174 178.793 70.0163 178.221C69.8533 177.988 69.6527 177.782 69.4527 177.577C69.1605 177.277 68.8698 176.979 68.6996 176.6C68.3798 175.889 68.5582 175.089 68.732 174.31C68.7678 174.149 68.8035 173.989 68.8346 173.831ZM66.5824 172.236C67.1006 172.117 67.7189 172.177 68.0515 172.593C68.4838 173.133 68.1991 173.791 67.9017 174.477C67.659 175.037 67.4079 175.617 67.531 176.168C67.6285 176.605 67.9514 176.95 68.2613 177.272L69.7291 178.797C69.1075 179.374 68.2484 179.138 67.3668 178.896C66.574 178.677 65.7631 178.454 65.0904 178.814C64.598 179.077 64.3151 179.592 64.0425 180.088C64.0102 180.147 63.9781 180.205 63.9459 180.263C63.097 181.781 61.8537 183.075 60.3724 183.982C60.1836 184.097 59.9748 184.21 59.7547 184.189C59.2171 184.137 59.0816 183.395 59.2168 182.871C59.376 182.254 59.7004 181.681 60.0221 181.113C60.4865 180.293 60.9451 179.484 60.8922 178.564C60.3272 179.501 59.0986 179.858 58.0172 179.705C56.9359 179.552 55.9624 178.988 55.0199 178.435C54.3691 178.053 54.6021 176.955 55.251 176.57C55.9 176.185 56.7141 176.289 57.4605 176.397C58.2068 176.505 59.0286 176.59 59.6599 176.176C59.3488 174.79 59.4191 173.32 59.8612 171.97C60.0207 171.483 60.2532 170.981 60.6915 170.716C61.1298 170.452 61.8156 170.56 61.9977 171.039C62.4493 172.227 63.8228 172.982 65.0648 172.724C65.3346 172.668 65.5931 172.571 65.8517 172.474L65.8518 172.474C66.0923 172.384 66.3327 172.294 66.5824 172.236ZM66.2958 179.344C66.4208 179.775 66.352 180.258 66.1116 180.637L66.1813 180.707C65.7661 180.925 65.2353 180.903 64.8402 180.65L65.2592 179.57C65.5744 179.399 65.9382 179.32 66.2958 179.344ZM180.615 198.034C179.275 195.876 178.401 193.44 178.068 190.933C178.988 191.167 179.463 192.176 179.615 193.1C179.657 193.358 179.685 193.621 179.713 193.884L179.713 193.884C179.785 194.562 179.857 195.239 180.177 195.834C180.622 196.661 181.823 197.199 182.534 196.579C182.711 196.425 182.845 196.214 182.976 196.007C183.19 195.668 183.399 195.339 183.78 195.282C184.252 195.211 184.637 195.631 184.923 196.008L186.676 198.323C187.135 198.186 187.166 197.698 187.197 197.182C187.217 196.864 187.237 196.535 187.359 196.27C187.639 195.658 188.331 195.56 189.052 195.457C189.558 195.385 190.078 195.31 190.48 195.055C191.203 194.597 191.397 193.589 191.128 192.785C190.859 191.981 190.231 191.347 189.58 190.794C188.637 189.992 188.803 188.69 188.971 187.372C189.132 186.109 189.294 184.832 188.483 183.968C187.35 182.764 185.335 183.405 183.836 184.125L183.199 183.396C184.421 182.95 184.643 181.164 183.846 180.148C183.049 179.132 181.639 178.784 180.335 178.778C180.146 178.777 179.941 178.788 179.796 178.906C179.344 179.275 179.982 179.924 180.528 180.138L183.193 181.184C182.577 181.602 181.764 181.354 180.974 181.114C180.118 180.854 179.29 180.602 178.772 181.217C178.191 181.908 178.804 182.984 179.592 183.435C179.897 183.609 180.228 183.74 180.559 183.87C181.083 184.077 181.604 184.284 182.013 184.659C181.482 184.925 180.879 184.731 180.292 184.542C180.143 184.494 179.995 184.446 179.849 184.407C179.13 184.21 178.088 184.455 178.097 185.19C177.358 184.373 177.553 183.12 177.794 182.052C178.064 180.856 178.356 179.616 179.124 178.653C179.893 177.689 181.286 177.091 182.417 177.603C183.382 178.04 183.833 179.071 184.263 180.054L184.263 180.054C184.33 180.206 184.396 180.356 184.463 180.503C184.965 181.602 185.966 182.767 187.165 182.518C188.253 182.293 189.342 183.103 189.797 184.101C190.252 185.1 190.226 186.237 190.191 187.331C190.157 188.427 190.654 189.432 191.151 190.434L191.151 190.434C191.318 190.771 191.484 191.107 191.63 191.446C192.211 192.795 192.365 194.608 191.181 195.497C190.78 195.798 190.292 195.937 189.803 196.077C189.577 196.141 189.352 196.205 189.134 196.285C188.445 196.539 187.748 197.106 187.806 197.829C187.813 197.924 187.834 198.018 187.855 198.112C187.89 198.272 187.925 198.43 187.895 198.589C187.812 199.037 187.235 199.249 186.791 199.122C186.346 198.995 186.014 198.641 185.705 198.302L183.746 196.151C183.199 197.307 181.91 198.082 180.615 198.034ZM180.318 128.511C178.948 127.024 177.269 125.668 175.271 125.366C175.06 125.334 174.847 125.314 174.634 125.295C174.205 125.254 173.776 125.214 173.369 125.077C172.824 124.892 172.351 124.544 171.914 124.171C171.321 123.667 170.749 123.098 170.176 122.528C168.491 120.851 166.795 119.163 164.508 119.074C162.098 118.98 159.836 121.144 159.82 123.558C159.806 125.582 161.117 127.345 162.366 128.938L184.091 156.639L197.561 173.814C199.3 176.032 201.585 178.486 204.375 178.1C206.882 177.752 208.566 174.807 207.852 172.376C207.577 171.442 207.036 170.627 206.494 169.81C206.022 169.097 205.548 168.383 205.25 167.588C204.774 166.322 204.779 164.962 204.783 163.596C204.786 162.551 204.789 161.502 204.578 160.488C204.109 158.243 202.63 156.358 201.127 154.627C200.313 153.691 199.45 152.304 200.228 151.338C201.154 150.188 200.692 148.49 200.107 147.134C198.23 142.781 195.506 138.796 192.131 135.469C190.686 134.045 188.583 132.658 186.775 133.578C186.013 133.966 185.102 133.49 184.438 132.951C183.377 132.09 182.494 131.044 181.61 129.997C181.186 129.495 180.761 128.993 180.318 128.511ZM161.982 121.222C162.876 120.348 164.226 119.97 165.443 120.253C166.834 120.578 167.911 121.656 168.852 122.732C171.334 125.572 173.427 128.722 175.515 131.865C175.749 132.216 175.982 132.567 176.215 132.917C185.001 146.091 194.609 158.715 204.966 170.691C205.979 171.862 207.072 173.307 206.676 174.806C206.227 176.502 203.993 177.16 202.347 176.559C200.7 175.959 199.529 174.517 198.444 173.139L162.616 127.642C161.905 126.739 161.172 125.791 160.936 124.664C160.68 123.44 161.088 122.097 161.982 121.222ZM191.024 147.783C190.303 146.85 189.53 145.933 188.55 145.278C188.077 144.962 187.544 144.69 187.011 144.418C185.646 143.721 184.284 143.026 183.951 141.608C183.845 141.157 183.869 140.694 183.893 140.229C183.912 139.866 183.93 139.503 183.887 139.145C183.817 138.556 183.583 138 183.328 137.465C181.393 133.405 178.07 130.024 174.046 128.023C173.379 127.691 173.793 126.534 174.524 126.39C175.254 126.246 175.951 126.72 176.533 127.186C182.287 131.788 186.492 137.869 190.709 143.969C193.283 147.691 195.862 151.42 198.8 154.824C199.083 155.152 199.369 155.477 199.656 155.803C201.255 157.619 202.866 159.448 203.825 161.656C202.565 161.881 201.473 162.872 201.125 164.106C199.025 162.126 197.756 159.487 196.494 156.863C196.171 156.19 195.847 155.518 195.511 154.859C194.24 152.367 192.735 149.995 191.024 147.783ZM196.993 150.122C196.861 150.251 196.697 150.363 196.513 150.37C196.199 150.383 195.961 150.101 195.775 149.847L187.358 138.298C187.034 137.853 187.26 137.162 187.732 136.88C188.203 136.598 188.82 136.665 189.309 136.915C189.799 137.164 190.187 137.572 190.558 137.977C192.82 140.448 194.846 143.134 196.6 145.989C196.993 146.628 197.378 147.291 197.522 148.028C197.666 148.764 197.528 149.597 196.993 150.122ZM198.225 148.99C198.376 148.397 198.12 147.783 197.856 147.231C195.95 143.26 193.276 139.661 190.026 136.693C189.5 136.212 188.815 135.715 188.138 135.938C187.888 136.02 187.685 136.19 187.481 136.36C187.362 136.459 187.243 136.559 187.114 136.642C186.764 136.866 186.207 136.912 186.008 136.547C185.854 136.264 186.015 135.909 186.23 135.669C186.97 134.841 188.272 134.728 189.313 135.112C190.354 135.496 191.19 136.282 191.976 137.066C194.805 139.892 197.444 143.075 198.68 146.879C199.232 148.578 199.407 150.662 198.167 151.946C198.063 152.052 197.948 152.154 197.808 152.203C197.365 152.358 196.902 151.885 196.892 151.415C196.881 150.946 197.171 150.526 197.472 150.165C197.504 150.127 197.536 150.089 197.569 150.05C197.842 149.727 198.122 149.397 198.225 148.99ZM179.958 133.273C181.104 134.941 182.1 136.711 182.93 138.557C183.044 138.81 183.149 139.127 182.979 139.347C182.856 139.507 182.601 139.542 182.438 139.422C180.05 136.519 177.898 133.422 176.011 130.17C176.18 130.232 176.428 130.141 176.413 129.962C177.932 130.581 179.029 131.92 179.958 133.273ZM188.327 147.349C188.117 147.044 187.939 146.557 188.256 146.367C189.656 147.001 190.614 148.308 191.486 149.573C192.758 151.418 193.988 153.293 195.173 155.195C195.457 155.651 195.702 156.334 195.266 156.647C194.523 156.31 194.023 155.607 193.559 154.934L188.327 147.349ZM202.238 164.646C202.126 164.597 202.048 164.493 201.996 164.383C201.678 163.718 202.371 162.83 203.092 162.977C203.123 163.624 202.943 164.28 202.586 164.82C202.549 164.734 202.455 164.709 202.36 164.684C202.318 164.673 202.276 164.662 202.238 164.646ZM203.87 166.204C203.65 166.444 203.222 166.443 203.002 166.203C202.769 165.594 203.05 164.834 203.622 164.523L203.87 166.204Z" fill="#1A1A1A"/>
</svg>
